/* XPM */
static char *result[] = {
/* columns rows colors chars-per-pixel */
"60 60 178 2 ",
"   c #010101",
".  c #0A0502",
"X  c #0C0906",
"o  c #000608",
"O  c #0A0A0A",
"+  c #070B0B",
"@  c #110702",
"#  c #130A04",
"$  c #190D05",
"%  c #130C0A",
"&  c #17100E",
"*  c #1B130C",
"=  c #010E12",
"-  c #141414",
";  c #1B1512",
":  c #171919",
">  c #1A1C1B",
",  c #270E00",
"<  c #290C0C",
"1  c #271002",
"2  c #23150B",
"3  c #2B160B",
"4  c #2D190C",
"5  c #331D0E",
"6  c #391E0F",
"7  c #2B1F14",
"8  c #231E1B",
"9  c #201B16",
"0  c #321D10",
"q  c #391D12",
"w  c #37200F",
"e  c #3A220F",
"r  c #20201D",
"t  c #362012",
"y  c #3C2311",
"u  c #3F2814",
"i  c #3C2718",
"p  c #1F2122",
"a  c #232424",
"s  c #272A27",
"d  c #2E2927",
"f  c #262729",
"g  c #272A28",
"h  c #2C2F2D",
"j  c #312E2A",
"k  c #2E302E",
"l  c #393127",
"z  c #2F3332",
"x  c #333633",
"c  c #353937",
"v  c #363C39",
"b  c #393E3C",
"n  c #41210B",
"m  c #422513",
"M  c #442A15",
"N  c #4C2B16",
"B  c #4D2C18",
"V  c #462918",
"C  c #502F16",
"Z  c #512E19",
"A  c #592F1B",
"S  c #493019",
"D  c #553319",
"F  c #5B341C",
"G  c #5E391C",
"H  c #533217",
"J  c #62351D",
"K  c #623B1E",
"L  c #4C3222",
"P  c #6D3725",
"I  c #663B20",
"U  c #6A3B21",
"Y  c #733A26",
"T  c #7D3F29",
"R  c #773C29",
"E  c #3C413E",
"W  c #4E473E",
"Q  c #40433D",
"!  c #744223",
"~  c #7B4424",
"^  c #7D452A",
"/  c #7B4825",
"(  c #795434",
")  c #3E4341",
"_  c #424643",
"`  c #444945",
"'  c #4C4F47",
"]  c #464B49",
"[  c #4A4E4B",
"{  c #4D514D",
"}  c #595247",
"|  c #51554F",
" . c #4F5451",
".. c #515652",
"X. c #555A55",
"o. c #595D56",
"O. c #555D5A",
"+. c #595E59",
"@. c #5D625C",
"#. c #61655E",
"$. c #686A5F",
"%. c #656256",
"&. c #5F6561",
"*. c #626660",
"=. c #656A63",
"-. c #6A6D65",
";. c #676E69",
":. c #696F69",
">. c #6D7167",
",. c #6E736B",
"<. c #72766C",
"1. c #75796E",
"2. c #787B6F",
"3. c #6B7672",
"4. c #717772",
"5. c #767A72",
"6. c #7A7D73",
"7. c #787F78",
"8. c #804228",
"9. c #88462D",
"0. c #894C2B",
"q. c #844C26",
"w. c #895426",
"e. c #855128",
"r. c #8B532B",
"t. c #845026",
"y. c #93562E",
"u. c #99572E",
"i. c #93592B",
"p. c #985D2D",
"a. c #914D30",
"s. c #935531",
"d. c #9B5732",
"f. c #955931",
"g. c #9B5D32",
"h. c #A25C34",
"j. c #A36333",
"k. c #A96735",
"l. c #AA6B36",
"z. c #AE6B39",
"x. c #AE643B",
"c. c #B1663C",
"v. c #B46B3E",
"b. c #BB6E3C",
"n. c #B26635",
"m. c #AF7138",
"M. c #B2763A",
"N. c #B57A3D",
"B. c #BB7E3E",
"V. c #B96F41",
"C. c #B77040",
"Z. c #BD7342",
"A. c #BD7F40",
"S. c #C37543",
"D. c #C67944",
"F. c #CA7C46",
"G. c #7D8176",
"H. c #768078",
"J. c #7D837A",
"K. c #BE803F",
"L. c #818376",
"P. c #82857B",
"I. c #85897E",
"U. c #8A8B7D",
"Y. c #CF8148",
"T. c #C28141",
"R. c #808680",
"E. c #858A82",
"W. c #898D83",
"Q. c #8D9185",
"!. c #8D9389",
"~. c #92978B",
"^. c #94998E",
"/. c #919386",
"(. c #969B91",
"). c #989E93",
"_. c #9CA197",
"`. c None",
/* pixels */
"`.`.`.`.`.`.`.`.`.`.`.`.`.`.`.`.`.`.`.`.`.`.`.`.`.`.`.`.`.`.`.`.`.`.`.`.`.`.`.`.`.`.`.`.`.`.`.`.`.`.`.`.`.`.`.`.`.`.`.`.",
"`.`.`.`.`.`.`.`.`.`.`.`.`.`.`.`.`.`.`.`.`.`.`.`.`.`.`.`.`.`.`.`.`.`.`.`.`.`.`.`.`.`.`.`.`.`.`.`.`.`.`.`.`.`.`.`.`.`.`.`.",
"`.`.`.`.`.`.`.`.`.`.`.`.`.`.`.`.`.`.`.`.`.`.`.`.`.`.5.;.;.;.,.;.,.3.`.`.`.`.`.`.`.`.`.`.`.`.`.`.`.`.`.`.`.`.`.`.`.`.`.`.",
"`.`.`.`.`.`.`.`.`.`.`.`.`.`.`.`.`.`.`.`.`.`.`.`.`.{ (.R.R.E.E.E.W.!.{ `.`.`.`.`.`.`.`.`.`.`.`.`.`.`.`.`.`.`.`.`.`.`.`.`.",
"`.`.`.`.`.`.`.`.`.`.`.`.`.`.`.`.`.`.`.`.`.`.`.`.) W.W.I.W.I.E.L.5.6.5. .`.`.`.`.`.`.`.`.`.`.`.`.`.`.`.`.`.`.`.`.`.`.`.`.",
"`.`.`.`.`.`.`.`.`.`.`.`.`.`.`.`.`.`.`.`.`.`.`.`.] 6.6.L.6.6.P.,.#.<.@.`.`.`.`.`.`.`.`.`.`.`.`.`.`.`.`.`.`.`.`.`.`.`.`.`.",
"`.`.`.`.`.`.`.`.`.`.`.`.`.`.`.`.`.`.`.`.`.`.`.`.`.o.I.5.6.6.P.<.#.5.` `.`.`.`.`.`.`.`.`.`.`.`.`.`.`.`.`.`.`.`.`.`.`.`.`.",
"`.`.`.`.`.`.`.`.`.`.`.`.`.`.`.`.`.`.`.`.`.`.`.`.`._ I.2.6.5.J.<.-.,.) `.`.`.`.`.`.`.`.`.`.`.`.`.`.`.`.`.`.`.`.`.`.`.`.`.",
"`.`.`.`.`.`.`.`.`.`.`.`.`.`.`.`.`.`.`.`.`.`.`.E X.{ <.6.G.<.J.<.5.<.[ =.c `.`.`.`.`.`.`.`.`.`.`.`.`.`.`.`.`.`.`.`.`.`.`.",
"`.`.`.`.`.`.`.`.`.`.`.`.`.`.`...X.`.`.`.`.`.-.W.<.` =.6.-.-.G.6.G.=.O.!.R.6._ `.`.`.G.o.`.`.`.`.`.`.`.`.`.`.`.`.`.`.`.`.",
"`.`.`.`.`.`.`.`.`.`.`.`.`.`.O.J.!.` `.`.4.Q.I.,.<.) O.G.<.5.5.5.I.@.-.I.>.6.!.7.`.Q ~.).=.`.`.`.`.`.`.`.`.`.`.`.`.`.`.`.",
"`.`.`.`.`.`.`.`.`.`.`.`.`.@.I.J.G.6. .,._.1.<.4.6. .@.Q.P.I.P.6.J.@.,.J.,.=.5.J...I.Q.U.W.O.`.`.`.`.`.`.`.`.`.`.`.`.`.`.",
"`.`.`.`.`.`.`.`.`.`.`.`...J.6.<.<.6.6.X.5.J.H.J.R.&.+.P.E.E.I.I.G.#.R.I.5.<.6.[ =.^.I.I.L.L.@.`.`.`.`.`.`.`.`.`.`.`.`.`.",
"`.`.`.`.`.`.`.`.`.`.`.`.@.I.,.5.H.2.J.@. .J.J.5.' l j x x x x x x g E #.I.I.-.X.Q.P.I.P.I.!.>.`.`.`.`.`.`.`.`.`.`.`.`.`.",
"`.`.`.`.`.`.`.`.`.`.`.`.`...G.G.<.<.1.I.@.@.} V , , ,                   s o.X.P./.L.6.G.Q.;.`.`.`.`.`.`.`.`.`.`.`.`.`.`.",
"`.`.`.`.`.`.`.`.`.`.`.`.`.b X.6.H.1.J.J.X.m n n y 5 5 #                     h ^.U.6.W.U.@.X.`.`.`.`.`.`.`.`.`.`.`.`.`.`.",
"`.`.`.`.`.`.`.`.`.`.`.`.`.6.=.| J.2.H.' B ~ F B y 5 4 . .                     h ,.5.P...#.Q.s `.`.`.`.`.`.`.`.`.`.`.`.`.",
"`.`.`.`.`.`.`.`.`.`.`.`.5.~.I.X.X.3._ G s.s.K B y 5 5 X .                       a =.[ =.I.Q.<.: `.`.`.`.`.`.`.`.`.`.`.`.",
"`.`.`.`.`.`.`.`.`.`.`.z !.6.G.H.[ b S u.C.r.K B y 6 4 .                           : :.~.P.I.Q.o.`.`.`.`.`.`.`.`.`.`.`.`.",
"`.`.`.`.`.`.`.`.`.`.`.=.I.<.G.E.+.K j.g.C.f.I D M w 4 # .                           b L.I.P.I.L.> `.`.`.`.`.`.`.`.`.`.`.",
"`.`.`.`.`.`.`.`.`.`.E ..=.1.I.3.L n.B.g.V.f.K F N 6 4 $ .                             @./.G.>.X.` `.`.`.`.`.`.`.`.`.`.`.",
"`.`.`.`.`.`.`.`.`.`.o.E.@.@.G.%.~ D.B.l.Z.f.G F M 5 4 # .                             : <.#.@.-.*.`.`.`.`.`.`.`.`.`.`.`.",
"`.`.`.`.`.`.`.`.`.`.6.G.G.J.@.( b.Z.K.l.Z.y.K F m 6 4 #                                 b <.G.G.1.E `.`.`.`.`.`.`.`.`.`.",
"`.`.`.`.`.`.`.`.`.`.U.<.>.H.[ w.F.S.T.z.Z.r.G D n 4 3 # .                               h I.<.1.I.{ `.`.`.`.`.`.`.`.`.`.",
"`.`.`.`.`.`.`.`.`.8 Q.2.6.6.{ w.F.F.K.l.D.r.D B M 5 3 @                                 z N.6.2.U.X.`.`.`.`.`.`.`.`.`.`.",
"`.`.`.`.`.`.`.`.`.c #.o.X.@.l p.F.M.N.g.S.f.J Z y 6 7 % .                               = | #.+.=.W `.`.`.`.`.`.`.`.`.`.",
"`.`.`.`.`.`.`.@.!.R.7.6.J.O.4 p.C.C.N.g.D.g.I D M i j 8 $                               = v 5.3.#.,._.^.=.`.`.`.`.`.`.`.",
"`.`.`.`.`.`.] #.5.E.J.E.).=.y p.V.C.C.k.D.f.I D N 7 f a *                             o o b ~.W.Q.^.G.1.#.) `.`.`.`.`.`.",
"`.`.`.`.`.`.O.P.6.5.=.#.4.O.M p.C.C.K.z.S.f.K F m * a k 9                                 _ R.5.L.I.<.2.#.) `.`.`.`.`.`.",
"`.`.`.`.`.`.+.E.<.J.W.L.<.@.M p.S.Z.K.k.Z.r.K D e 8 p : 9                               o [ W.:.6.L.6.I.#.) `.`.`.`.`.`.",
"`.`.`.`.`.`...6.G.G.P.I.G.@.M p.D.F.A.k.b.r.F C m d - - *                               o  .(.3.J.7.6.P.#._ `.`.`.`.`.`.",
"`.`.`.`.`.`.[ ,.1.6.<.<.P.O.M f.F.F.A.k.v.0.H C 0 a : : #                               = ) (.3.3.N.5.<.+.) `.`.`.`.`.`.",
"`.`.`.`.`.`.[ -.-.*.*.-.7.O.V i.F.F.K.j.x.e.Z C 4 8 f ; $                                 ` W.,.:.,.-.*...Q `.`.`.`.`.`.",
"`.`.`.`.`.`.) {  .[ ] [ [ ` B i.F.F.N.u.v.f.Z N 4 - - 2 *                                 x  .{ { [ [ ` ` E `.`.`.`.`.`.",
"`.`.`.`.`.`.`.`.`._ 6.E.G...u i.F.F.l.i.S.s.C m 0 # 2 7 $                                 c 5.E.P...`.`.`.`.`.`.`.`.`.`.",
"`.`.`.`.`.`.`.`.`.X._.).Q.@.t i.F.F.M.u.S.y.N m 0 3 q 3 $                                 [ _.6.6.+.`.`.`.`.`.`.`.`.`.`.",
"`.`.`.`.`.`.`.`.`.{ I.U.P.@.y i.F.F.v.f.S.y.N V t i 0 2 $                                 { ^.<.G.#.`.`.`.`.`.`.`.`.`.`.",
"`.`.`.`.`.`.`.`.`.' 1.G.U.@.e i.D.F.m.i.b.y.C m y 6 3 $ .                                 [ W.,.6.#.`.`.`.`.`.`.`.`.`.`.",
"`.`.`.`.`.`.`.`.`.[ <.L.G.@.u i.D.D.K.k.D.h.F N y 5 3 # .                                 ` E.@.=.+.`.`.`.`.`.`.`.`.`.`.",
"`.`.`.`.`.`.`.`.`.{ G.1.<.O.M i.F.D.M.j.D.i.D N m 5 3 #                                   _ P.=.*.X.`.`.`.`.`.`.`.`.`.`.",
"`.`.`.`.`.`.`.`.`.` -.@.X.] V i.F.F.l.g.b.r.B N m 5 3 #                                   b ,.*.*...`.`.`.`.`.`.`.`.`.`.",
"`.`.`.`.`.`.) _ [  ...X.[ ) i i.S.F.N.p.c.t.N N y 6 3 # .                                 x X.X.X. .]  .[ ] `.`.`.`.`.`.",
"`.`.`.`.`.`.] 5.!.!././.^.&.u i.S.S.T.p.h.0.F m m y 3 @                                   ] ^.P.P.J.J.E.=._ `.`.`.`.`.`.",
"`.`.`.`.`.`.[ 7.6.<.5.G.J.X.M i.Y.F.z.r.g.^ B m m y 3 .                                   [ P.X.-.5.R.E.@.b `.`.`.`.`.`.",
"`.`.`.`.`.`. .6.2.P.P.2.H.O.u i.D.S.m.0.a.~ N m y 6 2 .                                   [ W.+.3.R.E.H.#.) `.`.`.`.`.`.",
"`.`.`.`.`.`.X.P.H.I.L.<.<.O.e i.Z.v.N.w.a.~ N m q 6 3                                     [ (.<.H.M.H.R.#._ `.`.`.`.`.`.",
"`.`.`.`.`.`. .P.G.G.L.2.<.X.u i.k.c.l.Y 9.! N 5 6 4 .                                     [ ^.6.L.L.1.2.=.] `.`.`.`.`.`.",
"`.`.`.`.`.`.{ G.L.L.J.<.<.X.S i.j.h.g.I ^ U M q 6 .                                       ` !.I.6.I.E.5.+.) `.`.`.`.`.`.",
"`.`.`.`.`.`.] #.<.-.X...o.[ M i.p.p.s.J Y F Z q                         X                 c +.@.+.@.=.+.` v `.`.`.`.`.`.",
"`.`.`.`.`.`.) _ ` _ X.=.&.[ u i.g.0.q.A P P V .       o X O O O O O O o O o O O X O O O   x X.&.&. ._ z z E `.`.`.`.`.`.",
"`.`.`.`.`.`.`.`.`.{ P.E.Q.&.t i.d.8.^ A T F     + O O % O O O o O + O + o O O X X o o X   _ ~.W.W.#.`.`.`.`.`.`.`.`.`.`.",
"`.`.`.`.`.`.`.`.`.{ <.4.P.@.y i.s.T U J P # o O % O O O O O O X O X X   X   X   o X   X    .~.$.1.@.`.`.`.`.`.`.`.`.`.`.",
"`.`.`.`.`.`.`.`.`.{ L.5.G.@.y w.9.Y T B & o % O O O X o X O O o X o X   `.`.`.`.X X o O   { Q.,.J.@.`.`.`.`.`.`.`.`.`.`.",
"`.`.`.`.`.`.`.`.`.{ I.<.G.#.y w.^ 9.^ % o O O O o X   O   O `.`.`.`.`.`.`.`.`.`.`.`.`.`.`.` I.,.G.;.`.`.`.`.`.`.`.`.`.`.",
"`.`.`.`.`.`.`.`.`.| J.,.<.X.M w.0.R &   O O O O O o `.`.`.`.`.`.`.`.`.`.`.`.`.`.`.`.`.`.`._ 6.5.I.:.`.`.`.`.`.`.`.`.`.`.",
"`.`.`.`.`.`.`.`.`.{ 6.-.>...M i.^ O o O O O O O O `.`.`.`.`.`.`.`.`.`.`.`.`.`.`.`.`.`.`.`._ 6.G./.,.`.`.`.`.`.`.`.`.`.`.",
"`.`.`.`.`.`.`.`.`.` X.....] 7 4 : O % O + - - `.`.`.`.`.`.`.`.`.`.`.`.`.`.`.`.`.`.`.`.`.`.b X.O.@...`.`.`.`.`.`.`.`.`.`.",
"`.`.`.`.`.`.`.`.`.b v ) v v - o = < < O % `.`.`.`.`.`.`.`.`.`.`.`.`.`.`.`.`.`.`.`.`.`.`.`.x c v b _ `.`.`.`.`.`.`.`.`.`.",
"`.`.`.`.`.`.`.`.`.`.`.`.`.`.`.`.`.`.`.`.`.`.`.`.`.`.`.`.`.`.`.`.`.`.`.`.`.`.`.`.`.`.`.`.`.`.`.`.`.`.`.`.`.`.`.`.`.`.`.`.",
"`.`.`.`.`.`.`.`.`.`.`.`.`.`.`.`.`.`.`.`.`.`.`.`.`.`.`.`.`.`.`.`.`.`.`.`.`.`.`.`.`.`.`.`.`.`.`.`.`.`.`.`.`.`.`.`.`.`.`.`."
};
