/* XPM */
static char *result[] = {
/* columns rows colors chars-per-pixel */
"60 60 73 1 ",
"  c #000000",
". c #080807",
"X c #050909",
"o c #0A0A0A",
"O c #120A0A",
"+ c #121212",
"@ c #171A1A",
"# c #1B1D1C",
"$ c #240A0A",
"% c #20201D",
"& c #232524",
"* c #272A27",
"= c #272A28",
"- c #2A2D2A",
"; c #2E302E",
": c #2F3332",
"> c #323533",
", c #353937",
"< c #363C39",
"1 c #393E3B",
"2 c #3C413E",
"3 c #40433D",
"4 c #3E4341",
"5 c #424643",
"6 c #454945",
"7 c #4C4F47",
"8 c #464B48",
"9 c #4A4E4A",
"0 c #4D514E",
"q c #52554F",
"w c #4F5451",
"e c #525651",
"r c #555A55",
"t c #595D56",
"y c #565D59",
"u c #5A5E59",
"i c #5E625C",
"p c #62665E",
"a c #66685F",
"s c #686A5F",
"d c #5F6561",
"f c #626660",
"g c #656A63",
"h c #6A6D65",
"j c #676E69",
"k c #696E69",
"l c #6D7167",
"z c #6E736B",
"x c #72766C",
"c c #75796E",
"v c #787B6F",
"b c #717772",
"n c #767A72",
"m c #7A7D73",
"M c #787F78",
"N c #7D8176",
"B c #7E8379",
"V c #818376",
"C c #82857B",
"Z c #85897E",
"A c #898B7D",
"S c #808680",
"D c #858B81",
"F c #898D83",
"G c #8D9185",
"H c #8D9389",
"J c #919386",
"K c #92978B",
"L c #94998E",
"P c #969B91",
"I c #989F93",
"U c #9CA197",
"Y c None",
/* pixels */
"YYYYYYYYYYYYYYYYYYYYYYYYYYYYYYYYYYYYYYYYYYYYYYYYYYYYYYYYYYYY",
"YYYYYYYYYYYYYYYYYYYYYYYYYYYYYYYYYYYYYYYYYYYYYYYYYYYYYYYYYYYY",
"YYYYYYYYYYYYYYYYYYYYYYYYYYbjjjljzbYYYYYYYYYYYYYYYYYYYYYYYYYY",
"YYYYYYYYYYYYYYYYYYYYYYYYY0PDDDDDGG0YYYYYYYYYYYYYYYYYYYYYYYYY",
"YYYYYYYYYYYYYYYYYYYYYYYY2FFDDZZVnMnwYYYYYYYYYYYYYYYYYYYYYYYY",
"YYYYYYYYYYYYYYYYYYYYYYYY8MmVMmCzixiYYYYYYYYYYYYYYYYYYYYYYYYY",
"YYYYYYYYYYYYYYYYYYYYYYYYYtZnmmCxan6YYYYYYYYYYYYYYYYYYYYYYYYY",
"YYYYYYYYYYYYYYYYYYYYYYYYY3CvmnVbhz4YYYYYYYYYYYYYYYYYYYYYYYYY",
"YYYYYYYYYYYYYYYYYYYYYYY2t0cmmxBnnx0g,YYYYYYYYYYYYYYYYYYYYYYY",
"YYYYYYYYYYYYYYYeeYYYYYjFc6gmhhmnNgrHCN5YYYNtYYYYYYYYYYYYYYYY",
"YYYYYYYYYYYYYYyBK6YYbGZzc6yNxnnnZijDlMHMY3KLgYYYYYYYYYYYYYYY",
"YYYYYYYYYYYYYiZBNNwzUcbcbwtHVZZNNizBzgbBeZHAFyYYYYYYYYYYYYYY",
"YYYYYYYYYYYYeBmccmnrnCNBDjiVDZDZNfDCnxm9gLZAVViYYYYYYYYYYYYY",
"YYYYYYYYYYYYiZzcnmBieZCb1=&>>>>>>=2iZZhrHCCCZHlYYYYYYYYYYYYY",
"YYYYYYYYYYYYYeNNxxnBgt5+            *trCJVNmHjYYYYYYYYYYYYYY",
"YYYYYYYYYYYYY1rMNcBFe                 ;LAmFAieYYYYYYYYYYYYYY",
"YYYYYYYYYYYYYmjeBcB0                   ;znCeiG*YYYYYYYYYYYYY",
"YYYYYYYYYYYYbKZeeN6                     &g9gDGc@YYYYYYYYYYYY",
"YYYYYYYYYYY>Hmmmw2                       @kKZCGtYYYYYYYYYYYY",
"YYYYYYYYYYYgZcNHi                         <VZVZV%YYYYYYYYYYY",
"YYYYYYYYYY2wgcCBo                          iJNly6YYYYYYYYYYY",
"YYYYYYYYYYtDiiA0                           @xpihdYYYYYYYYYYY",
"YYYYYYYYYYmNNBg+                            1xCNc2YYYYYYYYYY",
"YYYYYYYYYYAcxCe                             -ZxxA9YYYYYYYYYY",
"YYYYYYYYY%GvvVe                             ;mmcGqYYYYYYYYYY",
"YYYYYYYYY,ptta%                             oqail3YYYYYYYYYY",
"YYYYYYYtHSMnBu                               ,nzazULgYYYYYYY",
"YYYYYY8gmFMDIk                               1HHFLNvp4YYYYYY",
"YYYYYYrCnngpni.                              5CnVZxmp4YYYYYY",
"YYYYYYtDnCFVcd                               9FhmVmCp4YYYYYY",
"YYYYYYeMmVCZVu                               0LxMVMVp5YYYYYY",
"YYYYYY9zccxnCp.                              9LcnMnct4YYYYYY",
"YYYYYY9jhaghnu.                              6Fxhzhfe2YYYYYY",
"YYYYYY40w98999o                              >w9099952YYYYYY",
"YYYYYYYYY6MFnr.                              ,nDBeYYYYYYYYYY",
"YYYYYYYYYeIIJgX                              9UNmuYYYYYYYYYY",
"YYYYYYYYY7CFCp                               0LzBpYYYYYYYYYY",
"YYYYYYYYY7cVAs.                              9FznfYYYYYYYYYY",
"YYYYYYYYY9xVCp                               6DphtYYYYYYYYYY",
"YYYYYYYYYqmxcu.                              5CgfrYYYYYYYYYY",
"YYYYYYYYY6huy0o                              1zffeYYYYYYYYYY",
"YYYYYY459err06o                              >rry08998YYYYYY",
"YYYYYY9nHJHJLk                               8PCZVCZh4YYYYYY",
"YYYYYY9MmxnmmtX                              9CrhvCCp1YYYYYY",
"YYYYYYwnnVCvMt.                              9DthAFVf4YYYYYY",
"YYYYYYrSMDVxci.                              0IxvVVVf5YYYYYY",
"YYYYYYeCmVVnni                               9LmVVccg8YYYYYY",
"YYYYYY0mVVVxxrX                              5HZmCDMt4YYYYYY",
"YYYYYY8pxheetwo                     .     .  ,uitfhr81YYYYYY",
"YYYYYY4585rhiwo            ..oooooo...oo...X >edde5::1YYYYYY",
"YYYYYYYYY9CDHg          .ooooooooooo........ 6KDFpYYYYYYYYYY",
"YYYYYYYYY0zxCa.      .oooo+o....o..  ..  . . wKhciYYYYYYYYYY",
"YYYYYYYYY0NnngX    .oooooo. ....... YYYY...o 0HzBiYYYYYYYYYY",
"YYYYYYYYYqZxmg   .oooooo ..X..YYYYYYYYYYYYYYY8CzNjYYYYYYYYYY",
"YYYYYYYYYeCxcuX ooooooooo.YYYYYYYYYYYYYYYYYYY5McZkYYYYYYYYYY",
"YYYYYYYYYenhhr+.+oXooooooYYYYYYYYYYYYYYYYYYYY5MBJzYYYYYYYYYY",
"YYYYYYYYY6ree8#++OOoo++YYYYYYYYYYYYYYYYYYYYYY1rrieYYYYYYYYYY",
"YYYYYYYYY114<<#+++$o+YYYYYYYYYYYYYYYYYYYYYYYY>,115YYYYYYYYYY",
"YYYYYYYYYYYYYYYYYYYYYYYYYYYYYYYYYYYYYYYYYYYYYYYYYYYYYYYYYYYY",
"YYYYYYYYYYYYYYYYYYYYYYYYYYYYYYYYYYYYYYYYYYYYYYYYYYYYYYYYYYYY"
};
