/* XPM */
static char *body_left1678380644[] = {
/* columns rows colors chars-per-pixel */
"60 60 163 2 ",
"   c #281820",
".  c #754203",
"X  c #7C480E",
"o  c #7B4614",
"O  c #7C4B11",
"+  c #293D4B",
"@  c #9E3E37",
"#  c #814B0B",
"$  c #835217",
"%  c #855418",
"&  c #8B521D",
"*  c #8D5A1C",
"=  c #97621C",
"-  c #8E5D22",
";  c #925F24",
":  c #936125",
">  c #986226",
",  c #95622B",
"<  c #9A652B",
"1  c #9D6A2C",
"2  c #976230",
"3  c #9D6C33",
"4  c #9F7237",
"5  c #9F7039",
"6  c #A2672B",
"7  c #A26B2C",
"8  c #A86E2F",
"9  c #AA752F",
"0  c #A36D31",
"q  c #A56E38",
"w  c #A47235",
"e  c #AB7635",
"r  c #AD7836",
"t  c #A6743A",
"y  c #AA763A",
"u  c #A47C3F",
"i  c #AD7A3C",
"p  c #B27532",
"a  c #B57C37",
"s  c #B87936",
"d  c #B37D3D",
"f  c #B97E3D",
"g  c #996E43",
"h  c #AA7641",
"j  c #A77A43",
"k  c #AD7B41",
"l  c #AF7F4E",
"z  c #B27642",
"x  c #B47E41",
"c  c #BA7E42",
"v  c #B37B4A",
"b  c #AB813E",
"n  c #B5813E",
"m  c #BB813E",
"M  c #BD8B3D",
"N  c #AD8242",
"B  c #AD8842",
"V  c #B68143",
"C  c #BA8444",
"Z  c #B48B45",
"A  c #BE8946",
"S  c #B58349",
"D  c #BC8649",
"F  c #B58C4A",
"G  c #BE894B",
"H  c #AD8851",
"J  c #B58753",
"K  c #BD8C52",
"L  c #BC8E5A",
"P  c #BE9251",
"I  c #BC955F",
"U  c #B68B60",
"Y  c #B68F70",
"T  c #C28543",
"R  c #C18845",
"E  c #C1864A",
"W  c #C28B4D",
"Q  c #C88C4C",
"!  c #C4914E",
"~  c #CE964B",
"^  c #C08450",
"/  c #C38D51",
"(  c #CA8E55",
")  c #C38E5C",
"_  c #CB8F5D",
"`  c #C59153",
"'  c #CA9455",
"]  c #CB9B57",
"[  c #C4935B",
"{  c #CB965A",
"}  c #C59A5D",
"|  c #CD995B",
" . c #D19757",
".. c #D59D54",
"X. c #D1955C",
"o. c #D39C5C",
"O. c #D89E5E",
"+. c #C7A05D",
"@. c #D5A15E",
"#. c #DBA45C",
"$. c #D28560",
"%. c #C39561",
"&. c #C59B64",
"*. c #CB9C63",
"=. c #C2906D",
"-. c #CC9D69",
";. c #D29E61",
":. c #DA9F63",
">. c #D49F6D",
",. c #CDA364",
"<. c #CEA16A",
"1. c #CDA96F",
"2. c #D4A164",
"3. c #DBA465",
"4. c #D4AA66",
"5. c #DCA965",
"6. c #D5A46B",
"7. c #DBA66A",
"8. c #D5AA6B",
"9. c #DDAA6B",
"0. c #DFB26E",
"q. c #C7A371",
"w. c #D4A572",
"e. c #DAA271",
"r. c #DCAC71",
"t. c #D4A879",
"y. c #DFB175",
"u. c #DDB57E",
"i. c #E1A767",
"p. c #E1AC66",
"a. c #E2A769",
"s. c #E2AB6C",
"d. c #E8B065",
"f. c #E5B06E",
"g. c #EAB56D",
"h. c #EAA377",
"j. c #E3AD73",
"k. c #E5B174",
"l. c #EAB475",
"z. c #E5B877",
"x. c #EAB977",
"c. c #E5B37A",
"v. c #EAB67A",
"b. c #E5B97D",
"n. c #EBB97B",
"m. c #F3BC7C",
"M. c #50D4EC",
"N. c #E2B687",
"B. c #E4BD82",
"V. c #EDBD82",
"C. c #EEBC8B",
"Z. c #F2BE82",
"A. c #EDC185",
"S. c #EFC58B",
"D. c #F4C284",
"F. c #F7C594",
"G. c #FFCD92",
"H. c #F5CC9D",
"J. c #FFD59A",
"K. c #FFD5A4",
"L. c #FDD5B7",
"P. c #FBECE6",
"I. c #F2F8F9",
/* pixels */
"q.l { ;._ [ [ ) G K G K / [ [ ` [ / K K / K K / L K K K L / K K v j.e.>.e.e.e.e.w.w.>.N.C.F.K.) j -.[ P +.] ` [ I %.=.Y ",
"I 5 v c z k z z z S S S S D D G D v x k i y y z k i k i i k j y < | ;.( { ;.3.5.| o.o.o.' o.k.] < S F C n C S S M C K H ",
"&.j D T n i x z d D ! W D C E W W W G G S V V C C C C C C C C C 9 ..s.#.3.p.3.@.s.3.7.7.f.3.| 3.h x K C i x W / M M W F ",
",.B ( Q C n C C n A ! W C V C W A W W W Q C n n f V c f f f c C = m g.m.g.p.p.g.3.i.O.O.i. .' m.t v S V c c ( ( W W Q J ",
"} d T Q M n n m f m C C n d m C W R A C ! Q m m f m m C f f C T i ; 6 q D | { o.d.g.#.......#.~ & S V f C T ( E K D ^ H ",
"} r E Q C n C f C V m m m f n C W W m d R W V x f f f f f f f f [ v x q ; 2 ; 3 r O.v.n.o.p.f.6 : ( W n R V T ( G D c S ",
"I e T T m d V f v V c c C C c D ! ( C x W W C c C                   D / _ X.( K 3 2 2 h ) c.) o G [ S n C a c / V d V b ",
"&.t c c d d C c c c D / E D E / E / E c W E c     @ $.h.L.L.L.h.$.@     W W W W } / y ; ; - O t *.G n b n A D D V x S B ",
"} i C n m n V V T a C Q A W ` A T C c C E W   @ $.L.L.L.L.L.L.L.L.h.$.@   W W D C S Q | / C C / C c S C D W / V n d C k ",
"} t V n m C C S d T C C W W V G c x d S C   @ h.L.L.L.L.L.L.L.L.L.L.h.h.@   C x x x x C D D A A C x C W W D W ` b C S S ",
"[ e x V R W A S a C a C W W ` V G L / K D   h.L.L.P.P.P.L.L.L.L.L.L.L.h.h.  V d C C V d V S V d x C d x D D D d F A x V ",
"} i V C W Q W S A d x A G K D i t y y t   @ L.L.L.P.P.P.L.L.L.L.L.L.L.L.h.@   V d V V d m V V n W / G o.s.s.j.o.C A G k ",
"*.y V C Q W G V A i C C G K i ;.A.A.n.B.  $.L.L.L.P.P.P.L.L.L.L.L.L.L.L.h.$.  A d V n C W A n C C x D a.j.3.9.k.` i x N ",
"} y d d T C G V d d x ` G i | Z.c.c.c.n.  h.L.L.L.L.L.L.L.L.L.L.L.L.L.L.h.h.  C C m a C ! A a i G C | 3.| ' o.:.0.A d F ",
"} y x d m C R G C A S ' N S n.8.| o.;.|   L.L.L.L.L.L.L.L.L.L.L.L.L.L.L.L.h.  S n n d n Q R V V G C o.3.{ 3.3.] 4.9.A S ",
"*.y C V m C W G G / { i S n.k.[ o.] o.o.  L.L.L.L.L.L.L.L.L.L.L.L.L.L.L.L.h.  A C ! G a C C n d / 0 | v.s.3.3.7.f.5.q K ",
"*.V C W Q A W G / K K i j.m.X.o.o.| { O.  L.L.L.L.L.L.L.L.L.L.L.L.L.L.L.L.h.  / K K / V v E W c G C d C o.2.5.v.o.8 x P ",
",.V C W Q A W G G [ w 7.v.o.o.| o.] o.O.  L.L.L.L.L.L.L.L.L.L.L.L.$.$.$.L.h.  i S G ` K / K / D D G x y d z d D w c ` N ",
"6.k C R W V D D L i ` Z.3.' o. .o.O.o.]   L.L.L.L.L.L.L.L.L.L.L.h.$.L.$.h.$.  6.2.S K / / G ^ E d S A / ` D d y G C C i ",
"[ t C W R V D G S V Z.9.' o.o.o.5.5.2.O.  h.L.L.L.L.P.P.L.L.L.h.h.L.L.$.h.$.  G.9.k G G G G W D C V x C Q W x C S c d N ",
"} y / / E C c S i 9.z.{ 2. .@.O.7.s.p.s.9.  L.L.L.h.@ @ $.h.L.h.L.L.L.$.$.  ` V.` i G S G / / D W C x C W D V C a C S S ",
"w.S / C C x V D 2.k.] | o.O.3.p.3.3.3.2.3.  L.L.L.    M.M.h.L.h.h.L.$.@   V k S t S / x G ( / E D Q ` ` / W C x G c C F ",
"6.h C d c W D V D.2.o.@.! p.5.s.O.o.o.O. .  L.L.L.+ + I.L.L.h.h.h.@ @   D G h < N G G i G K / ^ / W D x d d V S d c E P ",
"-.h D x D E t ; z.9.5.| 3.3.s.X.] o.3.9.@.  h.L.L.L.L.L.L.L.L.L.h.$.    k K ` ( G N x S / D / G W C d D W W W Q S R C F ",
"-.S x V a R / X e m.#.a.a.O.s.:.9.D.' S *.b.  $.L.L.L.L.L.L.L.h.$.@ @     C f d d D A D G W G Q W D / D W A W W A ! Q F ",
"-.S W C d C W t # 5.Z.g.:.g.Z.j.` > % ; : -     @ h.L.L.L.L.h.$.@ @ h.h.@   a C x D W G / G A E ' A / Q / C V x A C A K ",
";.S ` W f V D ( * * d 6.V.>.q ; . 0 8.v.r.S @ @ @ @ @ @ @ @ @ @ h.L.P.P.P.@   C D W / / / D x V G S D C C V S x n f S S ",
"*.j Q C V x d / K - $ $ - - ; t x.Z.v.l.D.  $.$.$.h.h.h.h.h.h.L.L.L.P.P.P.h.  x W G A W W C d V C / Q S C V D W A c V N ",
"} w C V m n a V K { } k t k r.C.v.s.9.2.o.  h.h.h.h.h.h.h.h.L.L.L.L.L.P.P.L.@   G D V C D C V D D ' V i a y V D C f V B ",
"} w m n f f C k d V x / K G k.c.O.@.5.o.2.  L.L.L.L.L.L.L.L.L.L.L.L.L.L.L.L.$.  W D V x V x V C W W d / ;.:.7.k.] V V N ",
"} y M m n m C S V d r W x / j.:.O. .` O.9.  L.L.L.L.L.L.L.L.L.L.h.h.@ L.L.L.L.@   W C x V V x x C W V 3.k.a.3.3.x.6.` u ",
"| i C m m C n n m f V R 8 ( m.:.o.o.5.l.C   h.L.L.L.L.L.L.L.L.L.L.$.$.@ L.L.L.$.  D C x C E S C C / x ` :.o.' ] { 3.c.,.",
"B.} j / C m n n n C V A 0 > s.v.2.y.l.d 7   h.L.L.L.L.L.P.P.L.L.L.h.@   $.L.L.L.  d d V V V W Q W ' r ' s.o.;.:.{  .' 9.",
"A.,./ C W W m m C ~ A W { < 0 3.] C d       @ L.L.L.P.P.P.L.L.h.h.h.  @ h.L.L.h.  C n V C R A A D W c C :.3.' :.4.3.o.,.",
"b.2.2.y C C n n n d C S | d ; 6 1 1   $.$.@   h.L.L.h.h.$.$.h.      @ h.L.P.L.@   C V V D A C V ' C Q C W 3.j.:.s.a.7.,.",
"b.,.k.D d a n C V a A G D | ' C ` '   $.$.$.  $.P.P.L.L.L.h.  @ $.h.L.L.P.L.@   C A n d C C d d D G ` D i V 5.a.7.3.s.8.",
"z.} s.o.d x n Z V C d C C W / / Z G   $.$.$.  @ L.L.P.P.L.  $.L.L.L.L.L.L.$.  0 V W A d V V d V x ' K S } V S 9.7.3.9.8.",
"x.! o.s.D V S k a C y W ' D D W G C   @ $.$.  @ L.L.L.L.L.  L.L.P.L.L.$.    6.3 C W A C V m C C S S G S k.7.d / k.s.3.4.",
"x.] ] 9.5.x S N V A C ` D V x S ` G V   $.$.  @ h.L.L.L.h.  @ L.L.L.L.    7.2.w C C C C V V m C V k K S 7.n.-.i ;.l.2.,.",
"9.' ` O.j.y V B G Q W A W / d z S G Q /       $.h.h.h.h.h.    @ L.L.@   3.:.*.t C f d V n n n d k ` K h 6.Z.D.v i 7.@.+.",
"n.[ v.v.6 0 A C / K / G G ( / v c V C G / Q   h.h.$.@ @ $.h.          | } k.2.3 A V n V C C V m C / Q d i d a 1 d ` 9.+.",
"r.K E c 6 G / d / G W W G K G C V V C C D G   h.h.$.$.  @ h.L.L.h.$.  V.Z.*.- 3 V n d n d d V C W W / / V 0 w C G E ] ,.",
"S 3 < e C ' D V E V C W Q C C x S x x x V x   $.h.h.$.@   h.L.L.h.h.    3 * 0 G n V C C d f d C D W Q ` A C D Q G c i w ",
"8.G / { ( W C W W C n C A V m V d x C D S d d @ h.h.h.@   @ L.L.L.h.@   q C G C x C W W A V V C x S A S G / S d i W / F ",
"&.S / E C Q / A C C m C C n n n x C C A W D D   $.h.h.$.    $.L.L.L.$.  G ' x S V V D / / A D C x d S Q W x d C C / / F ",
"*.S W W W D d y n A C V V V C A x V C C E W E   @ h.h.$.    @ h.L.h.$.  ` C D C V V c C W W G G C x C / W x D ' ` W W Z ",
"6.h x / / c x A D W v x D D G / C c d x S W ^   @ h.h.h.  z   @ h.h.h.  Q / W G D C S S G ^ / / G W W S D D A S A E / F ",
"2.y x x E / ` G x D D ^ *.{ G x W S C C W     $.h.L.h.h.  z     h.h.h.@   E D Q G D G / ( / G G G A W Q / W G / G E ` F ",
"<.k s s V -.w ` | [ 2.k.y.j.9.*.S G ` P   h.h.h.L.L.h.h.      $.$.h.h.$.  C ' W W Q W C V C A W A / W V C / / W x c W F ",
"q.V T T A k S s.j.l.k.2.} 2.j.s.x.S i '   L.L.L.L.L.h.2     @ h.L.L.h.h.  d m A C C A C n C C A W / E S C A W D x T W G ",
"-.S T s / 5 ` s.! o. .{ o.O.o.{ k.` w G                 $.L.L.L.L.L.$.$.  m C n V n m V n d C W W W D C C A D V V C W F ",
"-.S T p / 3 K 5.O. . .O.3.:.O.:.z.;.i / C C W C A / W   h.h.L.L.h.$.$.  i i A n V d n n d d V A S C C C G W C x S c C Z ",
"&.y s T / 3 t n.' O.i.s.3.3.i.s.8.Z w ' n C W A C D / /               / C d C n C n V C V m C W V x c D W W C z S d c V ",
"[ r s T K S < ] l.v.f.O. .3.5.;.i w w G C W W A x C W Q A V S V c | / D ! W n d C C V V V V R W V V V W / G V V C d z b ",
"-.k m s S K 3 6 y D } 7.j.2.x < y / A V C ` W A x V D W A S C V D / d y x C C A G A C V d C C W C x V W / A C W G C C N ",
"&.y f f V S S V w 3 3 y V w 4 G ` G S C D C Q C d x W / W W C z _ t 0 S z d ` | Q W A d a d V n C d d S G G W ' ` E A S ",
"} y c f C R C D (  .E 8 < C ' W / E / / Q / W W T C D W Q D A G v 0 n.J.A.L j g w C ` T m m f c D x x ( D C 7.l.s.W i / ",
"&.y x d C W W G E D C D D W / G A A C C C A W ! c C C D G K ` ` 1 ' x.` 4.D.r.6.*.j w n / / z E x C V W ! C ` o.7.7.y / ",
"I 3 i d x D D S x y y i i x x S a y r e w i i d y y y y x S S l 5 y.` P | ] 4.k.S.u.*.j 5 S G S y i e i S x i z / S , S ",
"t.J *.| | | [ &.) _ [ ) L [ -.*.&.&.` ) ) [ [ ) [ [ [ [ &.&.` K U N.8.y.9.6.7.7.1.u.H.H.t.%.P [ &.[ ) &.-.>.*.*.L k &.*."
};
