/* XPM */
static char *body_down1678380643[] = {
/* columns rows colors chars-per-pixel */
"60 60 161 2 ",
"   c #281820",
".  c #7C480E",
"X  c #7B4614",
"o  c #7C4B11",
"O  c #293D4B",
"+  c #9E3E37",
"@  c #814B0B",
"#  c #835218",
"$  c #8B521D",
"%  c #8D5A1B",
"&  c #97621C",
"*  c #8E5D23",
"=  c #925E24",
"-  c #946125",
";  c #95622B",
":  c #9B652B",
">  c #9C692C",
",  c #976230",
"<  c #9D6B33",
"1  c #9F7237",
"2  c #9F7039",
"3  c #A2672B",
"4  c #A26A2C",
"5  c #A86E2F",
"6  c #A46D31",
"7  c #A96F30",
"8  c #A56E38",
"9  c #A47235",
"0  c #AB7635",
"q  c #AD7836",
"w  c #A6743A",
"e  c #AA763A",
"r  c #A47C3F",
"t  c #AD7A3C",
"y  c #B27532",
"u  c #B57C37",
"i  c #B87936",
"p  c #B37D3D",
"a  c #B97E3D",
"s  c #996E43",
"d  c #9E7243",
"f  c #AA7641",
"g  c #A77A43",
"h  c #AD7B41",
"j  c #AF7F4E",
"k  c #B27642",
"l  c #B47E42",
"z  c #BA7E42",
"x  c #B37B4A",
"c  c #AB813E",
"v  c #B5813E",
"b  c #BB813E",
"n  c #BD8B3D",
"m  c #AD8242",
"M  c #AD8842",
"N  c #B68143",
"B  c #BA8344",
"V  c #B48B45",
"C  c #BE8946",
"Z  c #B58349",
"A  c #BC8649",
"S  c #B58C4A",
"D  c #BE894B",
"F  c #AD8851",
"G  c #B58753",
"H  c #BD8C52",
"J  c #BC8E5A",
"K  c #BE9251",
"L  c #BC955F",
"P  c #B68B60",
"I  c #B68F70",
"U  c #C28543",
"Y  c #C18845",
"T  c #C1864A",
"R  c #C28B4D",
"E  c #C88C4C",
"W  c #C4914E",
"Q  c #CE964B",
"!  c #C08450",
"~  c #C38D51",
"^  c #CA8E55",
"/  c #C38E5C",
"(  c #CB8F5D",
")  c #C59153",
"_  c #CB9455",
"`  c #CB9B57",
"'  c #C4935B",
"]  c #CB965A",
"[  c #C59A5D",
"{  c #CD9A5B",
"}  c #D19757",
"|  c #D59D54",
" . c #D1955C",
".. c #D29C5C",
"X. c #D89E5E",
"o. c #C7A05D",
"O. c #D5A15E",
"+. c #DBA45C",
"@. c #C38E64",
"#. c #D28560",
"$. c #C39561",
"%. c #C59B64",
"&. c #CB9C63",
"*. c #C2906D",
"=. c #CC9D69",
"-. c #D39E61",
";. c #DA9F63",
":. c #D49F6D",
">. c #CDA364",
",. c #CEA16A",
"<. c #CDA96F",
"1. c #D4A264",
"2. c #DBA465",
"3. c #D4AA66",
"4. c #DCA965",
"5. c #D3A46C",
"6. c #DBA66B",
"7. c #D5AA6B",
"8. c #DDAA6B",
"9. c #DFB26E",
"0. c #C7A371",
"q. c #D4A572",
"w. c #DAA271",
"e. c #DCAC71",
"r. c #D4A879",
"t. c #DFB175",
"y. c #DDB57E",
"u. c #E1A767",
"i. c #E1AC66",
"p. c #E2A769",
"a. c #E2AB6C",
"s. c #E8B065",
"d. c #E5B06E",
"f. c #EAB56D",
"g. c #EAA377",
"h. c #E3AD73",
"j. c #E5B174",
"k. c #E9B475",
"l. c #E5B877",
"z. c #EAB977",
"x. c #E4B37B",
"c. c #EAB57A",
"v. c #E5B97D",
"b. c #EBB97C",
"n. c #F3BB7B",
"m. c #50D4EC",
"M. c #E2B687",
"N. c #E4BD82",
"B. c #ECBD82",
"V. c #EEBC8B",
"C. c #F2BE82",
"Z. c #EDC185",
"A. c #EFC58B",
"S. c #F4C284",
"D. c #F7C594",
"F. c #F5CC9D",
"G. c #FFD59A",
"H. c #FFD5A4",
"J. c #FDD5B7",
"K. c #FBECE6",
"L. c #F2F8F9",
/* pixels */
"0.j ] -.( ' ' / H H A ! ~ { { / ' ~ H H H H H ~ J H H H ~ ~ H H x h.w.:.g.:.:.w.w.q.5.M.V.D.H./ g &.L K o.` ' [ [ @.*.I ",
"L 2 x z k h k k h N Z Z Z Z Z A Z l l k t e e k h t t g g h g t : ] -.^ { { 2.4.{ { X..._ ..l.{ , Z D N v N A N V N D F ",
"%.g A U v t l l l A W R A B A R R R D D B N N B B B B B B B B B 0 | a.+.2.i.4.O.a.2.6.8.d.2...O.g x D B p l A ~ n n W S ",
">.M ^ E B v B z v C W R B B C R C R R R R C v v a z z a a a z B & n d.n.d.i.i.f.;.4.X.X.p._ _ n.w l A B a A ~ ^ W T ~ G ",
"[ t T E B v v b p b B B b p b B R Y Y Y W R b a a b b B a a U B t = 3 w B ] ] -.s.f.+.| | | +.Q $ Z B p z T R T ~ ! ! Z ",
"[ 0 E E n v B a B N b b v v b B R R p p Y R B l a a a a a p a a ] Z k 8 , , ; 6 y O.c.b.| a.d.3 = ^ D v U B T ^ A A Z l ",
"[ 9 U U v v N z z l z B B z z A W ) B z R R B z B                     ! ^ { ^ ! 2 , , f / x.@.X D ' B v v p z ~ N l N c ",
"[ w a z p p z z z z T ~ ! A T R T ~ T z R T z     + #.g.J.J.J.g.g.#.+     R T E { H w = = * o w { H v v v C R B m m N M ",
"[ t B N b b N N C p B E D R W D B B z A E R   + g.J.J.J.J.J.J.J.J.g.g.#.,   ! T B B ~ _ E B B ~ B B l Z A R R N m p B m ",
"[ w N p b B B N p U B B R R N D z z p l B   + g.J.J.J.J.J.J.J.J.J.J.J.g.g.+   k N l N B A A D A N N B ~ R C R ^ v B Z m ",
"[ 9 l B Y R A B p B p B W R ) N D H ~ H Z   g.J.J.K.K.K.J.J.J.J.J.J.J.J.g.#.  e N B N p N N B p l z p l A D A t C R l Z ",
"[ e B B R E R Z Y p p C D D A t g e e w   + J.J.J.K.K.K.J.J.J.J.J.J.J.J.g.g.+   p B B p N B v v R ~ R ..a.h.a...N C T g ",
"&.e N B Y E D Z C p C B H D e -.Z.B.b.B.  #.J.J.J.K.K.K.J.J.J.J.J.J.J.J.J.g.#.  p B N B R B v v A p A a.h.2.6.k.K t l Z ",
"[ e l b B C A l p p l ) A t &.C.x.x.x.v.  g.J.J.J.J.J.J.J.J.J.J.J.J.J.J.J.g.g.  N v p n W C p p D B ] 2._ _ ..;.9.C l V ",
"[ e l p b B C A N A B ) l Z v.8.{ ..O.{   g.J.J.J.J.J.J.J.J.J.J.J.J.J.J.J.g.g.  a v t p Y W B l D B ..4.] 2.2.&.3.a.D N ",
"{ f B p b C R D D R ` t Z v.j.' ....{ ..  g.J.J.J.J.J.J.J.J.J.J.J.J.J.J.J.g.g.  N W C p B B p l ~ 6 { c.a.4.2.2.d.4.6 H ",
"&.N B R R C R D ~ D J t h.C.} ....` _ X.  #.J.J.J.J.J.J.J.J.J.J.J.J.J.J.J.g.#.  x ~ ~ x Z A ~ z D B p B { 2.6.k...6 p K ",
">.N B R E D R D H ) 9 6.c.......{ ....  + #.g.J.J.J.J.J.J.J.J.J.J.J.J.J.g.g.#.+   ! ~ ~ ~ ~ ~ A A D p t p l p A 9 z _ N ",
">.l B Y Y B R A J t ~ C.2._ ..} O.....  J.#.g.g.J.J.J.J.J.J.J.J.J.J.J.J.g.g.#.J.  Z ~ ~ ~ A ~ T p B D ~ ~ R p e A A N r ",
"' w B R Y B A A Z N C.8._ ......4.4.2.  J.g.g.g.J.K.K.J.J.J.J.J.J.K.K.g.g.#.g.J.  h A H A A T A B N l B E A N N N B p M ",
"$.g R ) E z l Z t 8.l.{ 2.{ X...6.a.a.  J.J.#.g.#.+ + g.J.J.J.J.g.+ + #.g.#.J.J.  t D A D ~ ~ A R B l B R A N B t B B B ",
"q.N ~ U B l N Z 1.j.` ....O.2.u.2.2.2.2.  J.#.g.m.    m.g.J.J.g.m.    m.g.#.J.  w B ) t D ) ~ ! A ~ ~ ) ) D B l D z A D ",
"5.f N p z R A x S.1.{ O.W u.4.8.....X...`     g.J.O O L.J.J.J.J.L.O O J.g.    = m S A k A H A ~ ~ R A N p l N N t z D D ",
":.f Z l U R w = l.8.4.` 2.4.a. .{ ..2.4.      #.J.J.J.J.J.J.J.J.J.J.J.J.#.      H N l Z ^ D ~ A E l l C R R R R A C A S ",
"=.N k N p C R . 0 n.2.u.p.X.a.;.8.S.    + g.#.+ g.J.J.J.J.J.J.J.J.J.J.g.+ #.g.+     D A A R R R D A ~ D R D R D C W R D ",
"=.Z R B a B ~ w @ 4.S.d.u.d.C.h.)   + J.K.K.J.g.+ + g.J.J.J.J.J.J.g.+ + g.J.K.K.J.,   R R R A R _ D ~ R ~ B N p C R Y D ",
"1.N _ C a z B ' % % l 1.c.-.w =   #.J.K.K.K.J.J.g.g.+ + + + + + + + g.g.J.J.K.K.K.J.#.  E A l l D A B B A l B N v p N Z ",
"&.g ~ C B p p ~ H * # # = = = w   J.J.J.K.J.J.J.J.g.g.g.g.g.g.g.g.g.g.J.J.J.J.K.J.J.J.  D A l N B ~ R A B B D D B z Z m ",
"[ 9 N n b a t v ) [ ' h w h e.  #.J.J.g.J.J.J.J.J.J.g.g.g.g.g.g.g.g.J.J.J.J.J.J.g.J.J.#.  B N A A ) N p e e N C B a N M ",
"[ 9 N v a a N N t N l ~ H A x.  g.J.g.+ #.g.g.J.J.J.J.J.J.J.J.J.J.J.J.J.J.g.g.#.+ g.J.g.  N l B R R l R X.;.8.h.` B l m ",
"[ e B b a n B N b p t R l ~ j.  g.g.g.+ + + + J.J.J.J.J.J.J.J.J.J.J.J.J.J.+ + + + g.g.g.  N l l B R N 2.k.8.2.2.z.1.) g ",
"{ t B b v B v N a a B U 5 ^ n.  g.#.+     + g.g.J.J.J.J.J.J.J.J.J.J.J.J.g.g.+     + #.g.  A B B B ~ l ) X..._ ] [ 2.v.>.",
"N.[ g ~ C B u v v C N A 5 - a.    + #.+       g.J.K.J.J.J.J.J.J.J.J.K.J.g.      + #.+     B R R R _ 0 _ a.} X.X.{ ] _ 8.",
"Z.>.~ B E Y b v B W C R _ : 9     g.J.g.J.  + #.g.J.K.K.J.J.J.J.K.K.J.g.#.+   J.g.J.g.    D D C A R B B ;.2.] ;.2.2...>.",
"v.1.1.e B B v v p a v A ] l =   g.g.J.g.J.    #.#.#.g.J.J.J.J.J.J.g.#.#.#.    J.g.J.g.g.  D B p ~ B ~ A R 2.h.1.a.p.6.>.",
"v.>.j.A p v v B B p D C A } _   g.J.J.J.#.+   g.g.g.J.J.K.K.K.K.J.J.g.g.g.  + #.J.J.J.g.  B p a C R ) A p z 2.8.2.2.a.7.",
"l.[ a.-.p p c V b C p N B D ~   #.J.J.J.#.+   g.g.g.J.K.K.J.J.K.K.J.g.g.g.  + #.J.J.J.#.  N v v l ) H Z { Z Z 2.8.2.6.7.",
"z.W ..a.T l N m t B t R _ D A R + J.J.g.J.g.  g.g.g.g.J.J.J.J.J.J.g.g.g.g.  g.J.g.J.J.+ N b B B Z A D N j.6.l ~ h.h.2.3.",
"z.` ` a.2.N Z N p R B ) B l l B   + J.J.+   g.g.#.g.g.g.J.J.J.J.g.g.g.#.g.g.  + J.J.+   B v N B l h ~ Z 6.v.-.g ..j.4.>.",
"8._ ) ..j.e m m Y R R D R ) k l N           g.g.#.#.g.g.g.g.g.g.g.g.#.#.g.g.          B p p v p h ' H e 5.C.S.N t 8...o.",
"v.] c.k.3 5 R B ~ ~ ~ H A / ^ l l l B D   + J.J.g.#.+ #.g.g.g.g.#.+ #.g.J.J.+   C B v B B B v N A ~ R p t l p > p ^ 4.o.",
"e.H R z 4 D R t ~ A R R D D T Z B B B A   + J.J.J.g.g.+         + g.g.J.J.J.+   B p p N p p v B R D R ) l 5 9 N D R { >.",
"Z > : e z _ A B D B B R R B B N N l N l   #.J.J.g.g.+   D R E ~   + g.g.J.J.#.  p p B B p p p C A D E ~ R B A ~ D N e 9 ",
"7.H ~ ] ^ R N D E N v N C B B v p l B B   #.J.J.g.#.  B B C C C l   #.g.J.J.#.  N B R R R N l B l B A C D R B p p R ) S ",
"[ Z ~ T B ~ R A B B v N B B v v l B A A   #.g.g.g.+   B p N B p p   + g.g.g.#.  l B A ~ R A B B l p l ~ R l t B B R ~ S ",
"=.N D ~ R A p p p C C z v v B C N N N B   + #.g.g.  R A B N v N B l   g.g.#.+   B l l A R R R D B l B ) R N A _ ) R D V ",
"5.f l ~ E z l D A R Z z z A D R B l l N   + g.g.#.  A A B N N C B A   #.g.g.+   Z B N A D ~ ~ ~ D R D B A A A B D T ^ S ",
"1.e l l T R ) D B Z A ! &.&.A l R B N   #.g.g.g.g.+   B p p B R R   + g.g.g.g.#.  A D H ^ D ~ A R D R ) R R R R H A ) V ",
",.l i i N =.9 ) &.) 1.x.h.j.8.&.B A )   g.J.J.J.g.#.  l D D A A ~   #.g.J.J.J.g.  E R C v B D R C R R B A ~ ~ R l z R S ",
",.Z U U D h Z a.h.k.j.1.{ -.h.j.z.Z   #.J.J.J.J.J.g.  p B A A R R   g.J.J.J.J.J.#.  D B v N B R R R D B N D R B l B R D ",
"%.Z U i J 2 ) a.) } ..} { ...._ j.)   J.J.J.J.J.J.g.  N N N A R B   g.J.J.J.J.J.J.  N v p p B Y R D A N B D A N B B R S ",
"=.Z U y ~ < D 4.X.} _ X.6.2.X.X.v.-.  g.J.K.#.K.K.  E D B N B A ~ A   K.K.#.K.J.g.  p v l p B C A B B B D D A l N B A N ",
"%.0 a U ~ < w b._ X.u.a.2.2.u.a.9.N 9             A ~ ) A N N N R ~ R             v B B B p B R B l B A R D B l N p z m ",
"' 0 i U H Z > } k.k.d.O._ ;.4...r 9 9 D N ~ R C p B R R A B N N x { ~ A ^ D N p B N N B B B C R l l N R E D B l N z l h ",
"%.l b i Z H > > e A [ 6.j.1.Z : e ) A N B E D R N N A ~ D A B N A ~ l e l B C A D C B v p N C A B l l D R D A D D B B M ",
"%.e a a N Z Z B 9 < < t N 9 9 D ) A N B A B R C l l D E R D B p ] w 6 N k p ) ] E R C p p p N z B p l B D D R _ ) T A N ",
"$.w B a z U C A ^ _ R 7 > B ) R R R R ~ R ~ R R B B T R E D B D x 6 b.G.Z.J d s 9 A ) U b b a z Z l l ^ Z A p.k.a.~ e ~ ",
"&.e p p U R R A T A z A A R ~ D D C B B C C E R B z B T H ~ ) ) > ) z.) 4.A.e.7.&.t 9 v ~ R p U b B B R R B ) ..6.6.e ~ ",
"L < h p l Z Z Z l e e f g k N Z p t 0 0 9 q t l t e e t h Z Z l 1 t.) W ` ` 4.j.A.y.&.g 2 Z D Z w t e t N l t h K Z ; Z ",
"q.G -.[ { { &.%./ / { / H { =.&.' ' ' ' ' / ' ' ' ' J ' %.&.' G P M.<.t.6.5.6.6.<.y.F.F.r.$.J ' &.' / [ =.:.=.&.J x [ &."
};
