/* XPM */
static char *body_up1678380645[] = {
/* columns rows colors chars-per-pixel */
"60 60 163 2 ",
"   c #281820",
".  c #754203",
"X  c #7C480E",
"o  c #7B4614",
"O  c #7C4B11",
"+  c #9E3E37",
"@  c #814B0B",
"#  c #835217",
"$  c #835218",
"%  c #8B521D",
"&  c #8D5A1B",
"*  c #97621C",
"=  c #8E5D23",
"-  c #925E24",
";  c #946125",
":  c #986226",
">  c #95622B",
",  c #9A652B",
"<  c #9D692C",
"1  c #976230",
"2  c #9D6B33",
"3  c #9F7237",
"4  c #9F7039",
"5  c #A2672B",
"6  c #A26A2C",
"7  c #A86E2F",
"8  c #AA752F",
"9  c #A46D31",
"0  c #A96F30",
"q  c #A56E38",
"w  c #A47235",
"e  c #AB7635",
"r  c #AD7836",
"t  c #A6743A",
"y  c #AA763A",
"u  c #A47C3F",
"i  c #AD7A3C",
"p  c #B27532",
"a  c #B57C37",
"s  c #B87936",
"d  c #B37D3D",
"f  c #B97E3D",
"g  c #996E43",
"h  c #9E7243",
"j  c #AA7641",
"k  c #A77A43",
"l  c #AD7B41",
"z  c #AF7F4E",
"x  c #B27642",
"c  c #B47E42",
"v  c #BA7E42",
"b  c #B37B4A",
"n  c #AB813E",
"m  c #B5813E",
"M  c #BB813E",
"N  c #BD8B3D",
"B  c #AD8242",
"V  c #AD8842",
"C  c #B68143",
"Z  c #BA8344",
"A  c #B48B45",
"S  c #BE8946",
"D  c #B58349",
"F  c #BC8649",
"G  c #B58C4A",
"H  c #BE894B",
"J  c #AD8851",
"K  c #B58753",
"L  c #BD8C52",
"P  c #BC8E5A",
"I  c #BE9251",
"U  c #BC955F",
"Y  c #B68B60",
"T  c #B68F70",
"R  c #C28544",
"E  c #C18845",
"W  c #C1864A",
"Q  c #C28B4D",
"!  c #C88C4C",
"~  c #C4914E",
"^  c #CE964B",
"/  c #C08450",
"(  c #C38D51",
")  c #CA8E55",
"_  c #C38E5C",
"`  c #CB8F5D",
"'  c #C59253",
"]  c #CB9455",
"[  c #CB9B57",
"{  c #C4935B",
"}  c #CB965A",
"|  c #C59A5D",
" . c #CD9A5B",
".. c #D19757",
"X. c #D59D54",
"o. c #D1955C",
"O. c #D29C5C",
"+. c #D89E5E",
"@. c #C7A05D",
"#. c #D5A15E",
"$. c #DBA45C",
"%. c #C38E64",
"&. c #D28560",
"*. c #C39561",
"=. c #C59B64",
"-. c #CB9C63",
";. c #C2906D",
":. c #CC9D69",
">. c #D39E61",
",. c #DA9F63",
"<. c #D49F6D",
"1. c #CDA364",
"2. c #CEA16A",
"3. c #CDA96F",
"4. c #D4A164",
"5. c #DBA465",
"6. c #D4AA66",
"7. c #DCA965",
"8. c #D3A46C",
"9. c #DBA66B",
"0. c #D5AA6B",
"q. c #DDAA6B",
"w. c #DFB26E",
"e. c #C7A371",
"r. c #D4A572",
"t. c #DAA271",
"y. c #DCAC71",
"u. c #D4A879",
"i. c #DFB175",
"p. c #DDB57E",
"a. c #E1A767",
"s. c #E1AC66",
"d. c #E2A769",
"f. c #E2AB6C",
"g. c #E8B065",
"h. c #E5B06E",
"j. c #EAB56D",
"k. c #EAA377",
"l. c #E3AD73",
"z. c #E5B174",
"x. c #E9B475",
"c. c #E5B877",
"v. c #EAB977",
"b. c #E5B37A",
"n. c #EBB57A",
"m. c #E5B97D",
"M. c #EBB97C",
"N. c #F3BB7B",
"B. c #E2B687",
"V. c #E4BD82",
"C. c #ECBD82",
"Z. c #EEBC8B",
"A. c #F2BE82",
"S. c #EDC185",
"D. c #EFC58B",
"F. c #F4C284",
"G. c #F1C088",
"H. c #F7C594",
"J. c #F5CC9D",
"K. c #FFD59A",
"L. c #FFD5A4",
"P. c #FDD5B7",
"I. c #FBECE6",
/* pixels */
"e.z } >.` { { _ H L K L ( } } _ } _ H L L L H _ L L L L ( L L L b l.t.<.k.<.8.t.t.r.r.B.Z.H.L.{ k -.U I @.[ ' | =.*.;.T ",
"U 4 b v x l x x d D Z b Z D L D D c x l y y j x l i k i l l k y , O.>.( } -.4.5.O. .O.O.] O.z.[ 1 D H C m C F D A Z D J ",
"=.k F R m i c c d H Q Q D Z F Q H ~ Q H F Z c S Z C Z Z Z Z Z Z 8 X.s.$.$.a.7.$.f.5.7.q.l.5.O.#.j C L C d v H / N N ~ G ",
"1.V ) ! Z m Z v C S ~ ~ F Z S E S Q Q Q E S m m M v Z f f f v R * Z j.N.x.s.s.j.5.d.+.O.a...] N.t b F Z v Z ( ) Q E ( K ",
"| i ! ! Z m m M d M Z M M d M Z E Q S S ! Q M d f Z f Z f f Z R d : , w F ] ] >.g.j.$.X.X.X.$.^ % F Z a Z E Q W ( / W D ",
"| e R ! N m Z f Z v M C Z d M Z ~ E M d E Q Z v f f f c d f f f %.D x q , 1 1 9 a +.n.M.O.s.h.6 - _ H d S v W ( H F b C ",
"| t R R m m C v v c v Z Z c Z Z ! ) Z c E Q Z Z Z Z Z v Z Z Z v x c D ( ` } _ Q 2 1 1 j _ b._ o H } A m Z a v ( D d m n ",
"=.t v f d d v v v v F ( W W W Q H ) F v ( W x c c                     E Q W E Q } L j = - = O t *.H m m m S W F B C C V ",
"| i C m M M C D Z s Z ~ H Q ~ H R Z v S W ! W     + k.k.P.P.P.k.k.k.+     / ( W F Z ! } ! D Z ) F D Z Z F ( Q C m d Z l ",
"{ y C C M Z Z C M Z Z Z Q Q C H c c d C S Q   + k.P.P.P.P.P.P.P.P.k.k.k.+   v x c c C Z F S H F Z v D Q Q Z Q ) n Z D D ",
"| t C M E Q F D a Z s Z Q Q ' C H ( L L D   + k.P.P.P.P.P.P.P.P.P.P.k.k.k.+   d C D c d C C C d x Z a c S F F i H E c C ",
"| y C Z Q ! Q D E m d S H L H y j t t t q   k.P.P.P.P.P.P.P.P.P.P.P.P.k.k.k.  x a Z Z d m Z m m Q ( H O.l.f.l.O.C S H k ",
"-.y C Z E ! H C H i Z Z Q L i 4.S.C.C.m.  + P.P.P.I.I.I.P.P.P.P.P.P.P.k.k.k.%   d Z m Z H Z m m S c H 7.z.5.f.x.I n D B ",
"| y c f Z S F C d a d ' F i  .C.b.b.b.M.  &.P.P.P.I.I.I.P.P.P.P.P.P.P.P.k.B.&.  C m m Z ~ S d d H Z } 5.} ] >.>.w.E x A ",
"| y c d M Z F F Z H F { B F m.9. . .4. .  k.P.P.P.I.I.I.P.P.P.P.P.P.P.P.k.k.k.  m m d d Q ~ Z Z H C  .5.} 5.5. .6.q.Q D ",
"| i Z c M E Q Q H H [ i D M.z.{ O.O.O. .  k.P.P.P.P.P.P.P.P.P.P.P.P.P.P.k.k.k.  C ~ S a Z Z a c ) 7  .n.f.5.5.7.h.7.9 L ",
"-.C S Q Q F Q H ( L L i l.N.O.O.O.[ ..  + k.P.P.P.P.P.P.P.P.P.P.P.P.P.P.k.k.k.+   L ( D Z D ) c H Z d Z  .4.5.n.O.7 d I ",
"1.c Z E ! E Q H L ' w 9.n.O.O...O. .O.  + &.P.P.P.P.P.P.P.P.P.P.P.P.P.P.k.k.&.+   G _ H ( ( ( Z Z H c i d C x F w v ' B ",
"2.l Z H E Z F H L i _ A.5.] O.O.#.O.O.  k.&.k.P.P.P.P.P.P.P.P.P.P.P.P.k.k.k.&.k.  D Q ( ( H Q W d F H ( ' F d r Z W D i ",
"| t Z E ! Z F H D C A.q.] O.O.O.7.7.5.  P.k.k.P.P.P.P.P.P.P.P.P.P.P.P.k.k.k.k.P.  l H H F F / H Z c d Z ) E c Z D Z c V ",
"| i ( ! ! c c D i y.x.[ 5.[ +.O.7.f.7.  k.P.k.k.P.P.P.P.P.P.P.P.P.P.k.k.k.&.P.k.  i H D H ' / F Q Z C Z Q S c Z i v F C ",
"r.b ( F Z v D Z 4.z.[  .O.#.5.a.5.5.5.5.  P.&.k.k.k.P.P.P.P.P.P.k.k.k.k.k.&.P.  y C ( C H ( ( ( F Q ' ' ' Q Z c H f Z I ",
"8.j D a f H D D F.4. .#.~ a.7.d.O.O.O.O.O.  + k.k.k.k.k.k.k.k.k.k.k.k.k.k.+   , B F H i H ( W / ) Q F c c c c D i v E L ",
":.j D c W Q t ; x.q.7. .5.5.f.O. .O.7.f.>.O.  &.k.k.k.k.k.k.k.k.k.k.k.k.&.  ' ' L C l D ( H ( H Q c c S Q Q E Q F S F G ",
"8.c x Z a S Q X r N.5.a.d.+.f.,.q.F.'         + &.k.k.k.k.k.k.k.k.k.k.&.+         F H F H H H ! H H ' F Q F Q Q S ! ! G ",
":.D Q S d Z ( t @ 7.N.x.5.h.C.l.' :   + k.k.&.&.+ + k.k.k.k.k.k.k.k.+ + k.&.k.k.+   Q H Q Q H F ' H Q H ' Z C c S W H H ",
":.D ] F f c Z ] & & c 4.n.>.t > .   + I.I.I.P.P.k.k.k.k.k.k.k.k.k.k.k.k.P.P.I.I.I.+   ' ) Z c C E F F F F c C C m d c A ",
"-.i Q S Z c a _ L = # $ - - - t n.  P.I.I.P.P.P.P.k.k.k.k.k.k.k.k.k.k.P.P.P.P.I.I.P.  H Q Z d C Z ( Q Z Z Z H E S Z c B ",
"| e C N M f d C L | | l w c l.Z.  &.P.P.P.P.P.P.P.P.P.k.k.k.k.k.k.P.P.P.P.P.P.P.P.P.&.  F Z Z F F ' Z i r i Z F S d D A ",
"{ e C m a m Z d d c x ' L K l.n.  &.k.P.P.P.P.P.P.P.P.P.P.P.P.P.P.P.P.P.P.P.P.P.P.k.&.  c Z c Z Q Q d ( >.>.9.l.[ Z c k ",
"| y Z M m M Z C Z d r Q c Q z.>.  k.k.&.&.P.P.P.P.P.P.P.P.P.P.P.P.P.P.P.P.P.P.&.&.k.k.  c C d D Z Q C 5.x.f.5.5.v.4.{ k ",
"| i Z M M Z m C M f v E 7 ] N.5.  k.k.k.+ &.k.P.P.P.P.P.P.P.P.P.P.P.P.P.P.k.&.+ k.k.k.  Z F Z Z Z ( c ] O. .] o.[ 9.z.1.",
"V.| k ( Z M m m m S C H 7 : f.n.  &.k.k.    &.k.P.P.P.k.P.P.P.P.k.P.P.P.k.&.    k.k.&.  x v Q ( Q ] r ] f.o.O.4.O.o.] q.",
"S.1.L Z ~ E M M Z ~ F E ' < w 4.  &.k.k.+   + &.k.P.P.k.P.P.P.P.k.P.P.k.&.+   + k.k.&.  v W W F F Q v Z >.7.o.>.5.,.O.1.",
"m.8.4.i Z Z m m a d C H } d - 5   &.&.&.+ +   &.&.&.k.k.P.P.P.P.k.k.&.&.&.  + + &.&.&.  H E Z m ' Z ! F Q 5.l.,.q.d.7.1.",
"z.1.z.Z d m m C Z d E H F } } Z   + &.&.&.    &.k.k.k.k.P.P.P.P.k.k.k.k.&.+   &.&.&.+   Z Z d d H F ' H d Z 5.7.9.5.f.0.",
"c.| f.O.d d C A C S d D S E ( _ C   &.&.&.  + k.k.k.k.k.P.P.P.P.k.k.k.k.k.+   &.&.&.  d C Z d m c ' L c | C D 9.7.5.7.0.",
"v.' O.f.H C C l a Z r Q ] F Z Q H   1 &.+   + k.k.k.k.P.P.P.P.P.P.k.k.k.k.+   + &.+   Z C m Z Z F D H D z.9.c ( l.l.5.6.",
"v.] [ q.5.C D V c S F ' Z c c Z ' H         &.k.&.k.k.P.P.P.P.P.P.k.k.&.k.&.        Z Z Z m Z Z D l L D 9.n.>.l 4.x.4.1.",
"w.] ] O.z.y C B E Q E H Q ) l c C H ( !     k.k.&.k.k.P.P.P.P.P.P.k.k.&.k.k.    Z d d Z m d d d l ' L i 8.A.G.c i 9.O.@.",
"m.} n.n.5 9 H S ( L ( L H _ ( x c c Z H   + P.P.k.+ k.k.P.P.P.P.k.k.+ k.P.P.+   S C m Z Z C C M F ' Q d i d a < d ] f.@.",
"y.L H v 5 F ( i ( H Q H H H Q F Z Z Z F   &.P.P.P.&.+ &.&.k.k.&.&.+ &.P.P.P.&.  Z m d C d d C Z Q H Q ' c 9 w D H E  .@.",
"D < , e Z ] F Z W Z Z ~ E S v C C c c c   &.P.P.P.k.+             + k.P.P.P.&.  d m Z Z m d m Z Z H Q ' E Z H ( H c i 3 ",
"0.L ) ] ) Q Z H Q Z d Z H Z m C d c Z Z   &.P.P.k.&.  Z Z Z S S c   &.k.P.P.&.  c Z E ( H C c Z C Z F F H ( Z d d Q ) G ",
"*.F ( H R ( Q F Z Z Z C Z M m m d Z F F   + k.k.k.+   Z c C M d a   + k.k.k.+   C C F Q Q H Z Z c a D Q Q d d Z C ( ) G ",
"-.D H ( Q F d r m Z S C m C Z S D c Z Z   + &.&.k.  Q F Z m C C D c   k.&.&.+   Z C c Z Q Q H H Z C Z ) Q D Z ' ' Q H A ",
"8.y c W ( v d H H H Z b v W H ( Z c c   + + &.&.&.  H F Z C Z S Z Z   &.&.&.+ +   D D F / H ( ( H Q H Z F F H Z H W ) G ",
"1.j c Z F ! ' H D Z Z / >.-.D c Q Z   + + &.k.k.k.  c Z c d C W Q !   k.k.k.&.+ +   H ( ) ( Q H Q H H ) Q Q H ' H F ( A ",
"2.c s s Z -.t ) -.' >.b.l.i.q.-.Z F   + + k.P.P.k.  c c E Q S F ) H   k.P.P.k.+ +   ! Z C Z H E H Q E Z F ( ) H c v E G ",
"2.D R R H l C f.l.n.z.4.} 4.l.l.n.G   &.&.I.I.P.&.  C d D F F Q Q Q   &.P.I.I.&.&.  H Z C m F E Q ( F Z Z H H Z C v ) G ",
"=.D R s L 4 { q.' X.O.]  .O.o.] z.'   &.k.I.I.P.&.  F C C Z S ( F '   &.P.I.I.k.&.  m Z d d Z S Q H H D Z H F C C Z Q F ",
":.D R p ' 2 H 7.+...] +.7.5.+.5.z.4.i   + k.P.&.+   Q H Z C c F Q H   + &.P.k.+   d m m m d Z S F Z Z Z H H Z C D Z F A ",
"=.r f R ( 2 t M.] +.a.f.a.5.a.f.q.C w '           F ) ~ S Z Z C ( ( H           Z d m Z Z C Z E C c Z H Q H Z d C d v B ",
"*.8 s R L D ,  .z.x.j.#.] 4.5.O.i w e H D ! H S d Z Q Q F Z C C b  .( F ) H C d Z Z Z C C Z H Q D c Z E ) H C C Z d c i ",
"-.c M s C K < < y F [ 9.z.4.C , u ( S B Z ! E H c C H H F Z Z c F ) x y D Z Z H H H Z m a Z S F Z d C F Q H F H H Z Z B ",
"=.t f f D D F Z q 2 2 i D w w L ' F D F F S Q H C c F ) Q H D d ] t 9 c d a ' } ! Q S m i d f Z Z d c Z H H Q ] _ W H V ",
"*.t Z f M E Z F ) ..W 0 < Z ] Q Q Q Q ( Q Q Q ! Z v W E ! H S H b 2 M.K.S.P h g t Z ' R M M f v Z c x ( Z Z t.x.f.Q i ) ",
"-.y d d Z Q Q W W F Z F F H Q H H S Z Z Z S Q Q Z F Z H L ( ( ' < ] v.~ 6.F.y.0.-.l w C ' Q f Z c S C ) ~ Z ]  .q.9.t H ",
"U 2 l a c F F D x e t j l x D D i i r e e i i c y y y k c D D l 3 i.[ I [ [ 7.z.D.p.-.k 4 b D G y i e i Z c i x L D , D ",
"r.K -.-.} -.| =.{ { } _ P } -.-.} { { { { _ { { { { _ { *.=.| L Y B.2.i.q.8.9.9.3.B.J.H.u.*.U ' =.*.{ *.:.<.-.-.L D =.-."
};
