/* XPM */
static char *body_rigth1678380644[] = {
/* columns rows colors chars-per-pixel */
"60 60 162 2 ",
"   c #281820",
".  c #754203",
"X  c #7C480E",
"o  c #7B4614",
"O  c #7C4B11",
"+  c #293D4B",
"@  c #9E3E37",
"#  c #814B0B",
"$  c #835217",
"%  c #855418",
"&  c #8B521D",
"*  c #8D5A1C",
"=  c #97621C",
"-  c #8E5D22",
";  c #925E24",
":  c #936125",
">  c #986226",
",  c #95622B",
"<  c #9A652B",
"1  c #9D692C",
"2  c #976230",
"3  c #9D6B33",
"4  c #9F7237",
"5  c #9F7039",
"6  c #A2672B",
"7  c #A86E2F",
"8  c #AA752F",
"9  c #A36D31",
"0  c #A96F30",
"q  c #A56E38",
"w  c #A47235",
"e  c #AB7535",
"r  c #AD7836",
"t  c #A6743A",
"y  c #AA763A",
"u  c #A47C3F",
"i  c #AC7A3C",
"p  c #B27532",
"a  c #B57C37",
"s  c #B87936",
"d  c #B37D3D",
"f  c #B97E3D",
"g  c #996E43",
"h  c #AA7641",
"j  c #A77A43",
"k  c #AD7B41",
"l  c #AF7F4E",
"z  c #B27642",
"x  c #B47E41",
"c  c #BA7E42",
"v  c #B37B4A",
"b  c #AB813E",
"n  c #B5813E",
"m  c #BB813E",
"M  c #BD8B3D",
"N  c #AD8242",
"B  c #AD8842",
"V  c #B68143",
"C  c #BA8444",
"Z  c #B48B45",
"A  c #BE8946",
"S  c #B58449",
"D  c #BC8649",
"F  c #B58C4A",
"G  c #BE894B",
"H  c #AD8851",
"J  c #B58753",
"K  c #BE8C52",
"L  c #BC8E5A",
"P  c #BE9251",
"I  c #BC955F",
"U  c #B68F70",
"Y  c #C28543",
"T  c #C18845",
"R  c #C1864A",
"E  c #C28B4D",
"W  c #C88C4C",
"Q  c #C4914E",
"!  c #CE964B",
"~  c #C08450",
"^  c #C38D51",
"/  c #CA8E55",
"(  c #C38E5C",
")  c #CB8F5D",
"_  c #C59153",
"`  c #CA9455",
"'  c #CB9B57",
"]  c #C4935B",
"[  c #CB965A",
"{  c #C59A5D",
"}  c #CD995B",
"|  c #D19757",
" . c #D59D54",
".. c #D1955C",
"X. c #D39C5D",
"o. c #D89E5E",
"O. c #C7A05D",
"+. c #D5A15E",
"@. c #DBA45C",
"#. c #D28560",
"$. c #C39561",
"%. c #C59B64",
"&. c #CB9C63",
"*. c #C2906D",
"=. c #CC9D69",
"-. c #D29E61",
";. c #DA9F63",
":. c #D49F6D",
">. c #CDA364",
",. c #CEA16A",
"<. c #CDA96F",
"1. c #D4A164",
"2. c #DBA465",
"3. c #D4AA66",
"4. c #DCA965",
"5. c #D4A46B",
"6. c #DBA66B",
"7. c #D5AA6B",
"8. c #DDAA6B",
"9. c #DFB26E",
"0. c #C7A371",
"q. c #D4A572",
"w. c #DAA271",
"e. c #DCAC71",
"r. c #D4A879",
"t. c #DFB175",
"y. c #DDB57E",
"u. c #E1A767",
"i. c #E1AC66",
"p. c #E2A769",
"a. c #E2AB6C",
"s. c #E8B065",
"d. c #E5B06E",
"f. c #EAB56D",
"g. c #EAA377",
"h. c #E3AD73",
"j. c #E5B174",
"k. c #E9B475",
"l. c #E5B877",
"z. c #EAB977",
"x. c #E5B37A",
"c. c #EAB67A",
"v. c #E5B97D",
"b. c #EBB97B",
"n. c #F3BC7C",
"m. c #50D4EC",
"M. c #E2B687",
"N. c #EDBD82",
"B. c #EEBC8B",
"V. c #F2BE82",
"C. c #EDC185",
"Z. c #EFC58B",
"A. c #F4C284",
"S. c #F1C088",
"D. c #F7C594",
"F. c #FFCD92",
"G. c #F5CC9D",
"H. c #FFD59A",
"J. c #FFD5A4",
"K. c #FDD5B7",
"L. c #FBECE6",
"P. c #F2F8F9",
/* pixels */
"0.l [ -.) ] ] ( K K G K ^ [ ] ] ] ^ K ^ K K K K K K ~ P ^ K K K v h.w.:.g.:.:.w.w.q.5.M.B.D.J.] j =.] P } _ ] { $.$.*.U ",
"I 5 v c z k z z k V S v S S D D S x z k i y y z k k k i k k i j < | -.^ [ &.2.4.X.} 1.| ` X.j.} , S F V Z V D S Z C J H ",
"%.j D Y n i x z d D Q E C C R E E E ~ G C C V C C V C c C c C C 8  .i.+.2.i.4.+.a.2.4.8.h.2.| -.h V G C d C G ~ M M G F ",
">.B / W C n C C m A Q E D V A E A E E Q E A n n c V f C c f C C = C f.n.f.i.i.f.2.u.;.X.p.| ' n.t v G V f C ^ / Q T ^ G ",
"{ d Y W M n n m m m C C m d m C T Q T T Q W m m f C m m f m C Y y ; 6 e c [ ] -.s.f.@. . . .@.! & S C d C Y / R ~ R ~ H ",
"{ r R W C n C f C V m n m d m C E T V d T T V m f f f f f d f f &.v z q 2 2 < 9 p X.z.b.X.u.d.1 ; ^ G n C C Y / G S C S ",
"I e Y Y m d V f c z x C C x C C Q ^ C x E ~ D C C                   D ^ / [ _ G 5 2 2 h / M./ o K / A n C a c ~ V V V b ",
"%.t c c d d C c C c R ^ ~ R R E D / R c E R z     @ #.g.K.K.K.g.#.@     E E E E [ K h ; - - O t %.K n b n A G D N V C B ",
"{ i C n m V V V C a C W G E E G T V c D R R   @ #.K.K.K.K.K.K.K.K.g.#.2   ~ ~ E C D ^ ' ^ C C E C V C C D W E V Z d C k ",
"{ t V n m C C V V Y C C Q E V E c c d V T   @ g.K.K.K.K.K.K.K.K.K.K.g.g.@   c c x d x D G D G G C c C E E D E _ b V S V ",
"{ y x V T T G V a V a C E E _ V G K K K D   g.K.K.L.L.L.K.K.K.K.K.K.K.g.g.  z i C C d d x V V d V C d x C D D i G T c S ",
"} y V C W ^ E S T n d G E G D i j t t t   @ K.K.K.L.L.L.K.K.K.K.K.K.K.K.g.@   c d V V m V V n V E ~ G X.h.a.h.X.Z D D j ",
"%.y V C T W G V G d C C G K i -.S.N.v.v.  #.K.K.K.L.L.L.K.K.K.K.K.K.K.K.g.#.  D d V V C T A n C D x G p.j.2.a.k._ r x N ",
"{ y x n C A D V d d V _ G i &.N.x.x.b.b.  g.K.K.K.K.K.K.K.K.K.K.K.K.K.K.g.g.  D V m n m Q A a i G C [ 2.[ ` -.-.9.A x S ",
"{ t x d m C D D C G C _ N S b.5.} >.1.}   K.K.K.K.K.K.K.K.K.K.K.K.K.K.K.K.g.  C a V a d W E V V G V X.2.' 6.2...3.8.G S ",
"} i C x m T E E G G } i V N.j.] X.X.| }   K.K.K.K.K.K.K.K.K.K.K.K.K.K.K.K.g.  D C Q A n C C n x _ 7 [ c.4.4.2.2.d.4.w G ",
">.V C E W C E G _ K ~ i h.V.| -.| ' | X.  K.K.K.K.K.K.K.K.K.K.K.K.K.K.K.K.g.  ^ K K _ V S D ^ c G C d C } ;.4.c.-.0 d P ",
"=.V C E W G E G K _ t 6.c.X.-.| X.} X.X.  g.K.#.#.#.K.K.K.K.K.K.K.K.K.K.K.K.  j D S _ G ^ E ^ C D G x y d x d C w V _ N ",
">.x C A T C R G K i ^ V.2.` X.| X.X.X.}   #.g.#.K.#.g.K.K.K.K.K.K.K.K.K.K.K.  6.&.C ^ K ^ G ~ R d D E W ` D i i C R C i ",
"] t C E T C D G S V V.8.` X.X.X.4.4.4.X.  #.g.#.K.K.g.g.K.K.K.L.L.K.K.K.K.g.  F.8.k G K G G E D C x x C ^ D V C C c d N ",
"] i K ^ R C V C i h.j.} 2.} +.X.p.a.8.i.i.  #.#.K.K.K.g.K.g.#.@ @ g.K.K.K.  ^ N._ i G S G ^ _ D E C x C E C V C i c D C ",
"q.S ^ A C x V S >.j.' } | +.4.u.2.2.2.2.2.2.  @ #.K.g.g.K.g.m.m.    K.K.K.  k S y S _ z G _ ~ E D E _ _ _ G C x G V D F ",
"5.k V d c R D V A.1.} +.^ u.4.a.X.X.X.X.} ' o.  @ @ g.g.g.K.K.P.+ + K.K.K.  i < N F G k G R ~ ~ ^ E D x z V V V d c T P ",
"=.h D z D E t : l.8.4.} 4.2.a.| } X.4.p.1.} X.    #.g.K.K.K.K.K.K.K.K.K.g.  ] ^ G V x S ^ G ^ E E C d D E E E E D C D F ",
"=.V V V a T ^ X r n.@.p.p.o.a.;.8.A.] V &.b.    @ @ #.g.K.K.K.K.K.K.K.#.  c f d d C G D G E G W E D _ D E G E E A W E K ",
"=.S ~ C d C ~ t # 4.A.d.2.d.V.h._ < % - :   @ g.g.@ @ #.g.K.K.K.K.g.@     ~ d Y x G G E E G G D ` G E E ^ C V d G T T F ",
"5.S ` T f V G ` * * k 1.b.-.q ; . 9 6.c.  @ L.L.L.K.g.@ @ @ @ @ @ @ @ 2 @ c 0 v D E E ^ ^ D V V G C D C D x V V n d x F ",
"%.i E C V n d ^ K - $ $ ; ; ; h z.V.c.k.  g.L.L.L.K.K.K.g.g.g.g.g.g.#.#.#.  c c E E G E E C d V C ^ E D C C D E A V x N ",
"{ t C V m n d V K } ] k t z e.V.z.p.a.  @ K.L.L.K.K.K.K.K.g.g.g.g.g.g.g.g.  G Z G C V C D C V D D _ x d i d x D C d V F ",
"_ t n m f a V V d V x _ K S x.x.X.+.8.  #.K.K.K.K.K.K.K.K.K.K.K.K.K.K.K.K.  C _ E G V x V x c C E E d ^ X.-.p.h.' C V j ",
"} y M m n n C C V d i E V ~ j.;.+.|   @ K.K.K.K.@ g.g.K.K.K.K.K.K.K.K.K.K.  y _ E E C x V V x x C E V 2.k.a.2.2.l.2._ u ",
"%.i C m m C n V m f m T 7 ` n.2.X.X.  #.K.K.K.@ #.#.K.K.K.K.K.K.K.K.K.K.g.  i K x D C x C D C D C ^ d ` -.} ` } } 2.x.>.",
"C.I i _ C Y a n n C C D w > a.c.1.d.  K.K.K.#.  @ g.K.K.K.L.L.K.K.K.K.K.g.  K y G d d V V V W E E ` r ` a.| X.o.} | [ 8.",
"C.>.K C E T C n C ! D T ` < w 1.} Z   g.K.K.g.@   g.g.g.K.K.L.L.L.K.K.K.@       T V m V C A G A C E c C ;.2.[ ;.2.2.X.>.",
"v.5.>.r A C n n n d V G [ d = 6 1 1   @ K.L.K.g.@       g.#.#.g.g.K.K.g.  @ #.#.  C V V A G C n ` C E G E 6.h.1.a.p.4.&.",
"l.>.j.C i a n C V a G G R | ] S _ _ ^   @ K.L.K.K.g.#.@   g.K.K.K.L.L.#.  #.#.#.  G n d C C x a G G _ G d V 2.8.6.2.a.7.",
"l.{ h.X.d d V Z V C d V C G ^ ^ C D A V   #.K.K.K.K.K.K.#.  K.L.L.K.K.@   #.#.#.  E C n V V d m k _ ~ V } V V 6.8.2.8.7.",
"z._ X.a.G V V N a C i E ` D D E F C x V V     #.K.K.L.K.K.  K.K.K.K.K.@   #.#.@   T T C n V V C D C G S x.6.x ^ h.a.2.3.",
"z.' ' p.2.x D N V A D _ D c x C _ D V C T D     K.K.K.K.@   g.K.K.K.g.@   #.#.  G V C C V V V C S j ^ S 5.v.-.k 1.j.2.>.",
"8.` Q X.k.t N N T E T G E ^ k x C _ E _ ~ R _   @ K.K.@     g.g.g.g.g.#.      t C d d V m n V a k _ K i 5.V.S.x i 4.-.O.",
"v.[ c.c.6 7 G A ~ ^ ^ K G / ^ v x x C G ^ ^ ~ E           g.#.@ @ #.g.g.  j.1.3 A V n V C C V m C _ W d i d d 1 i ` 8.{ ",
"e.K G c 6 G ^ i ^ G E E G G R S C C C C G T E E   #.g.K.K.g.@   #.#.g.g.  =.* 9 V V d V d d V C E G ^ ^ V 9 w C E T } >.",
"S < 6 e c ` D C E V C E W C V V V x x x x V C     g.g.K.K.g.  @ #.g.g.#.  * 3 G n m C C V a n C D G E _ G C D ^ G c d w ",
"7.K ^ ] / E C T Q V n C A C m V x x C C V x d   @ g.K.K.K.@   @ g.g.g.@ w C ^ C x C G E R V V V x C G D G E C d i W ^ F ",
"%.D ^ D C ^ E D C C V C C C n n x C D D G D C   #.K.K.K.#.    #.g.g.#.  R ' z V V V G ~ ^ G C C V i V W E x d D C ^ ^ F ",
"&.S E ~ E D d i n C D c n V V A V V C C G E E   #.g.K.g.@     #.g.g.@   ` S D C V V V C E E G G C x D ^ E V C _ P E E F ",
"5.j V E W c x G G E C x x G G ^ C x x V D E E   g.g.g.@   V   g.g.g.@   ^ E E R D C S D G E E ^ T ^ G D D D D C G R ^ F ",
"1.y x V R E _ G C S S ~ -.[ G x G C C C G E   @ g.g.g.    d   g.g.K.g.#.    T E E D G ^ _ ^ ~ G G G G W _ G E ^ G T ^ F ",
",.x s s C =.9 _ &._ 1.x.e.x.e.&.C D _ G E Q   ) g.g.#.#.      g.g.K.K.g.g.g.  T T _ E C V C G G G E G C D ^ _ G x c E F ",
"0.V Y Y G k V a.j.j.j.1.[ -.a.h.c.S i _ C C   g.g.K.K.g.@     @ g.K.K.K.K.K.  T C C A C n V D E E W G V C G E C x C E F ",
"%.S Y s ^ 5 ] a./ | | ' } X.| ' j._ w E C c   #.#.K.K.K.K.K.#.                V V m m V n d C T E G D C C G D V C C E F ",
"=.S Y p ^ 3 G 4.o.| | o.4.2.;.2.j.1.i P C V R   #.#.g.K.K.g.g.  K G E G i a G n V d n n d d V T D C C C G E C x V c D C ",
"&.r m Y _ 3 t b.` o.u.a.u.2.p.a.8.Z w ` x C W A               V ~ ^ E ~ C d V n C n V C V m C E x x C G E T D x V z V N ",
"$.w s Y K S < } k.c.d.o.' 1.4.X.i w t F C ^ E C x C E W D C V V S } ^ G _ G V d C C V V V V G ^ C x C T ^ G V x C f c b ",
"%.x m s S K 3 1 y D [ 4.h.-.V < y K D V D Q T G V V G E G D C x D ^ x y x V C T G A C V d C C T C x x G E G D G G C S N ",
"$.y f a x S D V w 3 3 j V w w G _ G C C D D T G d x G ^ E D D d [ t 9 V z d ` } W E A d a d V c C x x C G G E ` ^ R R B ",
"%.t C f C T C D / | R 0 1 V ` E E E ~ / W ^ ~ R C C T E E A C G v 9 b.H.C.I 5 g q D ` m f m f c S c x ^ S C a.c.a.G y ^ ",
"&.t d d C E T K R C D C D E ^ G A A C C C A Q Q C C S G K ^ _ _ 1 ` z.Q 3.A.e.7.&.k w V _ K f C d C C E E C / | e.6.y ^ ",
"I 3 z d x D S S c t y h k k v S i i r e t e i d h y e h N S S k 4 t.{ Q ' } 5.j.Z.l.%.j q S K S y i y i V x i k L S , S ",
"r.J &.} } } } %.( ] $./ ^ ] =.&.[ ] ] ] ] ] ] ] ] ] / ] ] =.] K L M.,.t.8.5.6.6.<.y.G.G.r.I K ] &.] ] $.=.:.=.&.K S } &."
};
