/* XPM */
static char *robe_rigth1678380645[] = {
/* columns rows colors chars-per-pixel */
"60 60 176 2 ",
"   c black",
".  c #130D14",
"X  c #1D131E",
"o  c #2B1C1D",
"O  c #3E2613",
"+  c #281820",
"@  c #62351C",
"#  c #794509",
"$  c #7C4913",
"%  c #4C4037",
"&  c #6B4431",
"*  c #744B30",
"=  c #293D4B",
"-  c #5A4C41",
";  c #5E5252",
":  c #776456",
">  c #9E3E37",
",  c #814B0B",
"<  c #865219",
"1  c #8D5A1C",
"2  c #97621C",
"3  c #8E5D23",
"4  c #925E24",
"5  c #946125",
"6  c #95622B",
"7  c #9A652B",
"8  c #9D692C",
"9  c #976230",
"0  c #9D6C33",
"q  c #9F7237",
"w  c #9F7039",
"e  c #A26B2C",
"r  c #A56B2D",
"t  c #AA752F",
"y  c #A36D31",
"u  c #A96F30",
"i  c #A56E38",
"p  c #A47235",
"a  c #AB7535",
"s  c #A67439",
"d  c #AA763A",
"f  c #A97A3B",
"g  c #AC7A3C",
"h  c #B57734",
"j  c #B57C37",
"k  c #B37D3D",
"l  c #B97E3D",
"z  c #996E43",
"x  c #996B4A",
"c  c #9E7243",
"v  c #AA7641",
"b  c #A77A43",
"n  c #AD7B41",
"m  c #AF7F4E",
"M  c #B47E41",
"N  c #B37946",
"B  c #BA7E42",
"V  c #A17C50",
"C  c #B27C5A",
"Z  c #8A7464",
"A  c #AB813E",
"S  c #B5813E",
"D  c #BB813E",
"F  c #BD8B3D",
"G  c #AD8242",
"H  c #AD8842",
"J  c #B68143",
"K  c #BA8444",
"L  c #B48B45",
"P  c #BE8946",
"I  c #B58349",
"U  c #BC8649",
"Y  c #B58C4A",
"T  c #BE894B",
"R  c #AD8851",
"E  c #BE8C52",
"W  c #B98B57",
"Q  c #BE9251",
"!  c #BC955F",
"~  c #B68B60",
"^  c #B68F70",
"/  c #C28543",
"(  c #C18845",
")  c #C1864A",
"_  c #C28B4D",
"`  c #C88C4C",
"'  c #C4914E",
"]  c #CE964B",
"[  c #C38D51",
"{  c #C68A57",
"}  c #CA8E55",
"|  c #C38E5C",
" . c #C59253",
".. c #CA9455",
"X. c #CB9B57",
"o. c #C4935B",
"O. c #CB965A",
"+. c #C59A5D",
"@. c #CD9A5B",
"#. c #D19757",
"$. c #D59D54",
"%. c #D1955C",
"&. c #D39C5D",
"*. c #D89E5E",
"=. c #D5A15E",
"-. c #DBA45C",
";. c #C38E64",
":. c #D28560",
">. c #C39561",
",. c #C59B64",
"<. c #CB9C63",
"1. c #C2906D",
"2. c #CC9D69",
"3. c #D29E61",
"4. c #DA9F63",
"5. c #D49F6D",
"6. c #CDA364",
"7. c #CEA16A",
"8. c #CDA96F",
"9. c #D4A264",
"0. c #DBA465",
"q. c #D4AA66",
"w. c #DCA965",
"e. c #D3A46C",
"r. c #DBA66B",
"t. c #D5AA6B",
"y. c #DDAA6B",
"u. c #DFB26E",
"i. c #C7A371",
"p. c #D4A572",
"a. c #DAA271",
"s. c #DCAC71",
"d. c #D4A879",
"f. c #DFB175",
"g. c #DDB57E",
"h. c #E1A767",
"j. c #E1AC66",
"k. c #E2A769",
"l. c #E2AB6C",
"z. c #E7B06A",
"x. c #EAB56D",
"c. c #EAA377",
"v. c #E3AD73",
"b. c #E4B174",
"n. c #E9B475",
"m. c #E5B877",
"M. c #EAB977",
"N. c #E5B37A",
"B. c #EBB57A",
"V. c #E5B97D",
"C. c #ECB97B",
"Z. c #F3BC7C",
"A. c #5187B3",
"S. c #B19998",
"D. c #C4B59F",
"F. c #D3B299",
"G. c #DBB89E",
"H. c #E7BA87",
"J. c #ECBD82",
"K. c #F2BE82",
"L. c #E1BDA3",
"P. c #EDC185",
"I. c #EFC58B",
"U. c #F4C284",
"Y. c #F7C594",
"T. c #F5CC9D",
"R. c #FFD59A",
"E. c #E9C4A8",
"W. c #EEC8AC",
"Q. c #F2CBAF",
"!. c #FFD5A4",
"~. c #F4CDB0",
"^. c #FDD5B7",
"/. c #E5E6C7",
"(. c #FBECE6",
"). c #F2F8F9",
/* pixels */
"i.m ;.%.O.o.>.{ E E T _ { o.o.| O.| E E E E E [ E E E E E [ E W N v.a.5.v.5.a.a.p.p.p.H.H.Y.!.;.b 2.! ' X. .o.o.+.;.1.^ ",
"! w B B M n N N n J m I I U T U I M N n g d d N n b n g n n g g 7 #.3.| ..3.0.0.@.@.3.O...&.n.X.6 I T L J L U I L J T R ",
",.b U / S g M N l U ' _ I K P _ _ _ ( T U J J K K K K K K K K K t $.j.-.0.h.-.-.l.0.h.l.v.w.#.9.v M E J j K U [ F F ( Y ",
"6.H } ` K S K B S P ' _ P K K ( P _ _ _ ( P J S l B l B B l B K 2 K x.Z.n.j.j.x.0.h.*.&.h.#...Z.s I U B M K { } _ ` [ W ",
"+.g ) ` F S S D l D K K S k D K ( ' ( P ` ` D l l K D D l l K K g 4 7 s U O.O.3.z.x.-.$.$.$.-.] 3 U K k K ) ` ) [ ) ) R ",
"+.a ` ` K S D l K S S D S l K K _ _ M k P _ K l l l l l l l l l O.N N i 9 9 4 y a *.M.C.*.h.z.e 4 [ T l P B ) } T I B m ",
"+.p / / S S J B B N M B K B K K _ [ P B ( [ K K K . . . . . . . . . . [ } <.o.U y 9 9 v | N.| $ I | L S D k B _ J J S A ",
",.p B l k k K B U B ) _ _ ) ) _ ( } U B _ U N . . O O @ @ @ * x x V V . ` ) ( _ O.E s 6 3 3 $ s <.[ S S S T U K J M L G ",
"+.g J S D J K J P j K _ T _ _ T K K B K ) ` . O o o O O O @ @ * * * * V . _ _ T K K _ O.[ K K [ B J K I U _ _ K J k K n ",
"+.d J B D K K J l K K P [ ( J _ B B M M P . o o O O O @ * * @ @ @ @ * * * . K M J M J K T U T U K M K _ _ P _ [ G K M L ",
"+.s M D ( ( T J j K j K  ._  .J T E [ E . o o O O O * * x x * * @ @ @ * x V . k J J J k l J J k M B k M U U U g Q ( M I ",
"+.d J K ` [ _ I T k l U T T U g s d s . o O O O O O @ * x x x x V V V V V V x . l K J l K J D S T [ _ &.l.v.l.3.J U ) b ",
"<.d J K ( _ T J T g K K T E d 3.I.J.J.. o O O O O @ @ @ * x x V . . . o o o V z . J J K T K S S U M _ w.v.0.h.n.Q g M G ",
"+.d M l K P U J k j l  .T g <.K.N.N.N.. o O O O O @ @ * x x V .       . . . o V . J S J ' P k k T K ..0.O...3.3.u.( N I ",
"+.d M l D K U U K T U o.G I C.t.@.9.=.. O O o O O O @ * * x V . % % - :     * . S S k k T ' K J ( J 3.w.O.0.0.&.q.y.T L ",
"+.g K M D ( _ _ T T X.d J J.b.o.&.@.. o O o o O O O @ @ * x V . W.W.G.F.:   * . D ' K S D P k l  .y O.B.l.0.0.r.z.w.p E ",
"2.J P _ ` T [ T [ E E g v.Z.&.&.&.X.. O O . o O O O O @ @ * V . ^.^.^.L.L.  x . T E [ J I U [ B U P k K @.3.0.B.&.u M Q ",
"6.M K ( ` ( _ U W o.p r.B.3.&.%.X.#.. O o . O O O O O O @ * V . ^.^.^.^.E.  x . U Y [ E [ { [ I U U M g M l M K p N ..H ",
"7.n K P ( K U U [ g [ K.0...&.X.*.3.. O . o O * @ O O O O @ x . (.^.^.^.~.  V . 9.I [ [ { U _ ) k K T [  .U k g P ) K f ",
"o.s K _ ( K P _ I J K.y...&.&.#.w.w.. O . o O * @ O O O O @ x . > c.^.^.~.  V . y.n U E U U _ U I M k U [ ( M K J B k G ",
"+.d [ [ ) K M I g y.m.X.0.X.0.*.w.l.. O . . O @ V @ O O @ * * . + + ^.^.W.. V .  .g T I T [ [ U _ K M K _ U J K g B P L ",
"p.I [ P K K M I 9.b.O.X.#.=.0.h.0.0.. O . . o O @ V x @ * . . ).+ A.^.^.Q.. * . p L [ M T [ ) E ) _  ... .T K M T B I T ",
"e.N M k B T U J U.9.&.3.' h.w.l.*.&.. O . . . O @ * V x .   Z ).= = ^.^.E.. . 7 M T T n E [ ) [ [ _ K M k M J K g B ) Y ",
"2.v I M ) ) s 4 m.y.w.@.0.w.l.#.O.&.. O o . . o O @ * * .   : ^.^.^.^.^.C . o.[ E n n U [ U [ ) _ K M U _ _ _ _ U K T T ",
"3.m M J k K _ $ a Z.0.h.k.*.l.4.y.U.. O o . . o o O @ @ * . . % F.E.G.&   K k k k U T K U T T _ T T [ U _ U _ _ P ` _ Y ",
"3.I _ K l K _ s , w.U.z.0.n.J.v. .7 . O o . . . o o O O @ x * . .     . . ) j K M U _ _ _ _ T T  .( [ _  .K J M P ) ( E ",
"2.J ..T l D K ..1 1 g e.B.3.i 4 # 8 . o . . O O O o o o O * x @ . . . O . K a K U _ _ [ [ T M J _ U U K U J J J S l M H ",
"<.n _ P K S N [ Q 1 < < 4 4 6 s M.K.. o . O @ @ @ O O O O @ * x @ @ o * O . K l _ T U _ _ P l M K [ _ K K K U T P K M G ",
"+.f J D D D k S [ +.O.n i n f.K.C.w.l.. O @ * * * @ @ @ @ * * x * o @ * * .  .J T P M K U K K U U ..M k g g B K J l J R ",
"o.p S D k k K k g S M [ E E v.N.*.*.w.. O @ * * * x @ * * x x * * @ o o . . L  ._ T M M M K M K _ _ M [ &.*.w.b.X.K J G ",
"+.d K S S D K J K k g _ M [ v.3.*.#.... O * x x x . . x x x x x o o . . * . f  .) _ K M M M M K K _ M 0.n.y.0.0.V.0.o.b ",
"@.g P D D K S J l l B ( u } Z.0.&.&.w.. . . . . . O * . . . . . . . * * @ . f E M U P M K U K K I _ k ..3.&.O.O.X.0.b.6.",
"P.! f  .K F j S S K K T e 5 v.B.9.b.n.. * * * O o @ * * * x x * * * * * @ . E g U M l J J J _ _ _ ..a ..l.#.&.3.&.#...s.",
"P.6.E K _ ` K D K ' K _ ..8 y 0.X.J M . * * x o . @ @ @ * * x x x * * * o . o.d T K S J K P T P U _ K K 4.0.#.3.0.4.&.6.",
"H.6.9.d K K S S S k J U O.k 4 e 8 8 e . @ * x o . O O @ @ O O @ @ * * @ . + 0.b P K S l P T K S ..K _ U _ 0.v.0.l.k.w.<.",
"m.6.b.P g S S L K j ( T U O...K [ X. .. O * * . . . O @ @ @ * * * x X X X :.+ g K K K k K K l k U U ..T k M w.r.0.0.l.t.",
"m.X.l.3.k l S J M P l M K ( [ [ J T U . o * . :.:.+ . @ @ @ * x X X ; S.X :.+ q K T K S J J l S M  .E I O.I J r.y.0.w.t.",
"m. .3.w.U J J G j K g _ O.U U [ T J J . . . ^.^.^.c.D.X X X X X D./.S.X . :.+ 0 P ( T K S J J K U I U J N.r.M _ v.v.0.q.",
"M...X.l.0.J I J M T U  .U M M I  .T M P + :.(.^.^.> ; /./././.D.; X X @ . > + p P K K K J S K K J n [ I 0.V.2.n 6.n.0.6.",
"y.....&.b.d G G ( _ ( T _ [ k M J [ _ [ + :.^.^.^.> X X X X X X X * @ * . + <.s K k k J S l S k n o.E d e.U.U.J g w.3.+.",
"V.O.B.B.e y T K E [ [ E U [ { M M M K U [ + :.^.^.^.+ @ @ @ @ @ * @ O * . b.3.0 K J l J K J J K U [ [ l g M k 8 k ..y.+.",
"s.E ) B r T _ k [ U _ T U [ _ I J K K P U _ + + + + O O O O @ @ O O @ * . 2.3 y K J S S k k S K [ ( _ [ J e p J T ( @.6.",
"I 8 7 d B ..U K ( K K ' ( P K M K M M M M M . o o O o O O O o O O @ * @ . 1 0 T l J K K S k S K P U _  .T K U _ T M j q ",
"t.W [ ..} _ K U [ K k K U K S K M M K K K k . o o O O o o o o o @ * @ O . J [ J J J T _ T J M K M K T U _ _ U k k [ [ Y ",
"+.I [ ) / [ _ P K K S K K K S S M K P T T U . O o o O @ O O O @ @ * @ O . O.B M M K U _ _ T K K J g K [ _ M k K J [ [ Y ",
"3.I T [ _ U k g l P P J J S K P M B M K _ T . o O o o O * @ @ * * x @ O . I P K K M M U _ _ _ T K M K [ _ J U  . ._ _ L ",
"e.d M _ _ K J T U T U M K U T [ I K M J U T . O @ O o o O O O O * x @ O . [ _ ) U M I U ) E [ [ T _ T T U U U U T ) [ Y ",
"7.v M B ) _  ._ N I N [ 3.O.U N ( I K K T _ . * @ @ O o o o O @ x @ O o . + ( _ _ U T [ [ [ _ U _ T ( _ [ T (  .T ) [ Y ",
"7.J h j K 2.p ` <. .e.b.b.f.y.<.I U  .Q (  .. @ * @ @ @ O O @ * @ O o o . c.+ _ T _ _ K J K P ( U [ T K U [ [ _ M B _ Y ",
"7.J / / U n J b.v.n.v.9.O.e.v.v.B.Y g  .K J o . . * * @ @ @ @ @ . . . . ^.^.o T J P P K S J P T _ [ T K K T _ K M K _ T ",
",.J ) h [ 0  .l...X.#...X.*.X.#.v. .p _ J l + :.:.. . . . . . . + + + + + o + S J l J S S k K P _ T U J K U U J J U ) Y ",
"i.I / h [ 0 W w.*.#.#.*.h.4.*.*.m.9.g _ U K U + :.:.c.^.^.c.c.+ [ U _ T g g U l J l S l S l J T U K K K T _ K M J B U L ",
"<.a l /  .0 s C...*.h.l.0.0.h.l.y.J p X.J K _ T o + + + + + + J _ [ _ [ K M K l K S S K K M P ( M M K U _ _ K M K k B G ",
">.a h / E I 7 X.b.B.n.*...0.w.3.f p p T K _ ( P l K U [ U K J J N @.[ U  .( J k K K K K K K U _ K M K _ [ T K M K N l A ",
"<.N D l I W 0 e s U <.y.v.0.M 7 g Q U J U _ _ ( J K U _ T U K M U [ N d M K K U T T K S k D P U K M M T _ T K T T K K G ",
">.d l j J I J K p 0 8 s J p p E o.T J K T K _ T M M T [ _ T K k O.s y M M k  .X.' _ K l g k M B K k k U T T _ ..[ ) U L ",
"+.d K l l ( K U ` %.) u e K ..( _ ) [ [ _ _ _ _ K K U _ _ T P T N y J.R.U.! c z i U ../ D D l B I M M [ U I r.B.l.[ d  .",
"<.s k l P _ _ E ) U U U I [ _ T P P K K P ( ` ` U B K ) E [ [  .8 ..M. .q.U.s.t.+.n p S [ [ k ) B K K _ _ K ..#.y.0.d _ ",
"! y b j M U U I N d i g n n J I g g a a p f g M d s d d G I I M q f. .Q @.X.q.b.I.g.<.v w I T I d g d g J J d N E I 6 I ",
"p.R <.<.O.<.o.,.| o.O.| E O.2.<.O.o.o.o.o.| o.o.o.o.o.o.o.2.o.W ~ H.e.f.r.e.r.r.8.g.T.T.d.! Q o.<.>.o.o.2.5.<.<.W I +.2."
};
