/* XPM */
static char *robe_left1678380645[] = {
/* columns rows colors chars-per-pixel */
"60 60 179 2 ",
"   c black",
".  c #130D14",
"X  c #1D131E",
"o  c #2B1C1D",
"O  c #3E2613",
"+  c #281820",
"@  c #62351C",
"#  c #4B3F36",
"$  c #794509",
"%  c #7C4913",
"&  c #4C4037",
"*  c #6B4431",
"=  c #744B30",
"-  c #293D4B",
";  c #5A4C41",
":  c #5E5252",
">  c #776456",
",  c #9E3E37",
"<  c #814B0B",
"1  c #87521A",
"2  c #855418",
"3  c #8D5A1C",
"4  c #97621C",
"5  c #8E5D22",
"6  c #925F24",
"7  c #936125",
"8  c #986226",
"9  c #95622B",
"0  c #9B652B",
"q  c #9D692C",
"w  c #976230",
"e  c #9D6B33",
"r  c #9F7237",
"t  c #9F7039",
"y  c #A26B2C",
"u  c #A56B2D",
"i  c #AA752F",
"p  c #A36D31",
"a  c #A96F30",
"s  c #A56E38",
"d  c #A47235",
"f  c #AB7635",
"g  c #A6733A",
"h  c #AA763B",
"j  c #A97A3B",
"k  c #AD7A3C",
"l  c #B57734",
"z  c #B57C37",
"x  c #B37D3D",
"c  c #B97E3D",
"v  c #996E43",
"b  c #996B4A",
"n  c #9E7243",
"m  c #AA7641",
"M  c #A77A43",
"N  c #AD7B41",
"B  c #AF7F4E",
"V  c #B47E41",
"C  c #B37946",
"Z  c #BA7E42",
"A  c #A17C50",
"S  c #B27C5A",
"D  c #8A7464",
"F  c #AB813E",
"G  c #B5813E",
"H  c #BB813E",
"J  c #BD8B3D",
"K  c #AD8242",
"L  c #AD8842",
"P  c #B68143",
"I  c #BA8444",
"U  c #B48B45",
"Y  c #BE8946",
"T  c #B58349",
"R  c #BC8649",
"E  c #B58C4A",
"W  c #BE894B",
"Q  c #AD8851",
"!  c #BD8C52",
"~  c #B98B57",
"^  c #BE9251",
"/  c #BC955F",
"(  c #B68B60",
")  c #B68F70",
"_  c #C28543",
"`  c #C18845",
"'  c #C1864A",
"]  c #C28B4D",
"[  c #C88C4C",
"{  c #C4914E",
"}  c #CE964B",
"|  c #C38D51",
" . c #C68A57",
".. c #CA8E55",
"X. c #C38E5C",
"o. c #C59253",
"O. c #CA9455",
"+. c #CB9B57",
"@. c #C4935B",
"#. c #CB965A",
"$. c #C59A5D",
"%. c #CD995B",
"&. c #D59D54",
"*. c #D1955C",
"=. c #D59B5B",
"-. c #D39C5C",
";. c #C7A05D",
":. c #D5A15E",
">. c #DBA45C",
",. c #C38E64",
"<. c #D28560",
"1. c #C39561",
"2. c #C59B64",
"3. c #CB9C63",
"4. c #C2906D",
"5. c #CC9D69",
"6. c #D29E61",
"7. c #DA9F63",
"8. c #D49F6D",
"9. c #CDA364",
"0. c #CEA16A",
"q. c #CDA96F",
"w. c #D4A264",
"e. c #DBA465",
"r. c #D4AA66",
"t. c #DCA965",
"y. c #D3A46C",
"u. c #DBA66B",
"i. c #D5AA6B",
"p. c #DDA96B",
"a. c #DFB26E",
"s. c #C7A371",
"d. c #D4A572",
"f. c #DAA271",
"g. c #DCAC71",
"h. c #D4A879",
"j. c #DFB175",
"k. c #DDB57E",
"l. c #E1A767",
"z. c #E1AC66",
"x. c #E2A769",
"c. c #E2AB6C",
"v. c #E7B06A",
"b. c #EAB56D",
"n. c #EAA377",
"m. c #E3AD73",
"M. c #E5B174",
"N. c #EAB475",
"B. c #E5B877",
"V. c #EAB977",
"C. c #E4B37A",
"Z. c #EAB67A",
"A. c #E5B97D",
"S. c #ECB97B",
"D. c #F3BC7C",
"F. c #5187B3",
"G. c #B19998",
"H. c #C4B59F",
"J. c #D3B299",
"K. c #DBB89E",
"L. c #E7BA87",
"P. c #F2BE82",
"I. c #E2BEA3",
"U. c #EDC185",
"Y. c #EFC58B",
"T. c #F4C284",
"R. c #F1C088",
"E. c #F7C594",
"W. c #F5CC9D",
"Q. c #FFD59A",
"!. c #E5C0A5",
"~. c #EAC5A9",
"^. c #EEC8AC",
"/. c #F2CBAF",
"(. c #FFD5A4",
"). c #FDD5B7",
"_. c #E5E6C7",
"`. c #FBECE6",
"'. c #F2F8F9",
/* pixels */
"s.B ,.*.#.@.1. .! ! R !  .@.@.X.#.X.W ! ! ! !  .! ! ! ! ! X.W W C m.f.8.m.8.8.f.d.d.8.L.L.E.(.@.M 3./ ^ +.O.$.@./ 1.4.) ",
"/ t Z Z V N C C N T B I T R R R T V V N j h h V k M N j N N j M q %.6. .#.6.e.u.-.-.-.%.O.-.M.%.w T W P G T E P J I ! Q ",
"2.M R _ G k V C c Y { ] I I R ] ] ] W W Y P P I I I I I I I I T i &.c.>.e.l.>.:.c.e.u.p.N.e.-.e.m V ] I x V W ' J J ] E ",
"9.L ..[ I G I Z P Y { ] Y P Y ] Y ] ] ] ] I G G Z c Z Z Z c Z _ 4 H b.D.N.z.z.b.e.c.=.=.l.O.O.D.g B R I Z Y  ...] ] | ~ ",
"$.x [ _ J G G H H I I H G x H I ` ] Y Y [ ] H c c I H H c c I _ k 6 y a R #.#.6.v.b.>.&.&.&.>.} 1 R I x I ' [ ' | ' ' T ",
"$.f ' [ I G H c I V x H H c H I ] ] P c ` ] I c c c c c c c c c 1.C C s w w 6 p z =.Z.V.-.z.c.y 6 o.Y G Y c ' ..W T B P ",
"$.g _ _ G G P Z Z V x I I V V R { ..I V ] ] Y I . . . . . . . . . . R | ..*.| ! p w 9 m X.C.X.% ! X.I G H x Z | P c P F ",
"$.g Z c x x I Z Z Z '  .] ' ' | ' [ R Z ' ' C . A A b b = @ @ @ O O . . ] ] ] ] $. .h 9 5 5 % g 1.| P F G Y R I K P T L ",
"$.j T c H G I T I z Y [ ] ] ] Y I I Z _ ] ] . A = = = = @ @ O O O o o O . W ] Y I I | O.[ T I ..I Z I I R ..W P G G I N ",
"$.h P P H I I V c I I I ] ] P ] Z V V V I . = = = @ @ @ @ = = @ O O O o o . P P P V P I R Y R R I I T ] W R ] o.F I T L ",
"$.g V I Y ] R I x P z I ] ] o.V W ! | ! . A b = @ @ @ = = b b = = O O O o o . x T I P x P T P x c T x V R Y R x Y ] Z T ",
"$.h c I [ [ ] T ` x c R W ! W k h h h . b A A A A A A b b b b = @ O O O O O o . x I P c P H G G W [ ] *.c.m.c.-.F ' R M ",
"3.h P I ` [ W T Y x I I ! W j 6.R.U.. b A o o o . . . A b b = @ @ @ O O O O o . x I G I Y Y G G R P Y p.m.e.p.M.o.x V P ",
"$.h V G I Y R V x k V o.W k %.P.C.C.. n o . . .       . A b b = @ @ O O O O o . G G x I { Y x x Y T #.e.#.O.-.7.a.Y V T ",
"$.g P x H I Y R I Y R O.K T S.i.%.w.r.. =     > ; # # . A b = = @ O O O o O O . G G x x ] ] I P ] P -.e.%.e.e.%.r.c.Y T ",
"3.h I c H Y ] W ] W #.j T S.C.@.-.-.%.. =   > J.K.^.^.. A b = @ @ O O O o o O o . { Y z I I G V ..y %.Z.c.e.e.u.a.t.s E ",
"3.P Y ] ] R ] W | ! ! h m.S.*.=.%.+.O.. b   !.I.).).).. A = @ @ O O O O o . O O . ! | T R W  .V ' T x R %.7.t.Z.-.u x ^ ",
"9.V I ] [ Y [ W ! @.d u.S.7.-.#.-.%.=.. b   !.).).).).. A = @ O O O O O O . o O . R o.Y | ' | Z R Y V f c V x R d I o.P ",
"0.N I ` ` I R W ! k o.P.e.O.=.-.:.-.-.. A   /.).).).`.. b @ O O O O @ = O o . O . T X.W ! W ' W x R ] ] o.R k f Y R T j ",
"@.g I ] ` I R W T P P.p.O.-.-.=.t.t.e.. A   /.).).n., . b @ O O O O @ = O o . O . K W W R W  .R I V x T ..Y P I T Z V P ",
"$.h | o.] I V T k g.M.%.e.+.:.=.x.c.c.. A . ^.).).+ + . = = @ O O @ A @ O . . O . k W T W ..' W ] I P I Y R P T x Z R P ",
"d.T ] Y I Z Z T w.M.%.+.-.-.e.z.e.e.e.. = . /.).).F.+ '.. . = @ b A @ O o . . O . T o.N W o.| ' R ] o.o...] T c Y Z R E ",
"y.C V x I R I T T.w.-.:.{ z.l.u.-.-.-.-.. . ~.).).- - '.D   . b A = @ O . . . O . R W k W W ' | ..] R V x V T I k Z ] E ",
"5.m T V _ ' g 7 B.p.u.+.e.e.c.-.%.-.t.p.:.. S ).).).).).>   . = = @ O o . . o O . V N R X.Y | W ] V V Y ] ] ] ] R _ R E ",
"6.B V P x _ | $ f D.>.l.x.=.c.7.p.T.O.T 3.A.  * K.~.J.& . . = @ @ O o o . . o O . R Y R W ] ] ] Y Y | R ] Y ] ] Y [ ] E ",
"w.T ' I x I | g < p.T.b.e.N.P.m.O.9 2 5 7 7 . .     . . = b @ O O o o . . . o O . R ] ] | W Y R o.W ] ] ..T V V Y ` ] E ",
"5.T O.Y Z c R o.3 2 V w.Z.6.s 6 $ q p.Z.p.T . O . . . @ b = O o o o O O O . . o . ] ] | | R V P | R Y I R V I V G c T E ",
"3.N ] Y I V V | ! 5 2 2 6 6 6 m S.S.V.C.T.. O = o @ @ b = @ O O O O @ @ @ O . o . W R ] ] I c P T ] ] R I I R ] Y Z V M ",
"$.g I G H x x G ! $.#.N s N g.P.S.c.c.w.-.. = = @ o = b = = @ @ @ @ = = = @ O . W R P I R I P R R ..I k f k P Y P x I L ",
"$.f G H x c I G k P N o.! R C.C.:.-.t.-.w.. . o o @ = = b b = = @ b = = = @ O . ] W P V I V V I Y ] x ..7.6.u.m.+.I P K ",
"$.h H G G H I P P c k ] T ] m.7.=.-.O.-.u.. = . . o o b b b b b . . b b b = O . ] ] I V G P V P I ] I w.N.c.e.e.V.e.@.j ",
"%.j Y H H I G P H c H _ a ..D.e.-.=.t.N.I . @ = = . . . . . . . = O . . . . . . V R I V T R I R I | V o.-.-.O.#.#.u.M.9.",
"L.$.j | H _ z G G Y P R p 8 c.Z.w.M.N.x u . @ = = = = = b b = = = @ o O = = = . Y x c P P P ] ] ] O.f O.c.O.=.-.-.*.O.p.",
"U.9.| T ] [ H G I { I ] O.q s e.#.U x k I . o = = = b b b = = @ @ @ . o b = = . ` T P P I Y Y Y R ] I I 7.l.#.7.e.e.-.9.",
"L.w.w.j I I G G G x G Y #.x 6 y q q p Y ..+ . @ = = @ @ O O @ @ O O . o b = @ . Y I V c I Y I P o.I ] Y ] u.c.w.p.x.u.:.",
"j.9.m.Y x x G U I x ] Y ' #.o.I o.O.| o.o <.X X X b = = = @ @ @ O O . . = = O . I Y P x I I c x R R O.R x Z u.p.u.t.p.i.",
"B.+.c.6.x x G P V Y x P I ] | | P W Y P + <.X G.: X X b = @ @ @ O + <.<.. = o . I Y I G P G c P V o.! T #.T T p.u.e.u.i.",
"B.o.-.p.Y P T F z I k W O.R R W W P P P + <.. X G._.H.X X X X X + n.).).).. . . I ] Y I P I P I R T W T M.u.V ] M.c.r.r.",
"V.O.+.c.u.P R K V Y Y ..R V V T o.Y P T + , . @ X X : H._._._._.+ , ).).`.<.+ t Y I I I I G P I P k | T u.C.3.N 9.N.e.9.",
"a.O.O.-.m.h K K ] ] ] W Y ..x V T ] ] ..] + . = @ = X X X X X X + , ).).).<.+ g I x x P c G G x N X.! k r.R.R.V k u.-.;.",
"A.@.Z.Z.y p Y Y W | | W !  .| V x V I W ..] . = O @ = @ @ @ @ @ + ).).).<.+ 3.e Y T c T I P G I I ..W x j c x y x ..t.;.",
"g.| ' Z u Y | k | W ] ] W W | T I T I I Y W . = @ O O @ @ O O O O + + + + 6.3 s I G G P x x G I | W | o.V p p T Y ] %.9.",
"T q 0 h Z o.R I ] P I ] ] I Z P P P V V V V . @ = @ O O o O O O o O o o . 3 q W c c I I G x c I R Y ] o.W I Y | W V k r ",
"i.! | O...| P Y ] I x I Y I G I c V I I T c . O @ = @ o o o o o O O o o . R | T V T Y ] R P G T V R Y I W ] R x V ] | E ",
"3.T ] ' R ] ] Y I I P P I P G G V I R R W R . O @ = @ @ O O O @ O o o O . #.V V P I R ] [ W I I P x V ] ] V x I T ..[ E ",
"3.T ] | ] R C x c Y Y I G H I Y V V I I W ] . O @ b = = @ @ = O o o O o . I Y I I V V I ] ] W W I P R ..] P R o.{ ] W U ",
"y.k V ' [ Z V W R W T V Z W W | I V V V R ] . O @ b = O O O O o o O @ O . | ] W T I T R W | | | W W W I R R R I W ' | E ",
"w.f V B R | o.W Z T Z  .3.#.R V ] I T I W o . o O @ b @ O o o o O @ @ = . ' Y [ ' R W |  .] ! W ] W W ..| Y ] o.W R | E ",
"0.P l l I 5.d ..3.o.w.C.M.g.p.3.I R o.] + n.. o o O @ = @ O O @ @ @ = @ . Y o.] Y ] ] Y V I R ] R ] ] I R | | W V Z ] E ",
"0.B _ _ Y N P c.m.N.M.w.$.w.m.m.Z.E j o.+ ).).. . . . @ @ @ @ @ = = . . + x G Y I Y Y I c I Y Y ] [ Y I I W W Y V _ ] W ",
"2.T _ z ! t @.c.O.=.=.O.*.-.-.O.M.o.d | + + + + + + + . . . . . . . <.<.o G I G G P I G x x P ] ] W R P T Y R T P I ] E ",
"0.T _ l | e W t.=.=.O.=.l.e.=.e.M.w.j | I I Y Y W ] | o n.n.).).n.<.<.+ k x Y G P x c G P x P Y R I T I ' W I c T Z R U ",
"3.f c _ o.e g S.O.=.z.c.e.e.z.c.p.P d +.T I [ Y I R [ | + + + + + o + | I x P P I P P I P c I ] V V I Y ] W I V P x Z K ",
"@.a c _ ! T 0 %.M.Z.N.-.O.7.t.:.j d d E I ] ] I V I ] | R I I P B #...R ..Y G x I I P I P I Y ] T c T ] ..Y T V T Z c k ",
"2.V H z T ! e q h W %.u.m.w.P 9 j | R P R [ ] Y V V W W R R I V R | C h V I I Y Y Y I P c P Y Y I c Z R ] ] Y R Y I T P ",
"2.h c z P T T I d q e h T g s W @.W P R R I ] Y T V Y ..W Y R k O.s p V V x o.%.] ] Y c k x Z V I x V T W Y ] O.o.' R U ",
"1.g I c H _ _ R [ *.' a y I O.] ] ] ' | [ | ] ] _ I R ] ] Y Y W Z e S.Q.U.~ n v g R O.H H H c Z T Z V | R T x.Z.c.| f o.",
"3.g V c I ] ] ! ' R R R T | ] W Y Y I Y I Y ] ] I Z R ' ! | o.o.e O.V.o.t.T.j.i.%.N d P o.] x ' V I I ] ] I | *.p.u.h | ",
"/ e k x V R T T V k s k k N T T x k f f f j k V m j g j N T T V r g.O.^ %.+.r.M.Y.k.2.M t T W T h k h k T V k V ! T 9 T ",
"d.~ 3.%.#.3.$.2.X.@.@. .X.@.3.3.@.@.@.X.X.@.@.@.@. .@.@.$.3.@.~ ( L.q.j.u.y.u.u.q.k.W.W.h.1.~ #.3.1.@.@.3.8.3.2.~ T 1.3."
};
