/* XPM */
static char *robe_down1678380644[] = {
/* columns rows colors chars-per-pixel */
"60 60 187 2 ",
"   c #090B0B",
".  c #130D14",
"X  c #0F1619",
"o  c #151013",
"O  c #1A1916",
"+  c #1D131E",
"@  c #241D17",
"#  c #2B1C1D",
"$  c #3E2613",
"%  c #39281F",
"&  c #281820",
"*  c #1B272F",
"=  c #3B342E",
"-  c #62351C",
";  c #413932",
":  c #4B3F36",
">  c #712E29",
",  c #794509",
"<  c #7C4913",
"1  c #5D4433",
"2  c #744B30",
"3  c #75533E",
"4  c #293D4B",
"5  c #5E5252",
"6  c #65574B",
"7  c #776658",
"8  c #726B7E",
"9  c #9E3E37",
"0  c #814B0B",
"q  c #855418",
"w  c #8A561A",
"e  c #97621C",
"r  c #8E5D23",
"t  c #925E24",
"y  c #946125",
"u  c #986226",
"i  c #95622B",
"p  c #9B652B",
"a  c #9C692C",
"s  c #976230",
"d  c #9D6C34",
"f  c #9F7039",
"g  c #A26B2C",
"h  c #A56B2D",
"j  c #AA752F",
"k  c #A46D31",
"l  c #A76F34",
"z  c #A47235",
"x  c #AB7635",
"c  c #A6743A",
"v  c #AA763B",
"b  c #A97A3B",
"n  c #AD7A3C",
"m  c #B57734",
"M  c #B57C37",
"N  c #B37D3D",
"B  c #B97E3D",
"V  c #996E43",
"C  c #996B4A",
"Z  c #9E7243",
"A  c #AA7641",
"S  c #AD7B41",
"D  c #AB7D49",
"F  c #B47E42",
"G  c #B37946",
"H  c #BA7E42",
"J  c #A17C50",
"K  c #847162",
"L  c #8A7464",
"P  c #AB813E",
"I  c #B5813E",
"U  c #BB813E",
"Y  c #BD8B3D",
"T  c #AD8242",
"R  c #AD8842",
"E  c #B68143",
"W  c #BA8344",
"Q  c #B48B45",
"!  c #BE8946",
"~  c #B58349",
"^  c #BC8649",
"/  c #B58C4A",
"(  c #BE894B",
")  c #AD8851",
"_  c #BD8C52",
"`  c #B98B57",
"'  c #BE9251",
"]  c #BC955F",
"[  c #97806F",
"{  c #B68B60",
"}  c #A48B78",
"|  c #B68F70",
" . c #AB917D",
".. c #C28544",
"X. c #C18845",
"o. c #C1864A",
"O. c #C28B4D",
"+. c #C88C4C",
"@. c #C4924E",
"#. c #CE964B",
"$. c #C38D51",
"%. c #C88C56",
"&. c #C38E5C",
"*. c #C59253",
"=. c #CB9455",
"-. c #CB9B57",
";. c #C4935B",
":. c #CB965A",
">. c #C59A5D",
",. c #CD9A5C",
"<. c #D59D54",
"1. c #D1955C",
"2. c #D59B5B",
"3. c #D39C5C",
"4. c #C7A05D",
"5. c #D5A15E",
"6. c #DBA45C",
"7. c #C38E64",
"8. c #D28560",
"9. c #C39561",
"0. c #C59B64",
"q. c #CB9C63",
"w. c #C2906D",
"e. c #CC9D69",
"r. c #D39E61",
"t. c #DA9F63",
"y. c #D49F6D",
"u. c #CDA364",
"i. c #CEA16A",
"p. c #CDA96F",
"a. c #D4A264",
"s. c #DBA465",
"d. c #D4AA66",
"f. c #DCA965",
"g. c #D3A46C",
"h. c #DBA66B",
"j. c #D5AA6B",
"k. c #DDAA6C",
"l. c #DFB26E",
"z. c #C7A371",
"x. c #D4A572",
"c. c #DAA271",
"v. c #DCAC71",
"b. c #D4A879",
"n. c #DFB175",
"m. c #DDB57E",
"M. c #E1A767",
"N. c #E1AC66",
"B. c #E2A769",
"V. c #E2AB6C",
"C. c #E7B06A",
"Z. c #EAB56D",
"A. c #EAA377",
"S. c #E3AD73",
"D. c #E5B174",
"F. c #E9B475",
"G. c #EAB977",
"H. c #E5B37B",
"J. c #EBB579",
"K. c #E5B97B",
"L. c #EBB97B",
"P. c #F3BB7B",
"I. c #3F698B",
"U. c #5187B3",
"Y. c #50D4EC",
"T. c #B79B86",
"R. c #B89C86",
"E. c #B19998",
"W. c #BDB2AD",
"Q. c #CCAC94",
"!. c #C4B59F",
"~. c #E7BA87",
"^. c #ECBD82",
"/. c #F2BE82",
"(. c #E1BDA3",
"). c #EDC185",
"_. c #F4C284",
"`. c #F7C594",
"'. c #F5CC9D",
"]. c #FFD59A",
"[. c #E5C0A5",
"{. c #EBC6AA",
"}. c #FFD5A4",
"|. c #FDD5B7",
" X c #E5E6C7",
".X c #FBECE6",
"XX c #F2F8F9",
/* pixels */
"z.D 7.r.:.;.&.%._ _ ^ _ %.;.;.*.:.&._ _ _ _ _ _ _ _ _ _ _ _ _ _ G n.c.y.A.y.y.c.x.x.y.H.~.`.}.7.A i.] @.-.;.*.>.>.9.w.| ",
"] c H H G S G G S E ~ ~ F ^ ^ ^ ~ F F S S v v F S S n n S S S n p ,.r.$.:.q.s.h.3.3.a.,.=.3.F.,.i ~ ( Q E Q ~ F Q W ^ ) ",
"0.b ^ ..N n F G N ( +.O.^ W ( O.O.O.O.^ W E E W H W W H W H E ^ j <.V.6.6.N.f.6.V.s.k.h.Z.s.2.a.A D ( W N H $.O.Y Y ( / ",
"p.T $.+.W I W W E ! @.O.W ~ W O.! O.O.O.+.W I I H B H W H B W W e W Z.P.F.N.N.C.s.M.t.2.M.=.=.P.c E ^ W F W %.%.O.o.O.` ",
">.n +.+.Y I I U I U W W I N U W X.O.X.X.@.O.U N U B W U B U U ..v t g l ^ &.:.3.C.Z.6.<.<.<.6.#.w ^ W N W ..+.o.$.H %.) ",
">.x ..+.W I U B W H U I U I W W O.O.N N X.O.W H B B B F N B B B :.~ G l s g t d x 6.G.L.2.N.V.g t *.( I o.B o.%.^ ^ H ~ ",
">.c ....I I E H H F H W W H H W @.*.W H O.O.W H W W ^ H W W W F F G ^ $.%.1.$._ k s s A &.H.&.< ^ &.W I W M W $.E F I P ",
">.c H B N N W H H H ^ $.o.^ o.$.o.$.o.H O.o.H N F F F . . . . . . . ^ O.O.O.O.O.:.` v i r r < c q.$.I P I ( ^ W T F Q R ",
">.n E E U W W E W M W @.( O.@.^ ..H W W X.O.o.W W . . J J J J J J J . . _ ( O.( ^ W $.:.$.W W $.W H E ^ ^ $.O.E E I W S ",
">.c E H U W W E B W W W O.O.W ( F F N F ^ O.+.. . J J C C C C C C C C C . . W F E N E W ( ^ ( ^ W F E O.O.W O.*.P W ^ T ",
">.c N W X.X.( ~ N W M W @.( *.E ( $._ _ ~ ^ . J J J C C C C C 2 - - - 2 2 2 . S W E N N N W E N F E F F ^ ( ^ N ( X.F E ",
">.v E W O.+.O.~ X.N N ( O.( ^ v v A A c z . J C C C C 2 2 2 2 2 J ) Z 2 - - 2 . N W W N E W I E O.$.O.3.V.S.V.3.R ( ~ S ",
">.n E W X.+.( E X.N W W O.( n r.).^.^.K.H.. J 2 2 2 2 2 2 2 - J . . . C - - - 2 . E I W X.W E E ^ N X.k.S.s.k.D.*.M F ~ ",
">.v F B W ! ^ F N N I *.^ S q./.H.H.K.L.. J 2 - 2 2 2 2 2 - J . O   . C - - - $ 2 . M W @.! I M ( W :.s.:.=.3.t.l.( N ~ ",
":.v F N U W ! ^ E ( W ;.T ~ L.j.,.a.q.. J 2 - - - - 2 2 - J . ; : O . C - - $ # 2 . M I X.@.W W O.E 3.s.,.s.h.,.d.B.( ~ ",
"0.n W F U ! O.O.O.( :.n ~ L.D.;.3.3.. J 2 - - $ $ J J J . . 6 7 7 6 . C - $ # # 2 o ( n W W N N $.k ,.J.B.s.s.f.l.f.z _ ",
"q.E ! O.O.( O.( _ _ _ n S.P.1.2.3.X J 2 - J J J J . . . {.{.Q.R.7 L . C $ $ # # 2 . $.E F ~ %.F ( W N W 3.a.s.J.r.k F ' ",
"i.E W X.+.X.O._ _ *.z h.J.3.3.:.. Z J J J . . .   R.|.|.|.|.|.[.}  .. C $ # # $ 2 . $._ %.O.$.^ W ( F n M E F W z H $.R ",
"u.S W X.X.W ( ^ $.S *./.s.:.2.3.. J . . .     K L |.|.|.|.|.|.|.(.. C $ # # $ - - 2 . $.%._ %.^ N ^ O.O.*.o.n v W o.W n ",
";.c W O.X.W ^ ^ ~ E /.k.=.3.3.3.. J . .     @ |.|.|.|.|.|.|.|.|.T.. C $ $ $ - 2 C 2 . ( ^ ^ ^ ^ W F F W $.^ E W W W N T ",
"9.n O.*.o.W F ~ n V.D.:.a.2.5.2.. J . .     3 A.|..X.X|.|.|.|.|.|.W.. 2 2 - 2 C 2 2 . ~ ^ $.O.^ O.W F W O.^ F W n H W Q ",
"x.~ $.W W W F ^ u.D.-.,.3.5.s.N.. J C .     1 A.8.9 9 A.|.|.|.|.A.>   . . C 2 2 - 2 . F O.$.%.O.( O.*.*.*.O.W F ( H ^ / ",
"g.A W N B X.~ E _.a.,.5.*.N.s.M.t.. C .     % A.Y.& & Y.A.|.|.A.Y.O o     . C 2 - 2 . S ( $.O.O.$.O.^ F N F E E n H o.( ",
"e.A ^ F o.O.c y G.k.k.,.f.s.B.3.,.3.. C . .   A.XX& U.XX|.|.|.|.XXI..     . J - - $ . ^ $.^ $.^ O.W N ^ O.O.O.O.^ W ^ ' ",
"e.E F W M W $.< x P.M.M.B.2.V.t.k._.;.. J C . . |.4 4 XX|.|.|.|.XX* X     . J $ $ . ( ^ ^ O.O.O.O.^ +.^ ( ( O.O.! @.+./ ",
"y.~ O.W N W O.c 0 f._.C.s.F.^.S.*.u w . J - C . . |.|.|.|.|.|.|.|.K ;   . J $ # . ^ O.( O.O.^ ( *.( O.O.*.W E F X.X.X._ ",
"e.E ;.! H B W =.w w F a.J.r.c i , a . J - - - C . = } |.|.|.|.|.7   . . J $ # # # . O.$.$.( F E O.^ ^ ~ ^ F E E I N F Q ",
"q.n O.! W F F $._ r q q t t t c G.o J C C 2 2 - C . . . |.|.[ 6 . . C C $ # # # $ 2 . O.O.W N E W +.O.^ W W ( ( W W E D ",
">.x E U U U N I $.>.:.S z G v./.G.. J C C 2 2 - - 2 - $ .     . - 2 2 - - $ $ $ - 2 . W ^ W W ^ ( *.W n n n E W Q N W Q ",
">.x E U N N W N n E S *._ _ S.H.. J C C C 2 2 2 - $ 2 $ $ . . - $ $ $ - 2 2 - - - - 2 . E E F W X.O.F O.3.t.s.D.:.W F D ",
">.c U I I U W E E N m O.F $.F.. J C C C 2 2 2 - $ # $ - # $ $ $ # $ $ - - 2 2 2 2 - - 2 . F F E ^ O.W t.F.V.s.s.G.s.] b ",
",.b ! U U W I E U B W ..l $.P.. J 2 2 2 2 2 - - $ $ # $ # # # # $ $ - - - 2 2 2 2 2 - - . ^ W W W $.F *.r.,.=.3.-.s.D.u.",
"~.] P *.W U I I I ! W ^ h y S.. . . . . - - - - - $ # # # # # $ - - - - 2 # . . . . . . . W X.O.O.=.x =.V.1.3.3.3.1.=.l.",
").u._ W O.+.U U U @.! O.=.a z . - - - - . . . - - - $ . . . - 2 2 2 2 2 . . # # - - - - . ^ ( ( o.O.W W t.s.:.t.s.a.2.u.",
"~.u.a.v W W I I I N E W :.N e . C 2 - $ . . $ . . . . 2 2 2 . . . . . . - $ . . $ - 2 C . X.W I *.W $.^ X.h.S.a.k.B.h.5.",
"K.a.D.W n I I Q W M ( ( ^ :.=.. C 2 - . ^ . # $ - 2 C C 2 2 2 2 C C 2 - $ # . S . - 2 C . W N N ^ ( *.( N E s.V.h.s.V.d.",
"D.-.V.r.N N E E E W N F W X.$.. C C . . W + + + $ $ - 2 2 2 2 2 2 - $ $ + + + d . . . C . W N I F *.( F ,.~ E h.j.s.k.j.",
"G.*.r.B.( E E P M W N O.:.^ ~ . . . 8.& & + 8 5 + + 2 2 C + + C 2 2 + + E.5 + . & 8.|.. . ~ W W ~ ^ ( ~ D.h.F _ S.S.f.u.",
"G.-.-.V.s.E ^ E E W ^ *.^ F W & A.|.|.A.& + + 5 E.5 + + + E. X+ + + 5 !.5 + # . A.|.|.A.. E W U ~ S _ ~ h.H.r.S 3.F.s.u.",
"l.@.*.3.D.c T T O.O.X.( O.$.F & A..X|.|.|.. - + + 5 !. X X XE.5  X!.5 + + # # |.|.|..XA.# N I N S *._ n g._._.F n B.a.4.",
"H.>.J.J.g k O.W O.$.$._ ^ %.$.& 8.|.|.9 |.C - - 2 + + + + 5 + E.+ + + $ # - # |.9 |.|.8.& E E E ^ *.O.N n N N a F *.f.4.",
"v.$.^ H g ( @.n $.^ ( ( ^ $._ & 9 |.|.9 9 C - - - 2 - $ + E.+ E.+ # $ # - $ $ 9 9 |.|.9 & N E W O.( O.*.E k z E ( X.,.u.",
"~ a a v H %.^ W ( W W @.O.W W F & 8.|.A.A.C - - $ 2 - # + !.+ !.+ $ - - $ # $ A.A.|.8.& N N N W W ( +.*.X.W ^ $.( H n z ",
"j._ +.1.$.O.W ( +.E I W ! W I W N & & & . C 2 - $ $ - + !.+ +  X+ $ $ $ # $ # # . & & O.( W E W F ^ ^ W ( $.^ N S +.*.^ ",
"0.~ $.o.W $.O.W W W I W W E I I F W ^ ^ . C 2 2 - # $ - + $ $ +  X+ # # $ $ # # . E ^ $.+.( W W E N E $.O.F N W ~ $.$./ ",
"q.W ( $.O.^ N N I ! W E I U W ! F E W W . C 2 - - - # $ - 2 - $ + $ $ - $ # # $ . F F ^ ( O.( ( W E W $.O.E ^ *.@.O.O.Q ",
"g.A F $.$.H F ( ^ O.^ G ^ ^ ( $.W F F F . 2 C 2 2 - $ # $ - C - - - 2 $ # # $ - . W E ^ _ ( $.$.O.( ( ^ ^ ^ ^ W ( o.$./ ",
"a.v F F ^ +.*.( F ^ H $.q.1.~ F ( ^ W W . - C 2 - - - $ # $ - C C 2 $ # # $ - - . ^ o.$.$.$.O.( ( ( ( +.$.( O.@.( o.$./ ",
"i.E m M H e.k @.q.;.r.D.D.n.v.q.W ^ $.( . $ - C 2 - - - $ # $ - - $ # # $ - - 2 . +.O.W E W ( X.( $.O.W ^ O.$.O.N W o./ ",
"i.E ....( D F C.S.F.D.a.q.r.V.S.G.~ b & . $ $ - 2 2 2 - $ # # $ $ # $ $ - - 2 - . W ( W I E W X.$.O.( E W ( O.W H W O./ ",
"0.E ..M $.f ;.V.*.2.3.1.1.2.3.-.D.*.z & A.. . . . - - - $ # # # $ # - - 2 2 . . & F U E I N W ( O.( ( E W ( ^ E ~ W O.^ ",
"z.~ ..m $.d ( h.2.<.=.2.s.s.2.s.H.a.# 8.|.|.|.|.|.. . . . . . . . . . . . . |.|.8.# F I I N W ! ^ W W W ( ( ^ F E W ^ Q ",
"0.m B ..*.d c L.=.2.M.C.M.s.N.V.v.E & |.|.|.|.|.|.A.& $.W W W E $.& A.|.|.|.|.|.|.& E W W E W O.E F E ( O.( W F E G W T ",
"9.j m .._ ~ p ,.F.L.F.2.=.a.s.3.n z & A.|..X8..X.X& O.O.^ W E E F :.& .X.X8..X|.A.# W E I E ! +.W F W X.+.( W F E B N n ",
"e.F U M ~ _ d a v ~ ,.h.S.a.F p b _ ! # & & & & # F ( O.( W W E ^ %.F & & & & & & ( W E N W W ^ W F F ( O.( ^ ( ( W W T ",
"9.c B N E ~ ~ U z a d n E c z _ *.( ~ W ^ W O.( W F ^ $.O.( ~ N &.c k F F N *.:.O.@.W N M N W H W F F W ( ( O.=.*.o.^ / ",
"q.c W B U o.W ^ +.1.o.l p W =.O.$.O.$.$.+.$.$.$.W W ^ +.O.( ! ( H k J.]._.` Z V c ^ =.U U U M H ^ F F %.^ ^ h.F.V.O.n $.",
"0.c F M W +.X._ O.^ W W ^ O.O.( ! W W W W X.X.+.W H ^ ~ ( _ *.*.a ;.G.*.d._.n.j.0.n z W *.+.B ^ N W E O.O.W *.3.h.h.c $.",
"9.d F v F ^ ~ ~ H c c N D S ~ ~ N n x x x x N I v v v n E ~ ~ S f v.-.' -.,.d.D.).m.0.S f D ( ~ v n b N E F v F _ ~ i ~ ",
"x.` q.,.,.q.>.9.%.;.9.%.$.;.e.0.;.;.;.;.] &.;.&.;.&.;.;.9.q.9._ { ~.i.n.k.g.h.h.p.~.'.`.b.;.] ] q.&.] ;.e.y.e.q._ ~ 9.q."
};
