/* XPM */
static char *robe_up1678380646[] = {
/* columns rows colors chars-per-pixel */
"60 60 168 2 ",
"   c #130D14",
".  c #1D131E",
"X  c #2B1C1D",
"o  c #3E2613",
"O  c #281820",
"+  c #62351C",
"@  c #754203",
"#  c #7C480E",
"$  c #7C4913",
"%  c #744B30",
"&  c #5E5252",
"*  c #726B7E",
"=  c #9E3E37",
"-  c #87521A",
";  c #855418",
":  c #8D5A1B",
">  c #97621C",
",  c #8E5D23",
"<  c #925E24",
"1  c #986226",
"2  c #95622B",
"3  c #9B652B",
"4  c #9C692C",
"5  c #976230",
"6  c #9D6B33",
"7  c #9F7237",
"8  c #9F7039",
"9  c #A2672B",
"0  c #A26B2C",
"q  c #A86E2F",
"w  c #A46D31",
"e  c #A96F30",
"r  c #A56E38",
"t  c #A47235",
"y  c #AB7635",
"u  c #AD7836",
"i  c #A6743A",
"p  c #AA763B",
"a  c #A47C3F",
"s  c #AD7A3C",
"d  c #B27532",
"f  c #B57C37",
"g  c #B87936",
"h  c #B37D3D",
"j  c #B97E3D",
"k  c #996E43",
"l  c #996B4A",
"z  c #9E7243",
"x  c #AA7641",
"c  c #A77A43",
"v  c #AD7B41",
"b  c #AF7F4E",
"n  c #B47E42",
"m  c #B37946",
"M  c #BA7E42",
"N  c #A17C50",
"B  c #AB813E",
"V  c #B5813E",
"C  c #BB813E",
"Z  c #BD8B3D",
"A  c #AD8242",
"S  c #AD8842",
"D  c #B68143",
"F  c #BA8344",
"G  c #B48B45",
"H  c #BE8946",
"J  c #B58349",
"K  c #BC8649",
"L  c #B58C4A",
"P  c #BE894B",
"I  c #AD8851",
"U  c #B58753",
"Y  c #BD8C52",
"T  c #BC8E5A",
"R  c #BE9251",
"E  c #BC955F",
"W  c #B68B60",
"Q  c #B68F70",
"!  c #C28544",
"~  c #C18845",
"^  c #C1864A",
"/  c #C28B4D",
"(  c #C88C4C",
")  c #C4914E",
"_  c #CE964B",
"`  c #C08450",
"'  c #C38D51",
"]  c #CA8E55",
"[  c #C38E5C",
"{  c #CB8F5D",
"}  c #C59253",
"|  c #CB9455",
" . c #CB9B57",
".. c #C4935B",
"X. c #CB965A",
"o. c #C59A5D",
"O. c #CD9A5C",
"+. c #D19757",
"@. c #D59D54",
"#. c #D1955C",
"$. c #D29C5C",
"%. c #D89E5E",
"&. c #C7A05D",
"*. c #D5A15E",
"=. c #DBA45C",
"-. c #C38E64",
";. c #D28560",
":. c #C39561",
">. c #C59B64",
",. c #CB9C63",
"<. c #C2906D",
"1. c #CC9D69",
"2. c #D39E61",
"3. c #DA9F63",
"4. c #D49F6D",
"5. c #CDA364",
"6. c #CEA16A",
"7. c #CDA96F",
"8. c #D4A264",
"9. c #DBA465",
"0. c #D4AA66",
"q. c #DCA965",
"w. c #D3A46C",
"e. c #DBA66B",
"r. c #D5AA6B",
"t. c #DDAA6B",
"y. c #DFB26E",
"u. c #C7A371",
"i. c #D4A572",
"p. c #DAA271",
"a. c #DCAC71",
"s. c #D4A879",
"d. c #DFB175",
"f. c #DDB57E",
"g. c #E1A767",
"h. c #E1AC66",
"j. c #E2A769",
"k. c #E2AB6C",
"l. c #E8B065",
"z. c #E5B06E",
"x. c #EAB56D",
"c. c #EAA377",
"v. c #E3AD73",
"b. c #E5B174",
"n. c #E9B475",
"m. c #E5B877",
"M. c #EAB977",
"N. c #E5B37B",
"B. c #EBB579",
"V. c #E5B97D",
"C. c #EBB97B",
"Z. c #F3BB7B",
"A. c #B19998",
"S. c #C4B59F",
"D. c #E2B687",
"F. c #ECBD82",
"G. c #E9BD87",
"H. c #F2BE82",
"J. c #EDC185",
"K. c #EFC58B",
"L. c #F4C284",
"P. c #F7C594",
"I. c #F5CC9D",
"U. c #FFD59A",
"Y. c #FFD5A4",
"T. c #FDD5B7",
"R. c #E5E6C7",
"E. c #FBECE6",
/* pixels */
"u.b -.#.X.....[ Y Y P Y [ ..X.[ X.[ P Y Y Y Y ` Y Y Y ' Y Y Y Y m v.p.4.v.4.4.p.p.i.w.D.G.P.Y...x ,...R &. .} o.E :.<.Q ",
"E 8 M M n v m m v D J M J J K J J n n v s p p n v v v s v v c s 1 #.2.[ X.2.e.9.$.O.2.$.| $.n.O.5 J P D V J J D Z F U I ",
">.c K ! V s n m h K ) / K H ^ / / / / P F D n F F D F M F M F F y @.h.=.3.h.q.*.k.e.q.j.v.9.$.8.c n Y F s n P ` Z Z ) L ",
"5.S ] ( F V F M V H ) / F D F / H / / / / H D V M D j F j j F F > Z z.Z.x.k.h.l.9.9.%.%.g.+.| Z.t b K D M ! ' X./ / ' U ",
"o.h ^ ( Z V V C h F F F C h C F ~ / ~ H ) / C C j F j F j j F ~ s < 9 y K X.X.2.l.x.=.@.@.@.=._ - J D h F ! ( ^ ` P ` J ",
"o.u ! ( F V C j F M C C V V C F ) ~ j h ~ ( D M j j j j j j j j :.m m r 3 5 < 6 u %.n.C.%.h.z.9 1 ] P V ~ M ^ ] P K J D ",
"E y ! ! C V D M M n M F F D M F ( } K n / / J M F F M J F F F M n n J ^ { X.] P w 2 2 x [ N.[ $ P ..H V C h M ` D h V B ",
">.i M j h h D M M M K ' ^ ^ ^ / K ' ^ M ^ ^ M h D n n               / / / / / / :.[ p 2 , , # i X.Y V B V H P P A D J S ",
"o.s D V C C D D H f F ' P / ) P ! D D ^ ~ ( ^ D D     N N N N N N N     / / ( P H J ( X.' F H ' J F F F / / / D V h F v ",
"o.p D D C F F D j F F F / / D P M M h n F / ]     N N N l l l l l l l l   D D n n n n H K K K K F M D / / J / } B H J D ",
"..p h D ~ / P D f M f H } / } D P Y Y Y J J   N N N l l l l l l l l l % l   D h D F h h D D D h n F n n K ^ K s P / n J ",
",.u D F / ( / J / h h H P P K s x p p i t   N N N l l l % l l l l % % % % l   D h D D C D D V V / ' P $.k.k.v.$.V H K c ",
"o.s D F ~ ( / D K h H F / P p 2.J.J.C.V.C.  N N l l l l % % l l % % % % % % l   h D C H / F V V F n K t.v.9.k.n.R h D D ",
"o.p n V F H K D h h h } J v ,.H.N.N.V.C.  N l % l l l % % % l % % % + + + % % l   D h C ) ~ V h P F X.9.X.| 2.2.y.H v J ",
"..p n h C F H J D P F ..D J C.r.O.$.,.O.  l % % % % % % % % l % % % + o + + % l   V h h ~ / D D / D %.q.X.9.9.O.0.k.K J ",
",.s D D C ~ / / P /  .p J C.b...$.$.$.  % l % % + + + % % l l % % + + o + + % l   ) H h F H V h ' w X.n.k.q.9.9.y.q.e Y ",
",.D H / / H / P [ Y Y s v.Z.+.$.$. .  % + + % + o + + % l l % % % + + o o % l %   ' ' D J P / M P F h F O.3.9.B.$.q h R ",
"5.D D / ( P / P P } t e.B.$.2.+.O.  l + + o + % o o + % % % % % % + + o % l % %   J } P } ` ' K K P n u h n n J t M } D ",
"8.v F ~ ~ F ^ P R v [ Z.9.X.$. .%.  l + o o o + % o + + % % % % + + + X X % % + %   [ P ' P ^ P h J / ' } ^ h u K K F a ",
"..p F / ~ F J P J D H.k.} $.$.$.q.  l + o X X o + o o + % % + + + + o X o % + X %   P P K P ` ^ H D h J ( K F F D F h A ",
":.p ' } ( M n F s t.m. .8.$.%.%.q.  l + + + + X o o o + % % % + + + X o % + X X %   P J P ' ' K / F n F / J D F h M H J ",
"i.J / H F D D J 8.b.X.O.$.*.9.g.9.  l + o + + + X o o + % % % + + + X o + X X X +   ' n P } ' / K / ] } } / F h P M F L ",
"w.m n h M P J D L.8.O.*.) g.q.j.%.$.  % o X X o + + o + % l % + + o X o X X X % o   Y s P P Y ` } ( F n h n D D s M / P ",
"1.x J n ^ ^ p < M.t.q.O.9.q.k.+.O.$.q.  % o o X X o + + % l % % + X X X o o % + o   n J ] K ` / / D n K / / / / P F K L ",
"1.D n M f K / # u Z.=.g.j.%.v.3.t.L...D   o X X X X o + % l % % + X o o + % + X   H / K K / P ( P K } K / P / / H ) / L ",
"4.J P H h F ` p # q.L.z.9.b.H.v.} 1 ;   N     o X X X o + % % % + X o + + o X     P P P / P P P } P ` / ' F D h H ~ / P ",
"1.J } H j D H ..: : n 8.B.2.i < @ t   N % + o     X X o + l % + o X o o X     X %   / ' ' P M D / H K F K D D D V j D J ",
",.s / H F h h ' Y , ; ; < < < i n.  N l l % + + o   X o % % % + o o X     X X X o %   / / F h D D ' / H F F K / K D D A ",
"o.i F C C V h V Y  ...s t m d.H.C.  N l N % % + + o   X + % % o       o o o o o + %   D K F F J ^ } D h u u F K F f F L ",
"o.i V C j j F h h D n [ Y U v.n.  N l N l % % % + o o   X + + o   o o o % % + + + + %   D D n F / / h ] 2.2.9.v. .F n c ",
"o.y C V V C F J D h u / D ` b.  N l l l % % % + o X o     o o   X o o + + % % % % + + %   D n D F / D 8.n.k.9.9.M.8.} c ",
"O.p H C C F V V C j F ~ q | Z.  N % % % % % + + o o X o X     X o o + + + % % % % % + +   K F F F / n } 2.X.X.$.o.q.N.5.",
"J.E a } F Z f V V H D P q 1 k.          + + + + + o X X X X X o + + + + % X               D / ( / | d ] k.$.%.2.O.+.X.t.",
"J.5.' D / / F C D ) F / } 4 t   o % + o       + + + o o o o o + + + + +         o + + o   H P H K / F K 2.9.X.3.q.3.$.5.",
"F.5.8.u F C V V j j D H X.h <   + % +   '   X                           o X   c   + % +   P D D } F ( J / q.v.2.k.j.9.5.",
"f.8.b.J h V V G D h P H K +.|   l l +   ^     o o o + + % % % % + + o o o     s   + % %   F h j K P } / h M q.9.e.9.k.r.",
"m. .t.2.h h D D M H h n F / '           O . . . + + + + % % % % + + + + . . .             D h h n } / D o.D D e.e.9.e.r.",
"m.} $.k.^ D D v u D h / X.K J X c.T.T.c.O . * & . . + + % % % % + + . . A.& .   c.T.T.c.X D D H J J P J N.e.n ' v.v.q.0.",
"M.|  .q.9.D J S D H H ' K M n O c.E.T.T.= . . & A.& . . . . . . . . & S.& . X = T.T.E.c.X D D F D c Y D e.N.1.s *.n.8.5.",
"t. .| %.b.p D A P ( P P / ' h O ;.T.T.T.c.O + . . & S.R.R.R.A.& R.S.& . . + X c.T.T.T.;.O V h j n ..Y s w.L.L.D a j.$.&.",
"V.X.B.n.9 q P F ` ' ' P Y [ ' O = T.T.T.T.O + + + . . . . . . . . . . X + o X T.T.T.T.= O D D C F } / h u n h 9 s ] q.&.",
"a.Y ^ M 9 / / h ' P / P P P / F O ;.T.c.c.l + + o % + X X X o X o o + + o X o c.c.T.;.O n h D F ( P ' ' D w t D / / O.5.",
"J 6 4 p M } H D P F F / / H F n F O O O   l % + o o + o X X X X X o o o X o X X   O O F C h h H J / ( ' P F K ' P M u 7 ",
"r.P ' | ] ' D / ) D j F H D C D h n F D   l % % + X o + + o o X X X X X o o X X   F K / K D n D n F P H P / K h v / } L ",
">.J ' P F ' / ^ F D C D F C V V n D K K   l % + + + X o + % + o o o o + o X X o   D K / ' P F F D h D ' ( n s F J ] ( L ",
"1.D / ` / K h s h H H M V D D H M D D H   % l % % + o X o + l + + + % o X X o +   n M J / / P P F h F ' / F J | ) / P G ",
"w.c D / ' M D P P / K n F P / ' F n h D   + l % + + + o X o + l l % o X X o + +   F D P / Y / ` P P / J J P F F P ^ } L ",
"8.p n D K ( } P M J J ` ,.X.K m / J F O   o + l % + + + o X o + + o X X o + + %   P P ' ' / ' / / P / ' ( / / } P K ' L ",
"6.n g g n 1.r ) O...8.b.b.d.a.,.J F O =   o o + % % % + o X X o o X o o + + % +   O / H D F H / K / P F J / ' / n M / L ",
"6.D ! ~ P v D k.v.n.v.8.X.2.k.v.m.K O = =         + + + o X X X o X + + % %     = O K D j D H P / / / F F / ^ H M F / P ",
">.J ~ g [ 8 ..k.| $.$.| O.$.$.+.b.} O ;.;.E.E.T.;.                          E.;.;.O C D V h H ^ / / J n F ^ J F D F / K ",
"6.J ! d / 6 P q.$.+.+.%.j.9.%.8.m.2.O ;.c.E.E.T.;.O / / F D F K / P O ;.T.E.E.c.;.X n C h h D H K F F H P K H n F F J G ",
">.p g ! } 6 p C.| %.g.k.g.9.q.k.y.D t O = c.T.;.= O ' ' P D D D ' ` O = ;.T.c.= X V D F D C F / D D D K / / F n D n M A ",
":.y g ~ Y A 3 $.b.B.z.*.| 8.q.$.p t t P O O O O O F / / K F F D F X.' O O O O O F D D D D D H / D M D / ' P D n D j n s ",
">.n j g J Y 6 3 p K ,.e.v.9.D 3 p R K V J ( P / D D P P P H F D J ' n p n F J ^ P P F D V D ~ ^ D j D / / K K / P F F A ",
">.p j j D J F F t 6 4 p D t t P ..P F K K F / H n n P ( / K F s { p w n n h } X./ ( H h f h D D F n h J P P ( } } K H J ",
"o.p D j j ~ F K ( #.^ e 0 F | / / / / ' ( ` / / F F ^ ( ( K K P M w F.U.L.T z k r K } Z C C g M J n n ] P J j.n.v./ u ] ",
",.i n h H ( / Y ^ K F K J ` } P H H F F H ~ / ) F F F K Y Y } } 4 } M.} 0.K.a.r.,.s t n ) / M F C F D / / F ' $.e.e.p Y ",
"E 6 h p n J J J m p p p v v D J h u y y y p h n p p p p D J J D 7 d.} R  . .0.b.K.d.,.c r b P J p s p s D n s v } J 2 J ",
"i.U 2.,.O.,.X.>.[ ..X.[ Y X.1.,.:.......T [ ..............>.:.U W D.w.d.e.e.e.e.7.D.I.I.s.E E ..,.:.....,.4.1.,.T v >.,."
};
