/* XPM */
static char *_5676dd4b5364bdcb4c502499c260f6dNzgH70z6Mwj3WeQq[] = {
/* columns rows colors chars-per-pixel */
"50 50 10 1 ",
"  c None",
". c #1D131E",
"X c #2E2533",
"o c #3D3748",
"O c #4D4A5D",
"+ c #726B7E",
"@ c #B19998",
"# c #C4B59F",
"$ c #E5E6C7",
"% c white",
/* pixels */
"                                                  ",
"                                                  ",
"                    ..........                    ",
"                  ..@########@..                  ",
"                 .@#$$$$$$$$$$#@.                 ",
"                .@#$$$%%%%%%$$$#@.                ",
"                .#$$$%%%%%%%%$$$#.                ",
"               .@#$$%%%%%%%%%%$$#@.               ",
"               .@#$$%%%%%%%%%%$$#@.               ",
"               .@#$$%%%%%%%%%%$$#@.               ",
"               .@#$$%%%%%%%%%%$$#@.               ",
"               .@#$$%%%%%%%%%%$$#@.               ",
"               .@#$$$%%%%%%%%$$$#@.               ",
"               .+##$$$%%$$%%$$$##+.               ",
"               .+@##$$$$$$$$$$##@+.               ",
"               .++@##$$$$$$$$##@++.               ",
"                .O+@###$##$###@+O.                ",
"                .O++@@######@@++O.                ",
"                 .OO++++++++++OO.                 ",
"              ......OOOOOOOOOO......              ",
"             .#$##@+...O$+O...+@##$#.             ",
"            .#..+@@++OO@$+@OO++@@+..#.            ",
"            .#$$..OOO+++@O+++OOO..$$#.            ",
"           .$OO%#++#$.O+$#+O.$#++#%OO$.           ",
"           .%$$+#$%%%O#$@O$#O%%%$#+$$%.           ",
"           .O%#+###$$OO+%#+OO$$###+#%O.           ",
"            X#XO+@@#$O#$@O$#O$#@@+OX#X            ",
"           .#%#X.O@#@OO+%#+OO@#@O.X#%#.           ",
"           .+$+...O++X#$@O$#X++O...+$+.           ",
"           .%+$.  ..@+O+%@+O+@..  .$+%.           ",
"           .@+#. .@+X@#$#O$#@X+@. .#+@.           ",
"           .o+o..+%#+.O+$@+O.+#%+..o+o.           ",
"          .@%#+..O#%%XX@#O@XX%%#O..+#%@.          ",
"          .#$++o..##%%O+$@+O%%##..o++$#.          ",
"          .+#o#..@..#@@$%$$@@#..@..#o#+.          ",
"           .+$#..#@#O+@+##+@+O#@#..#$+.           ",
"            ... .+$@o+O.OO.O+o@$+.....            ",
"                .+$%+o......o+%$+.                ",
"                 .%#$o.    .o$#%.                 ",
"                 .#+@o.    .o@+#.                 ",
"                 .o$+..    ..+$o.                 ",
"                ...%@#.    .#@%...                ",
"               .@O.$O@.    .@O$.O@.               ",
"               .$@O@X@.    .@X@O@$.               ",
"               .@$X+#+.    .+#+X$@.               ",
"               .o#+$$+.    .+$$+#o.               ",
"                .@o$@+.    .+@$o@.                ",
"                 .....      .....                 ",
"                                                  ",
"                                                  "
};
