/* XPM */
static char *ffb989596ed04765f436e1318c6c538fIBpfkMWNbomAJi9k[] = {
/* columns rows colors chars-per-pixel */
"50 50 14 1 ",
"  c None",
". c black",
"X c #1D131E",
"o c #2E2533",
"O c #3D3748",
"+ c #4B444C",
"@ c #4D4A5D",
"# c #6B6878",
"$ c #726B7E",
"% c #B19998",
"& c #ADA9B4",
"* c #C4B59F",
"= c #E5E6C7",
"- c white",
/* pixels */
"                                                  ",
"                                                  ",
"                    XXXXXXXXX                     ",
"                  XX%%*****%%XX                   ",
"                 X%**=======**%X                  ",
"                X%*===-----===*%X                 ",
"                X*===--------==*X                 ",
"               X%*===---------=*%X                ",
"               X%*===---------==*X                ",
"               X%*====--------==*X                ",
"               X%**====------===*X                ",
"               X%**=============%X                ",
"               X$***====*=======%X                ",
"               X$%***==***======%X                ",
"               X@%%*****%$**===*@X                ",
"                X$%%***%$$--==*@XX                ",
"                X@$%=$$$X-*XXX**X                 ",
"                 X@$*=$@X-XX@=*-X                 ",
"                  X@$$==--%@$=*XX                 ",
"                   XX@*$=---**X$X                 ",
"                 XXX%XXXX*****=X                  ",
"                XX=*X$$XX*X-X=X                   ",
"               X$%$$OXX$$@*X@X$X                  ",
"               X*$%*%*==--=@=@*X                  ",
"               X%=$$X$@**@@=-*oX                  ",
"               X$-*XO$%@@=-*--*X                  ",
"               X$=$X$O*=-@@=@=oX                  ",
"               X$-$X$%@@--=*$=*X                  ",
"               X*=*XO%*=@@@=**oX                  ",
"               X$*$X%@@@--=*$*$X                  ",
"               X*@*%X*=-@@@=**XX                  ",
"               X%*@%XXXXX==*@XXX                  ",
"                X%=@%X===X$@X@@X                  ",
"                .X%@%*--@=X$$@$X                  ",
"                  X%@*==-XX*@OXX                  ",
"                  XXX**@-=XXO%#X                  ",
"                  X##XX*@XX#=-%X                  ",
"                 XX#=*%XXX#%*=@@X                 ",
"                 X#=-%#X  X#%@-=X                 ",
"                X#*@@+X    X#@*@X                 ",
"               X%-@-&X      X*@=%X                ",
"              X%-=@%X       X%-@=@XXX             ",
"             X$*%@=X         X*@@%*@=X            ",
"             X*$@=X          X@*%=@-$X            ",
"             X%=*$%XXX       X=-%=-$X             ",
"              X*%$=$=%X      X%*@@XX              ",
"               X@=@-@-X       XXXX                ",
"                XXXXXX                            ",
"                                                  ",
"                                                  "
};
