/* XPM */
static char *skeleton_up1678380647[] = {
/* columns rows colors chars-per-pixel */
"60 60 162 2 ",
"   c #1D131E",
".  c #2E2533",
"X  c #754203",
"o  c #7C480E",
"O  c #7B4614",
"+  c #7C4B11",
"@  c #3D3748",
"#  c #4D4A5D",
"$  c #726B7E",
"%  c #814B0B",
"&  c #835218",
"*  c #8B521D",
"=  c #8D5A1B",
"-  c #97621C",
";  c #8E5D23",
":  c #925E24",
">  c #946125",
",  c #986226",
"<  c #95622B",
"1  c #9A652B",
"2  c #9D692C",
"3  c #976230",
"4  c #9D6B33",
"5  c #9F7237",
"6  c #9F7039",
"7  c #A2672B",
"8  c #A26A2C",
"9  c #A86E2F",
"0  c #AA752F",
"q  c #A46D31",
"w  c #A96F30",
"e  c #A56E38",
"r  c #A47235",
"t  c #AB7635",
"y  c #AD7836",
"u  c #A6743A",
"i  c #AA763A",
"p  c #AD7A3C",
"a  c #B27532",
"s  c #B57C37",
"d  c #B87936",
"f  c #B37D3D",
"g  c #B97E3D",
"h  c #996E43",
"j  c #9E7243",
"k  c #AA7641",
"l  c #A77A43",
"z  c #AD7B41",
"x  c #AF7F4E",
"c  c #B27642",
"v  c #B47E42",
"b  c #BA7E42",
"n  c #B37B4A",
"m  c #AB813E",
"M  c #B5813E",
"N  c #BB813E",
"B  c #BD8B3D",
"V  c #AD8242",
"C  c #AD8842",
"Z  c #B68143",
"A  c #BA8344",
"S  c #B48B45",
"D  c #BE8946",
"F  c #B58449",
"G  c #BC8649",
"H  c #B58C4A",
"J  c #BE894B",
"K  c #AD8851",
"L  c #B58753",
"P  c #BD8C52",
"I  c #BC8E5A",
"U  c #BE9251",
"Y  c #BC955F",
"T  c #B68B60",
"R  c #B68F70",
"E  c #C28544",
"W  c #C18845",
"Q  c #C1864A",
"!  c #C28B4D",
"~  c #C88C4C",
"^  c #C4914E",
"/  c #CE964B",
"(  c #C08450",
")  c #C38D51",
"_  c #CA8E55",
"`  c #C38E5C",
"'  c #CB8F5D",
"]  c #C59253",
"[  c #CB9455",
"{  c #CB9B57",
"}  c #C4935B",
"|  c #CB965A",
" . c #C59A5D",
".. c #CD9A5B",
"X. c #D19757",
"o. c #D59D54",
"O. c #D1955C",
"+. c #D29C5C",
"@. c #D89E5E",
"#. c #C7A05D",
"$. c #D5A15E",
"%. c #DBA45C",
"&. c #C39561",
"*. c #C59B64",
"=. c #CB9C63",
"-. c #C2906D",
";. c #CC9D69",
":. c #D39E61",
">. c #DA9F63",
",. c #D49F6D",
"<. c #CDA364",
"1. c #CEA16A",
"2. c #CDA96F",
"3. c #D4A164",
"4. c #DBA465",
"5. c #D4AA66",
"6. c #DCA965",
"7. c #D3A46C",
"8. c #DBA66B",
"9. c #D5AA6B",
"0. c #DDAA6C",
"q. c #DFB26E",
"w. c #C7A371",
"e. c #D4A572",
"r. c #DAA271",
"t. c #DCAC71",
"y. c #D4A879",
"u. c #DFB175",
"i. c #DDB57E",
"p. c #E1A767",
"a. c #E1AC66",
"s. c #E2A769",
"d. c #E2AB6C",
"f. c #E8B065",
"g. c #E5B06E",
"h. c #EAB56D",
"j. c #E3AD73",
"k. c #E5B174",
"l. c #E9B475",
"z. c #E5B877",
"x. c #EAB977",
"c. c #E5B37A",
"v. c #EBB57A",
"b. c #E5B97D",
"n. c #EBB97C",
"m. c #F3BB7B",
"M. c #B19998",
"N. c #C4B59F",
"B. c #E2B687",
"V. c #E4BD82",
"C. c #ECBD82",
"Z. c #EEBC8B",
"A. c #F2BE82",
"S. c #EDC185",
"D. c #F4C284",
"F. c #F1C088",
"G. c #F7C594",
"H. c #F5CC9D",
"J. c #FFD59A",
"K. c #FFD5A4",
"L. c #E5E6C7",
"P. c white",
/* pixels */
"w.x | :.' } } ` P P G P ) | } ` } ) P P P G ) P P P P P ) ) P J n t.r.,.j.r.,.r.r.e.,.B.Z.G.K.` l =.} ^ { ] }  .Y &.-.R ",
"Y 6 n b c z c c z F F n G F G G G v z z p i i n z z l p l z p l 1 ..:.) | =.3.6.+...3.X.{ X.k...3 F H F Z S G F B A L K ",
"*.l G E M p v v f D ~ ! G A G ! ! ! ) G A F Z A A A A A b A A A 0 o.a.%.@.p.4.%.d.4.0.0.j.6...@.l n H A s v G ) B B ^ H ",
"<.C _ ~ A M A b M D ^ ! A Z D ! D ! J ~ ! D M M g b b g b g A A - A h.m.l.f.a.h.4.p.@.@.p.X.[ m.u b G A b G ) _ ! ! ) L ",
" .p ~ ~ A M M N g A N A f g N A ! W D E ^ ~ N g g A g A g N A E t 1 1 t n | | :.f.h.%.o.o.o.%./ * G A f b Q ! Q ) Q ( F ",
" .t E ~ B M A g A v N Z N M M A ^ ! b f D ! A g g g g f f g g g | n c e 1 7 : 4 y @.x.v.@.a.g.8 : } D M D b Q _ G G n Z ",
" .u E E M M Z b b v b b A A b G ~ _ D v ! ! A A A A b A A A A b c n G ) _ =.) P 4 3 3 k ` c.` O P ` Z M M f b ) F f Z m ",
"*.u b g f f b b G b G ) Q G Q ) G ) G b Q Q v c b                     ! ! Q ! ! } ) i < ; ; + u | J M M M D ! A V v S C ",
" .p Z Z g N Z Z A d A ^ J ! ^ D A b b D ! Q D     M.N.N.N.N.N.N.N.N.M.    ! ! D A A ! | ) A G ! G A b A G ~ ) A m f A z ",
"} i Z M N A A F g A A A ! ! Z J b v f Z A !   M.N.L.L.L.L.L.L.L.L.L.L.N.M.  A f Z v Z A D G D G A Z F J ! G J ] M A F F ",
" .u Z N W ! W F f A d A ! ! ] Z P P P P G   M.N.L.L.L.P.P.P.P.P.P.L.L.L.N.M.  f A F v f v A Z f f F f Z G G G p H D v Z ",
" .i Z A ! ~ ! F W f M D J P G p i i i u e   N.L.L.L.P.P.P.P.P.P.P.P.L.L.L.N.  Z g A A f N F Z M ! ! ! +.d.j.d.+.Z G J z ",
"=.i Z A W ~ J F D f A A P J p :.S.S.n.V.  M.N.L.L.P.P.P.P.P.P.P.P.P.P.L.L.N.M.  f Z Z A D A M M G f Q 0.j.4.0.l.] m b V ",
" .i v g A D G v f p v ] J p ..A.c.c.c.n.  M.N.L.L.P.P.P.P.P.P.P.P.P.P.L.L.N.M.  M M f N ^ D g f ! A | 4.[ [ @.:.q.W z F ",
" .i v f N A D G A D G ] Z F n.9...+.:...  M.N.L.L.P.P.P.P.P.P.P.P.P.P.L.L.N.M.  M M f M ! ! M A ! Z +.6...4.4.| 5.0.D F ",
" .p A v N D ! ! ! J | p F b.k.} +.+...+.  M.N.L.L.P.P.P.P.P.P.P.P.P.P.L.L.N.M.  A ^ A f A D M M ) q | v.d.6.4.8.g.6.w P ",
"=.Z A ~ ! D ! J P J ) p j.m...@.+.{ | @.  M.N.L.L.P.P.P.P.P.P.P.P.P.P.L.L.N.M.  J P ) F G G ) b D G f G X.:.6.v.+.q f U ",
"<.Z A ! ~ ! ! J P } r 8.v.@.+...{ +...@.  M.N.L.L.L.P.P.P.P.P.P.P.P.L.L.L.N.M.  H G ) J ) ) ) n G D c t v v f G r b ] C ",
"<.v A A W A G J ) z ) A.3.| +.X.+.@.+.{   $ N.N.L.L.L.P.P.L.L.P.P.L.L.L.N.N.$   <.F ) ) ) Q ( G p G ! ) [ G f t G Q A p ",
"} u A ! ! N G J F Z A.0.[ +.+.X.6.6.4.@.  $ M.N.N.L.L.L.L.L.L.L.L.L.L.N.N.M.$   0.z J J G G ! G D v f D ) G v F Z b f Z ",
"} p P ) ! A v F p t.l.{ 4...3.@.8.d.0.d.  $ $ M.N.N.L.L.L.L.L.L.L.L.N.N.M.$ $   ] p D G J ) ) G ! G v A ! G Z A p b G Z ",
"e.F ) D A b b F <.k.{ ..X.@.4.a.4.4.4.4.4.  # $ M.N.N.N.L.N.N.L.N.N.N.M.$ #   F u F ] z P ) ) ( G ! ] ) ) ! A v D A G H ",
"7.z F f b G G F D.3...3.^ p.6.d.@.+.+.$.{   # $ $ M.M.N.N.N.N.N.N.M.M.$ $ #   1 Z J J z G ) G ) ) ! D v f f F A p b ! H ",
";.p n f W Q u : z.0.6.X.4.6.d.X...+.4.6.$.X.  # # $ $ $ $ $ $ $ $ $ $ # #   } ] P p z G ) J ) Q ! b v G ! ! ! ! G G D J ",
",.v v A f G ) o y m.4.p.s.@.d.>.0.D.}             # # # # # # # # # #             G J A G ! ! ! J D ) G ! D ) ! D ~ ! H ",
",.F G D s A ! u % 6.D.g.p.g.C.j.] ,   N.L.N.N.M.$       # L.$ #       $ M.N.N.L.N.  ! ! ! ! G G [ J ! ! ) A v v J W ! H ",
";.F ] D g Z G _ = = z 4.v.:.e : X   N.    $ M.M.$ $ # # M.L.$ M.# # $ $ M.M.$     N.  ) ) D v A J G G G D v Z Z M f v S ",
"=.p ! D A v f ) P ; & & : : < u v.  N.L.L.    # # # $ $ $ M.# $ $ $ # # #     L.L.N.  J ) A f Z A ) ! A A A G ! D g F V ",
" .t A M N g f m P  .} z e n t.A.  L.# # P.N.$ $ N.L.  # $ L.N.$ #   L.N.$ $ N.P.# # L.  G A Z G G ] v f t f b G A f F F ",
" .r M N g g A f f Z v ) P F c.c.  P.L.L.$ N.L.P.P.P.# N.L.M.# L.N.# P.P.P.L.N.$ L.L.P.  A v v A ! ! f ! :.:.0.j.{ A v V ",
" .i A N M N A Z Z f a ! Z ! k.>.  # P.N.$ N.N.N.L.L.# # $ P.N.$ # # L.L.N.N.N.$ N.P.#   Z Z v v A ! F 4.l.d.4.4.x.3.} 5 ",
" .p D N N A M Z N g A W 9 ] m.4.+.. N.. # $ M.M.N.L.# N.L.M.# L.N.# L.N.M.M.$ # . N.. v A G A G A ) f [ :...[ | { 0.c.<.",
"V. .l ) A A s g M D A D q > d.v.  N.P.N..   # M.N.M.# # $ P.N.$ # # M.N.M.#   . N.P.N.  v A ! ! ! [ a ] d.X.@.:...O.[ 0.",
"S.<.) A ~ W B N A ] A ! [ 1 r 4.  $ L.$       # $ $ . N.L.M.# L.N.. $ $ #       $ L.$   A D G D A ! A G >.4.X.:.6.>.+.<.",
"b.7.3.i A A M M f f M G | f : 7   P.$ L.  v f     M.$ # $ P.M.$ # $ M.    3.8.  L.$ P.  A Q A M [ A ! D ! 4.d.:.d.s.8.<.",
"z.<.j.D f M M S Z f ! D G | | A   M.$ N.  f   M.$ . M.N.L.N.# L.N.M.. $ M.  j.  N.$ M.  A D f f G G ] ! f F 8.d.8.4.d.5.",
"z. .0.+.f f V Z M A v v A J ) )   @ $ @     $ P.N.$   # $ L.M.$ #   $ N.P.$     @ $ @   Z Z f Z z } J F | F G 9.9.>.0.9.",
"x.^ @.8.Q F Z V f A f ! [ D G   M.P.N.$     # N.P.P.. . M.N.# M.. . P.P.N.#     $ N.P.M.  N A A G F J F k.0.c J l.j.4.5.",
"x.{ { d.6.Z F Z f D A ] G Z b   N.L.$ $ @     N.N.P.P.# $ L.M.$ # P.P.N.N.    @ $ $ L.N.  Z N Z Z z P F 8.c.:.z +.l.3.<.",
"0.[ ] @.j.t V V D ~ ! D ! ) z   $ N.@ N.    M.    N.M.M.L.P.L.L.M.M.N.    M.    N.@ N.$   f M M z ] P p 4.F.F.Z p 0.@.#.",
"n.} v.v.7 q D A P ) ) P G ` ) b   $ L.N.    N.M.N.# $ M.$ N.N.$ M.$ # N.M.N.    N.L.$   A A Z N G ) ~ f p v p 8 f ] 0. .",
"t.P Q b 7 D ) f ) G J ! ! G G G A       G   $ L.M.@ $ #   # #   # $ @ M.L.$           Z f f Z A ) J ! ] Z 8 r A J ! X.<.",
"F 4 1 t b [ G F ! A A ! ! A A F Z Z Z v v   $ L.P.$ @             @ $ P.L.$   G f Z A A f f f D G D ! ] J A G ) J b f 5 ",
"9.J ) | _ ) A D ! A f A D N A M f v A A Z f   P.N.L.@   A A D D   @ L.N.P.  P A Z A D ! D A v Z v A G G J ! G f p ~ ) H ",
"*.F ) ! A _ ! D A A g A A A M M f A G G D G   N.$ M.@   f A f f   @ M.$ N.  F v v A G ! ) G A A v f F ~ ! v f A Z ) ] H ",
"=.F ! ! Q G f p M A D A M Z A D Z v A A Q !   @ L.$     Z A A M     $ L.@   D A A v v G ! ! J J A v A ) ! Z G ] ] ! J S ",
"7.i v Q ! A M J G ! A v A G D ) A v v v G       P.M.N.  A Z A D   N.M.P.      G G b F G Q P ) ) G ! D G G G G A ! Q ) H ",
"7.i v F G ~ ] J n G n ) =.| G n ! A F G   M.#   L.# M.  f f Z !   M.# L.  # M.  J G J ) ) ! ) J ! J ! ] ) D ! ! J G ] H ",
"1.v d d Z ;.e ^ ..} 3.k.u.j.0.=.A H ] J   L.M.# M.. M.  ! ! G G   M.. M.# M.L.  D ) ! A Z A D ! G ! ! A G ) ) ! f b ! D ",
"1.Z E E D z F d.k.k.k.3.} 3.j.j.c.G p ]   M.L.. $ N.$   F A G !   $ N.$ . L.M.  A D D A f A A ! ! ) D Z A G ! A F b ! H ",
"*.F E d ) 6 ] d.[ +.X.[ +.+.X.[ k.] r !   @ N.$ L.L.$   v v D !   $ L.L.$ N.@   f N f A f f A D ! ! G A G D G Z Z A ! H ",
"w.F E a ) 4 J 6.@.X.[ @.6.4.>.4.k.3.p ^ A   M.@ L.M.$   A A A G   $ M.L.@ M.  f A f Z M M f A D G A F A G G D v A b G S ",
";.t g E ) 4 u n.[ @.p.d.4.4.a.d.t.Z r ] Z A           ) G Z Z A )           A f A Z Z A A f A ! v v A D ) ! A c b v v V ",
"&.t d E P F 2 ..l.l.l.@.[ >.6.:.p r r J A ] J D v A ! ! G A A v b ..) G ] ! Z f A A A M A A D ! A v A ! ) D Z Z A v v z ",
"*.c N d F P 4 2 i G  .8.j.4.v 1 p U D Z A ~ D ! v A D ! D G F v G ` f i v A D G D D A M f A A D A v v G ! J G D D A Z V ",
"&.p g s Z F Z A r 4 4 i Z u r J ] J Z G H A ! D v Z G ) ! G G f [ u q Z c f ] | ^ ! A g p f A b A f v G J D ! | ] Q D F ",
" .r A g N E D G _ X.Q w 2 A ] ! ) Q ) ( ~ ) ! ! D A G ! ! D D J n q n.J.S.I j h u G ] E N N g b G b v ` G G 8.l.d.! p ) ",
";.u v f A ! ! G Q G A G G J ) J D D D A A D ! ~ A b G G P ) ] ] 2 ] x.] 5.D.t.9.=.z r M ] ! g G v A M ! ! A ] ..0.8.u ) ",
"Y 4 p f v G G F n i u k z v F F p p y t r y f v i i i i z Z F z 5 u.] U { { 6.k.S.i.=.l 6 n G G p p t p Z f p v ] F < F ",
"e.L ;...| =. .*._ } [ ` P } =.;.} } } } } ` } } } } ` } *.=.&.P T B.7.u.8.8.8.9.2.i.H.H.y.Y I  .;.} ` &.;.,.;.&.I z =.=."
};
