/* XPM */
static char *skeleton_left11678271278[] = {
/* columns rows colors chars-per-pixel */
"60 60 170 2 ",
"   c black",
".  c #1D131E",
"X  c #21161F",
"o  c #2E2533",
"O  c #754203",
"+  c #7C480E",
"@  c #7B4614",
"#  c #7C4B11",
"$  c #3D3748",
"%  c #4B444C",
"&  c #4D4A5D",
"*  c #544E5C",
"=  c #6B6878",
"-  c #726B7E",
";  c #814B0B",
":  c #835217",
">  c #855418",
",  c #8B521D",
"<  c #8C5A1C",
"1  c #97621C",
"2  c #8E5D22",
"3  c #925F24",
"4  c #936125",
"5  c #986226",
"6  c #95622B",
"7  c #9A652B",
"8  c #9D6A2C",
"9  c #976230",
"0  c #9D6C33",
"q  c #9F7237",
"w  c #9F7039",
"e  c #A2672B",
"r  c #A26B2C",
"t  c #A86E2F",
"y  c #AA752F",
"u  c #A36D31",
"i  c #A96F30",
"p  c #A56E38",
"a  c #A47235",
"s  c #AB7635",
"d  c #AD7836",
"f  c #A6743A",
"g  c #AA763A",
"h  c #A47C3F",
"j  c #AD7A3C",
"k  c #B27532",
"l  c #B57C37",
"z  c #B87936",
"x  c #B37D3D",
"c  c #B97E3D",
"v  c #996E43",
"b  c #9E7243",
"n  c #AA7641",
"m  c #A77A43",
"M  c #AD7B41",
"N  c #AF7F4E",
"B  c #B27642",
"V  c #B47E41",
"C  c #BA7E42",
"Z  c #B37B4A",
"A  c #AB813E",
"S  c #B5813E",
"D  c #BB813E",
"F  c #BD8B3D",
"G  c #AD8242",
"H  c #AD8842",
"J  c #B68143",
"K  c #BA8344",
"L  c #B48B45",
"P  c #BE8946",
"I  c #B58449",
"U  c #BC8649",
"Y  c #B58C4A",
"T  c #BE894B",
"R  c #AD8851",
"E  c #B58753",
"W  c #BD8C52",
"Q  c #BC8E5A",
"!  c #BE9251",
"~  c #BC955F",
"^  c #B68F70",
"/  c #C28544",
"(  c #C18845",
")  c #C1864A",
"_  c #C28B4D",
"`  c #C88C4C",
"'  c #C4914E",
"]  c #CE964B",
"[  c #C08450",
"{  c #C38D51",
"}  c #CA8E55",
"|  c #C38E5C",
" . c #CB8F5D",
".. c #C59253",
"X. c #CA9455",
"o. c #CB9B57",
"O. c #C4935B",
"+. c #CB965A",
"@. c #C59A5D",
"#. c #CD995B",
"$. c #D19757",
"%. c #D59D54",
"&. c #D1955C",
"*. c #D39C5C",
"=. c #D89E5E",
"-. c #C7A05D",
";. c #D5A15E",
":. c #DBA45C",
">. c #C39561",
",. c #C59B64",
"<. c #CB9C63",
"1. c #C2906D",
"2. c #CC9D69",
"3. c #D29E61",
"4. c #DA9F63",
"5. c #D49F6D",
"6. c #CDA364",
"7. c #CEA16A",
"8. c #CDA96F",
"9. c #D4A264",
"0. c #DBA465",
"q. c #D4AA66",
"w. c #DCA965",
"e. c #D3A46C",
"r. c #DBA66A",
"t. c #D5AA6B",
"y. c #DDAA6C",
"u. c #DFB26E",
"i. c #C7A371",
"p. c #D4A572",
"a. c #DAA271",
"s. c #DCAC71",
"d. c #D4A879",
"f. c #DFB175",
"g. c #DDB57E",
"h. c #E1A767",
"j. c #E1AC66",
"k. c #E2A769",
"l. c #E2AB6C",
"z. c #E8B065",
"x. c #E5B06E",
"c. c #EAB56D",
"v. c #E3AD73",
"b. c #E5B174",
"n. c #EAB475",
"m. c #E5B877",
"M. c #EAB977",
"N. c #E5B47A",
"B. c #EAB67A",
"V. c #E5B97D",
"C. c #EBB97C",
"Z. c #F3BC7C",
"A. c #B19998",
"S. c #ADA9B4",
"D. c #C4B59F",
"F. c #E2B687",
"G. c #E4BD82",
"H. c #EDBD82",
"J. c #EEBC8B",
"K. c #F2BE82",
"L. c #EDC185",
"P. c #EFC58B",
"I. c #F4C284",
"U. c #F1C088",
"Y. c #F7C594",
"T. c #F5CC9D",
"R. c #FFD59A",
"E. c #FFD5A4",
"W. c #E5E6C7",
"Q. c white",
/* pixels */
"i.N +.3. .O.O.| W W T W { O.+...@.| T W W W W { W W W W W W W W Z v.a.5.v.5.e.a.p.p.5.F.J.Y.E.O.m <.~ ' -...@.O.~ >.1.^ ",
"~ w Z C B M B B B J I I Z U I T I V M B j g g B M M j j M M m j 7 +.<.}  .<.0.0.*.#.9.$.X.*.b.o.9 I T J S K U J F K W R ",
",.m U / S j V B x T _ _ U K T _ _ _ _ T K K K K K J K C C K K K y %.j.:.:.j.h.:.l.0.w.k.b.0.$.=.m J W K x C T W F F _ Y ",
"6.H } ` K S K K S P ' _ K K K _ P _ _ _ _ K S S C D C K C c K K 1 P c.Z.c.k.h.c.0.k.=.*.k.$.X.Z.f Z I K C K { } T _ ` E ",
"@.x ` ` F S S c l K P K D l c K ( ' K ( ' _ D x c K c K c D D / g 3 e p I +.X.3.z.c.:.%.%.%.:.] , U K x K / ` ) { Z [ E ",
"@.d / ` P S K c K K x D K x D P _ ( K x ( ` K S c c c c c x c c <.Z V p e 9 9 e l ;.B.Z.$.j.b.r 3 { T S K K ) } T U U J ",
"~ s C / D x J c C V B K K J C I ' { K V _ _ K K K K C I K K K C B M U { } +.{ W 0 6 6 n | N.| @ W } K S K x C { J V L A ",
"@.f C C x x K C C K ) { ) ) ) _ ) } ) C ) ) B C J V . . . . . . . . . _ _ _ _ _ >.| g 3 3 2 # f +.W S A S P T K G V J H ",
"@.j K J c D J J K x K ` T _ ' T / K C / ) _ K K . . A.A.D.D.D.D.D.A.A.. . T _ T K K _ +.{ J K _ I V K K T _ _ K S x K M ",
"@.f J S D P K J c K K P _ _ J _ V V x V K _ ` . A.D.D.W.W.W.W.W.W.W.D.D.A.. K V V J J K T T T T K K K _ _ K _ ..A K J I ",
"@.f V K ( _ T J l K l K _ _ ..J T W W W U I . A.D.W.W.W.Q.Q.Q.Q.Q.W.W.W.D.A.. x K J V x V K J x V J B J U ) I x T _ V I ",
"@.g S K _ ` _ I _ x x U T W U j n g h f a p . D.W.W.Q.Q.Q.Q.Q.Q.Q.Q.W.W.W.D.. J x K K x D J J S _ { T *.l.v.l.3.S I T M ",
"<.g J K ( ` _ J P d K K T W d 3.L.H.C.G.V.. A.D.W.Q.Q.Q.Q.Q.Q.Q.Q.Q.W.W.W.D.A.. x J J K ( U S S K J T k.b.0.r.n.' A C J ",
"@.g V c P P U V x x S ..T j <.K.V.N.V.B.I.. D.W.W.Q.Q.Q.Q.Q.Q.Q.Q.Q.W.W.W.D.A.. K S S D ' P S l T K #.0.+.X.3.4.u.P B Y ",
"@.g V x D P K I K T K O.J K V.t.#.<.3.#.O.. D.W.W.Q.Q.Q.Q.Q.Q.Q.Q.W.W.W.W.D.A.. S S x x _ _ K J _ K *.0.+.0.r.+.q.y._ I ",
"<.g K x D K _ { T _ +.j I V.b.O.*.*.$.$.$.. D.W.W.W.Q.Q.Q.Q.Q.Q.W.W.W.W.D.D.A.. D ' K S K K S V { u +.n.w.w.0.w.x.w.u Y ",
"<.J P _ _ K _ T | T W M v.Z.*.*.*.o.$.*.0.. A.W.W.W.W.W.W.W.W.W.W.W.W.W.D.D.A.. T W { J U U { C ) I x K #.0.w.B.#.t x ! ",
"6.J K _ ' T ` T T O.a r.B.3.*.$.*.#.*.*.0.. A.W.W.W.W.W.W.W.D.W.W.W.W.D.D.D.- . I T ..W { [ { C U T V d x x B I a C X.G ",
"6.M K ( ( P U T { M { K.0.X.*.$.*.9.*.$.*.. A.W.W.W.W.W.W.D.D.D.W.W.D.D.D.A.- . 9.I { W { T [ U x K _ { X.U x d T ) K j ",
"@.f K ) ) D U T I J K.y.X.*.*.*.w.w.0.;.*.. & D.W.W.W.D.D.- A.D.D.D.D.D.A.A.& . y.M T T U T _ U K J x K { U J K K C x I ",
"@.g { { ) P x I j y.n.+.0.$.0.*.w.l.k.y.l.. . & D.W.W.Q.Q.- - A.D.D.D.A.A.- . K...j T I _ { { U _ I K K _ U V K j C K L ",
"p.Z { ( K V C I 6.b.o.;.$.*.0.w.0.0.0.0.0.9.. D.D.. . . D.Q.. - - - W.A.- & . I h J { M T { { [ U _ { X...T K V T J U Y ",
"e.M J x C _ I J L.9.+.;...w.w.k.*.*.*.*.$.o.. Q.D.W.& . . Q.. & - W.D.- & . g 7 M T T M T { ) { { _ K V x V K J j C _ T ",
"2.M I B ) ) f 4 M.y.y.o.w.0.l.$.#.*.w.k.;.*.. . D.W.- & A.Q.Q.W.W.- - & . W O.{ W V M K { T { T _ K J K { _ T ` I / U Y ",
"5.V V K x K { + d Z.0.k.k.=.v.4.l.I.O.I <.V.. - . D.D.Q.Q.Q.W.- D.& . . x K c x x K T U T _ _ ` _ U { T _ T _ _ P ' ` Y ",
"2.I T P x D _ f ; w.Z.x.0.n.K.v...5 > 2 4 2 2 . W.D.D.D.D.D.. . . . A.. . . z K V U _ T _ T U U ..T { _ { K J x ( ( T Y ",
"5.J ..T c K U X.< < V 9.B.3.f 3 O u w.B.y.I 8 @.. W.. Q.. D.. . - - . D.W.. . K U _ _ { { T J J _ U U K U V J J S x V H ",
"<.j { K K V x { W 2 : > 3 3 3 f C.C.B.V.I.B.O.. - . & . D.& - - . . $ - - A.- . _ _ T _ _ K x V K _ _ K K K U _ U C J G ",
"@.a K S c D x J W @.O.M f M s.J.Z.k.l.9.6.n.r.. D.& W.& W.Q.Q.W.W.D.A.D.A.- D.. T K J K U K V U U ..J x d d J I K l K R ",
"@.a K D l x K x x S V { W T v.N.*.;.w.#.9.y.T . o D.Q.W.& & D.D.& - . - - W.A.. _ T J V K J V U _ _ x { 3.4.w.n.#.K J G ",
"+.g D S S S K K K x d _ V { b.4.*.$.X.*.y.U u . D.Q.Q.D.Q.W.& & A.- $ . D.Q.- . _ _ K V V J V J K _ V 0.N.k.0.0.m.9.O.b ",
"@.j P D D K S J c c K ( t } Z.h.*.*.w.n.K 8 ... o W.& W.& & Q.W.D.$ - . - W.- . J U K V K U K K K { V X.*.*.+.+.o.w.n.6.",
"L.~ j ..P P l l S P K U t 4 v.B.9.x.n.V u ..) . D.W.- D.W.Q.Q.& & A.- . - Q.- . T x S K x K _ _ ) X.d X.l.$.*.4.@.$.X.y.",
"L.6.! K _ ( D S K X.P _ X.7 a 0.o.U x g K X.U . o D.D.W.& & & W.D.A.$ . D.W.D.. P J x K K P _ K U _ K K 4.0.+.4.0.0.*.6.",
"V.7.6.d K K S S x x K K +.x 2 e 8 7 r _ ` V x . - D.- D.W.Q.Q.& & & A.. - D.- . K K K S K _ K S X.K { U _ r.l.4.l.k.w.<.",
"m.9.v.U x x S K D j P T T +.X.K ..X.....U x U . . D.D.W.& & & Q.W.D.. A.D.& D.. K P J x K K S x U U ..T x J w.y.r.r.l.t.",
"m.@.y.9.x x J L K K x K K _ { { K Y K J V K K . . . & D.W.W.. . . . . A.& D.A.. K T K S S K x x V ..{ V +.I J r.y.0.y.t.",
"M...;.k.T J J G d K d _ X.U I _ U I S J K K C . & & . & - . W.W.W.. A.& W.A.. 0 P _ T K K S K K I K T I n.t.V W v.l.0.q.",
"M.X.o.k.w.K K G K K K ..U J C K ..T V K ) U K . - & - - . W.& Q.Q.D.A.& A..   p K K K K J S K K I m { I r.B.3.M ;.N.0.6.",
"u...X.*.v.f G G T ` T _ _ { j V K { _ { { ) { . . $ & D.. . Q.W.W.D.& A.. 3.3.f K x l K S x S x M ..W M 9.J.U.V j w.*.-.",
"V.@.n.n.8 t T U { W | T T { } Z V V K T { { _ . = A.$ . . W.Q.& D.D.. . . b.<.0 P J V K K K S K K ..` V d V d r x X.w.-.",
"s.{ [ C e T _ x { T T _ T T T K K K K K U _ _ . A.Q.W.= . . & D.. . = = . 3.< p K S x S x x S K _ _ _ { J u s K T _ #.6.",
"I 8 8 g C X.K K _ K K _ ` K K J J V J V V J . & & W.D.A.= . . . A.D.W.= . . u T x S K K x x x K I _ ` ..T K U { T V j a ",
"t.W { X.} _ K T _ K x D U K S J x V K K K x . W.Q.& A.= X K K . = A.Q.W.= . _ I V K _ _ T J J K x K T U T _ I x V _ { Y ",
"<.I { T K { _ ) K K x K K S S S x K U T T U . & D.& = . V K x x . % & & D.= . V J K U _ ` T K K V x J { _ x x K J } { Y ",
"<.J T { _ K x j S P K K S K K P V J J K _ . A.W.& D.. U K J K S J . S.Q.& Q.A.. K V V K _ T T T K V K { _ K I X.{ _ T L ",
"e.n V [ } C x T U _ K C I T T { K V . . . & W.& Q.A.. U K S K P K I . A.* W.Q.A.. J K U T { { { T T _ I U U I K T ) { Y ",
"6.g V K U _ X.T K I Z { <.+.U V _ . W.& D.A.& & D.. J K V x K _ ` _ ` . W.& A.D.- . U | { T { T _ T _ ` { _ _ { T ( ..Y ",
"7.V z z J 2.a ..<...9.N.f.v.y.<.K . - Q.& W.A.D.& . x V T T K I { _ K K . W.& - D.. ` K J K T _ T _ _ K K { { _ V C _ Y ",
"i.J / / T M J l.b.n.v.9.+.9.v.v.B.Y . - Q.W.A.Q.W.. J V K K T _ T . . . A.- D.W.A.. U K S J K ( _ _ T J K T _ K V K _ T ",
"2.J / z { w O.l.X.$.*.X.#.*.$.X.b...a . . & & D.A.. U J J K I ` . A.W.- W.- A.D.. S J D S x K _ _ T T J K T I K J K _ Y ",
"2.I / k | 0 T w.*.$.$.=.w.0.4.0.N.9.g ' K . . . . { ` T K J K U . Q.& Q.& W.& . J S S J S x K K T K K K U _ K V J C U L ",
",.d c / { 0 f C.$.%.k.k.h.0.j.l.y.K a ..J K _ T K U { { U K J J { . . . . . . x K S J K K S K _ J V K U ` T K V J B K J ",
"O.s z / T I 7 #.n.M.x.4.X.9.0.*.j a a T K _ _ K x K _ _ U K J J V #.{ T .._ J x K K J S K K P _ K V J _ { T K V K x x A ",
",.V D z I W 8 8 g I @.r.b.9.J 7 h { T S K ' _ ( V K T _ T K K J U { B g V K K T U P K J x S K T K V J T _ T K T T K K G ",
">.g c c J I I K p 0 0 j J a a W O.T J T U K _ P J V U { _ T K x O.f u V V x X.X...` K l x x C C K x x U T T _ X...) U I ",
",.g K c D ( K U ` &.) i e K X._ _ _ ) { _ { ) ` K K ) _ _ P P P Z u H.R.L.~ n v a I X./ D D c C I V V { I U k.n.l._ g { ",
"<.f x x K _ _ W ) U K U I _ _ T P P P P P K _ _ U C K U W { | ..r X.n.' q.I.s.e.<.j a S .._ x U c K K { _ K X.#.y.r.g { ",
"~ p M x V T I I C g p B M B I I d d s s d d x V g f g j V I I M q f.O.! o.#.q.b.P.g.,.m w I T I g j g x J V g B W I 6 I ",
"p.E <.@.+.*.@.>.} O.O.O.Q O.<.,.>.O.O.| ~ | O.O.O.O.O.O.>.<.>.W Q F.e.f.r.e.r.r.8.g.T.T.d.>.W O.<.>.Q O.2.e.2.<.W I ,.<."
};
