/* XPM */
static char *skeleton_rigth11678271278[] = {
/* columns rows colors chars-per-pixel */
"60 60 168 2 ",
"   c black",
".  c #1D131E",
"X  c #2E2533",
"o  c #754203",
"O  c #7C480E",
"+  c #7B4614",
"@  c #7C4B11",
"#  c #3D3748",
"$  c #4B444C",
"%  c #4D4A5D",
"&  c #6B6878",
"*  c #726B7E",
"=  c #814B0B",
"-  c #835217",
";  c #855418",
":  c #8B521D",
">  c #8D5A1C",
",  c #97621C",
"<  c #8E5D22",
"1  c #925E24",
"2  c #936125",
"3  c #986226",
"4  c #95622B",
"5  c #9A652B",
"6  c #9D692C",
"7  c #976230",
"8  c #9D6C33",
"9  c #9F7237",
"0  c #9F7039",
"q  c #A2672B",
"w  c #A26B2C",
"e  c #A86E2F",
"r  c #AA752F",
"t  c #A36D31",
"y  c #A96F30",
"u  c #A56E38",
"i  c #A47235",
"p  c #AB7535",
"a  c #AD7836",
"s  c #A67439",
"d  c #AA763A",
"f  c #A47C3F",
"g  c #AC7A3C",
"h  c #B27532",
"j  c #B57C37",
"k  c #B87936",
"l  c #B37D3D",
"z  c #B97E3D",
"x  c #996E43",
"c  c #AA7641",
"v  c #A77A43",
"b  c #AD7B41",
"n  c #AF7F4E",
"m  c #B27642",
"M  c #B47E41",
"N  c #BA7E42",
"B  c #B37B4A",
"V  c #AB813E",
"C  c #B5813E",
"Z  c #BB813E",
"A  c #BD8B3D",
"S  c #AD8242",
"D  c #AD8842",
"F  c #B68143",
"G  c #BA8444",
"H  c #B48B45",
"J  c #BE8946",
"K  c #B58349",
"L  c #BC8649",
"P  c #B58C4A",
"I  c #BE894B",
"U  c #AD8851",
"Y  c #B58753",
"T  c #BE8C52",
"R  c #BC8E5A",
"E  c #BE9251",
"W  c #BC955F",
"Q  c #B68B60",
"!  c #B68F70",
"~  c #C28543",
"^  c #C18845",
"/  c #C1864A",
"(  c #C28B4D",
")  c #C88C4C",
"_  c #C4914E",
"`  c #CE964B",
"'  c #C08450",
"]  c #C38D51",
"[  c #CA8E55",
"{  c #C38E5C",
"}  c #CB8F5D",
"|  c #C59154",
" . c #CA9455",
".. c #CB9B57",
"X. c #C4935B",
"o. c #CB965A",
"O. c #C59A5D",
"+. c #CD995B",
"@. c #D19757",
"#. c #D59D54",
"$. c #D1955C",
"%. c #D39C5C",
"&. c #D89E5E",
"*. c #C7A05D",
"=. c #D5A15E",
"-. c #DBA45C",
";. c #C38E64",
":. c #C39561",
">. c #C59B64",
",. c #CB9C63",
"<. c #C2906D",
"1. c #CC9D69",
"2. c #D29E61",
"3. c #DA9F63",
"4. c #D49F6D",
"5. c #CDA364",
"6. c #CEA16A",
"7. c #CDA96F",
"8. c #D4A164",
"9. c #DBA465",
"0. c #D4AA66",
"q. c #DCA965",
"w. c #D4A46B",
"e. c #DBA66A",
"r. c #D5AA6B",
"t. c #DDAA6C",
"y. c #DFB26E",
"u. c #C7A371",
"i. c #D4A572",
"p. c #DAA271",
"a. c #DCAC71",
"s. c #D4A879",
"d. c #DFB175",
"f. c #DDB57E",
"g. c #E0A667",
"h. c #E1AC66",
"j. c #E2A769",
"k. c #E2AB6B",
"l. c #E8B065",
"z. c #E5B06E",
"x. c #EAB56D",
"c. c #E3AD73",
"v. c #E4B174",
"b. c #E9B475",
"n. c #E5B877",
"m. c #EAB977",
"M. c #E5B37A",
"N. c #EAB67A",
"B. c #E5B97D",
"V. c #ECB97B",
"C. c #F3BC7C",
"Z. c #B19998",
"A. c #ADA9B4",
"S. c #C4B59F",
"D. c #E2B687",
"F. c #EDBD82",
"G. c #EEBC8B",
"H. c #F2BE82",
"J. c #EDC185",
"K. c #F4C284",
"L. c #F1C088",
"P. c #F7C594",
"I. c #FFCD92",
"U. c #F5CC9D",
"Y. c #FFD59A",
"T. c #FFD5A4",
"R. c #E5E6C7",
"E. c white",
/* pixels */
"u.n o.2.} X.X.{ T T L T ] X.X.X.X.] T T ] T T T T T T T T ] T Y B c.p.4.c.4.4.p.p.i.4.D.G.P.T.X.v ,.X.E *.| O.o.>.;.<.! ",
"W 0 B N m b m m b F K K K L L I L M m b g d d m b b b g b b b g 5 +.2.] } 2.9.q.%...2.%. .%.v.+.7 K I F C G K F H K K U ",
">.v L ~ C g M m l L ( ( L G L ( ( ( ] I G G F G G G G G G N G G r #.h.-.9.h.g.=.k.9.e.k.c.9...9.v n ( G l N I T A A ( P ",
"5.D [ ) G C G G G ^ _ ( G F G ( J ( ( ( ( G C C z F N z N z G G , ^ z.C.z.h.h.x.9.g.&.%.j.@. .C.s M L F l G ] } _ ^ ] T ",
"O.l ~ ) A C C Z Z Z G G C l Z G ^ ( ^ ^ _ ( G Z z G z G z z G ~ a 3 5 i B o.o.2.l.x.-.#.#.#.-.` : L G l G ~ ( ( T / L K ",
"O.a / ) G C G z F N C Z Z Z F G ^ ( F l ^ ( F z z z z z z z z z ;.L m s 5 q 1 8 j %.b.V.%.h.z.q 1 ] I l ~ G / [ I L B K ",
"W p ~ ~ Z l F z N M N G F F N G | ] G M ( ( G G G G N G G G F F M m L ] } +.X.I 8 7 7 c { M.{ + I X.H F G j N ( F l F V ",
">.s N N l l G N N G / ' ( / / ( ^ [ / N / / N m . . . . . . . . . G L ( / ( ^ ( X.] d 4 < < @ s ,.T C C C G / L F M K D ",
"O.g G C Z Z F F G j G ) I ( _ I ~ G F ~ / ( . . Z.Z.S.S.S.S.S.Z.Z.. . ( ( ( ( I L G ] o.] G G ] G M G G L ] ( G V j L v ",
"O.s F C Z G G F F ~ G G ( ( F ( M N l F G . Z.S.S.R.R.R.R.R.R.R.S.S.Z.. G F G M M l F G I L I L N G F ( ( G ( | F G F K ",
"O.d M F ^ ^ I F l F j G ( ( | F I T ] Y . Z.S.R.R.R.E.E.E.E.E.R.R.R.S.Z.. F M l F G C l M F F l F F m F L L L l I ^ M F ",
"+.d F G ( _ ( K ^ C l I I T L g d c d d . S.R.R.R.E.E.E.E.E.E.E.E.R.R.S.. L L F l F F Z F F C F ( ( ( %.k.c.k.%.D I I v ",
"+.d F G ) ( I K ^ l G G ( T g 2.J.F.F.. Z.S.R.R.R.E.E.E.E.E.E.E.E.E.R.S.Z.. ( I l F F G ^ G C F L M L k.c.9.k.b.| g M S ",
">.d M l ~ G L F l l l | L g +.H.M.M.M.. Z.S.R.R.R.E.E.E.E.E.E.E.E.E.R.R.S.. ( L G Z C Z _ J C j I G o.9.o. .%.2.y.^ l P ",
"O.d M l Z G ^ L F I L X.F K B.r.+.%.8.. Z.S.R.R.R.R.E.E.E.E.E.E.E.E.R.R.S.. I L l C j l ( _ G F I F %.e. .9.e.o.0.t.I K ",
"O.g F F Z G ( ( I ( ..d K B.v.o.%.%.... Z.S.S.R.R.R.R.E.E.E.E.E.E.R.R.R.S.. I J G _ J C Z G C C ] y ..N.k.q.9.e.z.q.i I ",
",.F J ( ( G ( L ] Y ] g c.H.@.2.+...@.. Z.S.S.R.R.R.R.R.R.R.R.R.R.R.R.R.Z.. | ] Y E ] F L L ' m I L l G ..8.9.N.2.w l E ",
"5.M G ( _ J _ I I X.i e.N.%.2.@.%.+.%.. * S.S.S.R.R.R.R.S.R.R.R.R.R.R.R.Z.. K g L L | T ] ] ] L L ^ F d M C m L i N  .D ",
"w.b G G ) Z I I | b ] H.3. .%.@.=.%.%.. * Z.S.S.S.R.R.S.S.S.R.R.R.R.R.R.Z.. T w.8.K ] T ] I ' / l L ( ( [ I l a G / F g ",
"X.s G ^ ) F L I K F H.t. .%.%.%.q.q.9.. % Z.Z.S.S.S.S.S.Z.* S.S.R.R.R.S.% . +.I.t.b I I L L ] L G M M G ( L M G G F l K ",
"X.g T | ( G N B g c.v.O.9.@.=.%.e.k.k.q.. * Z.Z.S.S.S.Z.* * E.E.R.R.S.% . . | F.| g I L I ] ] I ( G M G ( L F G g N L H ",
"i.K ] G G M M L 5.v.o.#.%.=.9.h.9.9.9.9.. % * Z.R.* * * . E.S.. . . S.S.. M b K s K ] b I | / T L ( | | | I G M I N / P ",
"w.c G l N ( L F K.8.+.=._ h.q.e.%.%.%.%.%.. % * S.R.* % . E.. . % R.S.E.. Y d 5 S P I M I I ' ] ] ( L M l M F G g N / P ",
"1.d L M L / s 1 m.t.q.+.9.9.k.%...%.q.k.2.%.. % * * R.R.E.E.Z.% * R.S.. . ( X.| I F m K ] I ] / ( G l L ( ( ( ( I G L I ",
"1.B M F j G ] O a C.-.g.j.&.j.3.t.K.o.K ,.M.w.. . % S.* R.E.E.E.S.S.. * . G N j l L I L I I ( ( ( L ] I ( L ( ( J _ ( P ",
"6.L ] G l G ] d = q.K.z.9.b.H.c.| 3 ; < 2 . . . Z.. . . . S.S.S.S.S.R.. G / k G M I ^ ( ] ^ I /  .I ( ( | F F M I ~ ^ I ",
"1.K | ^ z Z G | > > g w.N.2.u 4 o t q.N.. . R.S.. * * . . S.. E.. R.. l z F a G L I ( ] ] L M F I L L G L M F F C l F U ",
",.g ( J G F m ] T < ; - 1 1 1 s m.F.m.. * Z.* * # . . * * % S.. % . * . L I G l ( ( I ( ( G l F G ( ( L G G ( ^ J Z F S ",
"O.i G Z Z C l C T O.o.b u b a.H.V.k.k.. S.* Z.S.Z.S.R.R.E.E.R.% R.% S.. G g T H I L F F L G F L I  .G g a g G L G l F K ",
"O.p C Z l z G l l F M ] T L M.M.%.=.g.. Z.R.* * . * % S.S.% % R.E.S.X . t.C K | ( I F M F M F G I ( m ] 2.2.e.c...G M S ",
"O.d G Z C Z G K F l d ( M ] v.3.%.@. .. * E.S.. # * Z.% % R.E.S.E.E.S.. n.P d | ( ( G M F F M F G ( M 9.b.k.9.9.m.3.| f ",
"O.d G Z Z G C C Z z G ~ y [ C.9.%.%.q.. * R.* . * # S.R.E.% % R.% R.X . 8.r.g I F L G M G L G L G ( l | 3...o.@.O.e.n.5.",
"J.W g | G ~ j C C J G I e 2 k.V.9.z.b.. * E.* . * Z.% % E.E.R.S.* R.S.. &.c.I g L l C F F G ( ( ( @.a  .k.@.%.2.%.$. .t.",
"J.5.E G ( ^ G C G _ G (  .5 i 8.O.H l . S.R.S.. # Z.S.R.% % % R.S.S.X . %.9.| v ^ F Z F G G ^ ^ G ( N G 3.9.+.3.9.3.%.5.",
"B.w.8.d J G C C C l Z L o.l 1 q 6 5 e . * S.* . Z.% % % E.E.R.S.* S.* . 3.9.e.v ^ G F F G I G F  .F ] L ( e.c.8.t.j.e.=.",
"n.5.v.G g j C G F l ^ I L %.| G |  .] . S.% S.Z.. S.R.E.% % % R.S.S.. . 9.9.c.c G L F l G G C l L I | ^ l F 9.q.e.q.t.r.",
"n.O.k.2.l l F H F G l F G ^ ] ] G I H . Z.S.% Z.. . . . . R.R.S.% . . . g.e.a.t G ^ G C G Z l F M | T n +.K L r.e.9.e.r.",
"m.| %.k.I F F S j F l ( o.L L ] L G M M . Z.R.% Z.. R.R.R.. * % . % % . k.q.w.8 L ( ^ G C F G G L K I F v.q.m T v.k.9.0.",
"m. ...q.9.M L S F G L | L F M K | J M L   . Z.% Z.S.E.E.% R.. * * % * . j.j.8.i I G G G F C F G F b ] K e.B.2.b 5.b.9.5.",
"t. . .=.v.d S S ( ( I ^ ( ] l m K ] ( ] ] ^ . Z.% S.R.R.E.. . S.% # . . 9.%.2.s G j l F C C F j b X.T d w.H.K.F g e.%.*.",
"N.X.N.N.q t I J ( ] ] T I [ { m l M G I ] ( . . . S.S.% E.R.. . # Z.& . +.v.8.8 L G F F G G Z F L | ( l d F d w g  .q.*.",
"a.T / N q I ( j ] I ( ( I I I G G G G L L ( . & & . . S.% . . & R.E.Z.. F.,.> 8 F C l C l l C G ] ( ( ] M y i F ( / +.5.",
"K 8 5 p G  .L K ^ F G ( ( G G F F F F M F . . & R.S.Z.. . . & Z.S.R.% % . > q T C F G G C l C G G ^ ( ] ^ G L ] I N a 9 ",
"i.I ] o.[ ( G ^ ] G C G J G C F l N F F F . & R.E.Z.& . G G . & Z.% E.R.. L ] K F F I ( ^ F M G M G I L I ] L l g ( | P ",
"O.L ] I ~ ] ( I G G Z F G Z C Z M G L I . & S.% % $ . G N C F . & % S.% .  .M M F F L ( ] I G G M l F ] ( F g G G ] ] P ",
"5.K I ( ( / l d C J G F C F K J M F F . Z.E.% E.A.. ( L F F F Z . S.% R.Z.. L G G M M L ( ( I I G M L ] ( F L  .| ( ( H ",
"w.d M ] ( F M J L ( L M N L ^ ] G M . Z.E.R.% Z.. L I L G F G I . Z.E.% R.% . . . G N L I ] ] ] I ( ^ L L L G G I / ] P ",
"8.c M M / ( | ( B L B ] ,.,.L M ( . * S.Z.% R.. M M F G F l F ^ ( . S.% % Z.S.% R.. L { ] ] I I I I ( _ ] I ( ] I / | P ",
"6.b k k F 1.i ( ,.| 2.v.v.c.t.,.G . S.* % R.. J F M l M ( ( G L ( . % S.Z.R.% E.* . ( ~ F G I I I ( ( G L ( | ( M N ( I ",
"6.K ~ ~ I b F v.c.b.c.w.o.w.c.c.N.. Z.R.S.* Z.. . . F l G G L ( I . R.E.Z.R.E.* . J I F Z F L ^ ( ( I F G I I G N G ( P ",
"1.F ~ l ] 0 | k._ %.%.@...%.%. .v.| . S.Z.* R.* R.Z.. F M G L ] I . Z.S.% % . . C l Z F C l G ^ ( ( L G G I L F G G ( H ",
"1.K ~ h | 8 I e.&.@. .&.9.9.&.3.M.8.g . % R.% E.% E.. ( G F F L ( I . . . . J l F C F Z l l F I I G F G L ( G M F F L K ",
">.a z ~ ] 8 d V. .&.g.k.g.9.k.k.t.H i  .. . . . . . ( ( L G F F ] ] I ] G l F l G C C G G F G ( F M F L ( ( G l F m F S ",
":.p k ~ T S 5 +.b.m.z.=. .8.9.%.g i i I G ( ( J M G ( ] L G F F M +.] I | ( F l G G F F F G ^ ( F M G ( ] ( F M F z F C ",
">.M Z k K T 8 6 d L +.e.v.8.M 5 d E L F G | I ^ M F I ( I L G F L { m d M N G I I I G C l G G ^ G M F I ( L L ( I G G D ",
":.d z z M K L F 8 8 8 g F i i T | I F L I G ^ I M F L ] ( L G l o.u t M M l  ...( ( J l j l F M G l l L I I (  .] / L K ",
">.i G z Z ~ G L )  .( y 6 F  .( ] ( ] ' ( ] ( ) G G / ( ( I J I N t F.Y.J.R c x i L  .Z Z Z k N L N M ] L L e.b.k.( g ] ",
">.d M z G ( ( ] / I L N L ] ( I J G G G G J ( _ G N G L I T | | 6 | b.| 0.K.a.w.>.b i F  .^ M / M G F ( _ G ] %.t.e.d ] ",
"W 8 g l M L L K B p d c b m K K j d a a p d g l d d d g F K K b 9 d.| E %...q.v.L.f.>.v u n L L s g d l K M g m ] F 1 K ",
"s.Y ,.+.o.,.X.>.[ X.:.[ T :.,.,.>.X.X.X.{ X.X.X.X.X.{ X.:.,.:.T Q D.w.d.r.w.e.r.7.f.U.U.s.W W O.,.:.X.X.,.4.1.>.R n >.,."
};
