/* XPM */
static char *f2b2c1c9fbd9491adb5328ec89d12537FjhQ5AROsAA08quA[] = {
/* columns rows colors chars-per-pixel */
"50 50 14 1 ",
"  c None",
". c black",
"X c #1D131E",
"o c #2E2533",
"O c #3D3748",
"+ c #4B444C",
"@ c #4D4A5D",
"# c #6B6878",
"$ c #726B7E",
"% c #B19998",
"& c #ADA9B4",
"* c #C4B59F",
"= c #E5E6C7",
"- c white",
/* pixels */
"                                                  ",
"                                                  ",
"                   XXXXXXXXX                      ",
"                 XX%%*****%%XX                    ",
"                X%**=======**%X                   ",
"               X%*===-----===*%X                  ",
"               X*==--------===*X                  ",
"              X%*=---------===*%X                 ",
"              X*==---------===*%X                 ",
"              X*==--------====*%X                 ",
"              X*===------====**%X                 ",
"              X%=============**%X                 ",
"              X%=======*====***$X                 ",
"              X%======***==***%$X                 ",
"              X@*===**$%*****%%@X                 ",
"              XX@*==--$$%***%%$X                  ",
"               X**XXX*-X$$$=%$@X                  ",
"               X-*=@XX-X@$=*$@X                   ",
"               XX*=$@%--==$$@X                    ",
"               X$X**---=$*@XX                     ",
"                X=*****XXXX%XXX                   ",
"                 X=X-X*XX$$X*=XX                  ",
"                X$X@X*@$$XXO$$%$X                 ",
"                X*@=@=--==*%*%$*X                 ",
"                Xo*-=@@**@$X$$=%X                 ",
"                X*--*-=@@%$OX*-$X                 ",
"                Xo=@=@@-=*O$X$=$X                 ",
"                X*=$*=--@@%$X$-$X                 ",
"                Xo**=@@@=*%OX*=*X                 ",
"                X$*$*=--@@@%X$*$X                 ",
"                XX**=@@@-=*X%*@*X                 ",
"                XXX@*==XXXXX%@*%X                 ",
"                X@@X@$X===X%@=%X                  ",
"                X$@$$X=@--*%@%X.                  ",
"                XXO@*XX-==*@%X                    ",
"                X#%OXX=-@**XXX                    ",
"                X%-=#XX@*XX##X                    ",
"               X@@=*%#XXX%*=#XX                   ",
"               X=-@%#X  X#%-=#X                   ",
"               X@*@#X    X+@@*#X                  ",
"              X%=@*X      X&-@-%X                 ",
"           XXX@=@-%X       X%@=-%X                ",
"          X=@*%@@*X         X=@%*$X               ",
"          X$-@=%*@X          X=@$*X               ",
"           X$-=%-=X       XXX%$*=%X               ",
"            XX@@*%X      X%=$=$%*X                ",
"              XXXX       X-@-@=@X                 ",
"                          XXXXXX                  ",
"                                                  ",
"                                                  "
};
