/* XPM */
static char *result[] = {
/* columns rows colors chars-per-pixel */
"60 59 10 1 ",
"  c #1D131E",
". c #2E2533",
"X c #3D3748",
"o c #4D4A5D",
"O c #726B7E",
"+ c #B19998",
"@ c #C4B59F",
"# c #E5E6C7",
"$ c white",
"% c None",
/* pixels */
"%%%%%%%%%%%%%%%%%%%%%%%%%%%%%%%%%%%%%%%%%%%%%%%%%%%%%%%%%%%%",
"%%%%%%%%%%%%%%%%%%%%%%%%%%%%%%%%%%%%%%%%%%%%%%%%%%%%%%%%%%%%",
"%%%%%%%%%%%%%%%%%%%%%%%%%%%%%%%%%%%%%%%%%%%%%%%%%%%%%%%%%%%%",
"%%%%%%%%%%%%%%%%%%%%%%%%%%%%%%%%%%%%%%%%%%%%%%%%%%%%%%%%%%%%",
"%%%%%%%%%%%%%%%%%%%%%%%%%%%%%%%%%%%%%%%%%%%%%%%%%%%%%%%%%%%%",
"%%%%%%%%%%%%%%%%%%%%%%%%%%%%%%%%%%%%%%%%%%%%%%%%%%%%%%%%%%%%",
"%%%%%%%%%%%%%%%%%%%%%%%%%%%%%%%%%%%%%%%%%%%%%%%%%%%%%%%%%%%%",
"%%%%%%%%%%%%%%%%%%%%%%%%%          %%%%%%%%%%%%%%%%%%%%%%%%%",
"%%%%%%%%%%%%%%%%%%%%%%%  +@@@@@@@@+  %%%%%%%%%%%%%%%%%%%%%%%",
"%%%%%%%%%%%%%%%%%%%%%% +@##########@+ %%%%%%%%%%%%%%%%%%%%%%",
"%%%%%%%%%%%%%%%%%%%%% +@###$$$$$$###@+ %%%%%%%%%%%%%%%%%%%%%",
"%%%%%%%%%%%%%%%%%%%%% @###$$$$$$$$###@ %%%%%%%%%%%%%%%%%%%%%",
"%%%%%%%%%%%%%%%%%%%% +@##$$$$$$$$$$##@+ %%%%%%%%%%%%%%%%%%%%",
"%%%%%%%%%%%%%%%%%%%% +@##$$$$$$$$$$##@+ %%%%%%%%%%%%%%%%%%%%",
"%%%%%%%%%%%%%%%%%%%% +@##$$$$$$$$$$##@+ %%%%%%%%%%%%%%%%%%%%",
"%%%%%%%%%%%%%%%%%%%% +@##$$$$$$$$$$##@+ %%%%%%%%%%%%%%%%%%%%",
"%%%%%%%%%%%%%%%%%%%% +@##$$$$$$$$$$##@+ %%%%%%%%%%%%%%%%%%%%",
"%%%%%%%%%%%%%%%%%%%% +@###$$$$$$$$###@+ %%%%%%%%%%%%%%%%%%%%",
"%%%%%%%%%%%%%%%%%%%% O@@###$$##$$###@@O %%%%%%%%%%%%%%%%%%%%",
"%%%%%%%%%%%%%%%%%%%% O+@@##########@@+O %%%%%%%%%%%%%%%%%%%%",
"%%%%%%%%%%%%%%%%%%%% OO+@@########@@+OO %%%%%%%%%%%%%%%%%%%%",
"%%%%%%%%%%%%%%%%%%%%% oO+@@@#@@#@@@+Oo %%%%%%%%%%%%%%%%%%%%%",
"%%%%%%%%%%%%%%%%%%%%% oOO++@@@@@@++OOo %%%%%%%%%%%%%%%%%%%%%",
"%%%%%%%%%%%%%%%%%%%%%% ooOOOOOOOOOOoo %%%%%%%%%%%%%%%%%%%%%%",
"%%%%%%%%%%%%%%%%%%%      oooooooooo      %%%%%%%%%%%%%%%%%%%",
"%%%%%%%%%%%%%%%%%% @#@@+O   o#Oo   O+@@#@ %%%%%%%%%%%%%%%%%%",
"%%%%%%%%%%%%%%%%% @  O++OOoo+#O+ooOO++O  @ %%%%%%%%%%%%%%%%%",
"%%%%%%%%%%%%%%%%% @##  oooOOO+oOOOooo  ##@ %%%%%%%%%%%%%%%%%",
"%%%%%%%%%%%%%%%% #oo$@OO@# oO#@Oo #@OO@$oo# %%%%%%%%%%%%%%%%",
"%%%%%%%%%%%%%%%% $##O@#$$$o@#+o#@o$$$#@O##$ %%%%%%%%%%%%%%%%",
"%%%%%%%%%%%%%%%% o$@O@@@##ooO$@Ooo##@@@O@$o %%%%%%%%%%%%%%%%",
"%%%%%%%%%%%%%%%%%.@.oO++@#o@#+o#@o#@++Oo.@.%%%%%%%%%%%%%%%%%",
"%%%%%%%%%%%%%%%% @$@. o+@+ooO$@Ooo+@+o .@$@ %%%%%%%%%%%%%%%%",
"%%%%%%%%%%%%%%%% O#O   oOO.@#+o#@.OOo   O#O %%%%%%%%%%%%%%%%",
"%%%%%%%%%%%%%%%% $O# %%  +OoO$+OoO+  %% #O$ %%%%%%%%%%%%%%%%",
"%%%%%%%%%%%%%%%% +O@ % +O.+@#@o#@+.O+ % @O+ %%%%%%%%%%%%%%%%",
"%%%%%%%%%%%%%%%% XOX  O$@O oO#+Oo O@$O  XOX %%%%%%%%%%%%%%%%",
"%%%%%%%%%%%%%%% +$@O  o@$$..+@o+..$$@o  O@$+ %%%%%%%%%%%%%%%",
"%%%%%%%%%%%%%%% @#OOX  @@$$oO#+Oo$$@@  XOO#@ %%%%%%%%%%%%%%%",
"%%%%%%%%%%%%%%% O@X@  +  @++#$##++@  +  @X@O %%%%%%%%%%%%%%%",
"%%%%%%%%%%%%%%%% O#@  @+@oO+O@@O+Oo@+@  @#O %%%%%%%%%%%%%%%%",
"%%%%%%%%%%%%%%%%%   % O#+XOo oo oOX+#O     %%%%%%%%%%%%%%%%%",
"%%%%%%%%%%%%%%%%%%%%% O#$OX      XO$#O %%%%%%%%%%%%%%%%%%%%%",
"%%%%%%%%%%%%%%%%%%%%%% $@#X %%%% X#@$ %%%%%%%%%%%%%%%%%%%%%%",
"%%%%%%%%%%%%%%%%%%%%%% @O+X %%%% X+O@ %%%%%%%%%%%%%%%%%%%%%%",
"%%%%%%%%%%%%%%%%%%%%%% X#O  %%%%  O#X %%%%%%%%%%%%%%%%%%%%%%",
"%%%%%%%%%%%%%%%%%%%%%   $+@ %%%% @+$   %%%%%%%%%%%%%%%%%%%%%",
"%%%%%%%%%%%%%%%%%%%% +o #o+ %%%% +o# o+ %%%%%%%%%%%%%%%%%%%%",
"%%%%%%%%%%%%%%%%%%%% #+o+.+ %%%% +.+o+# %%%%%%%%%%%%%%%%%%%%",
"%%%%%%%%%%%%%%%%%%%% +#.O@O %%%% O@O.#+ %%%%%%%%%%%%%%%%%%%%",
"%%%%%%%%%%%%%%%%%%%% X@O##O %%%% O##O@X %%%%%%%%%%%%%%%%%%%%",
"%%%%%%%%%%%%%%%%%%%%% +X#+O %%%% O+#X+ %%%%%%%%%%%%%%%%%%%%%",
"%%%%%%%%%%%%%%%%%%%%%%     %%%%%%     %%%%%%%%%%%%%%%%%%%%%%",
"%%%%%%%%%%%%%%%%%%%%%%%%%%%%%%%%%%%%%%%%%%%%%%%%%%%%%%%%%%%%",
"%%%%%%%%%%%%%%%%%%%%%%%%%%%%%%%%%%%%%%%%%%%%%%%%%%%%%%%%%%%%",
"%%%%%%%%%%%%%%%%%%%%%%%%%%%%%%%%%%%%%%%%%%%%%%%%%%%%%%%%%%%%",
"%%%%%%%%%%%%%%%%%%%%%%%%%%%%%%%%%%%%%%%%%%%%%%%%%%%%%%%%%%%%",
"%%%%%%%%%%%%%%%%%%%%%%%%%%%%%%%%%%%%%%%%%%%%%%%%%%%%%%%%%%%%",
"%%%%%%%%%%%%%%%%%%%%%%%%%%%%%%%%%%%%%%%%%%%%%%%%%%%%%%%%%%%%"
};
