/* XPM */
static char *_ce7664bba844e21cac211d18bd8929755tYInGABDNDhjKe[] = {
/* columns rows colors chars-per-pixel */
"50 50 24 1 ",
"  c None",
". c #150D15",
"X c #150E16",
"o c #181019",
"O c #19101A",
"+ c #1C121D",
"@ c #1D131E",
"# c #2E2533",
"$ c #3D3748",
"% c #4D4A5D",
"& c #726B7E",
"* c #8D8272",
"= c #908575",
"- c #988382",
"; c #9C8786",
": c #A79A87",
"> c #AC9E8B",
", c #B19998",
"< c #A5A58F",
"1 c #A8A992",
"2 c #C4B59F",
"3 c #E2E3C4",
"4 c #E5E6C7",
"5 c white",
/* pixels */
"                                                  ",
"                                                  ",
"                    @@@@@@@@@@                    ",
"                  @@,,222222,,@@                  ",
"                 @,224444444422,@                 ",
"                @,24444444444442,@                ",
"                @,444455555544442@                ",
"               @,2444555555554442,@               ",
"               @,2445555555555442,@               ",
"               @,2445555555555442,@               ",
"               @,2445555555555442,@               ",
"               @,2244555555554422,@               ",
"               @,2,444555555444,2,@               ",
"               @&2,,4554444554,,2&@               ",
"               @%,,%5555445555%,,%@               ",
"                @,$554455554455$,@                ",
"                @%$5@@&4444&@@5$%@                ",
"                 @,4@%%%44%%%@4,@                 ",
"                  @,,&%2@@2%&,,@                  ",
"              @@@@@@&,45%%54,&@@@@@@              ",
"             @54,4&@&,445444,&@&4,45@             ",
"            @,,&&,&#%%%5%5%4%%#&,&&,,@            ",
"            @%55###&@@@@@@@@@@&###55%@            ",
"            @#%,55455,,&&&&,,55455,%#@            ",
"            @4@@@##%%44&54&44%%##@@@3+            ",
"            O>;@@&%4,&%2422%&,4%&@@-:o            ",
"           @1=X @&,%554%54%455%,&@ X*<@           ",
"           @%@@ @%%4%&%2422%&%4%%@ @@%@           ",
"           @2,@ @#,%554%54%455%,#@ @,2@           ",
"           @5,@ @@#,%&%,%%,%&%,#@@ @,5@           ",
"           @5,@  @&,44,%@@%,44,&@  @,5@           ",
"           @5@@ @%#%%&%@,&@%&%%#%@ @@5@           ",
"           @%%%@@2,#,,&@&%@&,,#,2@@%%%@           ",
"          @%4554@4,##@@@,&@@@##,4@4554%@          ",
"          @455%4@@4,$%@@@@@@%$,4@@4%554@          ",
"          @,%5%%@@####,2%%2,####2,%%5%,@          ",
"           @,%4,@@445@#$&&$#@&45@@,4%,@           ",
"            @@@@@@252#@@@@@@#&52&@@@@@            ",
"                 @@&&#@     @@&&#@                ",
"                 @,54&@     @&45,@                ",
"                 @&52#@     @#25&@                ",
"                 @2&@@       @@&2@                ",
"                 @4@4@       @4@4@                ",
"                 @2@42@     @24@2@                ",
"                @#,%,&@@   @@&,%,#@               ",
"               @#4&4%4&@   @&4%4&4#@              ",
"               @,&2&2&&@   @&&2&2&,@              ",
"               @4%5%5%@     @%5%5%4@              ",
"                @@@@@@       @@@@@@               ",
"                                                  "
};
