/* XPM */
static char *skeleton_down1678380646[] = {
/* columns rows colors chars-per-pixel */
"60 60 169 2 ",
"   c #150E16",
".  c #1D131E",
"X  c #2E2533",
"o  c #754203",
"O  c #7C480E",
"+  c #7C4913",
"@  c #3D3748",
"#  c #4D4A5D",
"$  c #726B7E",
"%  c #814B0B",
"&  c #835217",
"*  c #835218",
"=  c #8B521D",
"-  c #8D5A1B",
";  c #97621C",
":  c #8E5D23",
">  c #925E24",
",  c #986226",
"<  c #95622B",
"1  c #9B652B",
"2  c #9D692C",
"3  c #976230",
"4  c #9D6B33",
"5  c #9F7237",
"6  c #9F7039",
"7  c #A2672B",
"8  c #A26A2C",
"9  c #A86E2F",
"0  c #AA752F",
"q  c #A46D31",
"w  c #A96F30",
"e  c #A56E38",
"r  c #A47235",
"t  c #AB7635",
"y  c #AD7836",
"u  c #A6743A",
"i  c #AA763A",
"p  c #A47C3F",
"a  c #AC7A3C",
"s  c #B27532",
"d  c #B57C37",
"f  c #B87936",
"g  c #B37D3D",
"h  c #B97E3D",
"j  c #996E43",
"k  c #9E7243",
"l  c #AA7641",
"z  c #A77A43",
"x  c #AD7B41",
"c  c #AF7F4E",
"v  c #B47E41",
"b  c #B37946",
"n  c #BA7E42",
"m  c #AB813E",
"M  c #B5813E",
"N  c #BB813E",
"B  c #BD8B3D",
"V  c #AD8242",
"C  c #AD8842",
"Z  c #B68143",
"A  c #BA8444",
"S  c #B48B45",
"D  c #BE8946",
"F  c #B58449",
"G  c #BC8649",
"H  c #B58C4A",
"J  c #BE894B",
"K  c #AD8851",
"L  c #B58753",
"P  c #BD8C52",
"I  c #BC8E5A",
"U  c #BE9251",
"Y  c #BC955F",
"T  c #8D8272",
"R  c #908575",
"E  c #B68F70",
"W  c #C28543",
"Q  c #C18845",
"!  c #C1864A",
"~  c #C28B4D",
"^  c #C88C4C",
"/  c #C4914E",
"(  c #CE964B",
")  c #C08450",
"_  c #C38D51",
"`  c #CA8E55",
"'  c #C38E5C",
"]  c #CB8F5D",
"[  c #C59253",
"{  c #CB9455",
"}  c #CB9B57",
"|  c #C4935B",
" . c #CB965A",
".. c #C59A5D",
"X. c #CD9A5B",
"o. c #D19757",
"O. c #D59D54",
"+. c #D1955C",
"@. c #D39C5D",
"#. c #D89E5E",
"$. c #C7A05D",
"%. c #D5A15E",
"&. c #DBA45C",
"*. c #C38E64",
"=. c #C39561",
"-. c #C59B64",
";. c #CB9C63",
":. c #C2906D",
">. c #CC9D69",
",. c #D39E61",
"<. c #DA9F63",
"1. c #D49F6D",
"2. c #CDA364",
"3. c #CEA16A",
"4. c #CDA96F",
"5. c #D4A164",
"6. c #DBA465",
"7. c #D4AA66",
"8. c #DCA965",
"9. c #D3A46C",
"0. c #DBA66B",
"q. c #D5AA6B",
"w. c #DDAA6C",
"e. c #DFB26E",
"r. c #C7A371",
"t. c #D4A572",
"y. c #DAA271",
"u. c #DCAC71",
"i. c #D4A879",
"p. c #DFB175",
"a. c #DDB57E",
"s. c #E1A767",
"d. c #E1AC66",
"f. c #E2A769",
"g. c #E2AB6C",
"h. c #E8B065",
"j. c #E5B06E",
"k. c #EAB56D",
"l. c #E3AD73",
"z. c #E5B174",
"x. c #E9B475",
"c. c #E5B877",
"v. c #EAB977",
"b. c #E5B37A",
"n. c #EBB57A",
"m. c #E5B97D",
"M. c #EBB97B",
"N. c #F3BB7B",
"B. c #9A8584",
"V. c #A79A87",
"C. c #AC9E8B",
"Z. c #B19998",
"A. c #A5A58F",
"S. c #A8A992",
"D. c #C4B59F",
"F. c #E2B687",
"G. c #EDBD82",
"H. c #E9BD87",
"J. c #F2BE82",
"K. c #EDC185",
"L. c #F4C284",
"P. c #F1C088",
"I. c #F7C594",
"U. c #FFCD92",
"Y. c #F5CC9D",
"T. c #FFD59A",
"R. c #FFD5A4",
"E. c #E5E6C7",
"W. c white",
/* pixels */
"r.c *.+. .| =.' P P G P ' | | _  ._ P P P P P _ P P P P P P P P b l.y.1.l.1.1.y.y.t.1.F.H.I.R.| z >.| U $.} [ ..Y =.:.E ",
"Y 6 n n v x b b x Z F n F F G G F c a b a i i b x a a a x x a z 1 X.,.'  .,.6.0.@.@.%.X.{ @.z.X.3 F J Z M F G Z B A L K ",
"-.z G W M a g b g J / ~ G A G ~ ~ ~ ~ ~ A Z Z A A A A Z n A A A 0 O.g.&.<.d.8.%.l.6.8.w.x.6.o.%.z c J Z a v G _ B B ~ H ",
"2.C ` ^ N M A n M D / ~ D n D ~ D Q ~ ~ ~ D Z M n h n n n h A A ; N k.N.k.g.d.h.<.s.#.#.s.o.{ N.u n F A n A _ ] ^ ~ ~ L ",
"..g ^ ^ B M M N N Z A A M d N A ~ Q D D ~ ^ N h h A N N h N A W i > 7 w G |  .,.h.k.&.O.O.O.&.( = G Z g W ! ^ ! _ ! G L ",
"..y W ^ A M A h Z A N N Z h Z A ~ / n d Q ~ Z n h h h g h h h h ;.F b e 3 7 > 4 d @.v.M.@.s.j.8 > _ ~ M D h ! _ J G n c ",
"Y t n W N v Z h n b n n A Z A A ~ ` D v ~ ~ A A A . . . . . . . . . . ) `  ._ ~ 4 3 3 l ' b.' + G | F M M g n _ Z g Z m ",
"-.u n h g g A n n n G ^ ~ ! ! ~ ~ _ G n ! ! v . . Z.Z.D.D.D.D.D.D.Z.Z.. . ~ ~ ~  .P i < : : + u .._ M M M D ! G V Z F C ",
"..a Z Z N M Z Z D d A ` J ~ ~ J W n n D ! ~ . Z.D.D.E.E.E.E.E.E.E.E.D.D.Z.. ~ J A D _ { _ A D ~ A A Z F G ~ ~ A M g A x ",
"..i Z M N A A Z h A A Z / ~ Z ~ n v g v D . Z.D.E.E.E.E.E.E.E.E.E.E.E.E.D.Z.. Z v v Z G J G G G A n A ~ ~ G ~ [ V A F C ",
"..i v Z Q ~ G F d Z d D ~ ~ [ Z P P _ P F . Z.E.E.E.E.W.W.W.W.W.W.E.E.E.E.D.. a A A g g v Z Z g v Z g n G G G g J ! n F ",
"..i N A ^ ^ ~ F ~ g g D J J J i i i i u . Z.D.E.E.E.W.W.W.W.W.W.W.W.E.E.E.D.Z.. g Z Z N Z Z Z M ~ _ J @.g.l.g.@.M D G z ",
";.i v A ^ ~ J Z D g D A J J a ,.K.H.G.m.. Z.D.E.E.W.W.W.W.W.W.W.W.W.W.E.E.D.Z.. g Z Z A ~ D M M G v J 8.l.6.w.z.U M n V ",
"..i v N N D G v g g v [ G x ;.G.b.b.b.M.. Z.D.E.E.W.W.W.W.W.W.W.W.W.W.E.E.D.Z.. Z N M N / Q g g J A  .6.X.{ ,.<.e.D v F ",
"..i v g N A D G Z J A | v F M.q.X.%.5.X.. Z.D.E.E.W.W.W.W.W.W.W.W.W.W.E.E.D.Z.. M M g g ~ Q Z Z ~ Z @.6. .6.6.X.7.f.J F ",
" .z A g N D ~ ~ ! J } a F M.z.| @.@.X.X.. Z.D.D.E.E.W.W.W.W.W.W.W.W.E.E.D.D.Z.. N / D g A A N g _ 9  .n.f.0.6.8.e.8.r H ",
";.Z A ~ ^ D ~ J _ P _ z l.N.@.@.X.} o.@.. Z.D.Z.E.E.E.W.W.W.W.W.W.E.E.E.Z.D.Z.. J P _ Z F G _ v J A g A X.,.6.n.,.8 v U ",
"2.Z A ~ ^ D ~ P P [ r 0.n.,.@.o.@.} @.@.. $ D.Z.Z.E.W.W.E.E.E.E.W.W.E.Z.Z.D.$ . G H _ P _ _ _ G G J v y g v v G r n { C ",
"5.x A Q Q Z J G P x _ J.6.{ @.o.@.,.@.o.. # Z.Z.# W.W.W.W.E.E.W.W.W.W.# Z.Z.# . 5.F _ _ _ G _ ! g A ~ ~ [ ! g y G ! A a ",
"| u Z ~ ~ A G G F F J.w.{ @.@.@.8.8.6.%.%.. Z.@ W.W.E.E.W.W.W.W.E.E.W.W.@ Z.. U.w.x G P G J ) G A Z b D ~ J v A Z n g Z ",
"..i _ _ ~ A n A a p.z.} 6.X.%.@.f.f.8.g.8.. # @ W.. . $ E.E.E.E.$ . . W.@ # . G.[ a J G J _ ) G ~ A v A J G Z A a Z Q S ",
"t.F _ D Z n Z F @.z.} X.o.%.8.s.6.6.6.6.6.6.. Z.E.. # # # E.E.# # # . E.Z.. x F u S _ x J [ _ ! G _ [ [ [ ~ A v J n G G ",
"9.l n g n J F Z L.5.X.%.[ s.8.f.%.@.@.@.X.X.@.. Z.Z.$ # D.. . D.# $ Z.Z.. J a 1 x G G x G G _ _ _ ~ A v g v Z Z g n G P ",
">.l F v ! ! i > v.w.8.X.6.8.g.o.X.@.8.. . . . . . $ Z.E.W.# # W.E.Z.$ . . . . . . v F Z _ P _ ! ~ Z v G _ ~ ~ ~ A A G H ",
"9.v v Z g Q _ O y N.6.s.f.#.g.<.w.L.. W.E.Z.E.$ . $ Z.E.E.W.E.E.E.Z.$ . $ E.Z.E.W.. J A J J ~ ~ ~ J _ G ~ G ~ ~ D ^ ~ H ",
">.F G D h Z ! i % 8.L.j.6.x.G.l.[ . Z.Z.$ $ Z.$ X # # # W.# W.# E.# # X $ Z.$ $ Z.Z.. ~ ~ ~ G J _ ~ ~ ~ _ A Z v Q ~ J H ",
"1.F [ D h N F { - - v 9.n.,.e < o . # W.W.X X X $ . . . . . . . . . . $ X X X W.W.# . _ _ G v n ~ J D A G Z A Z M d v H ",
";.a ~ D Z M b _ P - & * > > > u n.. X # Z.W.W.E.W.W.Z.Z.$ $ $ $ Z.Z.W.W.E.W.W.Z.# X . ~ ~ A g v Z ~ ~ G A A G J D Z v V ",
"..t A M N g g Z P .. .x r b l.J.M.. E.. . . X X # # E.E.$ W.E.$ E.E.# # X X . . . E.  A G A Z G J [ Z g y a n G A d Z K ",
"| t M N h M A g g Z v _ P L l.b.@.. C.B.. . $ # E.Z.$ # D.E.D.D.# $ Z.E.# $ . . B.V.  v Z Z v D ~ ~ g ~ ,.,.8.z.} A Z V ",
"..i A M M N A A Z g y ~ v ~ x.,.. S.R   0.. $ Z.# W.W.E.# W.E.# E.W.W.# Z.$ . [   T A.. v Z v Z A ~ Z 6.x.g.6.6.v.5.[ p ",
"..a D N N A M M N h n Q 9 { N.6.. # . . A . # # E.# $ # D.E.D.D.# $ # E.# # . P . . # . A G A A G ~ b { ,.o. . .X.0.b.2.",
"H.Y a [ A D d M M D Z G 9 , g.n.. D.Z.. q . X Z.# W.W.E.# W.E.# E.W.W.# Z.X . i . Z.D.. Z Z ~ ~ ~ { y { g.o.@.@.X.o.{ w.",
"K.2.U A ^ Q N M A / D ~ { 1 r 5.. W.Z.. A . . X Z.# $ # Z.# # Z.# $ # Z.X . . a . Z.W.. Z D ~ D G ~ n A <.6.o.<.0.6.@.2.",
"m.9.5.i A A M M M g Z G  .g > 7 . W.Z.. _ v . $ Z.E.E.Z.# . . # Z.E.E.Z.$ . 0.z . Z.W.. A ~ Z N { A _ G ~ 0.g.5.w.f.0.2.",
"b.2.l.D g g M S Z d ~ D G  . .A . W.. . ! . # X # # $ # . Z.$ . # $ # # X # . a . . W.. A A g g G G [ J a A 0.w.0.s.g.7.",
"c.} j.,.g g Z Z h D g v D ! _ _ . # # # . . D.Z.X Z.Z.$ . $ # . $ Z.Z.X Z.D.. . # # # . Z N M M v [ P Z  .F Z 0.0.6.0.q.",
"c.[ @.f.G Z Z V a Z g ~ { G G . # E.W.W.E.. E.Z.X X . . . Z.$ . . . X X Z.E.. E.W.W.E.# . Z Z A G F J Z z.0.F ~ z.g.6.7.",
"v.} } f.8.Z G V Z Q D _ G Z v . E.W.W.# E.. . E.Z.@ # . . . . . . # @ Z.E.. . E.# W.W.E.. Z Z A F a P F 0.b.;.x ,.z.6.2.",
"e.[ [ @.l.i V V ~ ~ J ~ J _ g . Z.# W.# # . . X X X X Z.D.# # D.Z.X X X X D.Z.# # W.# Z.. M N g x [ P a 9.L.J.F a 0.%.$.",
"b...n.x.7 q J A ~ _ _ J P ' _ n . Z.# E.Z.. . E.E.W.. X @ $ $ @ X . $ E.W.. . Z.E.# Z.. A Z Z N D _ ~ v y v g 7 g [ 0.} ",
"u._ ! n 8 J ~ g _ G ~ ~ G ! J F A . . . . . . D.W.D.X . . . . . . X $ W.D.$ . . . . . M g g Z A ~ ~ ~ _ v q r Z J ~ X.2.",
"F 2 1 i A { G Z J Z D ~ ~ D Z Z Z n v v v v . . $ $ X . ~ ~ ~ [ X.. . $ $ X . J g v A A v d M D G G ~ _ ~ A G _ J Z a 5 ",
"q.P _  .` ~ A G ~ A g A D A N Z g v A A Z v . Z.W.E.$ . Z D D D Z . $ E.W.Z.. F Z A ~ ~ J Z v Z v D G G ~ ~ A g g ~ [ J ",
";.F ~ ! A _ ~ D A Z N Z A Z N M v A G G G G . $ W.D.X . v Z Z g g . X D.W.$ . v Z Z G P ~ J A A v g Z _ _ v g A F ^ _ H ",
";.F J _ ! D g g g D D n M M Z D v v Z D ~ ~ . D.$ . . G Z Z N Z Z n . . $ D.. A Z v v G ~ ~ G ~ A v D _ ~ Z Z { / ~ ~ H ",
"9.i n P ` Z v J J ~ G v F G ~ _ A v g v F ~ . E.. E.. D A N Z D F G . E.. E.. ! G A n G G _ _ _ G ~ G D G G G A J ! _ H ",
"3.i v n ! ~ [ J n F F ) ,. .G b ~ G A A ~ ~ . D.. E.D.. Z g Z J ~ . D.E.. D.. ~ ~ G _ _ _ J _ J ~ J ~ [ ~ J ~ _ J D _ H ",
"3.F f f Z >.r _ ;.[ 5.b.p.z.w.;.F A [ U J . X Z.# Z.$ . . ~ A J . . $ Z.# Z.X . ~ ~ ^ D v A D G G ~ J F G ~ _ ~ g A ! H ",
"3.Z W Q J x Z g.z.z.z.5. .,.l.z.b.J a [ . X E.$ E.# E.$ . D G ~ . $ E.# E.$ E.X . D D Z M Z D ~ _ ~ J Z A ~ ~ A n A ~ H ",
"-.Z W f _ 6 | g.{ o.o.{ X.@.o.{ z.[ r J . Z.$ D.$ D.$ $ . Z G _ . $ $ D.$ D.$ Z.. Z Z N g g A J ~ ~ A n A J G Z F A ~ J ",
"r.Z W s _ 4 P 8.#.o.o.#.8.6.<.6.z.9.y / . E.# W.# W.# . A n Z G ~ . # W.# W.# E.. g M Z N g Z D G D A A G G D v Z n G S ",
"-.t N W _ 4 u M.{ #.s.g.s.&.s.g.w.Z r [ Z . . . . . . _ G Z Z Z ~ _ . . . . . . A M N A Z Z A ~ Z n Z G ~ ~ A v n v v m ",
"| t f W P F 1 X.z.v.z.#.{ 5.8.@.a r r J A ~ ~ D v A ~ ~ G A A Z b X._ G [ ~ v g A Z Z Z Z Z Q ~ Z Z Z ~ _ ~ Z v A g v x ",
">.x N f A L 2 2 i G  .0.l.6.F 1 a U J Z G ~ ~ Q Z Z G ~ J D G v G _ b t v A D G ~ D A Z N Z D G Z Z v J ~ G G J J A A V ",
"=.i h d F F G A r 4 4 i F r q P | G Z D G A ~ D v v J _ ~ G Z g | i q v v g [  .~ ~ D g g d Z h D g v A ~ J ~ { _ ! G S ",
"..i A h h Q A A ` ` ^ 9 7 A { ~ ~ ~ ~ _ ~ ~ ~ ~ A n Q ~ ~ J D J n q G.T.L.I k j u G { N N N f n n n v _ G F f.n.g.~ i ` ",
";.i v g D ~ ~ P ~ G n G F ~ _ G D D A A A D ^ ~ A G F G J _ [ [ 4 [ v./ 7.L.u.q...x r Z / ~ n ! Z A Z ~ ~ Z [ o.w.0.i _ ",
"Y 6 a g v G F F b i i l x x F G a a y t t a a v i i i i b Z F v 5 p.[ / X.} q.z.P.a.;.z 6 c H J i a a a F v a v P F < F ",
"t.L ;. . .;. .-.' | { ' P ..;.;. .| | | | ' | | | | | | -.-.=.P I F.t.p.0.9.0.9.4.a.Y.Y.i.=.I | -.| ' =.;.1.>.;.I F ..;."
};
