/* XPM */
static char *skeleton_up11678271278[] = {
/* columns rows colors chars-per-pixel */
"60 59 158 2 ",
"   c #1D131E",
".  c #2E2533",
"X  c #754203",
"o  c #7C480E",
"O  c #7B4614",
"+  c #7C4B11",
"@  c #3D3748",
"#  c #4D4A5D",
"$  c #726B7E",
"%  c #814B0B",
"&  c #835218",
"*  c #8B521D",
"=  c #8D5A1B",
"-  c #97621C",
";  c #8E5D23",
":  c #925E24",
">  c #946125",
",  c #986226",
"<  c #95622B",
"1  c #9A652B",
"2  c #9D692C",
"3  c #976230",
"4  c #9D6B33",
"5  c #9F7237",
"6  c #9F7039",
"7  c #A2672B",
"8  c #A26A2C",
"9  c #A86E2F",
"0  c #AA752F",
"q  c #A46D31",
"w  c #A96F30",
"e  c #A56E38",
"r  c #A47235",
"t  c #AB7635",
"y  c #AD7836",
"u  c #A6743A",
"i  c #AA763A",
"p  c #A47C3F",
"a  c #AD7A3C",
"s  c #B27532",
"d  c #B57C37",
"f  c #B87936",
"g  c #B37D3D",
"h  c #B97E3D",
"j  c #996E43",
"k  c #9E7243",
"l  c #AA7641",
"z  c #A77A43",
"x  c #AD7B41",
"c  c #AF7F4E",
"v  c #B27642",
"b  c #B47E42",
"n  c #BA7E42",
"m  c #B37B4A",
"M  c #AB813E",
"N  c #B5813E",
"B  c #BB813E",
"V  c #BD8B3D",
"C  c #AD8242",
"Z  c #AD8842",
"A  c #B68143",
"S  c #BA8344",
"D  c #B48B45",
"F  c #BE8946",
"G  c #B58449",
"H  c #BC8649",
"J  c #B58C4A",
"K  c #BE894B",
"L  c #AD8851",
"P  c #BE8C52",
"I  c #BC8E5A",
"U  c #BE9251",
"Y  c #BC955F",
"T  c #B68F70",
"R  c #C28544",
"E  c #C18845",
"W  c #C1864A",
"Q  c #C28B4D",
"!  c #C88C4C",
"~  c #C4914E",
"^  c #CE964B",
"/  c #C08450",
"(  c #C38D51",
")  c #CA8E55",
"_  c #C48D5C",
"`  c #CB8F5D",
"'  c #C59253",
"]  c #CB9455",
"[  c #CB9B57",
"{  c #C5955B",
"}  c #CB965A",
"|  c #C59A5D",
" . c #CD9A5B",
".. c #D19757",
"X. c #D59D54",
"o. c #D1955C",
"O. c #D29C5C",
"+. c #D89E5E",
"@. c #C7A05D",
"#. c #D5A15E",
"$. c #DBA45C",
"%. c #C38E64",
"&. c #C19661",
"*. c #C59C64",
"=. c #CB9C63",
"-. c #C2906D",
";. c #CC9F69",
":. c #D39E61",
">. c #DA9F63",
",. c #D49E6D",
"<. c #CDA364",
"1. c #CEA16A",
"2. c #D4A164",
"3. c #DBA465",
"4. c #D4AA66",
"5. c #DCA965",
"6. c #D3A46B",
"7. c #DBA66A",
"8. c #D5AA6B",
"9. c #DDAA6B",
"0. c #DFB26E",
"q. c #C7A371",
"w. c #D5A471",
"e. c #DAA271",
"r. c #DCAC71",
"t. c #DEB074",
"y. c #DEB37C",
"u. c #E1A767",
"i. c #E1AC66",
"p. c #E2A769",
"a. c #E2AB6C",
"s. c #E8B065",
"d. c #E5B06E",
"f. c #EAB56D",
"g. c #E3AD73",
"h. c #E5B174",
"j. c #E9B475",
"k. c #E5B877",
"l. c #EAB977",
"z. c #E5B37A",
"x. c #EBB57A",
"c. c #E5B97D",
"v. c #EBB97C",
"b. c #F3BB7B",
"n. c #B19998",
"m. c #C4B59F",
"M. c #E4BD82",
"N. c #ECBD82",
"B. c #EEBC8B",
"V. c #F2BE82",
"C. c #EDC185",
"Z. c #EFC58B",
"A. c #F4C284",
"S. c #F7C594",
"D. c #FFD59A",
"F. c #FFD5A4",
"G. c #E5E6C7",
"H. c white",
/* pixels */
"q.c %.o.} { %._ K P H P _ { { { } _ P P P P P P P I P P ( ( P P m g.e.,.e.e.,.e.w.w.6.M.B.S.F.{ z =.Y U @.[ { { | &.-.T ",
"Y 6 n n b x v v x G G G m S G K G b v a a u i b x x z a z x z i 1  .:.) } :.3.3.O. .:.o.] O.h. .3 G H G N A H G D S K L ",
"*.z H R g a b n h H ~ Q H S K Q Q Q Q K S S A S n S n S n S S S 0 X.i.$.3.5.5.#.a.3.7.p.h.3...#.z m K S g b H Q V V Q J ",
"<.Z ) ! S N S S N K ~ Q S S F E F Q Q Q Q S N N h S S h h h S S - S f.b.f.i.i.f.3.u.>.O.p...] b.u b H S h R Q ` Q W ( P ",
"| g ! ! V M B B h S S B N g B S E Q F S ~ ! B h h B S h h B S R i , 1 r H o.} O.s.f.$.X.X.X.$.^ * G S g S W ! W / H / L ",
"| t R ! S N S h A h N B N h S S ~ Q N h E Q S h h h h n h h h h } G m q 1 3 : 4 y +.l.v.O.i.d.8 : ) K h S S W ( K S H C ",
"Y t S R N N B n b n b n S S n S ! ) S b Q Q S S S S n S S S S b m v H W ` } ' P 4 3 3 z _ z.%.O K { D N S h n ( G g A M ",
"*.u h n g g n n H n W ( W W W Q H ( W n Q W n v b                     Q Q Q Q Q =./ i > : = + u =.K N N N S Q S C A S Z ",
"| a A N B B A A F f S Q K Q Q F S S h S W Q E     n.m.m.m.m.m.m.m.m.n.    K K K S S ( ] Q S S Q S b S S K Q Q S A g S x ",
"| i A h B S S G h S F S ~ Q G Q n b h G S Q   n.m.G.G.G.G.G.G.G.G.G.G.m.n.  S h A b A H K K K K n G G Q Q S Q ' M S S Z ",
"| u b S E Q H G g S d S Q Q ' A K P P P K   n.m.G.G.G.H.H.H.H.H.H.G.G.G.m.n.  g G S b g b S A g v S g b H H H g J Q m G ",
"| i A S ! Q Q S F g h S K K K i l i u u e   m.G.G.G.H.H.H.H.H.H.H.H.G.G.G.m.  A g S A h N S A N Q Q Q O.a.g.a.:.N K H a ",
"| a A S E Q K G F g S S ( K a :.C.C.v.M.  n.m.G.G.H.H.H.H.H.H.H.H.H.H.G.G.m.n.  g A N S K S N A H N K a.a.3.a.h.' d A C ",
"| i b h F F H b g a b ' H x =.N.z.z.z.v.  n.m.G.G.H.H.H.H.H.H.H.H.H.H.G.G.m.n.  N B g S ~ F d g K S } 3.} ] O.:.0.S v J ",
"| u n h B F S H S K S ' C G v.7. .O.:. .  n.m.G.G.H.H.H.H.H.H.H.H.H.H.G.G.m.n.  g N g g E ~ S A K S O.3. .3.7...4.9.K A ",
"=.a b b B S Q Q Q K [ a G v.h.{ O.O. .O.  n.m.G.G.H.H.H.H.H.H.H.H.H.H.G.G.m.n.  B ~ F N S S N N ( q  .x.5.7.3.7.d.5.r P ",
"=.A S E ! S Q K P P ( i g.b.O.O.O.[ [ O.  n.m.G.G.H.H.H.H.H.H.H.H.H.H.G.G.m.n.  K P ( G H H / S K S g S ..2.3.x.O.8 g U ",
"<.G S Q ! Q Q K K { u 7.x.:.O... .O.O.O.  n.m.G.G.G.H.H.H.H.H.H.H.H.G.G.G.m.n.  H J ) K ' / ( S H K b a b b h S r n ] A ",
"2.x S F E S H H P x ' V.3.] O...O.2.O...  $ m.m.G.G.G.H.H.G.G.H.H.G.G.G.m.m.$   2.G P ( ( K / H g S K ( ' K a a H W G p ",
"{ u G ! E S H P S G V.9.] O.O.O.3.5.3.O.  $ n.m.m.G.G.G.G.G.G.G.G.G.G.m.m.n.$   9.x K K H K Q H S b h S ( H b S A S h A ",
"&.a Q ' Q S b G a h.h.[ 3. .3.O.a.a.5.a.  $ $ n.m.m.G.G.G.G.G.G.G.G.m.m.n.$ $   ' a K G K ( ( H Q S b S Q H A S a S S S ",
"w.G ( S S n b S =.h.[  ...#.3.5.3.3.3.3.3.  # $ n.m.m.m.G.m.m.G.m.m.m.n.$ #   G u G ( g K ) ( Q K Q ' ' ( Q S b K n H J ",
"6.l G g n H S G A.2. .#.~ i.3.a.O.O.O.#. .  # $ $ n.n.m.m.m.m.m.m.n.n.$ $ #   < C K K x K P W ( Q Q H b g g A G g n Q J ",
";.l S h E Q u < h.9.5. .3.3.a.o...#.3.5.2...  # # $ $ $ $ $ $ $ $ $ $ # #   { ' K C x H ( K / / Q G h H Q Q Q Q H S W J ",
",.b b b g R Q o t b.$.u.p.+.a.>.9.A.{             # # # # # # # # # #             H Q S H K K Q Q H ' H Q K Q Q E ~ Q J ",
"1.G W F g S ( u % 7.A.d.3.j.V.g.' ,   m.G.m.m.n.$       # G.$ #       $ n.m.m.G.m.  K Q Q Q K K ] K Q Q ( S A g F E Q J ",
";.G ' Q h A S ] = = b 2.x.:.u : X   m.    $ n.n.$ $ # # n.G.$ n.# # $ $ n.n.$     m.  ( ( K b A K H H H H b A A N N A G ",
"=.x Q S S h b ( P ; & & : : : u x.  m.G.G.    # # # $ $ $ n.# $ $ $ # # #     G.G.m.  Q Q S h b S Q Q S S S H Q S A A C ",
"| t S B B N g A P | { x e c r.V.  G.# # H.m.$ $ m.G.  # $ G.m.$ #   G.m.$ $ m.H.# # G.  H S S H K ( S g a g b S S h G D ",
"{ t A N d h S x a A b ' P H g.z.  H.G.G.$ m.G.H.H.H.# m.G.n.# G.m.# H.H.H.G.m.$ G.G.H.  A A b S Q Q g ( O.:.7.j.[ S A z ",
"| i B N N B S A A h a Q A Q h.>.  # H.m.$ m.m.m.G.G.# # $ H.m.$ # # G.G.m.m.m.$ m.H.#   b A b A S Q G :.h.a.3.3.l.2.' z ",
"| a F B B S N A B h B E 9 ) b.3.O.. m.. # $ n.n.m.G.# m.G.n.# G.m.# G.m.n.n.$ # . m.. b S H S S S ( h ] :.O.] } | 3.z.<.",
"C.Y p ' F B d N N F S K 9 , a.v.  m.H.m..   # n.m.n.# # $ H.m.$ # # n.m.n.#   . m.H.m.  b S Q Q Q ] t ] a...O.+. ...} 9.",
"C.<.P S Q Q B B S ' S Q ] 1 r 2.  $ G.$       # $ $ . m.G.n.# G.m.. $ $ #       $ G.$   S S K F S Q S S >.3.} >.3.3.O.<.",
"c.6.2.t S B N N N g N S ] h : 7   H.$ G.  b h     n.$ # $ H.n.$ # $ n.    3.2.  G.$ H.  F K S N ] S Q H Q 3.a.:.a.p.7.<.",
"k.<.h.H g N N S B g K K K } ] S   n.$ m.  g   n.$ . n.m.G.m.# G.m.n.. $ n.  g.  m.$ n.  S S h g H F { K g G 7.a.7.3.a.4.",
"k.[ a.:.g g N D S S h b H K ( (   @ $ @     $ H.m.$   # $ G.n.$ #   $ m.H.$     @ $ @   A N h A x ' / S } G G 7.5.>.9.8.",
"k.' O.p.K A A p y S a Q ] H H   n.H.m.$     # m.H.H.. . n.m.# n.. . H.H.m.#     $ m.H.n.  A A S H S K G h.7.b P h.g.3.4.",
"l.[ [ a.3.A H G A F S ' S S b   m.G.$ $ @     m.m.H.H.# $ G.n.$ # H.H.m.m.    @ $ $ G.m.  N S S G z P G 7.x.=.a :.h.3.<.",
"9.] ' O.h.u C C Q Q Q K Q ( x   $ m.@ m.    n.    m.n.n.G.H.G.G.n.n.m.    n.    m.@ m.$   h N g x ' P a 6.A.A.A a 5.:.@.",
"x.| x.x.8 q K S Q / / P K ' ) b   $ G.m.    m.n.m.# $ n.$ m.m.$ n.$ # m.n.m.    m.G.$   S A A A H ' Q g a h g 7 a ] 5.| ",
"r.P W n 8 K Q g ( K K ( K / K G S       S   $ G.n.@ $ #   # #   # $ @ n.G.$           N h g h F Q K Q ' b q r G Q Q  .<.",
"G 4 1 t n ] H A Q S S ~ Q S S A G b b b A   $ G.H.$ @             @ $ H.G.$   K g N S S N g g S H H Q ( K S K ( K n g r ",
"8.K ( } ) Q S Q ~ N d S F B S A h b S S A b   H.m.G.@   S S S S   @ G.m.H.  ( S A G K Q H A A S h S Q H K Q S g a Q ( J ",
"*.H / K R ( Q K S S S A S S N N b S H K K K   m.$ n.@   b A A h   @ n.$ m.  b A A S H Q Q K S S A a A ( Q b g S S ( ( J ",
"=.G K ( Q H g t N S S A N A S F b A A S K Q   @ G.$     S N B A     $ G.@   H S S b A H Q Q K K S h S ' Q A H ] ' Q Q D ",
"6.l b Q ( n h K K Q S b m K K ( S b h G S       H.n.m.  S A S S   m.n.H.      H S G G H K ( ( / K K K H H H S S K W ( J ",
"<.i b S H Q ' K G S H / :.} H b Q S A S   n.#   G.# n.  N g S Q   n.# G.  # n.  W H K ( ( ( K Q Q K Q Q ' K K ' K W ( J ",
"1.b f f S ;.e ~ =.' :.z.h.r.9.=.S H ~ U   G.n.# n.. n.  K Q S K   n.. n.# n.G.  Q Q Q S S S F Q F Q K S H Q ( Q h n Q J ",
"1.G R R H x G a.g.l.h.2.=.2.g.g.v.G a {   n.G.. $ m.$   A H H (   $ m.$ . G.n.  S S F S N N S Q Q Q K S S K Q H b S Q J ",
"*.G R f ( 6 ' a.] ....] } O...] h.' r K   @ m.$ G.G.$   A S S Q   $ G.G.$ m.@   A N A N N g S K ( K H A S K S G A S Q H ",
";.G R s ( 4 P 3.O.....+.u.3.+.3.k.:.a ( S   n.@ G.n.$   S G S S   $ n.G.@ n.  g A h N N b h A F S H S S K K S h G S H D ",
"=.t h R ' 4 u b.] O.u.a.u.3.u.a.r.A r ] A S           ( H A A G Q           S h S N B S S A S Q b b A K Q Q S g A h b C ",
"&.t f R P C 1  .j.l.j.+.] 2.5.O.a r t J S Q ! S b S Q Q S S S A S  .( H ' K A g S S A S B S F Q S b S Q ( K S b G n b a ",
"*.v B f G P 4 1 i H  .7.h.2.A 1 i U H A H ~ K E h A H Q Q S S b H _ x i A S S H K K S N g A S F S b A H Q H H K K n S Z ",
"&.a h h x G S F r 4 2 i G r 5 P ' K S S H S Q F b b Q ( Q K S g } e q A v g '  .Q Q F g a h A n S g g H K K Q ] ' W H G ",
"| i S h B E S H ! ..W w 8 S ] Q K Q Q ( Q ( Q Q S S E Q Q K S Q b q v.D.A.P k j u S ] F B B f n S b b ) H S 7.x.a.K a ( ",
"=.u b h S Q Q P W H H H H W / K K F F S S F ! Q S H S H K P ' ' 2 { l.~ 4.A.t.8.=.a e g ~ Q n H A S A Q ~ S '  .9.7.i ( ",
"Y 4 x a b H H G m t e x x x G S a y t t t y g N a u u x b G G m 5 t.{ ~ [ [ 4.h.Z.y.*.z 6 c K H a a i a S A a a U A < G "
};
