/* XPM */
static char *ground11678200483[] = {
/* columns rows colors chars-per-pixel */
"60 60 169 2 ",
"   c #754203",
".  c #7A4404",
"X  c #7C490F",
"o  c #7A4513",
"O  c #7C4B11",
"+  c #814B0B",
"@  c #814E15",
"#  c #835217",
"$  c #855319",
"%  c #8B521D",
"&  c #8D591D",
"*  c #97621C",
"=  c #885321",
"-  c #8E5D22",
";  c #8C572D",
":  c #915E23",
">  c #935D2C",
",  c #946126",
"<  c #986226",
"1  c #94622B",
"2  c #9A652B",
"3  c #9D6A2D",
"4  c #976230",
"5  c #9E6C33",
"6  c #996438",
"7  c #9F7139",
"8  c #A2672B",
"9  c #A26B2C",
"0  c #A86E2F",
"q  c #AA752F",
"w  c #A36D32",
"e  c #A96F30",
"r  c #A56E38",
"t  c #A47235",
"y  c #AB7535",
"u  c #AE7935",
"i  c #A6743A",
"p  c #AA763B",
"a  c #A47C3F",
"s  c #AC7A3C",
"d  c #B27532",
"f  c #B37B35",
"g  c #B87936",
"h  c #B37D3D",
"j  c #B97E3D",
"k  c #996E43",
"l  c #9E7243",
"z  c #A56F40",
"x  c #AA7641",
"c  c #A77A43",
"v  c #AD7C41",
"b  c #AE7C4D",
"n  c #B27642",
"m  c #B47E41",
"M  c #BA7E42",
"N  c #B37B4A",
"B  c #BA7E48",
"V  c #AB813E",
"C  c #B5813E",
"Z  c #BA823E",
"A  c #BD8B3D",
"S  c #AD8242",
"D  c #AD8842",
"F  c #B68143",
"G  c #BA8344",
"H  c #B48B45",
"J  c #BE8946",
"K  c #B58449",
"L  c #BC8649",
"P  c #B58C4A",
"I  c #BE894B",
"U  c #AD8851",
"Y  c #B58753",
"T  c #BE8C52",
"R  c #BC8E5A",
"E  c #BE9251",
"W  c #BC955F",
"Q  c #B68B60",
"!  c #B68F70",
"~  c #C28544",
"^  c #C08A40",
"/  c #C1864A",
"(  c #C28B4D",
")  c #C88C4C",
"_  c #C4914E",
"`  c #CE964B",
"'  c #C08450",
"]  c #C38D51",
"[  c #CA8E55",
"{  c #C38E5C",
"}  c #CB8F5D",
"|  c #C59253",
" . c #CA9455",
".. c #CC9B56",
"X. c #C5945B",
"o. c #CB965A",
"O. c #C59A5D",
"+. c #CD995B",
"@. c #D19757",
"#. c #D49C54",
"$. c #D1955C",
"%. c #D39C5C",
"&. c #D89E5E",
"*. c #C7A05D",
"=. c #D5A15E",
"-. c #DBA35D",
";. c #D6A85B",
":. c #D9A95F",
">. c #C38E64",
",. c #C39561",
"<. c #C59B64",
"1. c #CC9C63",
"2. c #C2906D",
"3. c #CC9D69",
"4. c #D29E62",
"5. c #DA9F63",
"6. c #D49F6D",
"7. c #CDA364",
"8. c #CEA16A",
"9. c #CDA96F",
"0. c #D4A163",
"q. c #DBA465",
"w. c #D4AA66",
"e. c #DCA965",
"r. c #D5A46B",
"t. c #DBA66A",
"y. c #D5AA6B",
"u. c #DDAA6C",
"i. c #DFB26E",
"p. c #C7A371",
"a. c #D4A572",
"s. c #DAA271",
"d. c #DDAD71",
"f. c #D4A879",
"g. c #DFB175",
"h. c #DDB57E",
"j. c #E1A767",
"k. c #E2AB66",
"l. c #E2A769",
"z. c #E2AB6C",
"x. c #E8B065",
"c. c #E5B06E",
"v. c #EAB56D",
"b. c #E3AE73",
"n. c #E4B174",
"m. c #E9B474",
"M. c #E5B877",
"N. c #EBB976",
"B. c #E5B47A",
"V. c #EAB67A",
"C. c #E5B97D",
"Z. c #EBB97C",
"A. c #F3BC7C",
"S. c #E2B687",
"D. c #E4BD82",
"F. c #EDBD82",
"G. c #EEBC8B",
"H. c #F2BE82",
"J. c #EDC185",
"K. c #EFC58B",
"L. c #F4C284",
"P. c #F5C38B",
"I. c #F7C395",
"U. c #F8C495",
"Y. c #FDCC92",
"T. c #F5CC9D",
"R. c #FFD295",
"E. c #FFD59A",
"W. c #FFD5A4",
/* pixels */
"p.b } $.o.X.,.{ T T I T ] X.X.{ O.T T T T T T T T T T T T ] T Y B d.s.6.b.6.r.s.a.a.6.S.G.U.W.X.c 1.W E *...X.X.W ,.2.! ",
"W i B G n v n n v F B K K K L G G B n v p p s n v v x s v v v s 2 +.4.] >.4.q.q.%.+.5.%. .%.n...4 K I F C F L F A G Y U ",
"W s L G C s m B m L _ ( G G L ( ( ( ] I G G F G G G G G G G G G q #.k.-.-.j.q.-.z.q.t.t.b.q.%.q.x v T F h M I T A A ( P ",
"9.D [ ) H C G M C J _ ( L G J ( J ( ( ( ( J C C j M M j j j M J * G v.A.m.x.k.v.q.j.&.%.j.@. .A.i B I G j G ] } ( ( ] Y ",
"O.h ) ) Z C C j h Z G Z C h Z G ^ ( J J ) ( Z j j Z G j j j G ~ s < 2 e G o.o.4.x.v.-.#.#.#.-.` % G G f G / ) / ] B ' Y ",
"O.y ~ ) A C G j G j Z G Z Z C G ( ( M f ^ ( G M j j j m h j j j >.K m r 4 4 1 8 u &.N.Z.#.k.z.9 > { ( h J j / ] T G G F ",
"W i ~ ~ C h G M M m M G G M B G ) ] J m ( ] G G G G F G G F G M n m G T [ +.] T 5 4 4 x X.B.{ o I X.H C G h M ] F m C V ",
"O.i M j h h M M B G / ' ( L / ] L [ / B / / m n F B F B K F m m G G / ( ( ) ( ( O.] p > : - O i <.I C C C J / G S F G D ",
"O.s F G Z Z F F J h G ) ( ( _ J G G G G / ) ~ G G G G C G C G j ] I ( ] ( ( ( L G L ) o.] G L ) G G G G L ] ( G S h G c ",
"O.p F h Z G G F h ~ G G ( ( F I M m h B G ( ] | J _ G C C G M / ( I I L G G G m m m F G L L L L G M F ( ( L ( ] C G B H ",
"O.i h G ~ ( L K f G f G _ I | F I ] T T L K I E  .C s G h G h G ( I ( L F m m h F F m h F F F h m G h m L J L h P ( m F ",
"O.p G G ( ) ( G ( h m J I I L s p i i i i 5 5 7 E | I J h h G G ( ( ( ( L G L G C G C C G F F C ( ] I %.z.b.z.%.F J I c ",
"O.s F G ~ ) J K J h G G E I p 4.K.F.D.Z.C.u.X.K : ] O.L ) C I C G L ( ( J T ] J h G C G J J C C L m I u.b.q.t.n.| s F S ",
"O.p m Z G J L m s h h | L s 1.H.B.B.B.C.J.P.R.R.p $ X.| I G h C h F L L L J ( L F C h G _ J h h L G  .q.o. .%.&.i.J n P ",
"O.p M h Z G J K G L G X.F K Z.y.+.+.4.+...o.q.b.U.1 i X.H J u G m G L J m L ( G h C h h ( ( Z G ( F &.q.o.q.q.%.w.k.I K ",
"O.s B h Z J ( ] J ] o.s K C.n.X.%.%.%.%.o.%.+.%.P.y.@ L o.G A V L ( ] L F L I J Z _ J C G G C m ] w o.V.k.t.t.t.c.e.w T ",
"1.F G ( ( L ) L ] I T s b.A.@.%.%...o.&.q.q.%. ...R.b ; 1.( J J / G m m L T ] | Y T | F G L ' B L L h G %.0.q.V.%.0 h E ",
"7.m G ( ) J ( T Y X.t t.V.4.4.@...%.o.&.q.q.q.&.;.y.I.6 6  .J ( J G m F ] I K s L L | I ] ] ] G L J m p h m h L t M | F ",
"0.v G J ^ J L I | s ] H.5. .%...&.=.%.%.%.q.u.e.:.0.U.> 2 o.L J ( ( I I L K T r.4.K T | ] I ' L h G I ] ] ( h p G L G a ",
"X.i G ( / G L I K F H.u.o.%.%.%.q.e.q.%.=.q.q.q.:.Z.i = | J J I M G G ] T F +.Y.u.v L T L L ] L G F h L ) L m G F B h D ",
",.s ( | ( G m K s d.m.o.-.o.q.&.u.u.k.u.k.k.q.%.m.4.o x o.u C G h m M J T m X.F.| a I L I ] ( I ( G m G ( L m G s M J G ",
"a.K ] J G M m G 0.n.o...%.=.q.k.q.q.q.q.q.0.-.0.m.& > 4.Z Z h B G G G G L m v K i G ] v T ] ] ' L ] | | | I G m I G L P ",
"a.v B s M ( K F L.=.+.0. .e.q.t.&.%.%.%.%.@.=.u.F + ' %.f ^ G m h m h h L L p 2 F L I s I I ' ] ] ( G m h m F F h M ( I ",
"3.x G h L / p , m.u.w.=.q.e.l.%...%.q.u.0.o.&.z.. p 4.m A f G B m G G m F Y X.] T v S L ] I ] / ( G m L ( ( ( ( L G L P ",
"4.N m m h J ] X f A.q.j.l.&.z.5.u.L.X.F 1.C.y.X 9  .I s F G G F j G j Z j G j g h L J L I J ( ( I L ] L ( J ( I J ) ( I ",
"8.K ( G j G ( r + e.A.m.q.m.A.b. .< $ - , - - - ] ] h m G m m F G G M G G ~ j G m L ( ( ( ( L ( | ( ] I | G m m I / ( P ",
"3.K  .J j F L  .& & v r.V.4.i ,   5 u.V.u.K 2 <. .G B ( J m G G G h h h j G y G L ( ( ] ] L m m ( L L G L B G F C f m P ",
"1.s ( J G C n ] T & # # : - > i N.H.V.B.L.Z.X.K G G ( | G G L m n J L J L L G m ( I L ( ] G m F F ) ( L G G J I J G m S ",
"O.t G Z Z C h C T O.o.v i v d.G.N.k.z.0.+.B.y.w | ( I G m F G m G I F H F a I H I L F G L G F L J ] G h p s G G F h G P ",
"O.i F Z h j G h h h m ] T I b.B.=.=.t.%.q.d.J v o.L B m m B m G E K T n.c.F G | ( L F m F F m G ( ( h ] %.0.t.b...G F c ",
"O.y Z C C Z G F G h y ( B ( b.5.&... .%.u.L 5 | J h F F F F F ] I H 7.g.n.I i  .( ( G m F F h B G ] F 0.m.z.q.q.Z.q.| a ",
"+.s J Z Z G C F j j G J 0  .A.5.%.&.q.m.F 3  .F m h G m h J ( ( s  .Z.O.0.y.s T m L G m G L F G G ] h | 5.o. .%.o.q.B.7.",
"J.W a | G ~ f C C J F L w < z.V.0.n.m.h w ] / B G G L L m m L ] G | e. .5.n.( s L h h G G G ( ( )  .y  .z.@.%.&.+.o. .u.",
"J.7.T G _ ~ Z Z G  .L (  .3 e 0...F h s G  .G M G L ( ( L G G G a o.q.#.@.q.X.p J G h G G J J J G ( G G 5.r.o.5.q.q.%.7.",
"C.0.0.y G G C C h h Z I o.h : 9 3 3 w J ] m h j L ) ( L ] L B h a 0.-.-.5.q.r.v L G F C L J G h  .G ] L ( q.b.5.z.l.t.7.",
"C.7.n.L h C C H C h J J L o.o.G | o.| | / h G B G ( F m J ( F h F b.q.k.q.t.b.p G J F h G J h h L L | I h m q.z.t.q.z.w.",
"M.O.u.4.h h S F M J h F G / ] ] K I L F G G G h L I m m J ( L h L c.q.k.j.q.u.w G J J h F G h C m | T F <.F F t.u.5.y.y.",
"N._ &.u.L F F S s G s ( o.L L ( L G F h B M B M J I F J ( I L y E u.q.j.l.k.r.5 J ( J G G h m J L K L K n.u.m ] n.b.q.w.",
"N.....z.t.m K F C J G | L F B F | J m J L J B m I L G ( I G G t E b.=.-.k.t.4.i L G G G F Z G G F v ] G r.C.3.s %.m.0.7.",
"u. .| %.m.y S S J ) ( J ( ] s m F ] ( ] ( / ] ) L F B I G m L t L y...@.q.5.1.i G h h G C h h h v { T s r.H.L.F s u.=.*.",
"C.X.V.m.9 w I G ] T ] T I { ] B m F G J ] ] ( I I L L L F h G J - X.b.+.O.n.4.5 G G F G G G C Z L ] ( m s h s 8 s  .u.*.",
"d.T / B 8 J ] h ' I I ( I I I G F F G L L I ( ] I I ( ( L J ( _ v > 4.F.H.1.- 5 G h h m h h F G ] I ( ] F w t G I / %.*.",
"K 2 2 y B  .I F ( G G ( ( J B C F F F B m m G F I ] ( ( ( ( ] [ +.p - 3 9 & w I h C G G h h h J L J ( | ( G G ] I M s t ",
"y.T ] o.[ ) F J ) F C G J G C F h m F G G h h h K I L G G J J J F ] I i i G T G F G J ] J G m F m L J G ( ( G h s ) | P ",
"1.K ( / G ] ) L G G C G G G C C m G L J I J G F ' ] / G h F C h h m +.( I o.m m m G L ] ] L G G m h B ] ( m h G G ] ] P ",
"7.K I ] ( G h s C G J F C C G J m F F G I ( ] ] ] ] ] L G G G h F F h ] | G L G G m m G ( ( I I G m G ] ( F L | E ( ( H ",
"r.s B I ) B m I J I G n B I L ] G F h B L I ( ( L L J L G m F J G G G ( ] ) ] J L B B G I ] ] ] I ( ( L L L L G I L ] I ",
"7.i m B / ] | J K L B ] 1.+.I n I L F G J ] I L m m B G h h G ( ( ) ) ] ( J / ( I L T ] ] I ] I ( J I ] ] J ( ] I J | P ",
"8.m g g G 3.t ) +.X.0.n.B.d.d.1.G L | I I | J J m F h m ( I L L ] ( G G G J _ ( J ) ( G F G J / J ( ( G G ] ] ( m B ( P ",
"p.F ~ ~ L v F n.b.n.b.0.O.0.b.b.N.K s  .G F  .] ( I F h G L L ( ( ] F h C C G ^ G J L G C F J ( ( ] I F G I J L F G ( L ",
"<.K ~ g T 7 | z. .%.%. .%.%.%. .n.| t ( J F ( ( ] ] L F m F L ( L ] ( L J C F C h G h G C C G L ] I L F G L L F G G ( P ",
"8.K ~ d | 5 L t.&.@. .-.j.5.&.&.m.7.s ] G G ^ G J ] ] J G F G L ( I I ( s h J C G h C C h h G J G G G L L ( L m F M L G ",
"1.y j ~ ] 5 i Z. .%.j.l.j.q.l.k.u.F t ..m G ) J G L ] ] J F F F I ] ] ( G h G h F F F G G m G ( G m m L ( ( F m F M m V ",
",.y g ^ T K 2 o.m.V.m.&. .0.t.&.s t t I G ] ( G m G ( ) I G G F B +.] J ] ( Z h G G G F G G J ( m m G ( ] ( G m F j m S ",
"<.m Z g L Y 5 3 p L +.t.b.q.F 2 a ] L S G ) ( J m m L ] I G G F L ] n p B F G J J J G C h C G J G m m ( ( I G I I B G S ",
",.p j h F K G G t 5 2 a F t w Y | L F L L J ( L G m L ] I I G n X.i 5 m m h  .o.) ( J h h h G j G h m G I I (  .| / L H ",
"<.i G j Z ~ J L ] $./ e 3 G  .( ] / ] ] ) ] ( ) G G ~ ( ( J J I B w F.R.L.R l l t L  .Z j Z j M G B B ] L G s.V.k.( s ] ",
"1.i h h G ( ( I ( G G G G ] ] I J J G G G J ( ( G B G L I T | | 3 | N.| w.L.d.a.<.s t F | ( h / F G F I ( G  .%.d.r.i ] ",
"W 5 n h F L L K B y p n v v F K s s y y i u h m p p p x m K K F 7 g.| E o...w.m.K.h.1.c 7 K L K p s y V F m s v T K 1 G ",
"a.Y 4.O.o.1.X.<.{ X.X.{ ] X.3.<.O.X.X.X.X.{ X.{ X.X.X.X.<.<.X.Y Q S.r.g.u.r.u.r.9.h.T.T.f.X.W X.1.,.{ X.3.6.1.1.R N <.3."
};
