/* XPM */
static char *fec1309b2ab2481ff37d041b5a5be580YZVjbUAKS6ffLhd9[] = {
/* columns rows colors chars-per-pixel */
"50 50 174 2 ",
"   c None",
".  c #6A7883",
"X  c #778387",
"o  c #778288",
"O  c #768388",
"+  c #778388",
"@  c #798488",
"#  c #798588",
"$  c #798489",
"%  c #7A8589",
"&  c #7A8689",
"*  c #7B8689",
"=  c #7B8789",
"-  c #7B868A",
";  c #7B878A",
":  c #7C878A",
">  c #7C888A",
",  c #7D888A",
"<  c #7D898B",
"1  c #7E898A",
"2  c #7E898B",
"3  c #7E8A8B",
"4  c #7F8A8B",
"5  c #818C8C",
"6  c #89948F",
"7  c #8A948F",
"8  c #8A958F",
"9  c #8A9490",
"0  c #8B9590",
"q  c #8C9590",
"w  c #8C9690",
"e  c #8D9690",
"r  c #8E9891",
"t  c #909992",
"y  c #919A92",
"u  c #949D93",
"i  c #959E93",
"p  c #959E94",
"a  c #969F94",
"s  c #9BA396",
"d  c #9EA797",
"f  c #9FA798",
"g  c #A0A898",
"h  c #A1A998",
"j  c #A1A999",
"k  c #A2AA99",
"l  c #A3AA99",
"z  c #A4AC9A",
"x  c #A5AD9A",
"c  c #A6AD9A",
"v  c #A6AE9A",
"b  c #A8B09B",
"n  c #A9B09B",
"m  c #A9B09C",
"M  c #AAB29C",
"N  c #ACB29C",
"B  c #ACB39D",
"V  c #B2B79F",
"C  c #B5BBA0",
"Z  c #B6BCA1",
"A  c #B7BCA1",
"S  c #B8BEA1",
"D  c #B8BEA2",
"F  c #B9BEA2",
"G  c #B9BFA2",
"H  c #BABFA2",
"J  c #BAC0A2",
"K  c #BBC0A2",
"L  c #BBC1A2",
"P  c #BBC0A3",
"I  c #BBC1A3",
"U  c #BBC2A3",
"Y  c #BCC1A3",
"T  c #BDC2A3",
"R  c #BDC3A4",
"E  c #BEC3A4",
"W  c #BEC4A4",
"Q  c #BFC4A4",
"!  c #BFC5A4",
"~  c #BFC4A5",
"^  c #BFC5A5",
"/  c #C0C5A4",
"(  c #C0C5A5",
")  c #C0C6A5",
"_  c #C1C6A5",
"`  c #C2C6A5",
"'  c #C2C7A5",
"]  c #C2C7A6",
"[  c #C3C7A6",
"{  c #C3C8A5",
"}  c #C3C8A6",
"|  c #C3C9A6",
" . c #C4C8A6",
".. c #C4C9A6",
"X. c #C5C9A6",
"o. c #C4C9A7",
"O. c #C5C9A7",
"+. c #C5CAA7",
"@. c #C6CAA7",
"#. c #C6CBA7",
"$. c #C7CBA7",
"%. c #C7CCA7",
"&. c #C7CBA8",
"*. c #C7CCA8",
"=. c #C8CCA8",
"-. c #C9CDA8",
";. c #C9CEA8",
":. c #CBCEA8",
">. c #CACEA9",
",. c #CBCFA9",
"<. c #CCCFA9",
"1. c #CCD0A9",
"2. c #CDD0A9",
"3. c #CDD0AA",
"4. c #CDD1AA",
"5. c #CED2AA",
"6. c #CFD2AA",
"7. c #CFD2AB",
"8. c #CFD3AB",
"9. c #D0D2AA",
"0. c #D0D3AB",
"q. c #D1D4AB",
"w. c #D1D5AC",
"e. c #D2D5AC",
"r. c #D3D6AC",
"t. c #D4D7AC",
"y. c #D4D6AD",
"u. c #D5D8AC",
"i. c #D6D8AC",
"p. c #D6D8AD",
"a. c #D7D9AD",
"s. c #D8DAAE",
"d. c #D9DBAE",
"f. c #DADCAE",
"g. c #DADCAF",
"h. c #DCDEAF",
"j. c #DDDEAF",
"k. c #DDDFB0",
"l. c #DEDFB0",
"z. c #DFE0B0",
"x. c #DFE1B0",
"c. c #DFE0B1",
"v. c #E0E1B1",
"b. c #E1E1B1",
"n. c #E0E2B1",
"m. c #E3E4B2",
"M. c #E4E5B2",
"N. c #E4E5B3",
"B. c #E5E6B3",
"V. c #E6E6B2",
"C. c #E6E6B3",
"Z. c #E6E7B3",
"A. c #E7E7B3",
"S. c #E6E7B4",
"D. c #E8E8B4",
"F. c #E8E9B4",
"G. c #EBEBB5",
"H. c #F2F1B8",
"J. c #F3F2B8",
"K. c #F4F3B8",
"L. c #F4F3B9",
"P. c #F5F3B9",
"I. c #F5F4B9",
"U. c #F6F4B9",
"Y. c #F6F5B9",
"T. c #F7F5B9",
"R. c #F7F6B9",
"E. c #F7F5BA",
"W. c #F7F6BA",
"Q. c #F8F6BA",
"!. c #F9F7BA",
"~. c #F8F7BB",
"^. c #F9F8BB",
"/. c #FCFABB",
/* pixels */
"                                                                                                    ",
"                                                                                                    ",
"                                                                                                    ",
"                                                                                                    ",
"                                                                                                    ",
"                                                                  J.L.I.J.L.n.j                     ",
"                                                                J.J.L.Q.n.<.1.z                     ",
"                                                                L.I.k.9.{ T { j .                   ",
"                                                                L.Q.t.H W T r.h.$.h./.A.            ",
"                                                                I.n.&.( W q.n.G.I.d.u.9.(           ",
"                                                                I.1.I { / 9.1.{ 1.R W W ( { (       ",
"                                                                Q.r.~ ( ( / ( / ( ( ( ( ( { &.      ",
"                                                              L.m.%.~ ( ( [ ( ( { { =.%.=./ j       ",
"                                                              I.1.W ( { ( { $.=.H j z j z s *       ",
"                                                            I.^.q.~ { { <.A z n p + = + = = 4       ",
"                                                          Q.C.n.=.~ =.V n y + * * * 5 5 4           ",
"                                                        I.A.{ R ( &.H w o 4 4 4 4 4 4 4             ",
"                                                      I.A.%.~ ( { H 9 = 4 4                         ",
"                                                    D.C.&.( ( { H 9 = 4 4                           ",
"                                                  A.{ ~ ( ( { I 9 = 4 4                             ",
"                                                D.{ ( { ( { I w = 4                                 ",
"                                              D.[ ( ( ( { T 8 = 4                                   ",
"                                            A.( ( ( ( { I 9 = 4                                     ",
"                                          C.{ ( ( ( { H 6 = 4                                       ",
"                                        D.{ ( ( { { H 9 * 2                                         ",
"                                      S.{ ( ( ( { R 9 = 2                                           ",
"                                    D.{ ( ( ( { R 6 * 4                                             ",
"                                  S.{ ( ( { { I 6 * 5                                               ",
"                                C.{ ~ ( ( { I 9 * 2                                                 ",
"                              S.{ ~ { ( &.H 9 = 2                                                   ",
"                            C.{ ~ ( ( { H w = 5                                                     ",
"                        J.Q.k.R ( { { T 9 = 2                                                       ",
"                    J.L.Q.C.=.( ( { H 6 * 5                                                         ",
"              I.I.I.Q.C.q.=.~ ( ( =.V = 4                                                           ",
"          J.Q.n.r.u.u.=.T / ( ( &.H r 4                                                             ",
"        L.Q.n.( I T R R ( ( ( %.I w =                                                               ",
"      I.Q.n.( ( ( ( { ( ( ( { A w =                                                                 ",
"    I.c.g.{ ( ( / / ( ( ( { %.z X 4                                                                 ",
"    c.{ R ( { ( q.=.W ( ( ( %.B = 4                                                                 ",
"    z ( =.&.B { I.h.T { ( { A s 4                                                                   ",
"    4 j M n 5 9.K.1.( ( { =.b O 4                                                                   ",
"      * = = = u.g.I ( { { ~ i 4 4                                                                   ",
"        4 4 = =.u./ ( { R u + 4 4                                                                   ",
"              f ( %.%.W i = 4 4                                                                     ",
"              = f C A p + 4 4                                                                       ",
"                4 4 4 * 5 4                                                                         ",
"                  4 4 4 4 4                                                                         ",
"                                                                                                    ",
"                                                                                                    ",
"                                                                                                    "
};
