/* XPM */
static char *_a10e3b6011e4593ead73f8307e6f24bNUrjdRQD15qN3iUE[] = {
/* columns rows colors chars-per-pixel */
"50 50 162 2 ",
"   c #7D4B0E",
".  c #875317",
"X  c #895315",
"o  c #86551A",
"O  c #8B551A",
"+  c #8C591D",
"@  c #915E1F",
"#  c #925D21",
"$  c #956124",
"%  c #9A6527",
"&  c #96642A",
"*  c #9F672A",
"=  c #9E6A2D",
"-  c #9D6B30",
";  c #9F7136",
":  c #A26C2E",
">  c #A36E31",
",  c #A57133",
"<  c #A97336",
"1  c #AB7837",
"2  c #A4743B",
"3  c #AC7639",
"4  c #A77E3C",
"5  c #AE793B",
"6  c #B2773B",
"7  c #B37D3E",
"8  c #BC7E3F",
"9  c #A57141",
"0  c #A97545",
"q  c #A67C41",
"w  c #AD7C43",
"e  c #B47E41",
"r  c #BA7D42",
"t  c #B47F49",
"y  c #C07F45",
"u  c #AD803F",
"i  c #B5833D",
"p  c #BA843E",
"a  c #AE8244",
"s  c #AF8048",
"d  c #B68142",
"f  c #BA8345",
"g  c #BC8945",
"h  c #B58449",
"j  c #BC8649",
"k  c #B68B4A",
"l  c #BE894B",
"z  c #B68C51",
"x  c #BC8C51",
"c  c #BF9156",
"v  c #C18245",
"b  c #C28944",
"n  c #C5864A",
"m  c #C28B4D",
"M  c #C88A4D",
"N  c #C5904D",
"B  c #C48E51",
"V  c #C98B50",
"C  c #C69153",
"Z  c #CA9456",
"A  c #CC9955",
"S  c #C39359",
"D  c #CB965A",
"F  c #C69D5B",
"G  c #CD9A5B",
"H  c #D09754",
"J  c #D2945B",
"K  c #D09D5E",
"L  c #D39D5F",
"P  c #D19E5F",
"I  c #D39D5D",
"U  c #D29C5C",
"Y  c #D89E5D",
"T  c #CAA15F",
"R  c #D6A05E",
"E  c #DAA15E",
"W  c #C69960",
"Q  c #CE9B63",
"!  c #D59F61",
"~  c #D29E62",
"^  c #DB9D64",
"/  c #E09F65",
"(  c #CDA464",
")  c #D2A061",
"_  c #D6A060",
"`  c #D7A161",
"'  c #D4A162",
"]  c #D5A263",
"[  c #D7A465",
"{  c #D5A263",
"}  c #D8A262",
"|  c #D9A363",
" . c #D9A365",
".. c #DAA464",
"X. c #DBA565",
"o. c #DBA567",
"O. c #DCA666",
"+. c #DAA565",
"@. c #D4A867",
"#. c #DFA867",
"$. c #D7A568",
"%. c #D4A66B",
"&. c #D5A36A",
"*. c #DAA768",
"=. c #DCA668",
"-. c #DBA669",
";. c #D5AA6D",
":. c #DEA868",
">. c #DEA86A",
",. c #DFA96B",
"<. c #DBA96C",
"1. c #DDAB6E",
"2. c #DFAD6E",
"3. c #DDAA6B",
"4. c #DBAC72",
"5. c #DFB476",
"6. c #E3A166",
"7. c #E0A966",
"8. c #E4A56A",
"9. c #E0AA6A",
"0. c #E0AA6C",
"q. c #E3AD6F",
"w. c #E2AC6E",
"e. c #E0AE6F",
"r. c #E5AF6F",
"t. c #E1AC6D",
"y. c #E4B16E",
"u. c #E0AC70",
"i. c #E4AE71",
"p. c #E2B073",
"a. c #E6B072",
"s. c #E6B374",
"d. c #E5B376",
"f. c #E5B172",
"g. c #E8B272",
"h. c #E8B576",
"j. c #EBB577",
"k. c #EAB374",
"l. c #E5B379",
"z. c #E9B77C",
"x. c #EAB679",
"c. c #EFB97B",
"v. c #ECB87C",
"b. c #EEBC7D",
"n. c #EDB97C",
"m. c #F0BA7A",
"M. c #EDBB80",
"N. c #ECBC81",
"B. c #F4BE80",
"V. c #F1BA82",
"C. c #F2C186",
"Z. c #F3C287",
"A. c #F2C186",
"S. c #F5C388",
"D. c #F8C78D",
"F. c #F9C68C",
"G. c #FAC98E",
"H. c #F8CA8F",
"J. c #FCC88C",
"K. c #FCCA8E",
"L. c #FECC91",
"P. c #FFD297",
/* pixels */
"d m j 7 f p 6 f b g m m b j f i 7 8 p d f f 8 p f f < B O.D L O.| | Z O.O.9.m.m : Z M j m m m j n x ",
"i m j e f f d b m m j m m m m g j f d p 7 p d d 6 f 7 D a.9.=. .O.9.O.9.q.| Z U 3 C d 7 j f m l M z ",
"j N g i d d d g m j f f b N m m m m d 8 8 d f d d j < 7 Z =.m.B.g.q.O.Y | ' L E , l d d l j m m n x ",
"m M m 7 i 7 7 d d p 7 7 j m m f M v d i d d p r d j 3 , < < 5 6 7 L v.v.Z H q.e * d j d m m B j v h ",
"d j f i d d p d p d 7 7 g l j 7 m g p 7 d f d p 7 j j l f 3 3 < > > < V  .m.0.X d l f 7 f j m d 8 s ",
"7 d d e 8 d d d j g m g m M g 7 b j d 8 p d d d d d 7 d j l B Z G j > # > > # % Z l 7 d j j j 7 p s ",
"p d d p 7 p p 7 f m m b l m j d l j j f f d f p j d j l B B m m l B G B j < : Z m e 7 j m m f e 8 d ",
"p d d 7 d d d 7 d m m j i f f d f g b m b j 8 7 7 j m M m j f d e e w r j B Z d e 7 l l d j j f v a ",
"f e v C l d e 7 j m m B w , q q 2 s d F l i b 7 7 j m M m l d 5 7 f p j 8 6 8 8 l k j l C D j k f h ",
"e e j C B f e e i m x 5 x %.S W c h s $ C Z 6 j e e d l m m m l f d 7 p f d f d C 3 G b.e.1.) e v 5 ",
"d d j m m d 7 d l l d D M.G.H.H.A.Z.z.l @ C m g d e e j m l l m C d 7 f m m f 8 k j K ' G ] { C 6 d ",
"d d e d j f d l Z 5 d 5.1.D %.G D <.d.G.= , Q d d e d l m j f l d 6 e e v M f 8 3 Z *.A K T [ h.M k ",
"r f d f l l v C h d 1.d.D G G A F G K v.v.+ d Z d e f l j d j m k l x e e m j f 7 j *.a.0.=.i.0.d 5 ",
"j l l m B m j m 2 ;.b.) D R Y Y :.X.Z Z N.l & S m m l g f d j C h B C l j m n f C 3 l Z Z ~ U d 6 c ",
"l l m m m m j e G b.%.Z G A U H L :.| *.4.D.& q Z B l j j j j m j j h h B m l t m r 7 e e M e 3 M d ",
"f e f j j j m d A.Q D D I O.E Y Y ..X.*.<.&.o h m m j j l M m j x.~ l l B l m m e 7 m Z e r 7 m d u ",
"t l B j e w h p.t.H A R O.7.7.| ..y.T y.x.# : S 0 r 8 i d j j j G.G h k l x l c j f f l m e 6 d r d ",
"M C t j t h ~ l.Y I E #.7.O.7.O.3.R A z.6 O J x r r d d d j j e h d d h k l S k N m l l j j d 7 n k ",
"r l e l w l F.Q A A I #.O.H A I R C y.D O w D e r d d d e f j j > 5 g g d l C l j j f d d g f 6 n k ",
"r w e V 2 - 4.<.L #.t...Y O.q.0.@.d.y.+ > D r f 7 d d d e e j j l k d d l x l l j j j j l m m j n l ",
"j 7 7 m l . = K.w.X.X.p.v.=.f % d S & # S e 7 f d d d d e e e e j d d j m N N M m m m B l j j m M k ",
"M j p 3 C 5 + k p.b.l.Z = + - l k = o B B e f f d p d d f e e h 3 p m M m l j p m j l v d e 7 j y k ",
"N M j 6 d S ,   # 2 ; + - W N.Z.D.~ B D e M j b 8 7 7 j j f j j 8 m C m m j 8 7 m m j d f j l j r d ",
"f p 7 l 5 5 C c 2 & > ) L.S.<.~ Q M.S 3 B m f 7 f d r j j f t e m m p i f f f f m j 7 3 5 j j d r a ",
"d i d d d 8 i d l Z m w.0.U  .U i.U 7 d m d d j i e Z 5 D b.C 5 B B l e e r f d B f f ' O.9.| U r q ",
"i d d p 7 f f 7 j < Z m.U C ! i.D 3 d l d e 6 d f M f m *.3.@.d l m l f d e 7 i l e Z h.' L #.O.^ z ",
"j d j d 7 d j i j , 7 k.0.U =. .3 d l 6 7 l d e e V 6 D y.G y.C t d f f d f j j m w M *.D H Y G i.;.",
"L m f b d 7 j b l d * m i. .Z e 3 Z j 3 j m m e e j d D ) D @.D e e f d d l m m m j m K X.L Z ' J ( ",
"q.B i j f 7 d b m C 5 # < 5 : 6 C j 7 l m f m l j 7 d D ) ' ] *.j h j e d l d j m j j B | O.O.#./ ( ",
"g.U i 5 p j d 7 e N Z j d j m Z m 6 d j m j 7 B V e 7 ' p.*.*.e.d e j d f g 7 7 m m j w j L g.| 8.%.",
"O...M 7 i d 7 6 d C M B C d B d 3 g j 3 l l 5 C m r d =.y.3.1.e.6 6 m d d j 7 r h B B M l j 7.t./ 1.",
"Z 9.E j 7 i 7 f l l m 7 m l 7 7 j f 6 j l d l l 6 6 C X.[ :.@.1.e d B j 7 f e j r j j 0.m.i m g.6.] ",
"U C j.D , f j l l m j 7 e m B l j l m j d m m f d 5 f O.! D ,.$.e e e f f f d 6 d C e G F.-.e ^ 8.( ",
" .j.L : 7 C j M m B l j f j j j m B B l f j j e d 6 , C ,.! $.-.< 6 e e e d f f j B r t B e < j ^ F ",
"Z C , 6 m e j C B m m l j 7 d j l l m l m m l l p Z 5 : V x.,.5 3 6 f e e e f j l B B e 2 2 e j Y F ",
"3 < 1 m f d C 7 l l m j e d d d e f d d m m j m b A M 5 > > < # e f l j f e d d h B S l r x j j 7 4 ",
"m C Z C M C m d d d d e 7 f f f f f 6 d m l f e j i g Z f < e B f j j l j j f e e t n x j h t r M k ",
"M m l j j d < j d e e e d d f f m m j j m m j e 7 7 6 7 m C B j e 7 7 f m m j f e t x j r e l l M k ",
"d j m l d d l j f f j f f e f f m m B m j m m f 6 j d 7 j j f j j e e j m m m m r l x m j j B B M k ",
"d l d m M d g d f B Z l e f f e j l B j 6 e f e i m m j m C B B m j j l m m l m m B m m B B j m m x ",
"b d 7 M r B Q Z L g.y.R Z g k m m m b f i 7 d b x d m N f p b b l l C M j l m m j B m j l l j e v k ",
"m 1 j j e 1.s.i.y.M R g.y.G d l f j l m j 7 i d l m C l p i 8 p j j j j e 6 e m B m e d m B f e m k ",
"M f v , f k.S D H H #.C R e.h d d j j M m f p d e l C g b j i f d 7 7 d d 7 d C m f e d m l d e j k ",
"b d j : d s.C ~ O.O.X.| x.*.5 a f j m m m m l j e e l l M m 5 1 d j d d j e e m t r r B l f e j j d ",
"f 6 b d , G s.z.t.Y L i.T 5 3 k j m m e e m B j f 6 j B l x l h 7 d d 7 d d f m e e j Z j 6 e d d u ",
"r f j M > 3 l B U k. .j , , j h e l l e e m m j r 7 m g 2 3 k k j l j d d j j m d 6 j m f f j e j a ",
"8 f 7 d d 3 = , < r 5 2 j C x w t B l j d j l m d b j 3 w k s w C m m l d 7 e e j 7 f m f Z U l f h ",
"f f 6 j v B x D 6 : d D B l x S B m B l j j m Z m M 3 3 l.P.;.x 7 3 7 m j e d 7 j e j j j  .s.{ e h ",
"d d j j S B x t d d l x N g p d p b m g p i i g k W 9 &.X.A j.V.d.;.c 0 s S S d d g g m g g D i.h w ",
"h k k x j x r 0 t e t j l d e e 7 e r e d e h k l h 0 &.K A D G ( 5.N.4.c t d l d w a k x x t t 2 z "
};
