/* XPM */
static char *_8a65736124c43e1bd4f71ab7d146603F3vyavKbtyn1e4BL[] = {
/* columns rows colors chars-per-pixel */
"50 50 229 2 ",
"   c #3F1100",
".  c #480E00",
"X  c #441501",
"o  c #4A1604",
"O  c #461C05",
"+  c #4B1B03",
"@  c #4E1C08",
"#  c #521A04",
"$  c #531C0A",
"%  c #541601",
"&  c #4D220A",
"*  c #482104",
"=  c #53240D",
"-  c #53290E",
";  c #572408",
":  c #50320E",
">  c #4D2611",
",  c #4B2910",
"<  c #542612",
"1  c #5B2512",
"2  c #542B13",
"3  c #5B2C14",
"4  c #552C1B",
"5  c #5B2D1A",
"6  c #5B3216",
"7  c #56321A",
"8  c #5C331C",
"9  c #5F3A1F",
"0  c #622C16",
"q  c #622D1B",
"w  c #6C2E18",
"e  c #63341D",
"r  c #69341D",
"t  c #62391E",
"y  c #6A3A1C",
"u  c #673114",
"i  c #60290B",
"p  c #573523",
"a  c #5C3421",
"s  c #5D3B22",
"d  c #5B3A26",
"f  c #642F21",
"g  c #643522",
"h  c #6B3524",
"j  c #643B24",
"k  c #6B3B25",
"l  c #643C2A",
"z  c #6B3E2A",
"x  c #723E25",
"c  c #723C2B",
"v  c #6D3F30",
"b  c #644126",
"n  c #694225",
"m  c #65422B",
"M  c #6B432C",
"N  c #6B492E",
"B  c #644A2D",
"V  c #714227",
"C  c #72442D",
"Z  c #7B442B",
"A  c #73492F",
"S  c #78492F",
"D  c #654631",
"F  c #6C4532",
"G  c #674B32",
"H  c #6C4B34",
"J  c #6E4D39",
"K  c #68463A",
"L  c #734432",
"P  c #794633",
"I  c #734B34",
"U  c #7A4C35",
"Y  c #7A4739",
"T  c #744D3A",
"R  c #7C4D3B",
"E  c #6E5238",
"W  c #6A5133",
"Q  c #745134",
"!  c #75523B",
"~  c #7B533C",
"^  c #755A3C",
"/  c #7D593E",
"(  c #795735",
")  c #7E4F40",
"_  c #764C40",
"`  c #6C5642",
"'  c #765542",
"]  c #7B5542",
"[  c #745941",
"{  c #7C5B43",
"}  c #7D5E4A",
"|  c #7C6045",
" . c #7D634C",
".. c #7F6A4B",
"X. c #7E6B52",
"o. c #7D6553",
"O. c #834633",
"+. c #804F3E",
"@. c #83533D",
"#. c #89553D",
"$. c #82583E",
"%. c #825633",
"&. c #93553E",
"*. c #825441",
"=. c #895543",
"-. c #845B44",
";. c #8B5C45",
":. c #845D49",
">. c #8A5E4B",
",. c #935D4C",
"<. c #846346",
"1. c #8B6244",
"2. c #84634D",
"3. c #8B644C",
"4. c #8C694E",
"5. c #836A4D",
"6. c #92654D",
"7. c #92694F",
"8. c #956845",
"9. c #836552",
"0. c #8C6652",
"q. c #856B54",
"w. c #8B6B54",
"e. c #8B645A",
"r. c #866B59",
"t. c #8C6D5A",
"y. c #846559",
"u. c #926553",
"i. c #936B55",
"p. c #996C54",
"a. c #916558",
"s. c #926D5A",
"d. c #996F5C",
"f. c #9D6357",
"g. c #817256",
"h. c #8B7156",
"j. c #85735B",
"k. c #8C725B",
"l. c #8E7A5D",
"z. c #927256",
"x. c #9B7256",
"c. c #93735C",
"v. c #9B745C",
"b. c #94795D",
"n. c #9B7A5D",
"m. c #A26B55",
"M. c #A3755C",
"N. c #A3785F",
"B. c #8A6F62",
"V. c #946E62",
"C. c #877363",
"Z. c #8C7461",
"A. c #8E7C67",
"S. c #8D7668",
"D. c #947461",
"F. c #9B7562",
"G. c #957A63",
"H. c #9C7B64",
"J. c #9C7D69",
"K. c #9A7A6C",
"L. c #9B7D70",
"P. c #A06F60",
"I. c #A27563",
"U. c #A37C65",
"Y. c #AA7A65",
"T. c #A37E6B",
"R. c #A97D6A",
"E. c #A67F70",
"W. c #94816A",
"Q. c #9D836C",
"!. c #9C896E",
"~. c #978468",
"^. c #9E8572",
"/. c #9D8A73",
"(. c #9A8975",
"). c #8A826B",
"_. c #A48167",
"`. c #A3836C",
"'. c #AB836B",
"]. c #AA8A6D",
"[. c #A5896D",
"{. c #B18469",
"}. c #A48572",
"|. c #AB8672",
" X c #A48B74",
".X c #AB8B75",
"XX c #A48E7A",
"oX c #AC8C7A",
"OX c #A78778",
"+X c #B28C75",
"@X c #B28D7B",
"#X c #B78874",
"$X c #A39175",
"%X c #AB9276",
"&X c #A6927C",
"*X c #AC937C",
"=X c #AC997D",
"-X c #A7997E",
";X c #B39176",
":X c #B3937C",
">X c #BB957E",
",X c #B59A7E",
"<X c #BC9A7E",
"1X c #BE9277",
"2X c #C1957F",
"3X c #B18F81",
"4X c #A79783",
"5X c #AB9481",
"6X c #AC9A81",
"7X c #B49582",
"8X c #BB9682",
"9X c #B49B84",
"0X c #BB9B84",
"qX c #B69B89",
"wX c #BC9C89",
"eX c #BB958C",
"rX c #BC9F91",
"tX c #B7A18A",
"yX c #BDA28C",
"uX c #BBA187",
"iX c #B5A490",
"pX c #C19482",
"aX c #C29C86",
"sX c #C09B8B",
"dX c #C4A38C",
"fX c #CCA68E",
"gX c #C3A88D",
"hX c #C8A792",
"jX c #D0A791",
/* pixels */
"` XX5XXX@Xa.1 ,.v. .k.C.S.XXc.m A.t.V.e.D.o.s <.I.j * 2 $.p.z.w.X.X.l.G ] S.B.^.4XOXY f L s s B *.e ",
"}.3X^.OX|.-.< P n.b.9.o.y.t.z.I 9.q.r.e.F.:.s 9 8 I p.I & j 7.x.3.x.v.L >.V.9.t.A.Q.v 5 4.c.!.dX>XT ",
"s.R.v.:.b 7 @ < m w.`.G.H.w.I $.I.c.k.Z.R P M.%X3 1.0X`.{ m 3 h h h r @ *.U.F.0.5.3.c f.dXwXXX7X'.j ",
"*.=.g 2 7 -.n.v.b 8 / <.T n & 9 @.p.h.D > z {.'.L U.,X.XuXb.< ~ 6.~ I 3 1 Y d.v.~.-.h I.OXt.r.r.v.! ",
"$ 0 g 3..X:X;X;X`.Q * - ( -.-.7./ 6 e ] J.| z C 5 d.:XQ.`.b.M #X,X X.Xn.! 6 k ~ { t 1 a.c. .r.t.n.3.",
"3 -.x.|.:X%X X9X:X+XI - Y.jX'.wX{.2 R @XtXXX} $ g I 2.H.w.{ ) #X-X&X-X=X%XE - C E N 5 M } q.s.a.4.A ",
"g u.v.w.r.K.^.^.XX;X].y t n.s.F.1.j |.6X!.5X3Xl F.s.l e.D.' F U.K.K.Q.W. X{ ~ 2X*XXXv.' J H N q g - ",
"2 T k.b.r.o.o.e.A.}.dX7.2 N w.o.w w.9X(.^.7X7Xo.:.dXF ] U.] l D.V.e.Z.t.k.! @.aX6XOX0X:X XH.1.w i.N.",
"K.d h p.N.z.h.2.9.q.'.'.5 X 2 O t s.c.9.Z.K.~.w.C M.7.: T M 4 L *.4.i.0.I.L L ~.l.A.W.$X%X9X4.$.9X*X",
"4X.X] 6 N w.z.H.q.w.U.R = ~ p./ k 3.F.0. .2.q.w.V 7.-.m c.z.] I n g , l j < A n.v.s.2.c.H.U.@.;.*X!.",
" .7Xv.8 2 7 a T 0.U.>.g ] <X,X%Xk A s.D.q.9.w.c.@.@.U i.8X7X@XoXM.j H }.s.T 8 ~ P L j z M l 8 6.k.g.",
"G.{ b / U.F.] l z c & F +X8X X,X#.2 :.s.t.F.s.n.w $ V '.9X.X*XqX#.j 8X0X7X0XL + F :.d.H.i.I 9 Y.q.2.",
"A a ~ OX0X@XoX X+.o 2 n..XG.}.&Xp.@ M H K G m G r $ ( _.H.Q./. X$.e `.*X.X:X~ S qX*X%X9X8Xi.b <.I.0.",
"+ ;.8XwXoXOX5X9XY.= ~ b.2.5.k.K.p.g s.K.D.l.r.c.M.k -.w.2.q. .9.M.! m D.k.h.I #.6XW.l.T.U.~ * 2 F h ",
"0 M..XZ.B.L.J.K.8.t i.z.9.k.9.s.$.M  X:XXX}.Q.!.x.m 4.w.r.t.9.t.n./ > :.k.b.H ! G.D.i.R g t m 2.V.s.",
"u 3.l. .y.e.e.s.C t h.z.q.h.t.V./ N G.Z.r.X.j.h.N M Q.t.q.t.V.s.c.T g z w.`.M I 0.R z $ k Y.2X<X0XQ.",
"< C d.F.s.s.9.J.Z o k M.v.c.5.J.#.r #.6.p.c.H.D.w u $./ { 4.7.x.w y @Xw.D 7.u * G -.*.< R.dX$X!.I.H ",
"0.T z ~ :.s.F.b.k 0 2 8 M i.z.t.8 - 9 j k m I Y ; k -.! G H A 3 ; N.0X*XT X @.N.`.,Xp.a R.+XG.w.] j ",
"7XOXs.} T I I k ~ +XR.-.m 2 2 9 { l.H.H.4.C & o % ;.0X7X^.c.-.$ P 0X XtXJ.< f.aX}.H.T > l ] F.d.8 a.",
"(.&X*X`.`.>.= ; T.dX0X:X'.m 6 7.-X9X=XuXaX_.t A r *..XXX6XwXM.e w.XX!.W.J.) F V.F.G ] 2.Y 5 z q j #X",
"A.C.q.w.n.$.y 8.^.K.J.;XfX0.n 1XqX/.G.b.`.n.M ].*.z k.q.Z..X-.c s.e.j.[ V.a.< v g s `.dX:Xv.L @ z F.",
"] F.H.s.$.M <.x.9.q.c.b.|.3.l Y.F.9.t.q.t.| G gX>.d F.t.t.z.n V J.D.h.h.Y.) 4 J H s G.,X.X0X+Xp.H j ",
"0 x U U 5 H Q.w.h.w.0.} t.{ ' b.3.2.w.w.c.' { 7Xs.l :.a.3.%.6 ; z / ^ x.;.r v.gXaXI E J.c.~.:X:X7X] ",
"O.% h +.6 B c.h.2.4.w.c.V.J ' B.4.z.w.4.i.K 9.F.`.~ C C e 3 %.8.=.U t y 3 n +X*X|.s.J  .q.h.j.~.`.D.",
"z a.9X*X%XH 5 m.l.c.h.c.h.G { G...j.X.k.2.*.c.X.a.s.i.z.8 8 @XtX:X:X`.-.X ~ .XG.X.k.J _ F.0.q.2.9.0.",
">.wX,X X&XH.l @ z I -.i.~ = c p.H.c.l.s.R @.H.c.a.w.k.z.g z .X*X}.&XdX].6 R c.r. .Q.:.M i.p.q.g.F.-.",
"s.oXJ.$X%X].L m -.R z h g 5 L h L P ] h 1 c R H :.2.i.i.g R T.D.k.h.H.n.r ;.F.9.H.z.A < -.F.h.l.3.8 ",
"2.q.r.q.h.c.M d.hX8X}.D.v.`.+XT . P *.q f u.2.^ T K B m = *.F. .q.5.z.7.t 6.d.0.b t 6 o g p.z.^ 0 -.",
"k.9.r.<.l.{ n z.$X/.=X9X*X*X9Xr.j .X0X0.-.pX0X-X:X_.h.1.8 #.F.t.r.G.I.-.& 2 8 p B / ].x.0 g N , 0 x.",
"h.h.3.w.H.m T x.k.r.l.G.Q. X,X9.H oXuXH.H 0..X/.|.%X%X;XS k :.w.} } I r e I w.H.=X:XfX{.< < <.i.g N ",
"! H.H.d.1.t 7.M.9.w.9.} t.H.J.T G  X*X:XR l w.l.c.l.~.].P = L G T L 1 3 x.oX9X5XK.`.w.I z c.,XwXi.4 ",
"- H -.-.g + S 3.k.G.D.D.F.w.s.2.F .X`.0X=.$ h I H E W <.C c {.|.|.#XO.3 i.c.l.q.k.t.l l F.wX^.&X@Xu.",
"&.# # h Y ] A 6 h k A A I Q ~ j Z M.t.V.2.< a.K.9.{ L g @ z 0X.X.XaXU.6 M [.g.k.=.0 & w.Q.9.G.Q.*X-X",
"M.- I R.8X7X].].L ; A / ! Q / 9 C w.y.k.4.M oXyXwXoXE.I.R 8 } l.D.Q.`.I 4 -.:.D 0 x 2 I n.9.9.r.Q. X",
"<.s H.wX7XXX!.7X#Xm Y.dX:X,X<XF.N h.X.r.5.n b.^.`.`.oXaX:XH m H.X. .k.i.1 o f c v.;X3.9 :.b.2.9.q.t.",
"7 T `.Q.C.k.r.A.`.b q.`.b.n.U.w.T D.C.r.h.A <.G.9.t.t.J..X! 7 p.l.J.z.U 2 Y P.pX*X=X].s l H.w.h.i.w.",
"F s.i.2.0.c.s.t.[ 7 ! w.q.w.s.{ R F.B.0.p.%.P :.v.c.q...l.3.n ~ 0.) < X R jXwXoX$X!.wX<.> -.F.4.v.A ",
"V.U.z.7.u.~ T _ ! J J ^ E / ! F 1 v K H S ; # r m B <.q.b.n.k 1 v v U n ! `.l.Z.l.k.J.v.9 k '.4.L M ",
"L Q ! n 8 A 3.R.8X7XOXJ.t.0.8 h 1.}  .5.1.y 1 $.2.! ! H M S = r D.7XaXN.I 3.c.w.0.9.T ! m 8 S h & $.",
"q.v.].( : h..XXX|.+XoX+X@X@Xv u.dX9X4X,X2X1.n '.0X+X'.v.u.S $ #.6X$X.X.X;.N R T ) ) { 3.#Xi.$ 0 T / ",
"=X=X`.R.A j U U G H ;.,.-.T f f.`. X`.b.J.H.! i.&X&X XXX7X0.d 1.C.C.t.c.z.u x m.T..XqX9X*Xn.n {.tXqX",
"[ } ~ ] < 3 ;.-.^ / 8 < l / T v G.k.| 9.w.t.] ~ D.9.w.c.H.2.I z.t.r.9.2.A & #.+X|.OXk.l.G.2.t 8.}.:.",
"B ` _ :.L I aX8XuX;Xe z T.,XU.F l s.l.5.5.v.2.] F.v.x.4.! j n n.c.T H 3./ H ! m L 0.F.e.] m * 0 K F ",
"OXoX8XwXK.l F.D.b.3.k M.9X XXXQ.z ] c.w.c.`.F 3 T M M N M 2 6 M.x.j 7.,X XuX6X&XR g H J { i.n 3 I..X",
"@XoXOX3XJ.D 0.s.H.n R pX*XQ.-X9Xa.l 0.}.} I s I G <.2.N.>X7.- 3 3 X I ].b.Q.XXiX;.3 ] H.wXfXp.h  X,X",
"K.F.t.s.c.H I :.E 2 h 3.w.l.j.J.'.L M *.F T H.:X,X9X%X.X|.( = e U k j 4.s.t.G.K.C >.0XdX X X'.~ q.~.",
" .q.r.q.c./ = n ^ A r g { b.q.2.U.I X . L >XgX X^.w.t.F.{ p T |.@X'.g 6 v F ~ -.1 ;.9XQ.q.l.U./ ] t.",
"h.l.h...b.i.3 m.,X>XR.>.8 D F.v.F l Y c h I.`.Z.0.9.c.^ p 3.dX*X+X:XT < U @.C c - 8 v.r.q.9.2.2.T s.",
"7.*.r ; y e e R.eX3X5X7XOXL r q k `.rX3XT r 3.r.e.c.U e U.0X.X|.&XwXu.5 +X0XOX}.i.8 I F.w.w.r.H.T ~ ",
"p 4 T i.:.5 4 V.L.W.(.XX*X9XT < `.7X(.*X*Xm [ C.Z.{ O 4.,Xl.j.k.).^.s.d k./.5XXX:Xw.d  .b.r.q.q.M > "
};
