/* XPM */
static char *_98a94b90c6048b8bf6d98a9212b0185MS6VdYM2qr8RggoA[] = {
/* columns rows colors chars-per-pixel */
"50 50 132 2 ",
"   c #422D1D",
".  c #46311F",
"X  c #452F22",
"o  c #473124",
"O  c #493326",
"+  c #4D3827",
"@  c #47332A",
"#  c #4C362A",
"$  c #4E392B",
"%  c #513B2D",
"&  c #4F3733",
"*  c #4F3931",
"=  c #543D31",
"-  c #55402F",
";  c #5A452F",
":  c #534032",
">  c #534031",
",  c #564130",
"<  c #564032",
"1  c #564033",
"2  c #574133",
"3  c #574134",
"4  c #564035",
"5  c #554234",
"6  c #564334",
"7  c #564335",
"8  c #554136",
"9  c #574435",
"0  c #564133",
"q  c #584131",
"w  c #584133",
"e  c #584332",
"r  c #5A4530",
"t  c #5B4631",
"y  c #594433",
"u  c #584034",
"i  c #584234",
"p  c #594234",
"a  c #584235",
"s  c #594335",
"d  c #5A4335",
"f  c #594336",
"g  c #584237",
"h  c #5B4434",
"j  c #5A4534",
"k  c #5B4635",
"l  c #584536",
"z  c #5A4436",
"x  c #5A4437",
"c  c #5B4537",
"v  c #5C4734",
"b  c #5C4537",
"n  c #5C4736",
"m  c #594335",
"M  c #5D4837",
"N  c #5F4A37",
"B  c #5E4936",
"V  c #5B4538",
"C  c #594638",
"Z  c #5A4738",
"A  c #5A4739",
"S  c #5C4438",
"D  c #5C4638",
"F  c #5D4638",
"G  c #5C4639",
"H  c #5D4739",
"J  c #5D473A",
"K  c #5B473C",
"L  c #5D473C",
"P  c #5C4639",
"I  c #5E4938",
"U  c #5F4A39",
"Y  c #5C493A",
"T  c #5E483A",
"R  c #5F483A",
"E  c #5E483B",
"W  c #5F493B",
"Q  c #5D4A3B",
"!  c #5E4B3A",
"~  c #5F493C",
"^  c #5D4A3C",
"/  c #5E4B3C",
"(  c #5F4C3D",
")  c #5F4C3E",
"_  c #5E493A",
"`  c #604B36",
"'  c #60493B",
"]  c #604B3A",
"[  c #614C39",
"{  c #634E39",
"}  c #614C3B",
"|  c #624D3A",
" . c #604A3C",
".. c #604A3D",
"X. c #614B3D",
"o. c #614B3E",
"O. c #634C3C",
"+. c #624D3C",
"@. c #614E3D",
"#. c #634E3D",
"$. c #604D3F",
"%. c #634C3E",
"&. c #624C3F",
"*. c #634D3F",
"=. c #614E3F",
"-. c #644D3F",
";. c #644F3E",
":. c #624D3D",
">. c #66513C",
",. c #65503F",
"<. c #66513D",
"1. c #634D40",
"2. c #624F40",
"3. c #624F41",
"4. c #644E40",
"5. c #654E40",
"6. c #644E41",
"7. c #654F41",
"8. c #664F41",
"9. c #654F42",
"0. c #644E41",
"q. c #635042",
"w. c #665140",
"e. c #675241",
"r. c #665043",
"t. c #665345",
"y. c #675142",
"u. c #695443",
"i. c #685245",
"p. c #6D5847",
"a. c #6A5449",
"s. c #6E584B",
/* pixels */
"# * * * # @ @ @ +   h ' + % = % % % % u = % # $ $ S R S u R R + # # % % % % % % # u # # % = % o & % ",
"# # # @ # * $ & O % O.= O % # & # # # # # # # # X + O.-.h u % + $ $ % % % % % % # q u $ = = % # # # ",
"# # # # # # # o o h #.$ O = $ & # # # # $ $ % % $ X S O.% # # q = $ = * % % % = O u % O % % X O # & ",
"# * # # # # @ o e ] ] o X % O # # O O O O O $ # q X h u + % # % % % # $ $ % % % O u u X = F O # @ # ",
"O + # # @ @ $ % [ [ l O o # # # # # # # # # # # o $ ' $ # u O O * $ $ $ # # $ * X S = X % ' # X # # ",
"O # # # # % = ' ,.Q U % O X # $ # # # # # # O # o = ' # X # O + $ $ $ # # # # # O S = O % ' = @ o X ",
"S S S S ' ' ' ' Y @.,.Q 8 # # @ O X X X O + # $ = ' ' % O . O % @ @ @ @ # # @ @ O ' ' = S ..1.~ 7 7 ",
"h S ' ' ' = % X o > 5 Q t.q.K 8 u u u q u ' ' 5.O.' O.-.h # O . * @ * * & @ @ # # %.' S = # = * A A ",
"%   . { ` + O + % $ # # % % y <.#.[ u.<.t ; % + # % % = <.O.h % # O o # # # O X O.e $ # $ % % $ # O ",
"% + % ] - O + % % = % # % + + - <.e e - % % % % # o O o h { [ ` O.a % # O O % a x % O # $ % % % % $ ",
"% $ U e O # % = = = $ % % $ O % 9.% O O O % $ % % % % o e t % + 8 a L O.F ~ 9.s.= $ O O # % % % % % ",
"o = F % O % # % # % $ = y % + - *.% % % % % % % % % a O a l O . O # % % % % = 8 a = O O # # # # % $ ",
"O F = # # $ # # * $ $ % = % + y F % % = = = $ = = # $ X 2 l O % % = % $ # # % # x = # # # O # O $ # ",
"a *.# X $ # # # # # # # % O % U = # $ % # # # $ * * $ X a = # % % $ # $ = = $ O 8 % # # $ # % # # # ",
"L = # # $ @ @ # # @ X # % O % <.= X # # o & # # # o # # U 2 O % = = % % % = % O = % O # % # # $ $ # ",
"a X # # # # # # * # # # $ O - <.* @ # # # = * # @ & @ # O.% O % # % % # % % % O = % O # # # # # & @ ",
"% # # # # o # * & & # = o . [ ; # @ @ & & * # & # X # = L = # O # $ % % # # # O = # # $ # O O # X > ",
"# O + # * # @ @ @ @ # $ O - >.y # # # # # # # # # X # S x # O % % O o O % # # $ 9.% X O $ $ O o @ A ",
"# O O # * * # % & * # O O y ] - o o o o # o o o o $ L 9.O.# X # # # # % O O $ a O.8 # % % # # # ( q.",
"% + X X o O # # # # #   % ` O.V = = = & & = = = = ..1.O.L x % O O # $ # O O % F % % e a = = x O.A 5 ",
"O.- % O O O o O X o o $ F 9.O.O.L 1.' ' ' F ] ' O.~ = $ = F F 8 # # X o # = = % # # $ % % # # % % $ ",
"#.' e e e 2 = = = = = O.9.= = = # @ # # # # O O L 2 # O # # % a 8 = = % % = % O a = # % % = % % $ # ",
"- % % = 2 % % % h h S 9.x o # @ = = % = = % % % 8 % $ % % # O # a x V 1.F $ # % X X O O O # % % # $ ",
"+ + + % % + % % O O # a * X = = $ $ % % % % # % 8 = % % = = = % # o $ 1.O.% # a a a a = = # o X # U ",
"- % % % % = = e = = @ = = o = = % % % % = # O # t + % = = = = # # = %   F F = = = = = a % e l B U = ",
"% + # % # # % % = % # x g = * = # O O O # O # % t + % = * = # = = S % X F = $ # = % % % # % ] #.# o ",
"+ # + # # # # O % % % % = = X # % % # # # O O % ` % % % # = # = % % # O V = # % * = % % % O t - o # ",
"O # # # % # # # % % % O = = X # o O # # % # # = { % o O * # # % # O O % a % # = @ = % e % # - O o # ",
"O # O # O O O # + % O o = S O # O # O O O X X $ <.= X o * # # # # # # % = # O % # = o # + $ ` e o O ",
"O O O O O O O O O o   O h #.% o # % # O # # # e { a o o & # # O % # # = # # o $ # * o # O % [ l = = ",
"= = = = % % % % O % + % ] ] t O # # # # = a h 9.` ' # o # # # O O O # = # # # # # $ # # O % e % l V ",
"9.9.1.L F F h ' e #.#.[ ] ] #.e % = = e F = % % - ] = # @ # # O O # % a O O # # # # $ # o % % + # # ",
"] % + O O + O + % l = O.i.F a = $ * $ % # # # + O u 8.' ' = = % = = ' = # X o # O # X % = # % = @ > ",
"l % % + + % + % $ % # = U = # # % % % % % % % # O = S u = & = ' % % = S L F a = a a = F O.= $ % > > ",
"% + % % % = % % % % $ = a $ # % % % = $ % & = = # % u # % O # % % # # = F F = % = 8 = F F $ # O > + ",
"% O % % $ = % = % % % a 8 % % = % = % > = % = = # % u % = % = % = = # $ % $ # % % % # a = # O o @ + ",
"% o # $ # % # = % # = a % # = % > > $ $ $ $ $ $ O = = # % % % # % = % % = $ # = = % % = 8 O # $ @ + ",
"% O # # O # # # # O l 8 # % = $ @ + $ $ $ # # # O u =   o o # o O # O # = % O O # # # = % O # % + $ ",
"% O # # # # o # # % F = # % % % @ > $ @ # # # o X u ' % = = = = # # o # S = O O O o O = % O # O # # ",
"% o # = # # @ # o = V # O % O # + @ + + + @ @ # O ' i.S 5.= S ' ' S = = r.%.a S a = a O.a # $ O o o ",
"= X o * # # # # O O.= O o # * @ O $ # # # # # # y >.t + . + + + e t p.] . % % - % - - y y B B - % + ",
"= # # $ # O @ O = 1.% # # # * @ # % * # $ @ X # >.B + + + - + + $ O B % . % + % O $ $ + + % % % 2 w.",
"1.= = = # # # # O.1.# O * # $ # O O O $ # # # a [ % + + - - - % % $ l = + 2 % # + % % % O + % % O % ",
"i...a a a V F O.F O.# O # o # $ # % $ O X # = 1.% + $ e % + % $ % O e 2 + % = # % - = % % - % % # # ",
"# # o O + $ % 2 U w.F % o X o o O $ + o O % F U # # % 2 # # $ $ % O e a # # = % $ # * = - % $ O # F ",
"= $ # $ % + O + % B #.] = = # # O O O O % *.~ $ # # $ # @ $ $ $ $ O a F # o # # # O # # $ $ O # F 8 ",
"+ % % % - - + %   . % B %.%.' ' y - - y U ,.y   @ & # # @ * @ @ # # = 1.= @ # X # # # # # @ $ = g X ",
"% - % + % - + - - . O a %.O.S = Q B *.<.,.*.l # X & # & : * @ > X @ g a.9.g x = * # # # X X = 1.# = ",
"% % % % % % % % % % . - <.$ # # # @ # # % B { { # o O > @ O O o X a 9.#.l - h <.B [ B B e a ~ = O = ",
"% + + % % % + % O o + [ 2   $ * # = = # o . % ` n $ o O o @ > O V ~ = # o   O + B ` - % = O.F o $ $ "
};
