/* XPM */
static char *result[] = {
/* columns rows colors chars-per-pixel */
"60 60 24 1 ",
"  c #150D15",
". c #150E16",
"X c #181019",
"o c #19101A",
"O c #1C121D",
"+ c #1D131E",
"@ c #2E2533",
"# c #3D3748",
"$ c #4D4A5D",
"% c #726B7E",
"& c #8D8272",
"* c #908575",
"= c #988382",
"- c #9C8786",
"; c #A79A87",
": c #AC9E8B",
"> c #B19998",
", c #A5A58F",
"< c #A8A992",
"1 c #C4B59F",
"2 c #E2E3C4",
"3 c #E5E6C7",
"4 c white",
"5 c None",
/* pixels */
"555555555555555555555555555555555555555555555555555555555555",
"555555555555555555555555555555555555555555555555555555555555",
"555555555555555555555555555555555555555555555555555555555555",
"555555555555555555555555555555555555555555555555555555555555",
"555555555555555555555555555555555555555555555555555555555555",
"555555555555555555555555555555555555555555555555555555555555",
"5555555555555555555555555++++++++++5555555555555555555555555",
"55555555555555555555555++>>111111>>++55555555555555555555555",
"5555555555555555555555+>113333333311>+5555555555555555555555",
"555555555555555555555+>13333333333331>+555555555555555555555",
"555555555555555555555+>333344444433331+555555555555555555555",
"55555555555555555555+>1333444444443331>+55555555555555555555",
"55555555555555555555+>1334444444444331>+55555555555555555555",
"55555555555555555555+>1334444444444331>+55555555555555555555",
"55555555555555555555+>1334444444444331>+55555555555555555555",
"55555555555555555555+>1133444444443311>+55555555555555555555",
"55555555555555555555+>1>333444444333>1>+55555555555555555555",
"55555555555555555555+%1>>3443333443>>1%+55555555555555555555",
"55555555555555555555+$>>$4444334444$>>$+55555555555555555555",
"555555555555555555555+>#443344443344#>+555555555555555555555",
"555555555555555555555+$#4++%3333%++4#$+555555555555555555555",
"5555555555555555555555+>3+$$$33$$$+3>+5555555555555555555555",
"55555555555555555555555+>>%$1++1$%>>+55555555555555555555555",
"5555555555555555555++++++%>34$$43>%++++++5555555555555555555",
"555555555555555555+43>3%+%>334333>%+%3>34+555555555555555555",
"55555555555555555+>>%%>%@$$$4$4$3$$@%>%%>>+55555555555555555",
"55555555555555555+$44@@@%++++++++++%@@@44$+55555555555555555",
"55555555555555555+@$>44344>>%%%%>>44344>$@+55555555555555555",
"55555555555555555+3+++@@$$33%43%33$$@@++O2O55555555555555555",
"55555555555555555o:-++%$3>%$1311$%>3$%++=;X55555555555555555",
"5555555555555555+<*.5+%>$443$43$344$>%+5 &,+5555555555555555",
"5555555555555555+$++5+$$3$%$1311$%$3$$+5++$+5555555555555555",
"5555555555555555+1>+5+@>$443$43$344$>@+5+>1+5555555555555555",
"5555555555555555+4>+5++@>$%$>$$>$%$>@++5+>4+5555555555555555",
"5555555555555555+4>+55+%>33>$++$>33>%+55+>4+5555555555555555",
"5555555555555555+4++5+$@$$%$+>%+$%$$@$+5++4+5555555555555555",
"5555555555555555+$$$++1>@>>%+%$+%>>@>1++$$$+5555555555555555",
"555555555555555+$3443+3>@@+++>%+++@@>3+3443$+555555555555555",
"555555555555555+344$3++3>#$++++++$#>3++3$443+555555555555555",
"555555555555555+>$4$$++@@@@>1$$1>@@@@1>$$4$>+555555555555555",
"5555555555555555+>$3>++334+@#%%#@+%34++>3$>+5555555555555555",
"55555555555555555++++++141@++++++@%41%+++++55555555555555555",
"5555555555555555555555++%%@+55555++%%@+555555555555555555555",
"5555555555555555555555+>43%+55555+%34>+555555555555555555555",
"5555555555555555555555+%41@+55555+@14%+555555555555555555555",
"5555555555555555555555+1%++5555555++%1+555555555555555555555",
"5555555555555555555555+3+3+5555555+3+3+555555555555555555555",
"5555555555555555555555+1+31+55555+13+1+555555555555555555555",
"555555555555555555555+@>$>%++555++%>$>@+55555555555555555555",
"55555555555555555555+@3%3$3%+555+%3$3%3@+5555555555555555555",
"55555555555555555555+>%1%1%%+555+%%1%1%>+5555555555555555555",
"55555555555555555555+3$4$4$+55555+$4$4$3+5555555555555555555",
"555555555555555555555++++++5555555++++++55555555555555555555",
"555555555555555555555555555555555555555555555555555555555555",
"555555555555555555555555555555555555555555555555555555555555",
"555555555555555555555555555555555555555555555555555555555555",
"555555555555555555555555555555555555555555555555555555555555",
"555555555555555555555555555555555555555555555555555555555555",
"555555555555555555555555555555555555555555555555555555555555",
"555555555555555555555555555555555555555555555555555555555555"
};
