/* XPM */
static char *result[] = {
/* columns rows colors chars-per-pixel */
"60 60 14 1 ",
"  c black",
". c #1D131E",
"X c #2E2533",
"o c #3D3748",
"O c #4B444C",
"+ c #4D4A5D",
"@ c #6B6878",
"# c #726B7E",
"$ c #B19998",
"% c #ADA9B4",
"& c #C4B59F",
"* c #E5E6C7",
"= c white",
"- c None",
/* pixels */
"------------------------------------------------------------",
"------------------------------------------------------------",
"------------------------------------------------------------",
"------------------------------------------------------------",
"------------------------------------------------------------",
"------------------------------------------------------------",
"------------------------------------------------------------",
"--------------------------.........-------------------------",
"------------------------..$$&&&&&$$..-----------------------",
"-----------------------.$&&*******&&$.----------------------",
"----------------------.$&***=====***&$.---------------------",
"----------------------.&**========***&.---------------------",
"---------------------.$&*=========***&$.--------------------",
"---------------------.&**=========***&$.--------------------",
"---------------------.&**========****&$.--------------------",
"---------------------.&***======****&&$.--------------------",
"---------------------.$*************&&$.--------------------",
"---------------------.$*******&****&&&#.--------------------",
"---------------------.$******&&&**&&&$#.--------------------",
"---------------------.+&***&&#$&&&&&$$+.--------------------",
"---------------------..+&**==##$&&&$$#.---------------------",
"----------------------.&&...&=.###*$#+.---------------------",
"----------------------.=&*+..=.+#*&#+.----------------------",
"----------------------..&*#+$==**##+.-----------------------",
"----------------------.#.&&===*#&+..------------------------",
"-----------------------.*&&&&&....$...----------------------",
"------------------------.*.=.&..##.&*..---------------------",
"-----------------------.#.+.&+##..o##$#.--------------------",
"-----------------------.&+*+*==**&$&$#&.--------------------",
"-----------------------.X&=*++&&+#.##*$.--------------------",
"-----------------------.&==&=*++$#o.&=#.--------------------",
"-----------------------.X*+*++=*&o#.#*#.--------------------",
"-----------------------.&*#&*==++$#.#=#.--------------------",
"-----------------------.X&&*+++*&$o.&*&.--------------------",
"-----------------------.#&#&*==+++$.#&#.--------------------",
"-----------------------..&&*+++=*&.$&+&.--------------------",
"-----------------------...+&**.....$+&$.--------------------",
"-----------------------.++.+#.***.$+*$.---------------------",
"-----------------------.#+##.*+==&$+$. ---------------------",
"-----------------------..o+&..=**&+$.-----------------------",
"-----------------------.@$o..*=+&&...-----------------------",
"-----------------------.$=*@..+&..@@.-----------------------",
"----------------------.++*&$@...$&*@..----------------------",
"----------------------.*=+$@.--.@$=*@.----------------------",
"----------------------.+&+@.----.O++&@.---------------------",
"---------------------.$*+&.------.%=+=$.--------------------",
"------------------...+*+=$.-------.$+*=$.-------------------",
"-----------------.*+&$++&.---------.*+$&#.------------------",
"-----------------.#=+*$&+.----------.*+#&.------------------",
"------------------.#=*$=*.-------...$#&*$.------------------",
"-------------------..++&$.------.$*#*#$&.-------------------",
"---------------------....-------.=+=+*+.--------------------",
"---------------------------------......---------------------",
"------------------------------------------------------------",
"------------------------------------------------------------",
"------------------------------------------------------------",
"------------------------------------------------------------",
"------------------------------------------------------------",
"------------------------------------------------------------",
"------------------------------------------------------------"
};
