/* XPM */
static char *wall21678200483[] = {
/* columns rows colors chars-per-pixel */
"60 60 256 2 ",
"   c #183C1E",
".  c #36370A",
"X  c #372B18",
"o  c #293816",
"O  c #3C341C",
"+  c #383818",
"@  c #2E2E12",
"#  c #1D3634",
"$  c #1A2F26",
"%  c #372E26",
"&  c #293929",
"*  c #3B3424",
"=  c #3D3A24",
"-  c #3B342D",
";  c #333B2C",
":  c #3C3B2C",
">  c #333A24",
",  c #293C35",
"<  c #393835",
"1  c #2D2B31",
"2  c #562F0D",
"3  c #46380B",
"4  c #54390A",
"5  c #482B1A",
"6  c #572C18",
"7  c #433B1C",
"8  c #4C3B1C",
"9  c #473717",
"0  c #533B14",
"q  c #543B1B",
"w  c #5C3B1C",
"e  c #573517",
"r  c #693909",
"t  c #673A19",
"y  c #7A3B12",
"u  c #783A1A",
"i  c #723212",
"p  c #482C26",
"a  c #572D28",
"s  c #443425",
"d  c #4B3525",
"f  c #433C24",
"g  c #4B3C23",
"h  c #45342B",
"j  c #4B352C",
"k  c #433B2D",
"l  c #4B3C2C",
"z  c #523423",
"x  c #543D24",
"c  c #5B3C23",
"v  c #533C2B",
"b  c #5B3D2C",
"n  c #583428",
"m  c #443C32",
"M  c #4C3C33",
"N  c #4B3C3B",
"B  c #463536",
"V  c #583B36",
"C  c #502E32",
"Z  c #633C24",
"A  c #6B3D23",
"S  c #643D2B",
"D  c #6B3C2B",
"F  c #653426",
"G  c #763B29",
"H  c #633C33",
"J  c #683B37",
"K  c #783B34",
"L  c #682A2F",
"P  c #29441A",
"I  c #36441A",
"U  c #384C13",
"Y  c #174330",
"T  c #3C4424",
"R  c #3C412C",
"E  c #364628",
"W  c #3C4334",
"Q  c #384539",
"!  c #2D492A",
"~  c #4C431C",
"^  c #474619",
"/  c #53441D",
"(  c #5C441C",
")  c #534B1D",
"_  c #5B4A1D",
"`  c #594615",
"'  c #595119",
"]  c #504B0D",
"[  c #66440D",
"{  c #7A450C",
"}  c #634414",
"|  c #64431C",
" . c #6B431D",
".. c #634A1C",
"X. c #6B4B1C",
"o. c #684714",
"O. c #77451A",
"+. c #6F521B",
"@. c #444323",
"#. c #4C4424",
"$. c #4D4B24",
"%. c #4C442C",
"&. c #4C4A2C",
"*. c #44482A",
"=. c #544423",
"-. c #5C4425",
";. c #544A24",
":. c #5C4A24",
">. c #54432C",
",. c #5C442B",
"<. c #544B2B",
"1. c #5C4A2B",
"2. c #475225",
"3. c #545223",
"4. c #575229",
"5. c #444433",
"6. c #4C4433",
"7. c #4C4A33",
"8. c #4D4B3A",
"9. c #47463A",
"0. c #544433",
"q. c #5B4533",
"w. c #534C32",
"e. c #5B4A32",
"r. c #54433B",
"t. c #5C443B",
"y. c #5B4B3B",
"u. c #534A3A",
"i. c #495237",
"p. c #575235",
"a. c #634424",
"s. c #6A4424",
"d. c #624A24",
"f. c #6A4A24",
"g. c #63452B",
"h. c #6B442C",
"j. c #634A2B",
"k. c #6B4A2B",
"l. c #744424",
"z. c #74432C",
"x. c #7B422C",
"c. c #764926",
"v. c #665228",
"b. c #785229",
"n. c #644433",
"m. c #6B4333",
"M. c #624B33",
"N. c #6C4932",
"B. c #63443A",
"V. c #69493C",
"C. c #734534",
"Z. c #784838",
"A. c #675337",
"S. c #363344",
"D. c #483843",
"F. c #513A54",
"G. c #723F46",
"H. c #354842",
"J. c #2A4B40",
"K. c #4E4745",
"L. c #584944",
"P. c #4A4452",
"I. c #674445",
"U. c #744647",
"Y. c #66435B",
"T. c #883B07",
"R. c #883B19",
"E. c #993A19",
"W. c #983411",
"Q. c #A53D19",
"!. c #AF3D16",
"~. c #863B25",
"^. c #973C25",
"/. c #893430",
"(. c #A63D34",
"). c #B33C2B",
"_. c #D03C16",
"`. c #C23836",
"'. c #824214",
"]. c #87471B",
"[. c #9A4619",
"{. c #924B0F",
"}. c #A8481A",
"|. c #B54B1B",
" X c #BC4B1B",
".X c #BB4815",
"XX c #AA5418",
"oX c #B85318",
"OX c #B3500D",
"+X c #834323",
"@X c #8C4324",
"#X c #8A4929",
"$X c #974727",
"%X c #884635",
"&X c #994833",
"*X c #9C5634",
"=X c #8F532F",
"-X c #A74727",
";X c #B74A29",
":X c #A85226",
">X c #B65527",
",X c #A54732",
"<X c #B84C36",
"1X c #AB5136",
"2X c #B65534",
"3X c #C94909",
"4X c #C74919",
"5X c #D74919",
"6X c #CC521B",
"7X c #C75817",
"8X c #DA531C",
"9X c #D7571A",
"0X c #D8530B",
"qX c #E65509",
"wX c #FE540A",
"eX c #FF5105",
"rX c #E44A19",
"tX c #F84D1A",
"yX c #E65519",
"uX c #FF5D1B",
"iX c #F75818",
"pX c #F34C0A",
"aX c #FD6319",
"sX c #F3630F",
"dX c #C64A27",
"fX c #D34B22",
"gX c #D74B29",
"hX c #CC5422",
"jX c #C65529",
"kX c #D5522B",
"lX c #D85725",
"zX c #C84A37",
"xX c #D64D36",
"cX c #C55434",
"vX c #DA5635",
"bX c #E54E26",
"nX c #F84C23",
"mX c #EC5324",
"MX c #E75727",
"NX c #FD5C25",
"BX c #FD532B",
"VX c #F65829",
"CX c #E74A34",
"ZX c #F94D35",
"AX c #E75536",
"SX c #F85734",
"DX c #DF632A",
"FX c #F86426",
"GX c #FA6435",
"HX c #E4632D",
"JX c #D36319",
"KX c #AE4A47",
"LX c #924742",
"PX c #CE5348",
"IX c #F45341",
"UX c #DB6041",
/* pixels */
"-.m =XjX3 q <X*Xx x x c c ,.,.,.a.- Z.*X= ` ,.>.>.,.,.b >.,.g.D L A.*XX 9 XX1XG x 1.h %XQ.P B.c ,.6 ].HX$X, H.4.q.0.>.*.",
":.; 6 bXuXbX-Xd -.-.,.,.,.,.g.g.] = %XkXA X.j.,._ s.l.f.d._ :.:.< t lX>X;X$XK = ,.d.5.~.dX^ L.g.3.u.C ).MXXX2 Q b ,.>.<.",
"t #X{.yXuX}.X 0.,.,.-.g.g.g.j.g.d.g G 5XG n.e.=.K.r.v n g = R : ^ E.nXjXc.3 k B.j...i.A vXt M d.| p.5.6 !.NXOXo.A D D h.",
"AXAX<X$XrXhX+ B.-.,.,.,.,.g.,.g.J M H 8XD , M b & s G -XjXlX8XgXiXnX8Xs N ) :.h.S } %.d dX$X+ ..J ~ :.*.6 xXGX7XlX8X8X6X",
"+X` < 1 '.iX].I -.-.,.,.-.-.-.-.1.5.J yXR.9 t /.}.jXMXVXyX8XhXhXrX9XXX> L.f._ ;.g.| g.T [.xX3 :.I.-.c.i.+ -XgXR.z.z.D A ",
"h E J V 3 4XCX~ 1.g.j.d.g.j.g.g.o.E g iXFXyX>XZ.[.}.E.R.6 9 ; < + G 8X[ ;.^ 6.C.-.:.z.@.Z IXt ;.=._ A w.@.-X<X5 5.l M l ",
"m.4.-.>.P }.CX, j.:.1.j.j.g.j.g.t = X.qXMXyXR.+ E = g v 1.e.n.m.Q S gXy ) 4.m.D -.>.g.=.s zX[.@.k._ w I.k ^.zX<.:.a.s.s.",
"e.S d.B.z |.5Xb -.-.-.-.1.a.a.d.B D.jX3Xc w 6.V.1.-.,.,.<.1.g.s.>.e zXU.r.` ( 1.j.q.p.a.: -XdX+ q.1.a.t ] {.PXz :.a.t | ",
"' Z _ e.a .X8XV E V. .| q.V.#.p r BX^., l N.-.[ ..V.B.,.a.a.1._ 6.a ;Xb.: K m.-.' 8.i.o.j ].}.s d.` :.B.$.'.dXd ;.<.n.;.",
"4.c 1.w.d dXmXp i.0.D ..[ 3.r.B lXXXA -.] ..y.y.t.=.| k.k.a.a.g.,.f |.Q.@.e.r.7.#.e j < S.#X:Xh Q 4.C.H I $XvX4 ,.1.h.,.",
":.>.e.5.= ;XSX4 %.4.u.g.{ &., R.vX7 , F.) ` >.s.n.d.o.( v q.j.g.g.p -XXX=.; - W.[._.4XXXdXiXbXW.b ^ T B.M.x.;X0 >.,.Z =.",
":.g.n.&.f R.vX}.= t p.y.,.- n eXZX[.f.g.F 9.< b #.0.w.:.:.,.,.<.y.O $XC.% $XxXfXhXaXhX].}.|.;XfXCXdX~.9 P w.1XF 6.n.h.) ",
";.l.h.:.( 2 :XMX9 J U.! X +XyXnX}.9XaXuXZXPXf.7 9 % ; <.c.O.t d.#.B %X%X;XyX}.h.d :X%X% e n h m.E.4XvX;Xc % ^.oXd n.C.=.",
"<.A D d.+.8 | nX~.N Q 5 }.NX6XS O i R.'.~.4XwXeX4X}.u C m <.d.g.v % }.mXdXu   6.C $X:Xg 2.v.x J U . s.cXPX^._.qX>.&.j./ ",
"%.v n.;.| V m .XPX. P dXGX|.3 W ) N : m # e tXwXMXFXlX~.< H.8.w D.o pXFX^ h G.j.^ y .XK ^ a.[ ^ N.b W 4 ^.(.CXsXb + g n ",
"B = 8.T / Y.S.{.dXo XXiXK Y #.z.H I.2.O.>.g xX;X$ ^.iXqX].- - t c KXAXu j C.:...B.5 cX1X^ 0.d.q.w.g.j.t f Y =XeX%Xn m.LX",
"dX$Xy o.g.B & #X}.R.UX].& L.n.t.( 1.-.| M.E (. Xf m g $XVX3Xb.<XCXcXG n r.&.:.o.) Q ^.SXT.^ a.<.-.=.>.V.o.I b wX7XMXVXgX",
":XhXtXiXlXjX|.9X4XMX#Xd 1.,.S v._ 1.d.| j.> &X.XH.1.O.s z.8X>Xb r o.w x q.e.j.| _ 0.F kX[.>.a.:.:.k.>.h.D ~ ;XmXt O.u F ",
"O c l.R.#XZ.G XXBXhX~ *.k.| k.` -.e.j.| g.k &X4XQ 4.l.m ; ;XyX% I $.<.,.,.j.j.=.` :.m 1X-XD.a.c / C.a.u b 0 tX-X: R 6.5.",
"n.6.@.T V h 5 ,XZX4 ~ g.,.s.X.` ,.0.g.| ,.v $X8X6 t.u.z.= D ZX{ %.0.g.g.t ,.1.<.<.l.< $X-XS.e.A.Z.g.=.,.h -XVX^ t.>.j.w.",
"a.s.t k.n.f O.nXG I d.t w.n.( -.e.v g.s.,.v +X8Xr I.9.+.=.C fX9Xa b S a.a.:.-.1.D ~.k }.4Xj g @.%.~ d.t.*.vX$Xj N.s.O.c ",
"*.n.q.V.6.@.>XiX& m.j.>.N.v B.:.M.,.a.a.e.n t 8Xc.>.<...-.v { yXH n.M.1.:.j.c h.t a.^ 7XyX%XR. .4 2.=.M c.CXd H n.-.s.,.",
"d.D ;.g.1.-.4XwX*.G j.<.d.=.C.=.j.,.g.-.p.V 8 4X#X@.:.( j.w.3 dXj.=.>.,.;.,.-.a.' 8.q 7X}.=X2XPX4X+X~ 4 5XxXg 6.<.;.j.0.",
"3.Z a.g.I.> G BX}.7 n.g.w.f.} -.( g.g.` p.V 9 dX].v k.-.<.8.C ^.b.w a.m.g.g.-._ _ K.K xX4 o i Q.0XxXPXhXtX] U J 3._ f.,.",
"p.` ..j.L.0.t ;XyX0 M V.<.0.>.g.d.n.q.a.h.,.q 1X{.N g.1.` l.P.c.,X6 9 >.V e.e.b z.7 [.bXG ;.U M m 9 0XlX@.E k.| a.d.1.,.",
"/ ~.d.@.V.1.. m.aXi 9.y.( f.k.e.( n.n.-.h.0.8 ,X4Xs H g.;.N.> { nXOXo.=.- - < k F.j XXXXj L.v.,.1.:.z ;X}.* e.1.6.a.Z w.",
"z.V L.4.8 5 u 6XaX;X; w.'.[ g.a.( a.n.g.,.%.x Z.mXe t.s.1.%.r :XZXAXMXiXyX.X'.u ; @ ,X,X>.e.| K ( v.; q.vXQ.= p.q.h.f.v ",
"k.j.e.k e ;XxX%X$XbXu > d.X.=.} ( a.j.d.>.w.l F VX{ 5.:.m.7 8X2Xp / ].7XpXuXaXaXfX-XxXu o <.-.M.../ p., %XmXy * N.} } g.",
"^ &.% n gXyX].# 1 !.yXq # I...a.:.t g.1.<.e.>.d kX|.= &.Z K yXy V 6.W j D G $X-XbXJXFX4Xx = = 8.d.[ s.1.7 -XVXZ f -.N.%.",
"a h G gXlXX.+ v h h vX7Xk < 1.l.e.-.s.,.w.1.,.s -XMXw 8./ <X$X3 K Z.H H V M %.= g I {.rXvX:XO.6._ J s.+.@.c >XcXd l r.k ",
"KXcXyX4XT & B.M.X., g.MX4X6 %.c r.-.s.,.w.a.h.l A bX[.< X.|.M <.~ 2.2.1.g.a.d.} U.D.  4 -XMXrX9 :.L.j.@.N.c + 8X>X6 5 %X",
"OX|.~.p 6.V.a._ _ d.% E.aX9XF # r.1.z.b w.| l.0.E 5X;X$ -X{.F.L.| :.:.d.a.=.M.n.o.Z.$.~ - z.tX[.- g Q N D &.9 ].aXdX<X7X",
"d g >.e.j.g.a.g.y.-.=.; Z nXnXW.h *.' -.n.b -.3.P ~.vX#XKXg ) ( U.a...d.g.,.:.o.:.-.3.g.U.o |.NXdXkXfX4XfXAXAXAXiXaXbXO ",
"e.q.,.,.j.,.-.a.a.s.g.k + +XAXFX$X8 k m.G m.V.%.: @ MXNX X. g.h.^ &.V.-.$.q.S ;.;.a.) I.m r lX-X@X#X#XR.R.+X+Xu r 0X;X- ",
"e.M.,.,.g.j.a.a.| j.B.1.T ; #XbXFX;X#.! d.) P a c.:XkXrXiX{ ; W j.j.-.g.g.&.<.C.;.a.a.L.+ 5XhXw 8 x =.x #.#.#.^ E O.;X5.",
">.e.,.-.j.j.-.g.a.B.<.a.N.m * i eXuX.Xt 8 4 y 4XDXfXG z #XgX$X  D.Z ..4.c a.f.a._ _ U.; [ BXy l 1.1.1.1.1.e.p.1.K.+ zXX.",
"x g.j.,.j.-.-.,.a.M.%.=.x.h.R Q dX3XFXSX-X<XGXSX[.2 5.K.Y Q.mXzXt 7 ^ ;.1.J D ` ..d.L.+ 0XhXs ;.a.-.-.-.-.Z Z Z M.9 ;XOX",
"q c g.j.j.g.a.,._ d.,.V m.-.%.8.x.2 '.>X}.~.Z.i T n.N.C.5.s l.bXyX-Xn j w.4.=.q.d.m.< l.rXt 9.d.,.;.,.g.g.g.j.g.:.k ~.iX",
"w q a.g.-.-.j.g.g.-.d.j.1.=.q z :Xd.= C V v x 2.j.B.` o.K B.T 9 ;XmXjXs.O %.p.H 1.q.0 >X-X+ M.j.1.,.1.1.-.,.1.=.:.Q F lX",
"k.( c j.-.g.M.-.G.&.` o.| :.D w ;X[.3.2.-.a.1.b j.} ,.y.] ] p.q.> r qXyXu < I.u 1.W T.bXx 6.o.e.g.a.a.-.( -.j.:...r.a |.",
"$Xw u.0.e.e.1.:.1.>.1.1.a.g.g.Z xX'.9.r.n.M.s.q.m.O./ 7.0.,.1.z.H.@.;XBXnXo.o *.h - ;X$XW 1.S ( g.n.g.g.b -.-.,...d.j &X",
"@Xe 1.,.( a.g.a.| | d.d.;.>.r.6.;X].=.a.t _ s.B.-.w.v.O.,.I.k.@.K ,X-X].XXAX-Xh J hX|.#.&.s.n.X.<.-.,.g.h.g.g.-.S g.M *X",
"B.h q.X.o.f.1.=.e.,.,.,.,.g.x 5 &X@Xc  .o./ a.I.U ,.S s.A.6.s t aX}.z & m c.|.MXvX7X{ n a.g.a.;.| d.:.1.4.:.1.j.n.,.k #X",
"A 5 s 7 g y.A.m.-.a.j.a.g.M.B.v $X,Xc :.s.;.j.B.3.l.m.y.*.O +XMX].7 ~ z.N.! 8 !.sX{.> h.O.>.d.r.j.:.1.;.=.,.g.n.q.@.o +.",
"iX6X*XC.h < B e.-.,.,.-.=.w.i.R }.;Xx 7.M.w.<.t.J &.2.;.O l.jX;XS.7...[ | j.>.- oXuXJ Q d.q.q.B.g.S D m.N.e.w.&.9 Z %XSX",
"4X9XVXVX.XG 7 X ! > = j v t.t.v $XcXl E v l 7 g L q ] { $X2X=X2 >.B.r.8.,.A H 0.l mX5Xq J.i.` $.e.e.p.$.#.x w Z <X(.K >X",
"> w }.iXuXDX;X-X;X;X-X$XG n - 1 {.vXx.o.R.@X].:X1XlXkXdX;X^.5 a.o.y.L.G G / w.j.R A iX.XB w r r 6 9 . ^ ` +X;XzX%Xf.> 4 ",
"g.v d c t @X6XNXuXwXuXyX9XoX[.y {.BXyXyXiXiXqXtXsXrXSX).5 9.p.' H f.` -.<.4.:.t j.% |.VXgX;XPXAXPXzXdXdXcX2X[.{.~ =.N /.",
">.a.a.x 7.7.f ,.Z.G z SXbXv KXjXjX^.T.:XU.s { MXa.& t vX#Xd p.,.,.1.<.<.;.,.n.n.' 8 $X X&X%XO.@X:X[.*X8XhX0 w /  .<.x jX",
"#.,.a.g.0.0.q.g.| q z $XlXy @ r =.4 ] * L rXhXC 9 F %.=.!.c.= f.D h.h.g.Z g.j.n. .W $Xy P >.t =.^ 3 ^ W.$Xs w.e.g.*.+XiX",
"q.M.g.g.S j.m.g.3.p.#.! #XyX'.*.3.H.< G jX$Xe D.>.l.t.W b.dX~.=.1.,.,.1.j.a.-.;.K Q ).;X2.V.H y.p.w.9.R.,XM y.q.M.< [.wX",
">.M.1.a.s.Z g.a.Z K  .W Q 6XsX- 5.G <X<Xx.@.*.S V.<. .V Y Q.fXz <.$.<.:.a.s.d.d.q.- ).cX8 ,.d.>.S g.q.E.:Xv g.h.g.: ].eX",
"e / <.:.g.h.-.:.D Z  .Z.< { yXZ.@ 7X6XZ m ,.c.g.J <.] g.D.@.XX;Xe ( 4.1.c a.f./ :.7.z.1X;.E  .X.g.-.0.}.>Xx |  .a.<.g.hX",
"R.w ;.<.-.s.:.<.i.4.D | 4.V ~.1X0XlXO.@.j.,.e.o.y.a.| j.m.< H yX%XS 0.L.r.0.%.@.0.W 4 rX).~ 9 ,.a.-.k $X$X*.;.) a.d.M Z.",
"cXR.=.<.,.a.g.:.*.:.D ( v.K.X T.aXiXR.W j.d.<.=.j.` h.a.p.J p XX<XR.2 x n t A l.c q T.uXAX&Xg.m z.k.6.,X@X6.<.;.g.-.=.l ",
"SX-Xw >.V.D h.:.C.=.` j.x.l Q zX5XaX}.@.e.J ,.:.( a.:.=.I.V r | uXqX7XoX4XgXBXBX5X;XVXOX] ).IX} ` ;.7.,XR.6.h.s.e.-.X.= ",
"4X>X8 z.7.) M.g.H Z.G L.! 5 dXiX, y nXv g.| ,.1.,.a.d...a.M.0.h rXtXE.&X@XE.O.c.n.^ jX).+ f -XZX>.P &X$X0 V.%.m.,.,.:.,.",
"fXOX- 1.d.A :.p.<.= : + r ZXAX. ; Z rXC.b ' t.:.,.-.a.a.-.j.0.j $XdX> Q 7.m *.5.D.+ tXZX` ! + 7X;Xi [.[ r.k.' ( ,.g.1.,.",
"<X0XV #...x.q.=.7 k.#X|.VX>X7 D.>.- 7X,XM ) n.a.g.,.,.g.,.,.,.v w kXv.Z h.V.-.~ 1.hX4XCX@X9.J g zXDX:X9 A.Z _ _ ,.1.1.>.",
"2 BX1X` ~ w.N r 4XBXnX}.A h v C.j.& .X;X* &. .D 1.,.,.g.g.,.<.;.5 dX#Xt ;.l ( /.yX@X@ ^.<X4 :.R t HXhXn z k.q.-.g.-.-.,."
};
