/* XPM */
static char *result[] = {
/* columns rows colors chars-per-pixel */
"60 60 76 1 ",
"  c #020202",
". c #090706",
"X c #090807",
"o c #0D0B0B",
"O c #120E0D",
"+ c #13100E",
"@ c #151311",
"# c #191513",
"$ c #1D1916",
"% c #1F1B18",
"& c #201A17",
"* c #231D1A",
"= c #27211D",
"- c #29221E",
"; c #262423",
": c #2D2621",
"> c #2F2824",
", c #2E2B2A",
"< c #302723",
"1 c #322A25",
"2 c #362E29",
"3 c #382F29",
"4 c #37302C",
"5 c #3C322C",
"6 c #3E3631",
"7 c #3E3832",
"8 c #40352F",
"9 c #423730",
"0 c #443A33",
"q c #493D36",
"w c #473E38",
"e c #4B3F38",
"r c #4D423A",
"t c #52453D",
"y c #56483F",
"u c #524740",
"i c #554942",
"p c #5A4D45",
"a c #5A4F48",
"s c #5D5047",
"d c #5E5149",
"f c #62554C",
"g c #66584F",
"h c #68594F",
"j c #655750",
"k c #675951",
"l c #6B5C53",
"z c #705F55",
"x c #6E6056",
"c c #6F6158",
"v c #706157",
"b c #74645B",
"n c #78675D",
"m c #76695E",
"M c #79695F",
"N c #7C6C62",
"B c #7F7064",
"V c #806F65",
"C c #827266",
"Z c #857569",
"A c #89776C",
"S c #87786B",
"D c #8A7B6D",
"F c #8E7D70",
"G c #917E72",
"H c #8E8071",
"J c #938374",
"K c #978778",
"L c #9A8779",
"P c #978878",
"I c #9B8B7B",
"U c #A08F7F",
"Y c #A0907F",
"T c #A48F81",
"R c #A59383",
"E c None",
/* pixels */
"E;E+ckyiddi%%fbxkbjEErNMMBbf5#@+2ys2$#rwEo@X4pkbbbx0%rdr60=E",
"tRp:NZsrgDb6SFbvNdDd cIcrxMND6%NJIJd0pJl %uNFZDNcgcAbr=4bJS9",
"5DZ10HdymkqNNkbNf5k0uGbe50rlCk>dVAZlhl5:ucBl6eblfi03xSd79tf5",
"#g5>xBZBBiuZrrii0t4rAf09r0rbZBs*aZMnC2#fHZlq6lbzNSZd56ic195%",
"E#$9kcNbbz090ee0e0:Na6w095fSSNc>9akv0<abcbbzkbnzlCAZhsxZr%>s",
">4#r0yglit5=y61221$fhfzastfADBm61r08=9ahjdhNNvge9pnMMNbi$ >9",
"2Ru=t90q00t::1rkfgg3znzNMNMNNbCg.*1&&itfbdrafe3ty8tffyr=;rNr",
"9Jm11tqqeei*2nBDZbVe6NNbvkfueib0@pNv<-<flbl45tgNh009ee-1dBKZ",
"6Kap24yeyt**NbvZZbnf=ildt0qr438X$VIb5=&$=tfe8fZl0et02#.rr9pZ",
";Aakb:1r3:;4NlbZZMvN8&5rtiq$-4++$yDmysf9&-3tesMtrr<5icu>t03s",
"EfVMJl3O:dq0vvvnvllha5o$*&O1Df:ftqlCzbCzl4o-1rr1> 1SbAUe-ytq",
"EqhnCZD*iAfrpNMh0qre1-9deqgDJ4rilkgbnlkt21ss9*;ts=fZ3kZy *9*",
"=t9tklzarDKd=khe0ee1&pKJZACCi2D60Vbbct8&1bJIJribJttNMvy3-64.",
"&pe9ee8fwxZk=*ettrr=qhcvNzzg1xTr&fvbf0.*pbMvf9gbbr&slr01gGFr",
"E1rt00eq:rpr8.*1395o9t9paa0#kKSk=0ti8#4t5tr3=#etri1+ey34tisg",
"Er5eeey5Xrry5*3==--*&<0e0q$,lZBBu-02@eDRtO10dq-rr0:&==#rtdfp",
"=M>-it0*$-91*imfhlZ0oq42eo*aqfgss4=1553d5-cDIJr421kCaer:1vZu",
"1p&O31*5f$#-sDAZZHC3rKb00905rq080i<5pte:4ZJCMmf=5nDDHJHc210=",
"EO5t8esMs=rmJBvMNy*1NIZVVVb*Otter6$%10<1rvNp989emgufvBSPFfXE",
"E#hCNnMA0-pMBclg9$1200143;23<11->6kZ3-0::gy00ee5ree0rigllZ6E",
"E5ZZSgymp2trsp2+*fhy= &urdvte00a4lTZfdFq>lq9eer252-2:==1q53*",
"qNDSNr4rN4-q>#-rNZZp2r9ZPHZspzbZr:blbNNe=Cce99e*$2tl2$:>==j1",
"kJZHl8e9byO2>+iIDSb=aN2lSSBmCZVNb28tvkr$pDNldsr>ibZJf4i9qbId",
"+fCBr9r9yc1qt-1DDN4-fl1yMBmBHAAZV9:iy2&:CFZbNZ9qJSSGr0MsmFJf",
"E=gu0ee8iAr1fa=9c2@eeV8=fbbhxmBBZ4O4&eu4gNbzzeOuDSSl4bZDDZl#",
"E eeee0ehC4*MAs# 933tbl-qttq9ryyvw =fDk4eetu4X$acgf=6vbNvh5E",
"d4$qteerp3#8MDC3:Ii:yfV8*t0qq098t9+MINc58yq$ 4eet31@*eidre8E",
"jGp=8yye-#9bDDf5SJM*5yee-1ytqqqrr1yDNNd=35::;Np1:9tce3te81r5",
"5VMg*85*-fZDFk:bJCN>$9ti2 *etrrqr4ivfar5:.uzaJ9$kBFJk@::-umb",
"+hez2 *eyyihv0fDZfl6X$1;6uoo111-1+9t09rr=0Fd0M:rFDSDdo4rbAmc",
"E1p3=185qe9e29Abp0r:902ebAs>y3258:*9ter=6FJf106NmNmN9pJLJCC-",
"EE1=0i0323ei2:fite*6ttlNZNZrtvstyla180:$BKZl3:2gpis56HDAmt:=",
"Eo4yclpr9144*$1=>=0f5ybZZZBs5DDmvbDc$>ku4bZDrO5r890=kAZl1#8n",
":phCSNmlsf0>si19@%bx9qcBZZbfiZSSfqaNwcJr2fBDZ6=8tp41glp-*pAD",
"rZAAZNvnNMqlLDMG9*Zc9elbbBbxesMMt5e0rNf5rlBZDJi491@:98==fZCn",
"OrSSZMifMr4NJbfbf*fg00smbcbm=2fy0yr:py54erpfbCDN:rla0##rpffv",
"E tVNp0t2@etfr8hAs#9ir0isrnv+#8rte@:fre@8r890tgreJDVNk+&859h",
"E*=yfe4*o#3t88rklCt+120r821209=31$o1e4@@-qyteet5kgray0-2p94r",
"+ga1=2r6*y5:qrtr3=3=*5:=2-10tr0q@$N9$1:py*2504-:ye1;3uNJDBp@",
"XtllilJJ9qke12>1*=8qhA41rqr98qtt*uAlavbyvt-<1=:-15qiNJDMhfl#",
"E*rhJDSPd=fJcpt43y0yCD25rrpdsmh01tNDZbb0bbyifhh81qffiyitr05&",
"E+qqfCBM45AHABZd<rfbMJi&uNZBDHBg05fmNNprJMcbCSN9<<<33833462E",
"1,&t0pf$#avMxspl4rnVbMZ41NFJSMMNt08qtu5NDbcNDBl>gf33<&19raNu",
";2$=et4@=eerqq94-ivMNffc6dr9fbNl*8prr$tLBcgbZDp-abZNa-91<5r1",
"E2gi62>Zc1tt523 #hNvfu5kl*;<:48$+%11=*fCvetMbv2#0tkZrdNlf6@;",
"E6kTlOiRJr&=9ps9#8fa80qqd2znt=4dMe=104eir8eluoo$$25&2NZJDZ9;",
"E5qgFlrbJf 6NMmNa=80eei0*uZZp#fJZbvcMe-rqrr:;6dci59=*kMNbnlO",
"E$9qdZrrg1iZvMZMVa3tyy41dJFzr8:8lMbbCl10ir2rcJJDDvzV44uug01E",
"$m92tVpth4iZnCZSBCe*1@#rMZv9age21fvMSAm=1$@vMNZZMbnNg*9q::2E",
"1N0=gM4dVV0rkvZAMV9+1%#rqt89g8qa5<fMZSD4 *=1aalnnvlvAw&<:eV:",
"*p13zwOyin2 8iafvt-plZq1t0qud0qes59fCZh>4hf$5r0pgyehb32iplHq",
"E2$>4=2e3-4k12e0y10CbmF2&952cd08xt:ip5+1MFAr+8y8080y1@fNbZDe",
"EO5qgMvkd*rnw@2ee*flaNk0feq*tMkis2*2*$-0ycNZ6+1eyri2OtVVZZN9",
"$riCJl58Ni40iNi2o@Ni0N0dIMZr-piy12y35gl48fmgsl92*95:dVZAZCi1",
"5yiCnkkgbg12cJDlu;djrNucNisz-8t01cp5lLp=tys-1CDMe;XeCbNDDp+e",
"<ieagMDJZN0*dNNnDdwvwluie88fa11#qBccDJe1tr5#8erfnn1@tggcC9=r",
"@py00ylVAl$1tizldq:ket15te0qi=2-9ydlMV92ry13ye089yf200q0te1$",
"EO8t08eht=:93eyre*+tpto+tyqt2rf85e090ee2t9+0iteeeed90tq00t8E",
"EEE5stp5 0hf$#ts<EE=09EEots3=vn29perttt-9#EE:er959* *tiyyyt*",
"EEEO003OE*g2EE13.EEEEEEEE@:EE1:&==*>49-EEEEEEE#92EEEEO=12112"
};
