/* XPM */
static char *result[] = {
/* columns rows colors chars-per-pixel */
"60 60 209 2 ",
"   c #010101",
".  c #0B0907",
"X  c #0A0A09",
"o  c #0A0706",
"O  c #180B04",
"+  c #1C120B",
"@  c #1A1C1B",
"#  c #1A1814",
"$  c #23150B",
"%  c #2C190C",
"&  c #2A1408",
"*  c #341D0E",
"=  c #381C06",
"-  c #2D1C11",
";  c #261913",
":  c #361D10",
">  c #3B1E12",
",  c #2B0E00",
"<  c #3E280E",
"1  c #25211B",
"2  c #3D2212",
"3  c #3B2518",
"4  c #2A2B29",
"5  c #2E312E",
"6  c #3C362E",
"7  c #2F3333",
"8  c #323634",
"9  c #353937",
"0  c #353B39",
"q  c #393D3C",
"w  c #3B3432",
"e  c #372E26",
"r  c #411F12",
"t  c #46240E",
"y  c #442314",
"u  c #492615",
"i  c #442B13",
"p  c #4A2D15",
"a  c #4D2C1B",
"s  c #482619",
"d  c #522E1A",
"f  c #4B3116",
"g  c #4D3319",
"h  c #5E3115",
"j  c #543219",
"k  c #5B351B",
"l  c #5D391B",
"z  c #5A3912",
"x  c #623B1C",
"c  c #66371B",
"v  c #753F1E",
"b  c #45392A",
"n  c #5B3724",
"m  c #473C33",
"M  c #6C3624",
"N  c #673921",
"B  c #733B26",
"V  c #7A3E29",
"C  c #773F29",
"Z  c #3C413F",
"A  c #6A4319",
"S  c #47433C",
"D  c #58493D",
"F  c #6B4322",
"G  c #67402B",
"H  c #754D25",
"J  c #7D452A",
"K  c #764426",
"L  c #7D5429",
"P  c #7C5327",
"I  c #6C4E3C",
"U  c #393F44",
"Y  c #3E4342",
"T  c #3F4847",
"R  c #424543",
"E  c #444945",
"W  c #454B4A",
"Q  c #4A4E4B",
"!  c #4C4F47",
"~  c #5B4D41",
"^  c #4D514D",
"/  c #47504E",
"(  c #51554F",
")  c #5B5448",
"_  c #4E5452",
"`  c #4F5856",
"'  c #525652",
"]  c #555A56",
"[  c #595D56",
"{  c #545C59",
"}  c #5A5E59",
"|  c #585756",
" . c #63554A",
".. c #5D625C",
"X. c #54605E",
"o. c #61655E",
"O. c #686A5F",
"+. c #535D63",
"@. c #5C6461",
"#. c #5F6866",
"$. c #626660",
"%. c #656A63",
"&. c #6A6D65",
"*. c #696E6B",
"=. c #676E69",
"-. c #6E736B",
";. c #6A7169",
":. c #72766C",
">. c #75796E",
",. c #787B6F",
"<. c #6D7973",
"1. c #757A72",
"2. c #7A7D73",
"3. c #747B75",
"4. c #84442C",
"5. c #834A2A",
"6. c #8C4D2D",
"7. c #894825",
"8. c #924D2E",
"9. c #8D532D",
"0. c #9C592B",
"q. c #94542A",
"w. c #8E4B30",
"e. c #934C32",
"r. c #964A35",
"t. c #8F5730",
"y. c #955231",
"u. c #9B5434",
"i. c #945A32",
"p. c #9C5C33",
"a. c #A55F2F",
"s. c #A25534",
"d. c #A45A33",
"f. c #AC5C3A",
"g. c #A55837",
"h. c #9D6333",
"j. c #A9652F",
"k. c #A6622E",
"l. c #A36335",
"z. c #AB6631",
"x. c #A66B36",
"c. c #AB6932",
"v. c #A56339",
"b. c #AB653A",
"n. c #AD6B3C",
"m. c #B2633C",
"M. c #B36C3E",
"N. c #BA6A3E",
"B. c #AE703C",
"V. c #AC7137",
"C. c #B4733D",
"Z. c #B8753E",
"A. c #BA7A3D",
"S. c #B7793C",
"D. c #B75F42",
"F. c #BB6C42",
"G. c #B76742",
"H. c #B67341",
"J. c #BB7442",
"K. c #B67942",
"L. c #BC7A43",
"P. c #C37444",
"I. c #C37B45",
"U. c #CA7D46",
"Y. c #C37C49",
"T. c #CD7D49",
"R. c #CB7348",
"E. c #D37E4A",
"W. c #CB734D",
"Q. c #7D8176",
"!. c #77807A",
"~. c #7D837A",
"^. c #7F887E",
"/. c #BE803F",
"(. c #BD8340",
"). c #818376",
"_. c #82857B",
"`. c #85897E",
"'. c #898B7D",
"]. c #C48543",
"[. c #CB8246",
"{. c #C58843",
"}. c #CB8B45",
"|. c #CE8249",
" X c #CE8F49",
".X c #D3834B",
"XX c #D9854E",
"oX c #D58C4C",
"OX c #DA8B4E",
"+X c #D4924B",
"@X c #DB944E",
"#X c #DC8651",
"$X c #DD8B51",
"%X c #D48551",
"&X c #DF9051",
"*X c #E18D52",
"=X c #E39253",
"-X c #858B82",
";X c #898D83",
":X c #808680",
">X c #8D9185",
",X c #8D9389",
"<X c #92978B",
"1X c #94998E",
"2X c #919386",
"3X c #969B91",
"4X c #989E93",
"5X c #9CA197",
"6X c None",
/* pixels */
"6X6X6X6X6X6X6X6X6X6X6X6X6X6X6X6X6X6X6X6X6X6X6X6X6X6X6X6X6X6X6X6X6X6X6X6X6X6X6X6X6X6X6X6X6X6X6X6X6X6X6X6X6X6X6X6X6X6X6X6X",
"6X6X6X6X6X6X6X6X6X6X6X6X6X6X6X6X6X6X6X6X6X6X6X6X6X6X6X6X6X6X6X6X6X6X6X6X6X6X6X6X6X6X6X6X6X6X6X6X6X6X6X6X6X6X6X6X6X6X6X6X",
"6X6X6X6X6X6X6X6X6X6X6X6X6X6X6X6X6X6X6X6X6X6X6X6X6X6X3.;.=.=.*.;.-.<.6X6X6X6X6X6X6X6X6X6X6X6X6X6X6X6X6X6X6X6X6X6X6X6X6X6X",
"6X6X6X6X6X6X6X6X6X6X6X6X6X6X6X6X6X6X6X6X6X6X6X6X6X^ 1X:X:X-X-X-X>X>X^ 6X6X6X6X6X6X6X6X6X6X6X6X6X6X6X6X6X6X6X6X6X6X6X6X6X",
"6X6X6X6X6X6X6X6X6X6X6X6X6X6X6X6X6X6X6X6X6X6X6X6XY ;X;X-X;X`.-X).1.2.1.' 6X6X6X6X6X6X6X6X6X6X6X6X6X6X6X6X6X6X6X6X6X6X6X6X",
"6X6X6X6X6X6X6X6X6X6X6X6X6X6X6X6X6X6X6X6X6X6X6X6XW 2.2.).2.2._.-...:...6X6X6X6X6X6X6X6X6X6X6X6X6X6X6X6X6X6X6X6X6X6X6X6X6X",
"6X6X6X6X6X6X6X6X6X6X6X6X6X6X6X6X6X6X6X6X6X6X6X6X6X[ `.1.2.2._.:.o.1.W 6X6X6X6X6X6X6X6X6X6X6X6X6X6X6X6X6X6X6X6X6X6X6X6X6X",
"6X6X6X6X6X6X6X6X6X6X6X6X6X6X6X6X6X6X6X6X6X6X6X6X6XS `.1.2.1.).:.&.-.Y 6X6X6X6X6X6X6X6X6X6X6X6X6X6X6X6X6X6X6X6X6X6X6X6X6X",
"6X6X6X6X6X6X6X6X6X6X6X6X6X6X6X6X6X6X6X6X6X6X6XZ { ^ >.2.Q.:.Q.:.1.:.Q %.0 6X6X6X6X6X6X6X6X6X6X6X6X6X6X6X6X6X6X6X6X6X6X6X",
"6X6X6X6X6X6X6X6X6X6X6X6X6X6X6X' ] 6X6X6X6X6X&.;X:.E %.2.&.&.Q.2.Q.O.] ,X:X2.R 6X6X6XQ.[ 6X6X6X6X6X6X6X6X6X6X6X6X6X6X6X6X",
"6X6X6X6X6X6X6X6X6X6X6X6X6X6X] ~.>XE 6X6X<.;X^.-.:.T ] Q.:.1.1.1.`...=.:X;.2.,X2.6XS <X4X$.6X6X6X6X6X6X6X6X6X6X6X6X6X6X6X",
"6X6X6X6X6X6X6X6X6X6X6X6X6X..-X~.Q.2.' -.4X1.:.3.1._ ..>X_.`._.Q.~.o.-.~.-.%.1.~.] :X>X`.>X} 6X6X6X6X6X6X6X6X6X6X6X6X6X6X",
"6X6X6X6X6X6X6X6X6X6X6X6X' ^.Q.:.:.!.1.] >._.2.~.~.@.` <.3.!.~.!.1...-X_.,.:.1.Q $.1X`.`.).~...6X6X6X6X6X6X6X6X6X6X6X6X6X",
"6X6X6X6X6X6X6X6X6X6X6X6X..`.-.1.2.1._.o.' ^.!.*.R m m I ~ ~ D ) S 6 S ..^.`.&.] >X_._._.-X>X;.6X6X6X6X6X6X6X6X6X6X6X6X6X",
"6X6X6X6X6X6X6X6X6X6X6X6X6X' 2.Q.:.-.>.`...{ ( N 7.0.J 8.v h c c t t , & 6 [ ] `.>X).Q.Q.>X&.6X6X6X6X6X6X6X6X6X6X6X6X6X6X",
"6X6X6X6X6X6X6X6X6X6X6X6X6X0 ] 2.Q.:.Q.^.^ a 6.z.U.S.v.J.6.K x N k l a * , O 5 <X'.Q.;X'...] 6X6X6X6X6X6X6X6X6X6X6X6X6X6X",
"6X6X6X6X6X6X6X6X6X6X6X6X6X1.$.] ~.>.!.E i m.N.M.P.].C.Y.l.p.K F l n d 3 2 *   5 ;.1._.' ..>X4 6X6X6X6X6X6X6X6X6X6X6X6X6X",
"6X6X6X6X6X6X6X6X6X6X6X6X3.<X`.] ] <.Y j 6.W.C.J.|. XC.Y.n.n.i.K l x j p i 2     4 $.^ $.;X>X:.@ 6X6X6X6X6X6X6X6X6X6X6X6X",
"6X6X6X6X6X6X6X6X6X6X6X7 >X2.>.Q.Q 0 j h.i.Y.U.U.OX@XB.Y.n.b.n.i.l n k j p 2       @ &.2X_.`.>X[ 6X6X6X6X6X6X6X6X6X6X6X6X",
"6X6X6X6X6X6X6X6X6X6X6X%.'.>.Q.>X] d z.V.h..X|.}.OX@XK.L.n.H.H.H.F k l j a 2         q ~._.~.'.).@ 6X6X6X6X6X6X6X6X6X6X6X",
"6X6X6X6X6X6X6X6X6X6XZ ' o.>._.<.e s.J.Z.n.$XXXOX&X+XK.L.H.H.n.K.K j k j g 2           ..2X2.-.] W 6X6X6X6X6X6X6X6X6X6X6X",
"6X6X6X6X6X6X6X6X6X6X..`...o._.] c N.U.I.v.=XOX@X&X XG.[.H.C.H.J.H k k h j t o         @ :.o...&.o.6X6X6X6X6X6X6X6X6X6X6X",
"6X6X6X6X6X6X6X6X6X6X2.Q.).Q.X.n a.N..XI.h.=X$X&X$X XH.T.L.H.H.L.H k k k j *             Z :._.Q.>.Z 6X6X6X6X6X6X6X6X6X6X",
"6X6X6X6X6X6X6X6X6X6X`.:.-.!.] A m.F.XXoXV.@XOX$X$X(.G.%XY.H.H.K.H x l k j *             4 _.:.>.`.! 6X6X6X6X6X6X6X6X6X6X",
"6X6X6X6X6X6X6X6X6X1 ;X2.,.1.) q.b.P.oX+XS.#XoXoX$X{.H.%XL.L.J.K.H x l z d 2             5 ).1.,.>X( 6X6X6X6X6X6X6X6X6X6X",
"6X6X6X6X6X6X6X6X6X9 o.} [ X.b d.G.J.oX@XL.*XoXoX@X{.L.$XL.L.L.L.P l x z d i             o ( o...&.S 6X6X6X6X6X6X6X6X6X6X",
"6X6X6X6X6X6X6X..<X:X2.2.~.{ 2 0.G.W.=X@XZ.*XoX.X%X{.S.=XY.L.J.K.P l A k j 2               9 3.-.%.-.5X1X%.6X6X6X6X6X6X6X",
"6X6X6X6X6X6XW o.3.;X2.-X4X%.i 0.J.|.$X@XL.$XoX|.$X{.Z.=X|.L.J.K.P l l k j :               q ,X>X;X1XQ.,.o.Y 6X6X6X6X6X6X",
"6X6X6X6X6X6X] `.1.1.%.o.:.} f 0.E.@X$X@XZ.$X.X|.$X].S.&XT.Y.J.L.L x x k f 2               R _.1.).`.:.2.o.Y 6X6X6X6X6X6X",
"6X6X6X6X6X6X{ -X3.).;X).>.{ f d.%X$X#X+XL.$X.X|.$X}.S.&X|.L.J.K.H l F l j *               Q ;X*.2.).2._.o.Y 6X6X6X6X6X6X",
"6X6X6X6X6X6X' 2.2.~._.'.).] f a.OXOX%X+XZ.$X|.[.OX{.G.$XY.L.J.H.H N F x p :               ^ 2X:.Q.2.2._.o.R 6X6X6X6X6X6X",
"6X6X6X6X6X6XQ -.>.1.:.1._.{ f z.OXoX.X+XL.#X[.[.$X(.G.*XY.K.H.H.P N c h a >               Q 3X1.1.~.1.:.} Y 6X6X6X6X6X6X",
"6X6X6X6X6X6XQ &.&.$.$.&.2.{ a z.OXOX.X+XJ.$XU.[.OX{.n.*XL.J.C.C.P x I  .m u o             E ;X-.&.:.%.$.' Z 6X6X6X6X6X6X",
"6X6X6X6X6X6XR Q _ ^ W Q Q T f z.OXOX.XoXS.XXI.U.XX/.b.*XP.H.M.C.L j E +.m =               8 _ ^ ^ Q Q Q E Z 6X6X6X6X6X6X",
"6X6X6X6X6X6X6X6X6XR 2.-XQ._ i z.*X.XE.}.n.OXU.U.$X{.M.XXJ.Z.M.B.5.y X Q } -               9 >.-X~.' 6X6X6X6X6X6X6X6X6X6X",
"6X6X6X6X6X6X6X6X6X] 5X4X>X..2 k.XXE..X[.x.OX[.T.XX}.N.E.L.Z.M.B.H a R q *.m               Q 5XQ.2.} 6X6X6X6X6X6X6X6X6X6X",
"6X6X6X6X6X6X6X6X6XQ _.;X)...i j.XX|..X+XV..X[.[.XX{.M.E.U.J.J.L.A ~ _ o 7 m               ^ 1X:.Q.o.6X6X6X6X6X6X6X6X6X6X",
"6X6X6X6X6X6X6X6X6X! ,.).'...i c.OX|..X+XZ.XXT..XoX/.n.*XL.Z.C.L.z w 9 @ 7 e               Q ;X-.2.o.6X6X6X6X6X6X6X6X6X6X",
"6X6X6X6X6X6X6X6X6XQ :.)._.] i c.OX|.E.+XZ.E.U.|.XXA.M.=XP.J.M.L.l 4 ' ^ U $               E -X..%.} 6X6X6X6X6X6X6X6X6X6X",
"6X6X6X6X6X6X6X6X6X^ 2.:.>.] i c.XXT.|.}.l.XXU..X&X}.J.OXL.Z.H.K.A ; U W - %               R _.%.$.] 6X6X6X6X6X6X6X6X6X6X",
"6X6X6X6X6X6X6X6X6XW &...] W f z..XU.E.}.h.OX.X[.*XL.c.*XL.H.M.H.F = + O y y               q -.o.o.' 6X6X6X6X6X6X6X6X6X6X",
"6X6X6X6X6X6XY T Q ^ ' ] Q T g z.OXT..X Xn.$X[..X*XZ.h.*XJ.H.H.C.l y u y a -               8 ] ] { ' W ^ Q W 6X6X6X6X6X6X",
"6X6X6X6X6X6XW 2.,X2X,X2X,X#.2 c.OXU..X XC.#XU..XOXM.h.OXM.M.n.B.l 3 y r 3 %               E 1X:X`.~.~.-X%.R 6X6X6X6X6X6X",
"6X6X6X6X6X6X/ 2.2.:.2.2.Q.` p c.XXU.E.U.l.$XU..XOXH.l..XM.n.b.v.l y y y u *               ^ _.| %.1.`.:Xo.0 6X6X6X6X6X6X",
"6X6X6X6X6X6X_ 2.2.)._.,.Q.` p c.OXU.U./.p.#XU.E.XXZ.h.E.b.v.d.p.l u s u u %               Q -X} =.:X,X:Xo.T 6X6X6X6X6X6X",
"6X6X6X6X6X6X] _.1.`._.:.:.{ i k.XXP.P.L.0.XXP.T.E.M.i.R.g.p.u.9.k u s u s *               Q 4X:.<.K.!.!.o.R 6X6X6X6X6X6X",
"6X6X6X6X6X6X_ _.Q.Q.).>.3.] i j.XXP.N.S.t.E.P.U.U.n.9.P.i.u.8.8.k y u y y %               ! 1X2.).).>.,.o.W 6X6X6X6X6X6X",
"6X6X6X6X6X6X^ Q.).).).:.:._ f c.#XP.b.C.y.W.P.U.P.b.q.N.y.8.w.6.k u y y y $               W 2X_.2.`.-X2.} Z 6X6X6X6X6X6X",
"6X6X6X6X6X6XW o.:.&.( ' { W f k.E.N.g.C.t.P.f.P.F.b.9.m.r.4.4.J j y y r > %               0 } ..} o.%.[ W q 6X6X6X6X6X6X",
"6X6X6X6X6X6XY R W R ] &.@.W i d.E.N.s.V.t.P.f.m.G.v.L g.4.V B B p 2 y > > % X o X X X X   7 ] @.@.' R 8 7 q 6X6X6X6X6X6X",
"6X6X6X6X6X6X6X6X6X^ _.-X>X@.i d.R.f.u.x.8.N.f.f.D.u.4.r.J B B M > > y > > % o o o o o o   R <X;X;Xo.6X6X6X6X6X6X6X6X6X6X",
"6X6X6X6X6X6X6X6X6X^ -.:._...i k.m.s.e.k.6.f.e.e.u.e.J r.B M M M 2 y 2 * + X     o o   X   _ <X%.:...6X6X6X6X6X6X6X6X6X6X",
"6X6X6X6X6X6X6X6X6X^ ).3.Q...i 0.f.8.8.6.V s.w.w.r.w.J r.B M M a * + . o 6X6X6X6Xo o   X   ^ >X-.~...6X6X6X6X6X6X6X6X6X6X",
"6X6X6X6X6X6X6X6X6X^ `.:.Q...i q.s.6.4.6.C r.4.r.r.u.J V r ; $ 6X6X6X6X6X6X6X6X6X6X6X6X6X6X! :X-.Q.&.6X6X6X6X6X6X6X6X6X6X",
"6X6X6X6X6X6X6X6X6X( ~.:.-.' f 7.r.4.B 4.V r.V M d N $ . 6X6X6X6X6X6X6X6X6X6X6X6X6X6X6X6X6XR 2.>.`.*.6X6X6X6X6X6X6X6X6X6X",
"6X6X6X6X6X6X6X6X6X^ Q.&.;._ j 7.e.4.M M n s - $   6X6X6X6X6X6X6X6X6X6X6X6X6X6X6X6X6X6X6X6XR Q.Q.>X-.6X6X6X6X6X6X6X6X6X6X",
"6X6X6X6X6X6X6X6X6XE ] ] ' T # c h s - X X 6X6X6X6X6X6X6X6X6X6X6X6X6X6X6X6X6X6X6X6X6X6X6X6Xq ] ] ..' 6X6X6X6X6X6X6X6X6X6X",
"6X6X6X6X6X6X6X6X6Xq 0 Z 0 0 X 2 > # 6X6X6X6X6X6X6X6X6X6X6X6X6X6X6X6X6X6X6X6X6X6X6X6X6X6X6X8 9 q Z R 6X6X6X6X6X6X6X6X6X6X",
"6X6X6X6X6X6X6X6X6X6X6X6X6X6X6X6X6X6X6X6X6X6X6X6X6X6X6X6X6X6X6X6X6X6X6X6X6X6X6X6X6X6X6X6X6X6X6X6X6X6X6X6X6X6X6X6X6X6X6X6X",
"6X6X6X6X6X6X6X6X6X6X6X6X6X6X6X6X6X6X6X6X6X6X6X6X6X6X6X6X6X6X6X6X6X6X6X6X6X6X6X6X6X6X6X6X6X6X6X6X6X6X6X6X6X6X6X6X6X6X6X6X"
};
