/* XPM */
static char *exit4_11678271279[] = {
/* columns rows colors chars-per-pixel */
"60 60 230 2 ",
"   c #000000",
".  c #080604",
"X  c #0B0906",
"o  c #0C0B0B",
"O  c #120F0B",
"+  c #190F0D",
"@  c #14100C",
"#  c #1A140D",
"$  c #1B1710",
"%  c #171817",
"&  c #2B1E0F",
"*  c #241D13",
"=  c #281F14",
"-  c #2D2214",
";  c #28241C",
":  c #312517",
">  c #3A2A17",
",  c #3B2C1A",
"<  c #262826",
"1  c #2D302D",
"2  c #383228",
"3  c #333533",
"4  c #393C39",
"5  c #412E18",
"6  c #44311B",
"7  c #49361D",
"8  c #53361D",
"9  c #493823",
"0  c #533D23",
"q  c #543E28",
"w  c #7C480E",
"e  c #7C4913",
"r  c #5C4224",
"t  c #48463C",
"y  c #584B37",
"u  c #514B3E",
"i  c #5B503F",
"p  c #614525",
"a  c #684A27",
"s  c #63492B",
"d  c #6A4E2F",
"f  c #75532D",
"g  c #7B572D",
"h  c #6F583A",
"j  c #775633",
"k  c #7D5A33",
"l  c #7B613F",
"z  c #424644",
"x  c #454845",
"c  c #4C4C44",
"v  c #474B48",
"b  c #4A4E4A",
"n  c #524E43",
"m  c #4D514D",
"M  c #555043",
"N  c #5A5345",
"B  c #54544C",
"V  c #5B564A",
"C  c #5E594C",
"Z  c #4F5451",
"A  c #525652",
"S  c #555A55",
"D  c #5B5C54",
"F  c #565D59",
"G  c #5A5E59",
"H  c #665A46",
"J  c #625D4F",
"K  c #755F41",
"L  c #645E50",
"P  c #5E625C",
"I  c #6C614E",
"U  c #7B6242",
"Y  c #76654A",
"T  c #646154",
"R  c #62655E",
"E  c #68685D",
"W  c #776A55",
"Q  c #7F7055",
"!  c #5F6561",
"~  c #626660",
"^  c #656A62",
"/  c #6A6D65",
"(  c #696E68",
")  c #726F61",
"_  c #6D7167",
"`  c #6E736B",
"'  c #777262",
"]  c #72766C",
"[  c #75796E",
"{  c #767A72",
"}  c #7A7D73",
"|  c #787F78",
" . c #864F14",
".. c #8B5C26",
"X. c #935F26",
"o. c #835D32",
"O. c #95622C",
"+. c #9B652C",
"@. c #8C6335",
"#. c #8D6639",
"$. c #8B683C",
"%. c #9D6C35",
"&. c #946B3C",
"*. c #986A38",
"=. c #9F7237",
"-. c #9D713B",
";. c #A2672B",
":. c #A36A2C",
">. c #A56E31",
",. c #A57335",
"<. c #AB7635",
"1. c #A5743A",
"2. c #A9763A",
"3. c #A97A3B",
"4. c #AC7A3D",
"5. c #B67835",
"6. c #B37C3D",
"7. c #BA7D3C",
"8. c #856844",
"9. c #8E6A42",
"0. c #936D42",
"q. c #89704E",
"w. c #9B7243",
"e. c #98754A",
"r. c #8C7858",
"t. c #A37744",
"y. c #AC7B41",
"u. c #A97A45",
"i. c #A47A4A",
"p. c #B47E42",
"a. c #B37946",
"s. c #BA7E42",
"d. c #837D6C",
"f. c #7D8176",
"g. c #7E8379",
"h. c #AB813E",
"j. c #B5813E",
"k. c #BA813E",
"l. c #BD8B3D",
"z. c #AD8242",
"x. c #AB834A",
"c. c #B58244",
"v. c #BA8344",
"b. c #B48B45",
"n. c #BE8946",
"m. c #B58349",
"M. c #BC8649",
"N. c #B58C4A",
"B. c #BD894C",
"V. c #AC8453",
"C. c #A98454",
"Z. c #B58953",
"A. c #BD8C52",
"S. c #BD9358",
"D. c #928162",
"F. c #818376",
"G. c #82857B",
"H. c #85897E",
"J. c #898B7D",
"K. c #B48F69",
"L. c #C28543",
"P. c #C18845",
"I. c #C1864A",
"U. c #C28B4C",
"Y. c #C88C4B",
"T. c #C7924D",
"R. c #C38D51",
"E. c #C88C56",
"W. c #C38E5C",
"Q. c #C59254",
"!. c #CA9355",
"~. c #CB9B57",
"^. c #C4935C",
"/. c #CB965A",
"(. c #C59A5D",
"). c #CC995C",
"_. c #D49A56",
"`. c #D29C5D",
"'. c #C7A05D",
"]. c #DAA45C",
"[. c #C29561",
"{. c #C69B63",
"}. c #CB9C64",
"|. c #C3956B",
" X c #CA9A6A",
".X c #D39E61",
"XX c #DB9F63",
"oX c #D49F6D",
"OX c #CDA364",
"+X c #CDA16B",
"@X c #CDA96F",
"#X c #D3A264",
"$X c #DAA466",
"%X c #D8AA66",
"&X c #D4A46B",
"*X c #DBA66B",
"=X c #DDAA6B",
"-X c #DFB26E",
";X c #CBA573",
":X c #D4A572",
">X c #DAA872",
",X c #DEB379",
"<X c #E1A868",
"1X c #E2AB6C",
"2X c #E9B36C",
"3X c #E2AC73",
"4X c #E5B173",
"5X c #E9B475",
"6X c #E4B27C",
"7X c #EAB479",
"8X c #E9B979",
"9X c #F2BA7A",
"0X c #808680",
"qX c #858B81",
"wX c #898D83",
"eX c #8D9185",
"rX c #8D938A",
"tX c #919386",
"yX c #92978B",
"uX c #949A8F",
"iX c #969B91",
"pX c #989F93",
"aX c #A49981",
"sX c #9DA197",
"dX c #D9B889",
"fX c #E6BA85",
"gX c #EDC488",
"hX c #F3C184",
"jX c #F6C99A",
"kX c #FFD5A4",
/* pixels */
";Xu./..XW.^.W.E.A.B.B.B.W.^.^.Q.).W.A.A.R.A.M.A.S.A.A.A.A.R.A.Z.a.3X:XoX3XoX&X*X:XoXoXfXfXjXkXW.u.}.(.A.'.(.Q.(.{.[.|.K.",
"K.1.a.v.a.p.y.a.y.c.m.m.s.M.M.M.m.p.p.y.4.2.2.p.y.y.y.y.y.y.4.4.+.)..XR./..X$X%X`.`.XX).~.`.4X_.O.m.N.c.j.v.M.c.b.c.M.V.",
"OXy.M.M.j.4.p.a.c.M.T.U.M.M.M.U.U.U.M.B.v.c.c.v.s.k d.' ' ) ' ' ' d.e.$XXX<X<X].1X$X*X*X3X$X_.$Xt.a.A.v.4.s.M.R.l.l.Y.N.",
"OXz.Y.Y.v.j.v.s.j.M.T.U.v.c.n.B.n.U.U.U.U.M.j.j.1.V uX0XqXqXqXwXeXeXT &X5X<X<X2X$X<X`.`.<X_.!.9X,.s.M.v.s.s.E.!.U.I.R.A.",
"(.6.I.Y.l.j.j.k.6.v.v.k.k.6.j.v.U.P.n.P.T.U.k.k.U wXrXqXwXH.qXd.{ | { K s./.!..X2X2X]._._._.].T...M.v.6.v.I.U.I.R.M.I.V.",
"(.<.I.Y.v.j.v.7.k.v.k.k.k.j.v.v.U.U.k.6.P.U.v.6.U { | d.} } 0X` G ] R j +.+.O.%.5._.5X9X].<X2X:.X.R.n.j.M.k.I.E.B.M.s.x.",
"(.1.L.L.j.p.v.7.s.a.s.s.v.p.s.v.T.E.M.6.U.U.v.v.#.L H.{ } } H.] ~ { N R.W./.R.R.>.O.O.u.R.4XW.e M.E.b.j.k.6.v.U.c.6.j.h.",
"(.1.s.7.6.6.v.s.s.M.M.U.U.I.I.R.I.R.I.s.I.I.a.s.c.N H.[ } { g.] ` ( n I.U.U.U.U.{.A.u.X.....w 1.}.A.j.j.j.n.I.M.c.c.b.z.",
"(.4.c.k.k.k.c.c.M.5.M.Y.M.B.Q.n.v.s.v.v.U.U.c.U W B [ } } ] f.{ [ ] b ) K m.U.B.v.v.Q.Q.R.v.M.R.s.c.c.v.M.R.U.c.c.6.v.y.",
"(.1.p.c.k.v.v.c.7.v.v.v.T.U.c.Y D %.6.c.&.U ( eX[ x ^ } ( ( F.{ f.^ F rXJ.f.M $.p.p.D.T c.M.M.n.v.s.c.U.U.M.U.Q.h.v.v.c.",
"(.1.p.k.P.U.n.c.6.k.6.v.T.B.Q g.rXn i.q.] eXg.` ] z F f.] { [ { H.P ( H.( } rX| h l yXuX^ t.c.4.p.v.p.p.M.n.M.4.B.U.p.x.",
"(.2.v.v.U.Y.R.m.P.j.6.n.B.Q qXg.f.{ A ` pX{ [ [ { Z G eXG.H.H.} g.P ` g._ ^ { g.A J.eXJ.eXT 3.c.B.U.U.`.1X1X1XXXj.n.B.y.",
"(.4.c.v.P.Y.B.c.n.6.v.y.W g.f.` { } { F { G.} g.qX^ P G.H.0XqXH.f.^ qXH.{ ] [ b ~ uXJ.qXF.g.T z.M.p.n.=X3X$X=X4XS.6.p.z.",
").2.6.k.v.n.M.p.6.4.p.C.P H.` [ { { G.P m H.qX[ t < < 3 3 3 3 3 3 < t E J.J./ S eXG.G.g.J.eX` 1.n.v./.$X).!.`.#X-Xn.p.m.",
"^.2.p.6.k.v.n.M.v.n.M.Q.w.T f.f.] ] { g.~ R M ; @                   X @ 2 D D H.eXG.f.} rX_ l c.U.c.XX$X/.$X$X_.%X<XU.m.",
"{.4.v.p.k.n.U.R.U.B./.4.c.I S { { [ g.wXD # X                             @ 3 uXJ.} wXJ.P C 1.c.R.>./.5X<X$X$X=X-X%X>.B.",
"}.c.v.U.Y.n.Y.M.R.B.R.4.e.{ ^ B g.[ g.m X                                   . 3 _ { H.A P eXy v.n.v.6.v._.#X$X5X`.:.c.A.",
"OXc.v.U.Y.n.U.A.A.W.,.S.g.rXH.S S f.x .                                         < ~ b ~ J.wX] r M.B.p.2.6.p.p.M.1.s.!.z.",
"#Xy.v.M.n.v.M.B.A.y.Q.H rX{ } } S 4 .                                             % ( yXg.H.J.P ,.M.U.U.Q.M.6.2.v.I.v.3.",
"^.1.c.U.U.v.M.B.m.c.K.( J.[ f.eXR X                                               . t F.H.H.J.F.s s.p.v.R.U.c.v.c.v.6.z.",
"(.2.R.Q.I.v.p.m.4.-XW A ^ [ G.g.-                                                   + T eXf._ F v c.c.v.U.M.c.v.4.v.M.v.",
":Xc.Y.M.v.v.p.v.#X=XE J.P R J.S X                                                     ; ] R P / ! 0.Q.Q.R.B.v.6.n.s.M.N.",
"oXy.c.6.7.U.v.p.hXV.} } F.f./ ;                                                       X t ` g.f.] H M.6.p.p.c.v.4.s.U.N.",
" Xu.v.p.M.I.2.O.8Xq.J.] ] F.D #                                                       . 3 H.] [ J.H 6.M.U.U.U.U.M.L.M.N.",
"oXc.6.v.6.M.R.w <.K wX} [ F.S                                                           1 f.} { eXJ B.M.B.n.R.B.n.T.Y.N.",
"}.m.U.M.5.v.R.,. .n R D D R %                                                           . B R P E x i.A.Q.v.c.p.n.I.n.A.",
"+Xm.!.n.v.6.8.r.r.0X| { g.!                                                               4 { ` ^ _ aXK.r.8.c.v.j.6.c.b.",
"}.4.U.M.v.v.c R | wXd.qXpX(                                                               4 rXeXqXuXf.} R x n.M.n.c.s.z.",
"(.<.c.k.7.j.I g.{ { ^ R ] P .                                                             z G.{ G.G.[ } R n s.M.b.5.m.x.",
"^.1.j.k.6.7.E qX{ f.wXF.[ ! .                                                             b wX( } G.} G.R N =X3X~.v.s.z.",
"(.2.v.k.j.k.J } } G.G.qXF.G .                                                             B yX] } | } g.R H $X$X8X$XQ.t.",
").4.n.k.k.v.V ' { [ ] { G.P .                                                             v iX[ { F.{ [ D N /./.~.$X6XOX",
"fX(.3.R.v.L.N / ( E ^ ( } P .                                                             x wX` ( ] ^ ~ A N _.XX/./.!.=X",
"gXOXA.v.U.U.u m m m v b b v o                                                             3 Z m b b b v x n /.XX%X$X`.OX",
"fXOX#X2.v.v.1.-.&.c f.qX} S .                                                             4 { qXG.A 8.i.i.[.1XXX1X<X*X'.",
"6XOX4Xn.6.6.b.c.c.D sXiXeX^ .                                                             b sXf.| F i.M.6.v.*X=X$X<X3X%X",
"8X~.1X.X6.6.j.b.p.B H.wXG.R .                                                             m uX] f.~ e.c.).c.m.*X%XXX*X%X",
"8XT..X<Xn.c.c.z.2.M [ f.J.^                                                               b wX_ { R 0.m.4X*Xp.A.4X3X%X%X",
"8X!.~.<X*Xp.M.z.p.B ] F.G.P .                                                             x qXP ^ G e.m.*X6X.Xy..X4X$XOX",
"%X~.!.`.4X2.z.z.M.B } [ [ P .                                                             z G.^ ! S e.4.&XhXhXc.4.=X`.'.",
"8X/.7X7X;.>.M.v.U.n ( P F b o                                                             4 ` ^ ~ A i.p.4.p.2.;.4.!.=X(.",
">XA.U.s.;.M.Y H I Z A S b v o                                                             3 S S F Z V I H K <.c.U.U.~.OX",
"m.%.+.2.s.!.n { rXrXtXtXiX(                                                               x uX0XH.d.| H.~ c M.R.n.s.4.1.",
"&XB.R.!.E.R.J | } ] { f.f.F .                                                             b G.S / [ H.J.P n v.6.4.U.R.b.",
"(.M.R.M.v.Y.L { [ G.G.[ } G .                                                             b qXG / J.wXF.P M 4.M.v.R.R.N.",
"OXm.B.R.U.M.L qX} H.G.] ] P .                                                             m pX] } F.d.G.R N v.!.Q.U.U.b.",
"&X4.p.R.E.s.L G.} F.G.[ { F .                                                             v uX} F.F.[ [ ^ V M.v.B.I.R.N.",
"OX1.p.s.v.R.L } F.F.G.] [ F .                                                             x rXH.} G.qX} G M n.Q.B.I.R.N.",
" Xc.5.5.v.}.c ^ ] ^ S A S m o                                           .   .   .   . .   3 P P P P ( D z z U.B.p.s.U.N.",
"+Xc.L.L.n.u.K W W x S ( R A o                         . . X o X o o o X o o O O O # @ # @ 3 S P ! m N y i U U.v.c.v.U.B.",
" Xc.I.5.R.-.Q.=X!.B G.wXwXE .                   X o o o o o o O $ $ $ $ * * - - - - - - & x yXeXeXR w.c.v.n.M.c.v.v.U.N.",
"+Xm.L.5.R.%.B.*X`.B ` ` G.^             . . o o o o o o O % * = - : , , > 5 7 6 6 6 6 7 > B yXE ] P 9.n.n.U.v.c.c.s.M.v.",
"{.<.7.k.R.%.2.9XR.C f.{ { ~ .       . X o o O o o + # * : : > 7 q r r r a p a r r r r r 0 A rX] f.P 9.B.R.B.v.p.c.s.p.z.",
"^.<.7.L.A.x.+.~.3XD J.] f.~ .   . . o o o @ @ * - , 7 0 0 r p a d k f f j j f f g f f g a n G._ f.( 9.U.R.n.v.p.c.s.p.h.",
" Xp.k.7.m.A.%.;.1.D f.] [ G o   o O o @ $ : , 9 0 r s f g k o.o.o.0.o.g o.o.@.*.*.&.@.@.o.u } [ J.( $.M.U.M.M.B.B.s.v.z.",
"[.2.7.7.c.x.v.k.%.V { ( ( F % o % O % - , 6 9 r r a k $.@.&.&.@.i.o.o.@.@.@.i.u.u.t.u.3.*.c } G.eX_ $.M.U.B.U.!.Q.I.M.b.",
"(.2.v.7.k.I.v.M.U.z S A A x % O O O @ ; , q s j k o.#.-.w.w.i.e.w.o.;XdX;XC.q.8.*.u.Z.c.1.4 F S P A 8.R.v.M.>X7X1XB.4.R.",
"}.2.6.6.v.Y.U.B.I.N u n u c 9 2 9 q 8 r a k $.&.&.0.0.t.i.V.V.V.@.Z.+XA.{.8X+X+X[.u.%.y.Z.i t u n N -.U.T.v.R._.=X*X2.R.",
"S.%.y.6.p.M.m.m.s.2.2.4.y.p.m.v.6.2.,.<.1.<.6.6.2.2.4.4.p.m.m.y.=.,X^.A.~./.%X4XgX,X}.u.w.a.A.M.2.4.2.4.c.p.2.p.S.m.O.m.",
":XZ.}.).).}.^. XW.^.^.W.A.^.}.{.[.[.^.W.^.W.^.^.^.^.^.W.[.}.^.A.Z.fX&X,X>X&X*X>X@XdXjXjX:XS.S.(.}.[.W.^.}.oX X}.A.a.).{."
};
