/* XPM */
static char *result[] = {
/* columns rows colors chars-per-pixel */
"60 64 217 2 ",
"   c #1B1E1D",
".  c #391D08",
"X  c #20211D",
"o  c #1F2223",
"O  c #282A28",
"+  c #38332B",
"@  c #2C3333",
"#  c #3B3A34",
"$  c #333A39",
"%  c #3A3E3C",
"&  c #343735",
"*  c #431F0A",
"=  c #492A17",
"-  c #542E1A",
";  c #582D18",
":  c #5B311B",
">  c #56311B",
",  c #63341D",
"<  c #6B361A",
"1  c #69391A",
"2  c #743C1D",
"3  c #573423",
"4  c #453E38",
"5  c #653522",
"6  c #6B3723",
"7  c #6D3923",
"8  c #6A3C27",
"9  c #743C25",
"0  c #7A3E29",
"q  c #7A3D27",
"w  c #3C413F",
"e  c #78451E",
"r  c #46453D",
"t  c #594538",
"y  c #6D4427",
"u  c #7C4326",
"i  c #754A25",
"p  c #7A4D26",
"a  c #7D4129",
"s  c #774728",
"d  c #7D5129",
"f  c #624837",
"g  c #333E40",
"h  c #3E4341",
"j  c #3C4747",
"k  c #424643",
"l  c #444946",
"z  c #4D4C45",
"x  c #454B4A",
"c  c #4A4E4A",
"v  c #424748",
"b  c #4C514D",
"n  c #47514E",
"m  c #53544E",
"M  c #5B594F",
"N  c #57534A",
"B  c #4C5552",
"V  c #4D5856",
"C  c #4E5A59",
"Z  c #525652",
"A  c #545955",
"S  c #5B5C55",
"D  c #555D59",
"F  c #5A5E59",
"G  c #554E44",
"H  c #6A5343",
"J  c #795A49",
"K  c #5C625C",
"L  c #56615E",
"P  c #61655E",
"I  c #66695F",
"U  c #4B5660",
"Y  c #5A6562",
"T  c #5C6965",
"R  c #626661",
"E  c #656A63",
"W  c #696D65",
"Q  c #666E69",
"!  c #6B6E6B",
"~  c #6D726B",
"^  c #69726A",
"/  c #72766C",
"(  c #75796E",
")  c #787B6F",
"_  c #6C7A75",
"`  c #6B7671",
"'  c #757B72",
"]  c #7A7E73",
"[  c #747A76",
"{  c #834525",
"}  c #83442C",
"|  c #89462D",
" . c #844A2A",
".. c #8C4A2C",
"X. c #884B22",
"o. c #934D2F",
"O. c #8D532D",
"+. c #8C5528",
"@. c #95542C",
"#. c #99542E",
"$. c #925B2E",
"%. c #9A5C2C",
"&. c #8C4631",
"*. c #934D31",
"=. c #974D36",
"-. c #945431",
";. c #9D5334",
":. c #9B5B33",
">. c #995D35",
",. c #8B5735",
"<. c #A1552E",
"1. c #A35534",
"2. c #A35B35",
"3. c #AB5D3A",
"4. c #A75A38",
"5. c #B35C38",
"6. c #9B622A",
"7. c #9D6433",
"8. c #9F6932",
"9. c #A96335",
"0. c #A46B35",
"q. c #AD6D31",
"w. c #AD643B",
"e. c #AE6A3A",
"r. c #A46136",
"t. c #B3643D",
"y. c #B46B3E",
"u. c #B96B3E",
"i. c #B56937",
"p. c #AC7237",
"a. c #AA7239",
"s. c #B3743A",
"d. c #BA733E",
"f. c #B57A3B",
"g. c #B97C3D",
"h. c #B87534",
"j. c #AD6927",
"k. c #C67A36",
"l. c #AD5842",
"z. c #B45D43",
"x. c #886349",
"c. c #B66A41",
"v. c #BB6C42",
"b. c #BC6444",
"n. c #BD7342",
"m. c #BE7A41",
"M. c #BE764B",
"N. c #A36D40",
"B. c #C46943",
"V. c #C27443",
"C. c #CA7646",
"Z. c #C57A44",
"A. c #CA7D46",
"S. c #CA7549",
"D. c #CD7E49",
"F. c #D37C45",
"G. c #D27D4B",
"H. c #D07246",
"J. c #7D8176",
"K. c #75807A",
"L. c #7D837A",
"P. c #BF813F",
"I. c #BE8340",
"U. c #818376",
"Y. c #82867B",
"T. c #85897E",
"R. c #898B7D",
"E. c #C48643",
"W. c #CC8147",
"Q. c #CE8149",
"!. c #C98A45",
"~. c #D68245",
"^. c #D98447",
"/. c #D2844B",
"(. c #D9854E",
"). c #D5894C",
"_. c #DA8B4E",
"`. c #DA934D",
"'. c #D5924A",
"]. c #D98650",
"[. c #DD8D51",
"{. c #D78550",
"}. c #DE9351",
"|. c #DF9952",
" X c #C0885B",
".X c #E2964F",
"XX c #E28E52",
"oX c #E88F52",
"OX c #E49454",
"+X c #E89355",
"@X c #E49A53",
"#X c #EC9B5A",
"$X c #E99957",
"%X c #F29953",
"&X c #E1884E",
"*X c #EDA058",
"=X c #F1A25E",
"-X c #7C8681",
";X c #868C83",
":X c #898D83",
">X c #848D8A",
",X c #808680",
"<X c #8D9185",
"1X c #8D938A",
"2X c #87928B",
"3X c #92968A",
"4X c #97998D",
"5X c #8D9596",
"6X c #969C92",
"7X c #919496",
"8X c #968B85",
"9X c #A19B96",
"0X c #9CA197",
"qX c #979DA0",
"wX c #B9B6B7",
"eX c #CDC1BA",
"rX c None",
/* pixels */
"rXrXrXrXrXrXrXrXrXrXrXrXrXrXrXrXrXrXrXrXrXrXrXrXrXrXrXrXrXrXrXrXrXrXrXrXrXrXrXrXrXrXrXrXrXrXrXrXrXrXrXrXrXrXrXrXrXrXrXrX",
"rXrXrXrXrXrXrXrXrXrXrXrXrXrXrXrXrXrXrXrXrXrXrXrXrXrXrXrXrXrXrXrXrXrXrXrXrXrXrXrXrXrXrXrXrXrXrXrXrXrXrXrXrXrXrXrXrXrXrXrX",
"rXrXrXrXrXrXrXrXrXrXrXrXrXrXrXrXrXrXrXrXrXrXrXrXrXrXrXrXrXrXrXrXrXrXrXrXrXrXrXrXrXrXrXrXrXrXrXrXrXrXrXrXrXrXrXrXrXrXrXrX",
"rXrXrXrXrXrXrXrXrXrXrXrXrXrXrXrXrXrXrXrXrXrXrXrXrXrXrXrXrXrXrXrXrXrXrXrXrXrXrXrXrXrXrXrXrXrXrXrXrXrXrXrXrXrXrXrXrXrXrXrX",
"rXrXrXrXrXrXrXrXrXrXrXrXrXrXrXrXrXrXrXrXrXrXrXrXrXrX` Q Q W Q ! ~ ` rXrXrXrXrXrXrXrXrXrXrXrXrXrXrXrXrXrXrXrXrXrXrXrXrXrX",
"rXrXrXrXrXrXrXrXrXrXrXrXrXrXrXrXrXrXrXrXrXrXrXrXrXZ 6X;X;X;X:X:X1X1XZ rXrXrXrXrXrXrXrXrXrXrXrXrXrXrXrXrXrXrXrXrXrXrXrXrX",
"rXrXrXrXrXrXrXrXrXrXrXrXrXrXrXrXrXrXrXrXrXrXrXrXh :X<XT.;XY.T.] ' ' ' Z rXrXrXrXrXrXrXrXrXrXrXrXrXrXrXrXrXrXrXrXrXrXrXrX",
"rXrXrXrXrXrXrXrXrXrXrXrXrXrXrXrXrXrXrXrXrXrXrXrXv ' J.L.] ] Y./ K / K rXrXrXrXrXrXrXrXrXrXrXrXrXrXrXrXrXrXrXrXrXrXrXrXrX",
"rXrXrXrXrXrXrXrXrXrXrXrXrXrXrXrXrXrXrXrXrXrXrXrXrXA T.' ] ] Y.` R ( l rXrXrXrXrXrXrXrXrXrXrXrXrXrXrXrXrXrXrXrXrXrXrXrXrX",
"rXrXrXrXrXrXrXrXrXrXrXrXrXrXrXrXrXrXrXrXrXrXrXrXrXk Y.) ] ' L.[ ! ~ k rXrXrXrXrXrXrXrXrXrXrXrXrXrXrXrXrXrXrXrXrXrXrXrXrX",
"rXrXrXrXrXrXrXrXrXrXrXrXrXrXrXrXrXrXrXrXrXrXrXk F c ( ] ] ( -X-X' / c W w rXrXrXrXrXrXrXrXrXrXrXrXrXrXrXrXrXrXrXrXrXrXrX",
"rXrXrXrXrXrXrXrXrXrXrXrXrXrXrXZ K rXrXrXrX$ ~ <X' l E ' W W x.[ x.E D 1XT.L.l rXrXrXJ.K rXrXrXrXrXrXrXrXrXrXrXrXrXrXrXrX",
"rXrXrXrXrXrXrXrXrXrXrXrXrXrXF L.<Xz rXrX' <XY.^ ( k A U.` [ ' ( -XQ Q ;XW ' 1XL.O w 3X6XW rXrXrXrXrXrXrXrXrXrXrXrXrXrXrX",
"rXrXrXrXrXrXrXrXrXrXrXrXrXK ;XL.J.K.Z ~ 6X' ( ( ' B K <X,X,XY.U.-XT ~ L.~ W ( L.A T.<XR.<XF rXrXrXrXrXrXrXrXrXrXrXrXrXrX",
"rXrXrXrXrXrXrXrXrXrXrXrXZ L.) ( ( ' ' Z ` T.K.L.L.K V ` _ K._ _ ` C -XL.) ` ) z E 4XR.;XU.U.K rXrXrXrXrXrXrXrXrXrXrXrXrX",
"rXrXrXrXrXrXrXrXrXrXrXrXK T./ ( ' ] Y.I V L.L.W r 4 t J J H x.J H t G F K.L.W A <XU.U.Y.;X<XW rXrXrXrXrXrXrXrXrXrXrXrXrX",
"rXrXrXrXrXrXrXrXrXrXrXrXrXm ] J./ / ( T.Y V G 8 < ;.;.4.<.X.B.5.1.4.{ 9 f A n T.<XU.J.J.<XQ rXrXrXrXrXrXrXrXrXrXrXrXrXrX",
"rXrXrXrXrXrXrXrXrXrXrXrXrX% A ' ] ( L.L.b = X.2.>.4.w.w.4.@.S.c.u.c.c.u.#.; 4 ;XT.J.:XT.K Z rXrXrXrXrXrXrXrXrXrXrXrXrXrX",
"rXrXrXrXrXrXrXrXrXrXrXrXrXL.W Z L.) K.l = u v.w.7.c.c.c.e.7.{.S.V.V.c.M.:.:...# Y ] Y.b I <XO rXrXrXrXrXrXrXrXrXrXrXrXrX",
"rXrXrXrXrXrXrXrXrXrXrXrX] 1XT.V Z ` k - :.O.e.v.y.M.A.D.n.0.+X{.Q.D.S.{.7.4.A.9 + D x W ;XT./   rXrXrXrXrXrXrXrXrXrXrXrX",
"rXrXrXrXrXrXrXrXrXrXrX@ <X' ) J.n & 3 :.9.O.n.Z.Z.D.Q.Q.m.s.#X)././.Q.XXa.w.D.c.{ O K 3XY.;X<XK rXrXrXrXrXrXrXrXrXrXrXrX",
"rXrXrXrXrXrXrXrXrXrXrXW R.( J.<XA = 1.e.e.>.D./.Q.Q.{.).Z.m.=X_.[./.Q.+Xn.c._.M.V.u r ' T.Y.Y.U.X rXrXrXrXrXrXrXrXrXrXrX",
"rXrXrXrXrXrXrXrXrXrXw Z I ( Y._ = @.w.c.m.7.Q.{.!.)._.[.Z.f.=X[._.)./.}.m.n.OXV.V.V.< S ;XJ./ A v rXrXrXrXrXrXrXrXrXrXrX",
"rXrXrXrXrXrXrXrXrXrXK ;XK K L.A 1 w.c.m.Z.0.Q.)./._._.[.E.m.=X).)./.).].m.m.+XD.Z.n.i.f Y I K W R rXrXrXrXrXrXrXrXrXrXrX",
"rXrXrXrXrXrXrXrXrXrX] J.J.J.L > %.c.M.A.W.0.)./.).`.).[.A.m.#X/.Q.Q./._.m.s.@XQ.Z.m.V.u % / U.] ( h rXrXrXrXrXrXrXrXrXrX",
"rXrXrXrXrXrXrXrXrXrXR./ ~ K.A 2 e.v.D././.s.`.).[.}./.[.Z.f.*XQ./././._.m.f.|.Q.W.Z.m.#.G ] / ( R.z rXrXrXrXrXrXrXrXrXrX",
"rXrXrXrXrXrXrXrXrXX <X] ) ' S @.d.Z.D.Q./.p.|./.[.XX/./.Z.f.*XQ.Q./.Q.].k.f.|.A.W.Z.Z.i.J Q ] ( <Xm rXrXrXrXrXrXrXrXrXrX",
"rXrXrXrXrXrXrXrXrX& P S S A f i.d.Z././.).s.`./._._././.Z.f.#X/.Q.Q.).}.m.f.OXQ.Q.A.d.Z.,.c K K I l rXrXrXrXrXrXrXrXrXrX",
"rXrXrXrXrXrXrXF 3XY.' [ L.C : A.Q./.).[._.s.|.].`.).Q.).Z.f.#X].)./._.OXm.m.@X).).Q.W./.O.# ` ^ I ~ 0X4XE rXrXrXrXrXrXrX",
"rXrXrXrXrXrXx E ] ;XL.;X6XY y ^./.Q.)._.[.f.$X/.).).Q.).Q.f.OX_.`._._.OXI.m.#X).Q.).).Q.@.l ,X<X:X4XJ.' P h rXrXrXrXrXrX",
"rXrXrXrXrXrXA L.] ' E P ( V p ^.D./.).[.[.s.|.{./.)./.).A.I.@X[.`._._.OXM.E.#X/.).).).(.q.G [ ' U.Y./ J.P h rXrXrXrXrXrX",
"rXrXrXrXrXrXK ;X' L.:XJ.( A i ~././._.).(.s.|.[.Q./.).Q.Z.f.|./.OX_.).[.d.E.#X/.Q././.[.q.M -X~ J.L.] U.P h rXrXrXrXrXrX",
"rXrXrXrXrXrXZ ' ] U.U.;XU.B i ~.Q./.[././.s.|.{.Q./.Q./.Z.h.@X/.OX_.^.[.y.E.#XQ./.W./.OXh.M >X/ J.] ] L.P h rXrXrXrXrXrX",
"rXrXrXrXrXrXc ! ' ( / ( Y.C p ~.A./.]././.p.|.{.Q.Q././.Z.f.*XQ._.[./.[.n.E.#XD.Q.Q.Q.OXh.N 2X' ( J.' ' F h rXrXrXrXrXrX",
"rXrXrXrXrXrXx ! ! R R W ] V p ~.Z.Q.]./.].s.@X{.Q.Q.Q./.m.f.#X/._.[./.[.n.E.$XA.Q./.F.@Xg.G L.~ W ~ E R Z r rXrXrXrXrXrX",
"rXrXrXrXrXrXv B Z c x c x j p ^./.Q./././.s.|./.W.W.Q./.m.0.#XG./.).).].y.E.OXA.W./.A.@Xf.& n c b c c c l w rXrXrXrXrXrX",
"rXrXrXrXrXrXrXrXrXk ] ;X] n i F.^./././.G.0.}.Q.Z.Z.Q.Q.n.a.#XD.Q.~./.(.y.f.@XA.A.Q.A.OXf.# ^ ;XL.m rXrXrXrXrXrXrXrXrXrX",
"rXrXrXrXrXrXrXrXrXA 6X6X<XL i ^.D.Q./.D.^.7.)./.D.Q.Q./.m.0.OXD.D./.D.(.w.f.OXZ.A.F.A.XXq.c 6XL.L.F rXrXrXrXrXrXrXrXrXrX",
"rXrXrXrXrXrXrXrXrXn ;X<XU.A i ~./.Q./.Q./.s.'.W.Q.Q.Q./.Z.a.OXA.A.Q./.).y.I._.V.A.C.A.XXq.m 2X/ J.K rXrXrXrXrXrXrXrXrXrX",
"rXrXrXrXrXrXrXrXrXB -Xx.R.D i ^.Q././././.s.`.Q.W.Q.Q.Q.V.g.XXC.W.Q.Q./.y.E.[.k.d.M.M./.h.N L.~ ' I rXrXrXrXrXrXrXrXrXrX",
"rXrXrXrXrXrXrXrXrXc ( U.Y.Z i ).W.Q./././.s._.G.A.W././.V.f.XXS.Q.W.A.^.s.m.oX7.6XwXwX Xj.N L.P W F rXrXrXrXrXrXrXrXrXrX",
"rXrXrXrXrXrXrXrXrXb ] / ( B p /.A.W.A./.A.0.).G.A./././.d.p.OXC.Q.W.D.(.p.f.%X1 @ >XU N.k.z K.I R A rXrXrXrXrXrXrXrXrXrX",
"rXrXrXrXrXrXrXrXrXl W K F j d ^.D.W./.A.Q.8.'././.A.Q.(.v.0.$XD.W./.Q.(.e.f.%Xy v 7XqXx.6.4 Q R R Z rXrXrXrXrXrXrXrXrXrX",
"rXrXrXrXrXrXw k x B Z A c $ d ^.Q.A.W.A./.0.'././.A.Q._.Z.f.$XD.W././.XXy.E.k.8X7Xc qXeXX.& B A D B l b c x rXrXrXrXrXrX",
"rXrXrXrXrXrXl ' <X<X1X<X1XY y ^.D.A.A.D.D.p.}.{./.W./.(.V.s.#XA.W././.[.w.!.q.! x O O qX0 m 2XT.Y.J.U.T.R h rXrXrXrXrXrX",
"rXrXrXrXrXrXc J.J.( ] J.J.B p ~.Q.A.Z.D.G.8.).{.A./.Q./.s.>.$XA.A./.D.(.y.!.i.Z ! v g x., M K.S W ) T.T.K h rXrXrXrXrXrX",
"rXrXrXrXrXrXB [ ' U.U.) ] B i A.D.Q.D.Z.D.$.Q.{.D./.D.(.n.-.+XA.Z.Q.D.(.w.P.k.4 7X7X7XU * H -XF ` 5X:XU.K k rXrXrXrXrXrX",
"rXrXrXrXrXrXA T.' ;XU./ / V i F.D.V.V.v.Z.+.).G.A.A.A.).m.$.XXZ.k.D.D./.>.a.(.. @ Y v = < N 7X/ ] x.] U.P k rXrXrXrXrXrX",
"rXrXrXrXrXrXZ Y.J.J.U.' ( B s F.S.n.v.u.v. .Q.D.V.D.A.A.u.7.OXV.k.A.C.G.>.0.Q...{ < e k.6.l 2XJ.L.U.( ) R x rXrXrXrXrXrX",
"rXrXrXrXrXrXn ] U.U.Y./ / B s C.Z.B.v.c.i.d Q.S.v.D.V.S.e.$.oXc.c.V.d.C.-.8.A.k.&X(.B.+X6.w 2XT.J.Y.;X] F h rXrXrXrXrXrX",
"rXrXrXrXrXrXl R ( W A Z F j s H.V.t.t.c.t.X.W.B.i.C.V.B.9.$.(.e.9.t.u.V.O.:.C.2.i.9.-.V.6.@ L K K R W F l % rXrXrXrXrXrX",
"rXrXrXrXrXrXh x c k A E Y x 8 B.w.4.3.3.4.p Z.b.w.n.u.u.r.O.(.3.1.w.t.v.X.>.u...1.o. .y.6.O B K K b k @ & w rXrXrXrXrXrX",
"rXrXrXrXrXrXrXrXrXz T.<X:XK 3 1.;.1.;.1.;.y Z.z.4.t.3.t.1.O.G.1.:.3.4.t. .$.t.| %. .a w.X.w <XR.<XY rXrXrXrXrXrXrXrXrXrX",
"rXrXrXrXrXrXrXrXrXc ^ ` R.K 5 1.;.;.;.;.#.e n.l.1.9.4.t.%.O.A.;.;.1.;.4.u $.t.q } 9 s 2.+.b <XI ( K rXrXrXrXrXrXrXrXrXrX",
"rXrXrXrXrXrXrXrXrXb -X[ [ K : =...*.*.o...1 l.4.=.;.;.4.o. .v.*.o.=.=.;.9  .4.9 q u 9 *.X.M -X~ J.K rXrXrXrXrXrXrXrXrXrX",
"rXrXrXrXrXrXrXrXrXm -X-Xx.F ; | } } | } } : 4.=.| ..=.=.| a z. .{ } | ..6 u -.< 9 u 9 ..1 l ;X~ J.E rXrXrXrXrXrXrXrXrXrX",
"rXrXrXrXrXrXrXrXrXZ L.~ ( A 3 { 0 0 } 0 9 : =.&.a | =.| 0 a l.} 9 u } | 5 6 &.9 9 9 9 } < r ' ( T.W rXrXrXrXrXrXrXrXrXrX",
"rXrXrXrXrXrXrXrXrXb ] W ^ B 3 q 9 9 0 9 7 : =.&.0 a ..| 0 } l.0 9 9 0 } 5 , | < 9 9 7 0 2 r ' J.3X~ rXrXrXrXrXrXrXrXrXrX",
"rXrXrXrXrXrXrXrXrXl A A Z v 3 9 7 6 9 6 1 : } 0 9 9 0 0 6 s =.6 6 6 9 9 ; ; 0 5 5 6 1 6 , # L L P A rXrXrXrXrXrXrXrXrXrX",
"rXrXrXrXrXrXrXrXrXw % w $ & 3 < 5 : , 3 > = 6 6 , , , , , 3 9 , : , 5 , - - 5 - > > - : ; + $ w % k rXrXrXrXrXrXrXrXrXrX",
"rXrXrXrXrXrXrXrXrXrXrXrXrXrXrXrXrXrXrXrXrXrXrXrXrXrXrXrXrXrXrXrXrXrXrXrXrXrXrXrXrXrXrXrXrXrXrXrXrXrXrXrXrXrXrXrXrXrXrXrX",
"rXrXrXrXrXrXrXrXrXrXrXrXrXrXrXrXrXrXrXrXrXrXrXrXrXrXrXrXrXrXrXrXrXrXrXrXrXrXrXrXrXrXrXrXrXrXrXrXrXrXrXrXrXrXrXrXrXrXrXrX",
"rXrXrXrXrXrXrXrXrXrXrXrXrXrXrXrXrXrXrXrXrXrXrXrXrXrXrXrXrXrXrXrXrXrXrXrXrXrXrXrXrXrXrXrXrXrXrXrXrXrXrXrXrXrXrXrXrXrXrXrX",
"rXrXrXrXrXrXrXrXrXrXrXrXrXrXrXrXrXrXrXrXrXrXrXrXrXrXrXrXrXrXrXrXrXrXrXrXrXrXrXrXrXrXrXrXrXrXrXrXrXrXrXrXrXrXrXrXrXrXrXrX"
};
