/* XPM */
static char *exit1_11678271279[] = {
/* columns rows colors chars-per-pixel */
"60 60 248 2 ",
"   c #2A2B29",
".  c #313230",
"X  c #3A3B37",
"o  c #451F02",
"O  c #492715",
"+  c #572E1A",
"@  c #58311A",
"#  c #66371B",
"$  c #753D1E",
"%  c #593523",
"&  c #463A30",
"*  c #693724",
"=  c #6C3A22",
"-  c #743C25",
";  c #7B3E26",
":  c #7A3E29",
">  c #7C480E",
",  c #79461A",
"<  c #49463C",
"1  c #5C4C37",
"2  c #56483A",
"3  c #6D4326",
"4  c #734326",
"5  c #754A25",
"6  c #7C4229",
"7  c #7A4828",
"8  c #7D5129",
"9  c #6E5035",
"0  c #333E40",
"q  c #3C4545",
"w  c #434744",
"e  c #4C4B45",
"r  c #444B4A",
"t  c #4A4D4A",
"y  c #524E43",
"u  c #47514E",
"i  c #4C514D",
"p  c #555044",
"a  c #5A5345",
"s  c #54544C",
"d  c #5B564B",
"f  c #5C594D",
"g  c #4B5552",
"h  c #4D5957",
"j  c #525652",
"k  c #545955",
"l  c #5C5C54",
"z  c #545D59",
"x  c #5A5E59",
"c  c #665A48",
"v  c #765C46",
"b  c #635D51",
"n  c #58615C",
"m  c #5D625C",
"M  c #6B604E",
"N  c #776244",
"B  c #666457",
"V  c #61655D",
"C  c #756953",
"Z  c #4B5660",
"A  c #5A6663",
"S  c #626661",
"D  c #656962",
"F  c #6A6D65",
"G  c #6A6E6A",
"H  c #6A7169",
"J  c #6D726B",
"K  c #777464",
"L  c #72766C",
"P  c #75796E",
"I  c #6B7973",
"U  c #757B72",
"Y  c #7A7E73",
"T  c #767C78",
"R  c #864F14",
"E  c #83442C",
"W  c #89462D",
"Q  c #844A2A",
"!  c #894928",
"~  c #934D2F",
"^  c #8D5827",
"/  c #8D532D",
"(  c #96582D",
")  c #8B4731",
"_  c #934D31",
"`  c #974D36",
"'  c #8B5735",
"]  c #9D5334",
"[  c #965833",
"{  c #9B5B33",
"}  c #A75731",
"|  c #A35534",
" . c #A35B35",
".. c #A75A38",
"X. c #AB5D3A",
"o. c #97642B",
"O. c #9B642C",
"+. c #8A673D",
"@. c #9D6433",
"#. c #9D6B34",
"$. c #946839",
"%. c #9E713B",
"&. c #A3682B",
"*. c #B77028",
"=. c #AB6736",
"-. c #A46B34",
";. c #AD643B",
":. c #B56937",
">. c #B3643D",
",. c #B46B3E",
"<. c #B96B3E",
"1. c #A57336",
"2. c #AB7436",
"3. c #A5753B",
"4. c #AA753A",
"5. c #A97A3B",
"6. c #AD7A3D",
"7. c #B77734",
"8. c #B3743A",
"9. c #BA733E",
"0. c #B47C3C",
"q. c #BA7C3D",
"w. c #C67A36",
"e. c #B15A42",
"r. c #876845",
"t. c #8D734F",
"y. c #977448",
"u. c #A36D40",
"i. c #B76942",
"p. c #BB6C42",
"a. c #A77947",
"s. c #AC7B42",
"d. c #BD7342",
"f. c #B47E42",
"g. c #BB7D42",
"h. c #B87748",
"j. c #837D6C",
"k. c #C46943",
"l. c #C27443",
"z. c #CA7647",
"x. c #C57A44",
"c. c #CA7D46",
"v. c #CD7E49",
"b. c #D27A45",
"n. c #D27D4B",
"m. c #7D8176",
"M. c #75807A",
"N. c #7D837A",
"B. c #AB813E",
"V. c #B5813E",
"C. c #BA813E",
"Z. c #BD8B3D",
"A. c #AD8242",
"S. c #AB8548",
"D. c #B58244",
"F. c #BA8344",
"G. c #BE8946",
"H. c #B58349",
"J. c #BC8649",
"K. c #B58B49",
"L. c #BD894C",
"P. c #AA8754",
"I. c #B58956",
"U. c #BD8C52",
"Y. c #BD9358",
"T. c #918165",
"R. c #818376",
"E. c #82867B",
"W. c #85897E",
"Q. c #898B7D",
"!. c #B38F69",
"~. c #C38543",
"^. c #CC8147",
"/. c #C1864A",
"(. c #CE8149",
"). c #C78B49",
"_. c #C28B4C",
"`. c #D68245",
"'. c #D98447",
"]. c #D2844B",
"[. c #D9854E",
"{. c #D5894C",
"}. c #DA8B4E",
"|. c #C7924D",
" X c #D8934C",
".X c #C38D52",
"XX c #C88C56",
"oX c #C38D5C",
"OX c #D98650",
"+X c #DD8D51",
"@X c #C59254",
"#X c #CA9355",
"$X c #CB9B57",
"%X c #C4935C",
"&X c #CB965A",
"*X c #C59A5D",
"=X c #CC995C",
"-X c #DA9653",
";X c #D29C5D",
":X c #E38E52",
">X c #E49454",
",X c #E89450",
"<X c #E99656",
"1X c #E49A53",
"2X c #EC9B5A",
"3X c #C7A05D",
"4X c #DAA45C",
"5X c #EFA15A",
"6X c #C38E64",
"7X c #C59765",
"8X c #C59B64",
"9X c #CB9C64",
"0X c #D39E61",
"qX c #D59F6B",
"wX c #CDA364",
"eX c #CDA26B",
"rX c #D3A264",
"tX c #DAA466",
"yX c #D6A768",
"uX c #DBA66B",
"iX c #D7AD6F",
"pX c #DDAA6B",
"aX c #D8A772",
"sX c #DEB379",
"dX c #E1A868",
"fX c #E2AB6C",
"gX c #E9B36C",
"hX c #E2AC73",
"jX c #E5B173",
"kX c #E8B579",
"lX c #F2BA7A",
"zX c #7C8681",
"xX c #868C83",
"cX c #898D83",
"vX c #838B88",
"bX c #968B85",
"nX c #8D9185",
"mX c #87928B",
"MX c #8D938A",
"NX c #94978C",
"BX c #8D9596",
"VX c #949993",
"CX c #9A9F9C",
"ZX c #A29A8C",
"AX c #B9B6B7",
"SX c #E7BA87",
"DX c #F2C58D",
"FX c #E6CBAF",
/* pixels */
"eXa.&X0X&X%XoXXXU.U.J.U.XX%X%XoX&X.XU.U.U.U.L..XU.U.U.U.@XU.U.L.h.hXaXqXaXqXuXaXaXaXqXSXSXDXFX%Xs.9X%XU.3X@X%X$X*X6X!.!.",
"!.u.h.g.f.a.s.h.s.f.H.H.f.J.J.L.H.D.f.s.4.4.4.f.s.s.6.s.s.s.6.s.O.$X0XXX&X0XtXtX$X=X0X&X$X;XlX-Xo.H.L.D.V.K.H.D.K.F.L.I.",
"wXB.J./.V.5.f.h.D.G.|._.J.F.J._._._.L.J.G.F.D.F.g.8 j.K C K K K K j.y.4XtXdXdX4XfXdXuXuXjXtX;X4Xu.D.U.D.8.g._..XZ.Z._.K.",
"wXS.|.).F.V.F.g.V.J.|._.F.F.G.L.J._._._._.F.V.V.%.l VXvXcXxXvXxXmXMXB yXgXfXdXgX0XdX;X;XdX$X#XlX4.H.J.F.F.F..XXX_._..XL.",
"3X6.).).Z.B.V.C.q.C.F.F.C.0.C.F._.).G.G.|.).C.V.N cXcXW.vXE.W.m.U U U N F.&X&X;XgXgX4X-X$X4X4X|.R J.F.0.F./._./..XJ./.I.",
"*X2./.).F.V.F.q.F.D.V.C.C.V.C.F._._.C.0.G._.F.0.N U Y R.m.Y E.J V L x 9 @.O.O.@.0.-XgXlX4XdXjX&.( #XJ.0.G.q./..XL.J.h.S.",
"Y.5.x./.V.V.C.g.g.f.F.h.F.f.H.F.|.#XF.f./..XF.F.$.l Q.U Y Y E.L V U a U.@X&X@XU.-.@.o.a.U.kX%X> L.%XK.V.F.0.F..XD.0.V.B.",
"*X3.q.F.0.0.F.g.g.F.J._._././._.J..X/.g././.f.h.F.a E.P Y U R.L G G y J._._._._.*X.Xa.^ ^ ^ > 1.9XL.V.V.V.G./.F.D.0.K.S.",
"*X6.F.D.C.V.F.D.F.8.F.|._._._.F.f.g.F.F.)._.6.v C p P Y Y L m.U P L t J v H.L.J.F.J._.Y.@XF.F.@XF.F.D.F.J._..XD.V.0.F.A.",
"*X3.D.V.C.F.F.D.q.G.F.F._._.F.C l #.0.C.$.N J mXU w D Y F F Y U R.D x MXW.m.p +.D.0.T.B s.J.J.L.F.D.F._._.F._.@XB.F.H.D.",
"*X4.0.F.~._.J.H.0.C.0.F.|._.C N.MXp y.t.U mXN.J L w k m.L P U U E.m G xXF m.MXN.9 N NXVXF a.D.6.f.g.0.H.J.J.J.0.K._.f.H.",
"*X4.D.F._.|._.F._.V.0.G._.C nXN.M.Y k J VXU U L U h n nXE.xXxXj.E.m J m.J V L N.k W.nXW.cXB 3.D._..X_.$XfXjXfX;XV.J.J.s.",
"*X4.D.F.)._.L.H.G.6.F.s.C N.U P U U Y k L xXY N.E.A h I I T I I G z zXN.P L Y t V NXW.W.R.E.B s.J.f._.fXfXtXfXjX@X6.D.A.",
"*X4.0.V.F.G.J.D.V.8.f.P.m W.J U U U N.S j E.M.H < 2 & v v c r.v c 1 2 x M.N.F k nXE.E.E.xXnXF 3.G.H.&XtX&X#X;X;XiX~.0.H.",
"*X4.f.0.C.F.G.J.F.J.G.@Xy.c Y N.L L U W.A k a = $ ~ ] } ] ! k.e.| } ! ; 1 k u W.nXR.m.m.nXF +.0._.F.0XtX&XtXtX;XpXpXG.K.",
"9X4.F.g.C.~._.L.L._.$X5.D.M k Y U L N.N.t O !  ...X.X.;.| [ z.i.>.<.>.<.] + < zXQ.m.cXQ.m l 1.V..X&.$XkXfXtXtXuXgXyX1.L.",
"9XD.G._.).G._.L..XU._.6.y.M.F s N.P M.t O E p.;.@.;.i.p.u.@.OXz.h.l.p.h.{ ..~ X A Y E.s V cX2 q.J.F.8.F.$XtXtXkX;X&.0.Y.",
"wXD.F._._.J._.L.U.@X1.I.m.MXW.k k I q + [ / ,.i.i.l.x.v.d.;.<XOX].n.z.].u.{ v.$ . k r D cXxXP 1 J.J.D.6.0.D.0.J.1.F.@XA.",
"wXs.F.J.).F./.L.U.6.@XM MXY m.U u X @ ( ;./ p.x.g.(.(.].l.8.2XOX].].(.+Xi.;.n.i.Q   A NXE.xXnXl 1.J._..X.X_.6.2.G./.F.6.",
"%X3.F._.~.F.J.L.H.D.!.D Q.P N.xXx O  .,.4.[ v.].^.(.{.{.x.q.dX}.{.{.{.>Xi.u.+Xd.w.6 < U E.E.Q.E.9 D.f.F._./.H.F.F.g.0.A.",
"*X4..X.X_.F.f.H.6.iXC k D P E.I O ( i.,.d.@.(.{.^.{.}.}.c.0.5X+X{.{.(.+Xq.d.>Xl.l.p.# l xXj.L k w H.V.F._.J.D.F.6.F.J.F.",
"aXH._.G.F.f.g.H.rXpXC xXm m N.l # ;.,.h.x.-.].{.{.}.}.>X^.0.5XOX{.].{.}.g.x.>X^.x.d.:.1 A S m F m $.@X@X.X_.F.0.K.g.J.K.",
"qXs.f.f.q./.F.D.DXP.m.Y N.m.m % ( ,.l.^.^.-.{.{.{. X[.}.c.0.5X[.(.{.{.OXd.8.1X^.z.h.w.6 X L E.Y L c F.D.0.f.D.H.6.g._.L.",
"9Xs.J.f.G._.3.o.jXr.cXL L m.l $ :.d.v.].(.8. X{.+X+X].}.x.q.2X].{.(.(.OXw.0.,X^.^.x.d.| a T L L Q.c f.F._._._._.J.G.J.K.",
"9Xh.f.f.0.G._.> 2.N nXY P P f ~ 9.x.^.^.].8. X].+X+X].{.l.f.5X^.(.(.^.OXg.q.-X^.^.x.l.:.v H Y P nXf H.J._.J._._.G.|._.L.",
"eXH._.G.q.F..X3.R y V l k n 1 =.d.x.].{.{.8. X{. X}.^.].l.q.2X].].^.{.:Xl.0.,Xn.^.^.9.z.' i m x F < A.K.@XF.D.D.L.~._.K.",
"eXH.@XJ.g.q.r.t.t.zXT Y N.h 3 w.^.].{.+X}.8.1X}.}.{.(.{.x.8.2X}.{.{.}.>XC.q.<X{.{.].v.]./ X I J V J ZX!.t.r.D.D.V.0.f.K.",
"9X6._.G.F.f.t S Y xXm.xXVXA 3 `.{.v.{.+X+X8.1XOX{.{.{.{.^.q.>X}.}. X}.>Xx.F.2X{.].{.{.^.^ < xXnXxXVXm.m.S w G._.G.g.D.A.",
"*X1.F.C.C.0.M E.Y U D V L h 8 '.v.v.}.OXOX8.1XOX].{.].].c.g.1X}.}.}.}.>X9./.2X^.(.{.{.{.=.p Y U E.E.L j.m y F.J.F.0.H.S.",
"*X1.V.C.0.V.B xXP N.cXR.P h 5 '.].{.}.{.OX8.-XOX].(.{.{.x.0.1X{.-X}.'.>X9.).2X].].].].+X=.d M.J U E.Y E.V a uXjX$XF.g.A.",
"*X5.C.V.C.C.M Y m.m.E.Q.m.h 7 '.v.].}.].{.8.1X{.(.(.^.].x.7.1X{.:X+X{.}.9.~.2X].].(.(.1X7.l vXL Y E.Y E.V a tXtXkXrX@X5.",
"*X6.G.C.C.F.d J P P L P R.h 5 `.v.].{.{.{.8.-X{.(.(.].].x.0.1X`.}.:X].}.9.~.2X^.(.(.^.>X9.d mXP U Y U P x a $X&X$XyXkXwX",
"SX%X5.@XF.~.a H H V V H m.g 5 `.c.v.{.].OX8.>X].c.(.].].l.0.1X].}.+X].OX8.^.<Xc.^.(.^.1Xq.e zXL F J F S j a ;X;X;X;X#XfX",
"DXwXU.F._._.2 u i i w i i q 8 `.^.`.{.n.].8.-X].c.^.^.].d.1.2X].].{.OXOX9.~.<Xc.^.].v.1X7.X r t i t t t w y ;X0XtX0X;X9X",
"kXyXrX2.F.F.%.%.$.e m.xXY u 3 `.].].{.n.n.-. X].x.c.(.].d.4.2Xv.v.{.{.OX>.q.>Xc.c.(.v.>X0.& J xXN.j N a.a.Y.hX0XfXdXdXwX",
"sXwXjXF.0.V.V.K.F.l CXVXnXz 5 '.v.].].^.].@.+X].c.c.v.].d.-.2Xv.v.^.`.OX=.0.>Xx.c.v.z.>X2.t BXm.Y m a.J.6.F.pXfXuXtXfXyX",
"kX3XfX0X0.0.V.D.0.s Q.cXE.z 5 '.^.].].].].8. X^.(.(.].].l.4.<Xz.c.].`.].,.C. Xl.b.c.z.:X=.s mXL m.V y.H.&XH.H.uXuXtXfXiX",
"kX@X;XpXJ.H.D.A.5.p L m.Q.k 5 '.].].].^.n.8. Xv.^.(.(.(.l.0.:Xz.v.^.v.].<.~.+Xl.d.l.h.].*.s zXL U V y.f.jXuXf._.jXfXyXwX",
"kX@X$XpXtXD.G.A.f.s L R.E.h 5 '.v.^.].^.].8.-Xv.c.(.].(.l.q.:Xz.^.c.c.].8.C.,X@.VXAXAX6X*.p M.S F x y.H.uXkX=Xs.0XjXtXwX",
"fX$X|.4XjX4.A.A.J.s Y P P g 5 `.c.v.].v.v.-.}.(.^.(.(.[.d.2.>Xl.^.`.c.OX8.8.<X$ . vXZ 3.w.e T D V k t.6.rXDXDXD.6.pX;X3X",
"kX&XkXkX&.&.J.F.L.s F V x q 8 [.v.^.^.v.].@.{.(.].^.^.OX9.#.<Xv.v.].].}.=.0.5X3 r BXCXr.X.& G A S k a.f.8.V.6.&.6.#XpX3X",
"aX.X/.f.&./.N c M i j j r 0 8 '.^.v.(.v.].-. X].].v.].OXc.7.2Xv.^.].].:X:.~.w.bXBXt CXAX! & g h k g d M M 9 1.F.L.).$XwX",
"K.#.&.2.F.#Xt U MXnXMXnXMXA 5 '.v.c.x.c.v.2.+X[.^.^.(.{.l.8.2X^.^.`.`.}.,./.:.G r     bX6 p mXxXW.m.R.W.D e G.@XL.g.8.%.",
"aXU.XX&X.X_.c T Y L Y R.m.g 5 `.].c.x.c.v.-.{.[.^.].(.[.8.[ <Xv.^.(.^.[.,.).;.h G w . T # b T k F L W.Q.m p F.6.0._..XK.",
"*XH..XL.F..Xb U T j.j.Y Y g 5 v.v.^.v.z.^./ ].OXv.`.c.}.d.[ >Xv.x.^.^.OX;.q.w.& BXBXBXl o b N.x K W.cXR.V p 0.F.F._.#XK.",
"9XF.U._._.J.M xXT xXE.L L h 5 b.v.l.l.l.x.^ {.n.v.v.c.].q.[ :Xx.l.c.v.[.{ 4.}.o   S w O # s MXL P m.Y R.V p H.#XY._.J.K.",
"rXa.f./._.g.b E.Y R.E.P P g 5 b.z.p.p.<.p.8 (.n.l.c.c.z.,.@.,Xl.w.z.x.n.[ -.v.~ 6 $ $ z.{ w MXm.m.R.P P D d F.F.J./..XK.",
"rX4.f.F./..Xb Y R.E.E.L L g 7 w.z.l.<.<.>.8 ^.z.k.c.x.z.;.[ :X<.i.l.w.z.( @.c.w.}.n.w.,XO.q mXE.Y Q.cXY l p _.@XL./.@XK.",
"eXf.7.q.D.wXe D P F k j x q : z.k.i.i.i.X.7 ^.k.<.w.l.k.;./ [.>.=.>.<.k./ @.l.| ,.;./ p.O.. z V m S H x r < .XJ.0.F._.K.",
"eXD.~.C.J.s.c C C w k S A r * w.e...X.X...8 c.i.;.<.<.i.=./ ].=.{ ;.>.i.! @.p.! | _ Q ,.{   g m m g p 2 2 N L.F.D.g._.L.",
"7XH./.7..X%.@XfX#Xa Q.vXnXm % | ] | ] | ] , x.e. .<.X.>.{ / n.| ] .. .>.Q ( i.E [ Q 6 =.^ X mXnXcXV y.F.F.J.J.F.D.F._.K.",
"eXH.~.7..X#.L.tX$Xs J J W.n * | ] ] ] ] ` 4 l.X.| X...>.( / z.] ] | | X.6 ( >.; Q - : | ^ e mXV P m $.J.J.L.F.D.H.F.J.F.",
"8X4.w.Z..X#.3.lXXXf R.U Y x + ~ ) _ _ _ ) # X.| ` ` ] .._ Q i.) ~ ~ ` ` 4 Q | - 4 ; ; _ ^ f zXL N.m r.J.@X_.F.f.H.0.g.A.",
"7X1.7.~.L.H.O.$XfXl W.L Y S + W E E ) E 6 # ..` E _ ` ] W E e.) E W W ) = 4 ` # : E $ ! # w zXJ m.F $._._.L.D.D.F.q.f.B.",
"8Xf.C.q.F.I.#.O.3.k E.L P k % E : : E : - @ ] ) 6 W _ W 6 7 e.: ; : E W * * ~ $ - - - 7 # < T L W.H +._._.J.G.J.J.F.H.A.",
"8X4.q.0.D.H.G.F.1.s U F G g % ; - : : - = + ` ) : E ) W : Q e.: - - : E # # E * - - = ; $ < Y N.MXJ +.J._.L._.#X.X/.J.K.",
"%X4.F.q.q./.G.J._.w x k k r % - = * - * # @ E : - - : : = 4 ` - * = - - + @ : @ * # # * # X n z V k r..XJ.J.uXkXfX_.6..X",
"8X4.D.0.G._.J.L./.a 2 y < < 3 4 4 4 4 = 3 # 7 7 4 4 4 4 4 4 ) 3 # 5 8 4 3 9 ) 3 3 3 = = = 2 < 2 2 a %._._.F.@X;XuXuX4._.",
"Y.-.6.6.f.J.H.H.h.4.3.4.s.f.D.F.6.2.2.2.2.5.0.V.4.3.u.s.f.H.H.s.#.sX%X@X$X$XuXjXDXsX8Xa.y.H.U.K.2.6.3.6.H.D.5.f.U.H.o.H.",
"aXI.9X=X=X=X8X8XoX%X%X%XU.8X8X9X*X7X%X%XoXY.%X%X%X%X%X%X8X8X%XU.I.SXeXsXuXuXuXaXiXkXFXDXaXY.Y.Y.8X6X%X%X9XqX9X9XU.D.7X9X"
};
