/* XPM */
static char *exit2_11678271280[] = {
/* columns rows colors chars-per-pixel */
"60 60 246 2 ",
"   c #010000",
".  c #0A0805",
"X  c #16110C",
"o  c #19140F",
"O  c #200C03",
"+  c #281409",
"@  c #2C1A0C",
"#  c #381C06",
"$  c #341D0E",
"%  c #2A1C11",
"&  c #381E11",
"*  c #3E280E",
"=  c #2C2218",
"-  c #3D2212",
";  c #382515",
":  c #2D2C2A",
">  c #38352E",
",  c #373937",
"<  c #411F12",
"1  c #46240E",
"2  c #442314",
"3  c #442B13",
"4  c #492A16",
"5  c #4D2D1B",
"6  c #522F1A",
"7  c #4A3219",
"8  c #5B3516",
"9  c #53321A",
"0  c #5B361A",
"q  c #5D391B",
"w  c #67381B",
"e  c #623B1C",
"r  c #763E1E",
"t  c #463626",
"y  c #583A22",
"u  c #473C33",
"i  c #683822",
"p  c #733B26",
"a  c #793E29",
"s  c #754614",
"d  c #5D4225",
"f  c #48453C",
"g  c #544A3B",
"h  c #5B503F",
"j  c #684827",
"k  c #784726",
"l  c #79552B",
"z  c #7C542A",
"x  c #695238",
"c  c #795833",
"v  c #7B613F",
"b  c #393F44",
"n  c #3E4446",
"m  c #424543",
"M  c #454945",
"N  c #4C4C44",
"B  c #454B4B",
"V  c #4A4E4B",
"C  c #534D43",
"Z  c #5D4E41",
"A  c #47504E",
"S  c #4C514D",
"D  c #5B5344",
"F  c #54544C",
"G  c #5B5649",
"H  c #4E5452",
"J  c #4F5856",
"K  c #525652",
"L  c #585756",
"P  c #555A56",
"I  c #5C5C54",
"U  c #545C59",
"Y  c #5A5E59",
"T  c #645A49",
"R  c #755F41",
"E  c #635C51",
"W  c #5D625D",
"Q  c #6C614E",
"!  c #786447",
"~  c #646154",
"^  c #62655E",
"/  c #6A685C",
"(  c #776A55",
")  c #7F7055",
"_  c #535D63",
"`  c #5D6562",
"'  c #646863",
"]  c #656A63",
"[  c #6A6D65",
"{  c #6D7167",
"}  c #6E736B",
"|  c #6F776F",
" . c #787465",
".. c #72766C",
"X. c #75796E",
"o. c #757A72",
"O. c #7A7D73",
"+. c #777F79",
"@. c #864F14",
"#. c #864927",
"$. c #84442C",
"%. c #8C4D2D",
"&. c #924D2E",
"*. c #8C562A",
"=. c #98582A",
"-. c #8E4B30",
";. c #934C32",
":. c #964A35",
">. c #855C33",
",. c #9B5434",
"<. c #975932",
"1. c #A55F2F",
"2. c #A45B33",
"3. c #A75938",
"4. c #99652C",
"5. c #8B6438",
"6. c #996937",
"7. c #9D713B",
"8. c #A5662D",
"9. c #A76636",
"0. c #AB6631",
"q. c #AD6B3C",
"w. c #B6673D",
"e. c #B36C3E",
"r. c #A57335",
"t. c #AA7637",
"y. c #A5743A",
"u. c #AA753B",
"i. c #AC7A3D",
"p. c #B7763A",
"a. c #B4733D",
"s. c #B37C3D",
"d. c #BA7C3C",
"f. c #896943",
"g. c #8E724D",
"h. c #987448",
"j. c #9D6E57",
"k. c #B96942",
"l. c #A77A47",
"z. c #AC7B42",
"x. c #B67441",
"c. c #BB7442",
"v. c #B47E42",
"b. c #BB7C43",
"n. c #B37B4A",
"m. c #C37444",
"M. c #C37B45",
"N. c #CA7D46",
"B. c #CB734D",
"V. c #C67849",
"C. c #CD7D49",
"Z. c #D37E4A",
"A. c #7D8176",
"S. c #79827B",
"D. c #7D837A",
"F. c #AB813E",
"G. c #B5813E",
"H. c #BA813E",
"J. c #BD8B3D",
"K. c #AD8242",
"L. c #AA8448",
"P. c #B58244",
"I. c #BA8344",
"U. c #B48B45",
"Y. c #BE8946",
"T. c #B58349",
"R. c #BC8649",
"E. c #B58C4A",
"W. c #BD894C",
"Q. c #AF8954",
"!. c #B68A57",
"~. c #BD8C52",
"^. c #BD9358",
"/. c #928162",
"(. c #818376",
"). c #82857B",
"_. c #85897E",
"`. c #898B7D",
"'. c #B48F69",
"]. c #C38543",
"[. c #CB8B45",
"{. c #C88947",
"}. c #C1864A",
"|. c #CE8249",
" X c #C28B4C",
".X c #D3834B",
"XX c #D9854E",
"oX c #D58C4C",
"OX c #DA8B4E",
"+X c #C7924D",
"@X c #D4924B",
"#X c #DB944E",
"$X c #C38D51",
"%X c #C58D59",
"&X c #D48551",
"*X c #DC8651",
"=X c #DD8B51",
"-X c #C59254",
";X c #CA9355",
":X c #CB9B57",
">X c #C4935C",
",X c #CB965A",
"<X c #C59A5D",
"1X c #CC995C",
"2X c #D79755",
"3X c #D29C5D",
"4X c #E18D52",
"5X c #E39253",
"6X c #C7A05D",
"7X c #DAA45C",
"8X c #C38E64",
"9X c #C59765",
"0X c #C59B64",
"qX c #CB9C64",
"wX c #D39E61",
"eX c #D59F6B",
"rX c #CDA364",
"tX c #CDA26B",
"yX c #D3A264",
"uX c #DAA466",
"iX c #D6A769",
"pX c #DBA66B",
"aX c #D7AD6F",
"sX c #DDAA6B",
"dX c #D7A773",
"fX c #DEB379",
"gX c #E1A868",
"hX c #E2AB6C",
"jX c #E9B36C",
"kX c #E2AC73",
"lX c #E5B173",
"zX c #E8B579",
"xX c #F2BA7A",
"cX c #808680",
"vX c #858B82",
"bX c #898D83",
"nX c #8D9185",
"mX c #8D938A",
"MX c #92978B",
"NX c #94988D",
"BX c #979C92",
"VX c #A49981",
"CX c #9DA197",
"ZX c #E5BB88",
"AX c #F2C48C",
"SX c #FFD5A4",
/* pixels */
"tXn.,X,XqX>X%X%X~.~.R.~.$X>X>X%X,X%XW.~.$X~.~.$X~.~.~.%X~.^.~.W.n.fXdXeXkXeXpXdXeXdXeXZXZXAXSX%Xl.qX-X^.:X-X,X>X0X8X8X'.",
"'.7.n.I.x.z.v.x.z.P.T.T.n.R.W.R.T.P.z.z.i.u.u.z.z.z.l.l.z.i.z.i.6.0XwX%X,XwXuXuXwX1XwX1X:X3XzX3X4.T.!.P.G.U.R.T.U.I.W.Q.",
"rXi.R.].G.i.v.n.s.R.+X XW.I.W. XW. X X XY.P.P.I.b.c g.| (  . . . .g.h.7XwXgXgX7XhXgXpXpXlXuX:X7Xl.v.~.I.s.b.W.~.J.J. XE.",
"rXL.-X XI.G.I.b.P.Y.+X XI.H.I. XY. X X X XI.G.G.r.G CXcXvXcXvXvXvXmX~ dXjXhXgXjXwXgX3X3XgX;X;XxXr.n.I.I.d.].$X%X X}.$XE.",
"6Xs.{.{.J.F.H.H.H.H.I.I.G.d.H.I. X X{.Y.+X XH.H.! vXmXvXbX_.vX(.O.O.o.R I.;X;X3XjXjX7X2X2X2X7X@X*.I.I.s.P.}.}.}.$X}.~.Q.",
"<Xu. X{.I.G.I.d.P.P.H.H.H.G.G.I. X XG.s.Y.{.P.P.! o.O.S.+.O.).} ` } Y c 8.4.4.6.p.2XzXxX:XgXjXr.=.%XY.G.{.P.].-XW.I.b.n.",
"^.y.I.].G.G.I.d.b.v.v.b.I.P.b.I.+X-XI.b.W. XI.I.6.I cXS.O.O.)...' o.G $X%XqX%X Xr.4.6.z.<XzX>Xs R.-XU.G.P.s.P.$XP.s.G.F.",
"0Xy.b.d.s.G.I.b.b.I.}.$X X}.}. X}. X}.b. XR.b.x.P.D cX+.g.X.D.X.[ [ C Y. X}. X}.,X~.y.*.4.@.s y.qXW.G.G.G.Y.}.].K.P.Y.L.",
"<Xi.P.G.H.G.P.P.].s.I.+X X X XY.P.b.P.I. X}.v.! ( D X.O.O.X.A.X.o...V  .R T.$XW.I.I. X;X$XI.I.$XI.P.P.I.W. X XI.F.d.I.z.",
"<Xu.P.P.H.I.I.P.d.I.].P. XW.P.( E 7.v.v.h.f.[ vXX.M ] O.[ [ O.O.D.] P mXvXO.D 5.v.P./.~ L.R.Y.R.I.P.I. XW.R. X-XP.P.I.L.",
"<Xy.d.I.{. XW.I.s.P.s.I.+X X) S.mXN l.g.} bXcX} | m U A...o.o.o.).W [ cX[ O.mX+.c ! mXBX[ l.P.s.v.P.s.P.R.Y.I.a.Y. Xv.P.",
"<Xu.G.I. X X XT. Xd.s.Y.W.) vXD.A.O.K } BXX.X.X.X.H W nX).vX).O.(.W | D...' ..D.S _.mX`.bXE i.G. X X X3XhXlXhX3XK.W.W.z.",
"qXu.P.G.{. XW.P.Y.t.R.l.( D.o.X.X.O.o.U X.).o.S.D.W U o.+.+.S.+.o.` cX).X...X.V ] NX`._.(.(.W K.W.d. XhXhXuXhXzX-Xi.v.K.",
"<Xu.P.d.I.Y.R.P.s.s.v.L.W _.} X.o.o.).^ K cXS.} f u u Z Z Z Z D f t f W _._.[ P nX)._.).`.nX{ y.W.P.;XuX1X;X3X3XhXY.s.E.",
"<Xu.v.d.H.I.Y.R.I.W.Y.-X7.E A.A.....X._.W U G j &.=.k &.r 8 8 w 1 1 + @ > I U _.nX(.O.A.nX[ 5.P. Xv.3XuX1XuXuX3XiXsXY.T.",
"<Xi.I.P.H.Y. XW. XW.:Xu.T.Q P A.o.X.D.S.K 6 &.9.N.p.9.k.%.k i i 0 0 6 # + O > NX`.O.bX_.W W 7.G.$Xr.1XzXgXuXuXpXjXiXr.W.",
"qXP.Y. X{.Y. XW.%XW.~.z.h.O.] K D.o.S.M 4 q.k.e.m.I.a.M.9.<.k j q i 5 * ; $ . : } o.D.K W nXg P.W.I.s.I.3XyXuXzXyX8.s.^.",
"rXP.I. X X}. XW.W.>Xr.!.+.MXvXP I | m 7 %.V.e.m.|.@Xx.M.q.q.<.k 0 e 9 4 2 ;     : ] B ] bXbX .d W.Y.P.u.s.v.s.R.r.d.;XK.",
"rXz.I.Y.{.I.W.W.^.i.;XR mXO.O.O.H , 9 4.<.V.M.N.oX@Xa.M.q.q.q.-.0 e 0 9 4 &       o [ MX)._.`.W r.I. X X$X Xt.s.Y.I.P.i.",
",Xy.P.W.{.I.W.W.P.P.'.] _.X.S.vXY 6 2.a.4..X.X.XOX#Xx.M.u.x.x.x.j 0 q 9 9 - .     . f (._.).`.D.x v.v.I. XW.P.I.P.I.s.K.",
">Xy.$X$X}.I.P.T.i.sX( K / ..).| t ,.c.a.q.=XoXOX5X@Xx.b.x.e.e.x.k 9 0 9 6 *         X ^ mXA.{ I M T.v.P. XI.P.I.s.I.R.T.",
"dXT.$XY.].P.b.P.yXsX/ vXW ^ D.I w w.N.m.9.5XOX#X4X+Xx.V.x.x.x.x.k 8 0 9 9 - .         = ..^ W [ ^ 6.$X-X-X XI.v.Y.b.I.E.",
"eXz.P.s.P.}.Y.P.AXQ.A.A.A.S.Y j 1.w.XX].6.4X=X4X=X{.q.&Xc.x.x.b.l 8 0 0 9 $           . f | D.A...T W.v.v.v.I.P.i.b. XW.",
"qXz.I.v.I. Xr.*.lXg.vX ...S.K k w.k.XXoXt.=XOX4XOX{.x.&XV.x.c.n.k e 0 0 9 $           . > D...X.`.T v.I. X XW.$XR.I.Y.E.",
"eXn.v.P.s.}. Xs t.R nXO.O.o.G *.9.m.oX@Xd.=XXXoXOX{.a.*Xb.c.c.v.s e q 8 7 *             : D.O.X.`.T Q.W.}.W. X XY.+X X~.",
"tXT.$XI.d.P. Xt.@.N ~ I Y Y t 1.k.m.oX#Xp.=XoXoX#X].c.=Xb.b.c.b.z 8 e 8 9 3 .           . F ^ W [ N L.W.$XI.v.v.Y.{.Y.E.",
"qXP.-XY.d.G.f.g.g.vXS.O.S.U - =.k.V.4X2Xc.4XoX.XOX[.p.5XN.c.c.v.z 8 d q 9 ;               , o.} ' } VX'.g.f.P.P.G.d.P.E.",
"qXz.$XI.I.G.S ] O.vX+.vXBX' 7 =.c.|.=X#Xb.=XoX|.OX].p.5X|.M.c.n.z s 8 8 9 $               b mXnX`.BXA.o.` N W. XY.d.P.K.",
"1Xr.I.H.H.G.Q D.O.o.] ^ ..U 6 =.Z.=X=X2Xc.=XoX|.=X{.d.4XV.V.n.c.*.e e 8 9 &               m ).o.cXcXX.O.^ C v.I.U.d.P.L.",
"<Xr.P.G.d.G./ vXX.).bXA.X.W 4 1.Z.5X*X@Xc.=X|.|.OX[.p.4X|.b.c.n.k w d e 9 &               S vX} S.j.O.).W G gXlX:XI.P.z.",
"<Xu.H.H.H.H.T O.A.A.).`.(.P 7 1.OXOXXX@Xp.=X|.|.OX{.q.4XM.b.c.x.j d j e 4 $               S MX..S.S.O.(.' T uXuXzXuX<Xy.",
"6Xu.Y.H.H.I.G } X.X...X.).U 7 0.OXoX.X@Xd.XX|.N.OX].q.4XM.c.c.x.k r w 8 5 &               B BXo.| S.o...Y D ;X1X1XuXlXrX",
"ZX<Xi.$XI.H.G ] [ ] ' [ O.U 7 0.OXOX.X@Xc.*XN.N.OX].e.4XM.x.a.x.l w x E u 2 .             m bX} [ ..] ' F D 3X3X3X2X;XsX",
"AX6X~.I. X Xh S S S B A V n 7 0.OXoX.XoXa.OXM.N.OXH.9.4Xc.c.e.a.z 8 m _ u $               , H S S V V V m C 3X3XuXwXwXrX",
"zXtXyXt.Y.I.7.7.6.N A.vXO.H 3 0.=XXX.X[.u.XXN.N.OX[.e.XXc.a.e.a.%.2 . B L % .             , o.vX(.K ! l.l.9XhXyXsXgXpXyX",
"zXrXlXY.s.G.G.U.P.I CXBXmXW 1 8.*X.XZ.[.9.OX|.|.XX[.k.Z.m.a.e.u.k 5 m , } u               V CXA.+.Y l. Xz.I.pXsXpXuXhXiX",
"zX<XhXwXs.s.P.P.s.F _.bX(.W 3 8.XX.X.XoXp..X|.|.XX{.e.Z.V.p.x.b.d g H . : u               S NX..(.^ h.v.<XP.P.sXsXuXsXaX",
"zX-X3XgXW.P.P.F.y.D X.(.`.W 3 0.OX|.|.oXp.XXN..XOXd.q.4XM.c.c.b.8 > b o : >               V bX} O.^ g.v.zXpXv. XlXhXiXrX",
"zX:X:XsXuXv.R.P.P.C ..(.(.U 3 0.XX|..XoXe..XN.|.OXd.e.5Xc.c.x.b.s : H S b +               M vXW ] Y g.I.pXzX3Xz.wXlXuXrX",
"aX:X+X7XlXu.K.K.R.F O.X.X.P 3 0.OXN..X].8.XXN.|.OX[.c.OXM.p.e.x.j + n n = @ .             m ).] ' I g.i.uXZXAXP.i.pX7X<X",
"zX,XzXzX8.8.Y.P.$XN [ W L B 7 0..XN..X[.8.=X.X|.4XM.0.4Xc.x.x.x.j $ O O 2 2               , } ] ' K l.d.t.P.s.4.s.;XsX6X",
"dX$X}.v.8.W.! T Q K K P S n 7 0.XXC.Z.[.u.=X|.|.4Xa.6.4Xc.x.q.u.q 2 4 2 t %               , K P Y K G E Q x r.P.W.}.:XrX",
"E.4.8.u.P.;XC O.mXmXmXmXMX` * 0.=XC.|.oXa.*XN..X=Xe.4.=Xe.e.k.q.q & 2 < 2 @               M NXcX).+.(._.] N R.$XW.v.t.y.",
"aX~.$X;X-X XE +.A...X.A.A.K 7 0.XXN.|.].9.*XN..XXXx.9..Xe.e.q.9.e 2 2 2 2 $               S ).P [ o._.`.^ g I.s.s. X-XE.",
"<XT.$XR.].$XE o.O.).).X.A.J 7 0.*XV.C.M.2.*XN.Z.XXs.2.Z.9.3.9.<.0 2 4 4 4 $               V vXY } vXmX(.W C s.I.P.-X$XR.",
"qXR. X$X}.W.~ ).O._.(.....P 3 8..Xm.m.d.=.Z.m.Z.Z.e.<.V.2.2.,.%.0 4 2 4 2 &               S BX..S.g.+.+.^ D I.;X-X XW.U.",
"tXi.v. X XI.E ).O.A.).o...U 3 8.*Xm.k.p.*.Z.m.N.N.e.*.m.<.<.-.-.0 5 2 2 2 @               V NXO.(.(.X.X.] G W.I. X}.-XE.",
"yXu.v.n.}. XE O.(.(.(.....F 7 0.*Xc.w.a.<.B.m.N.m.q.*.w.;.;.%.-.0 2 2 2 - +               m MX_.(.).vXO.Y C W.-XW.I.$XE.",
"tXv.p.d.H.rXN ^ ..[ F K Y B 7 8..Xw.3.t.&.B.w.k.k.q.%.w.;.$.$.a 6 2 2 < & @ .   . .     . , W W W W ] W M f -XW.v.b. XE.",
"tXP.H.].Y.z.R ( ( M P ] ` V 3 2.Z.w.2.q.*.m.3.w.k.3.z 3.$.a p p 4 < 2 < & @ . X X o o X X > U ` W S h h g R Y.Y.v.I. XW.",
"0XT.].p. X7.>XhX;XF _.vXbX` 3 2.B.3.,.0.;.w.3.3.w.,.$.:.k p p i < & 2 & & @ % = ; = = = % f MX`.nXW 7.U.I.Y.W.P.P.I. XE.",
"tXT.].p.-X6.W.uX3XF } ..).W 3 2.w.2.,.1.%.3.,.,.,.;.$.:.p p p i < < 2 $ $ = 7 7 t * * 7 ; K MX] A.W 5.E.R. XI.v.R.b.I.U.",
"qXt.d.J.$X6.u.xX+XG D.o.O.W 3 =.3.;.-.&.k ,.:.-.;.-.k :.p p w 6 - 7 7 d j j j d d d d d d F nX} (.^ f.Y.$X XI.v.P.d.I.F.",
">Xr.d.].~.L.4.:XhXW _...D.~ 3 &.3.-.$.%.a :.$.-.,.,.a a 9 7 0 j l v c c c c j l c l l l j N _.} A.[ f. X$XY.P.v.P.b.v.z.",
"0Xv.H.d.P.!.8.4.r.G D.| ..K 7 *.;.$.p $.a :.a p y i y j c 5.5.c 5.f.z z c >.5.7.7.6.5.5.c g O.X._.[ f. X XW.W.W.Y.I.I.P.",
"0Xu.d.d.P.T.Y.Y.7.F A.[ [ H 9 #.-.$.p i y 5 4 5 d j c 5.5.5.5.5.h.>.*.5.5.5.h.L.h.l.y.y.6.N A.D.nX} 5.I.}.W. X;X-XI.W.L.",
">Xu.I.H.H.}.I.I. XM P K K n % 0 0 5 & y d c c 5.5.5.7.l.l.l.L.n.l.6.tXZXdXQ.f.f.7.v.~.P.i., P U W K f.$XI.T.pXzXhX Xu.$X",
"qXy.d.s.I. X XW. XZ g C g N = 9 y t j z.i.P.T.E.v.n.v.I.R.!.~.~.4.~.fX^.rXAXdXiX9Xz.r.P.-Xx f g g D h. X+XI.;X3XpXpXu.$X",
"^.r.i.i.v.W.T.T.n.u.y.z.z.z.T.P.s.t.u.t.r.u.i.d.u.y.y.z.v.T.T.z.7.fX<XY.1X:XiXlXAXdX0Xl.h.n.W.!.u.u.t.t.T.v.u.v.%XT.4.T.",
"dX!.qX<X1XqX>X9X%X>X>X%X~.,XqXqX>X9X>X>X>X>X>X>X>X>X%X>X>XqX0X~.!.ZXiXfXpXiXpXpXtXZXSXAXdX^.^.^.qX9X>X>XqXeXqXqX~.K.9XqX"
};
