/* XPM */
static char *exit3_11678271279[] = {
/* columns rows colors chars-per-pixel */
"60 60 238 2 ",
"   c #000000",
".  c #0A0502",
"X  c #090807",
"o  c #0C0B0A",
"O  c #130A04",
"+  c #130C07",
"@  c #190D05",
"#  c #14100C",
"$  c #1A130D",
"%  c #1C1611",
"&  c #171818",
"*  c #270E00",
"=  c #251307",
"-  c #2B160B",
";  c #2D1A0D",
":  c #331D0E",
">  c #391E0F",
",  c #261D14",
"<  c #341D11",
"1  c #3A210F",
"2  c #2D2215",
"3  c #25231D",
"4  c #332315",
"5  c #3C2311",
"6  c #3B2917",
"7  c #3A2C1B",
"8  c #1F2122",
"9  c #262727",
"0  c #2F2E2B",
"q  c #373229",
"w  c #333633",
"e  c #393C39",
"r  c #41210B",
"t  c #422513",
"y  c #442A15",
"u  c #4C2B16",
"i  c #442A18",
"p  c #4E2C18",
"a  c #522E19",
"s  c #44311B",
"d  c #49331B",
"f  c #553319",
"g  c #5B341C",
"h  c #59381B",
"j  c #62351D",
"k  c #623B1E",
"l  c #4A3722",
"z  c #533D24",
"x  c #6B3A22",
"c  c #793D28",
"v  c #7C4811",
"b  c #5C4224",
"n  c #48463C",
"m  c #544B3B",
"M  c #5B503F",
"N  c #644828",
"B  c #794526",
"V  c #77552D",
"C  c #6B5436",
"Z  c #7A5833",
"A  c #3D4545",
"S  c #424644",
"D  c #454845",
"F  c #4C4C44",
"G  c #464C4B",
"H  c #4A4E4B",
"J  c #524E43",
"K  c #4C514D",
"L  c #5A5345",
"P  c #54544C",
"I  c #5B5649",
"U  c #4F5551",
"Y  c #525652",
"T  c #555A55",
"R  c #5C5D54",
"E  c #555D5A",
"W  c #595E59",
"Q  c #645C4A",
"!  c #755F41",
"~  c #645E50",
"^  c #5D625C",
"/  c #6C614E",
"(  c #786447",
")  c #646154",
"_  c #62655E",
"`  c #6A685C",
"'  c #776A55",
"]  c #7F7055",
"[  c #5F6561",
"{  c #626660",
"}  c #656A63",
"|  c #6A6D65",
" . c #696E68",
".. c #6D7167",
"X. c #6E736B",
"o. c #6D746C",
"O. c #787465",
"+. c #72766C",
"@. c #75796E",
"#. c #767A72",
"$. c #7A7D73",
"%. c #787F78",
"&. c #864F14",
"*. c #874A2A",
"=. c #895626",
"-. c #8B532B",
";. c #93592B",
":. c #94582D",
">. c #985D2D",
",. c #914D30",
"<. c #835D32",
"1. c #965531",
"2. c #955931",
"3. c #9B5D32",
"4. c #A25C34",
"5. c #99642B",
"6. c #8C6335",
"7. c #8D6639",
"8. c #8B683C",
"9. c #9D6C35",
"0. c #946B3C",
"q. c #9D713B",
"w. c #A36A2C",
"e. c #A86835",
"r. c #AA6B36",
"t. c #B5693A",
"y. c #B46B3E",
"u. c #A57335",
"i. c #AA7837",
"p. c #A5743A",
"a. c #AA753A",
"s. c #AC7A3D",
"d. c #B47738",
"f. c #B37C3D",
"g. c #BA7D3D",
"h. c #896943",
"j. c #8E734F",
"k. c #9B7243",
"l. c #98754A",
"z. c #B96F41",
"x. c #A37744",
"c. c #A77A47",
"v. c #AC7B41",
"b. c #B47644",
"n. c #BD7342",
"m. c #B47E42",
"M. c #BB7E42",
"N. c #837D6C",
"B. c #C37543",
"V. c #C67944",
"C. c #CA7C46",
"Z. c #7D8176",
"A. c #768078",
"S. c #7D837A",
"D. c #AB813E",
"F. c #B5813E",
"G. c #BA813E",
"H. c #BD8B3D",
"J. c #AD8242",
"K. c #AB834A",
"L. c #B58244",
"P. c #BA8344",
"I. c #B48B45",
"U. c #BE8946",
"Y. c #B58349",
"T. c #BC8649",
"R. c #B58C4A",
"E. c #BD894C",
"W. c #AB8454",
"Q. c #B58953",
"!. c #BD8C52",
"~. c #BD9358",
"^. c #928162",
"/. c #818376",
"(. c #82857B",
"). c #85897E",
"_. c #8A8B7D",
"`. c #B48F69",
"'. c #C28443",
"]. c #C1864A",
"[. c #C28B4C",
"{. c #C88A4A",
"}. c #C7924D",
"|. c #C38D51",
" X c #C88C56",
".X c #C38E5C",
"XX c #C59254",
"oX c #CA9355",
"OX c #CB9B57",
"+X c #C4935C",
"@X c #CB965A",
"#X c #C59A5D",
"$X c #CC995C",
"%X c #D49A56",
"&X c #D29C5D",
"*X c #C7A05D",
"=X c #DAA45C",
"-X c #C59765",
";X c #C69B63",
":X c #CB9C64",
">X c #C3956B",
",X c #D39E61",
"<X c #D59F6B",
"1X c #CDA364",
"2X c #CDA16B",
"3X c #CDA96F",
"4X c #D3A264",
"5X c #DAA466",
"6X c #D6A768",
"7X c #DBA66B",
"8X c #DDAA6B",
"9X c #DFB26E",
"0X c #CBA573",
"qX c #D8A772",
"wX c #DEB379",
"eX c #E1A868",
"rX c #E2AB6C",
"tX c #E9B36C",
"yX c #E2AC73",
"uX c #E5B173",
"iX c #E8B579",
"pX c #F2BA7A",
"aX c #808680",
"sX c #858A82",
"dX c #898D83",
"fX c #8D9185",
"gX c #8D938A",
"hX c #919386",
"jX c #92978B",
"kX c #949A8F",
"lX c #979C92",
"zX c #A49981",
"xX c #9DA197",
"cX c #D9B889",
"vX c #E6BA85",
"bX c #F3C184",
"nX c #F2C793",
"mX c #FFD5A4",
/* pixels */
"0Xc..X,X-X+X.X X!.!.T.!. X+X+X+X@X.X!.!.!.!.!.!.!.!.!.!.!.!.!.T.b.yXqX<XyX<X7XqXqXqX<XvXvXnXmX.Xc.:X~.XX*XXX#X#X#X.X>X`.",
"`.p.m.T.b.f.b.b.v.L.Y.Y.m.T.T.T.Y.m.m.s.v.i.a.m.v.v.v.v.v.v.v.v.5.OX,X.X@X,X5X5X$X$X,X@XOX$XiXOX5.Y.E.L.L.L.T.L.I.P.!.W.",
"1Xs.T.'.f.s.m.m.g.T.}.[.T.P.U.[.[.[.[.T.P.P.L.P.M.Z N.O.O.O.O.O.O.N.l.4X,XeXeX=XrX5X7XeXtX5X$X5Xx.m.|.Y.f.m.T.|.H.H.[.R.",
"1XJ.|.{.P.F.P.P.L.U.}.[.P.L.T.[.U.[.[.[.[.'.F.F.u.I kXsX).aXsXaXfXfX) qXtXrXeXtXeXeX,X&XeX%XoXpXa.m.T.M.M.'.|. X[.].|.Q.",
"#Xf.{.{.I.F.F.g.g.L.'.P.F.f.F.P.[.[.[.'.}.{.G.F.! dXfXsXdX(._.(.$.$.#.! T.@X@X,XeXtX=X%X%X%X=X}.&.T.L.d.P.'. X].|.].].Q.",
"#Xi.].{.H.F.P.g.L.P.F.F.F.g.P.P.[.[.F.f.U.[.L.M.( $.$.$.$.$.(.X.^ +.W Z 5.5.>.w.d.=XiXiX%XtXtXw.5.+XE.g.P.P.'. XU.P.M.K.",
"~.p.'.'.F.L.L.M.m.m.M.M.P.P.m.P.}.XXP.m.[.[.P.M.7.~ ).$.$.$.(.+.{ @.L |..X@X|.!.e.5.5.v.XXuXXXv T.+XI.F.P.f.L.|.L.F.F.D.",
"1Xp.M.g.f.f.M.M.M.M.].|.].].].|.P. X].M.].].m.m.M.L ).@.$.@.(.+.| X.J T.[.[.[.[.#X!.x.;.=.;.v p.@X!.F.F.F.U.].P.K.L.P.J.",
"#Xs.L.F.g.L.L.m.'.d.P.}.U.[.XXE.P.P.L.P.'.{.m.( ' L @.$.$.+.Z.#.@.+.K O.Z Q.[.[.P.P.|.XX|.P.T.|.T.P.P.P.T.|.[.P.J.f.P.v.",
"#Xp.L.g.H.P.P.P.m.'.P.P.[.[.L.( R 9.f.m.k.( | fX+.D } $.| | $.$.Z.} T gX).%.J 0.L.m.^.) K.T.U.U.P.m.P.E.[.P.[.XXF.P.P.K.",
"+Xi.m.L.'.[.[.L.f.L.f.P.}.E.] S.gXF c.j.o.fXS.X.+.A E A.X.$.#.#.).^ X.).| %.gXA.V ( jXlX` c.L.F.m.P.m.m.T.T.T.d.E.U.m.L.",
";Xi.L.P.[.[.[.Y.[.f.g.U.E.] sXS.%.$.T X.lX#.+.#.$.U ^ fX(.).).$.Z.^ X.Z.X.} +.S.Y ).fX_.dX) p.L.E.|.E.&XrXuXrX&XI.T.E.v.",
"$Xs.L.L.[.[.E.L.U.s.T.v.' S.$.+.@.$.#.T @.(.%.S.aX[ W (.).aXdX).A.` sX(.@.+.$.H } kX).)./.(.) c.P.m.[.eXuX5XrXiXXXi.m.K.",
"#Xp.m.g.'.U.T.L.f.f.L.c.^ sX+.@.#.$.(.^ Y S.S.@.F q 0 w w w w w w 9 D _ ).).| T dX(.).(._.fXX.p.[.P.@X5X@XoX&X,X9XU.m.Y.",
"+Xa.L.g.G.H.T.T.P.U.R.XXk.~ A.Z.+.+.#.).^ ^ I i * * *               X # q ^ R (.hX/.Z.$.fX} 8.F.E.P.,X5X@X5X5XOX6XeX[.I.",
":Xs.L.F.G.P.[.E.U.[.@Xs.L./ T $.$.+.S.S.Y t 1 r 5 : ; O .           .     @ w kX).$.dX_.^ R p.F.|.w.@XiXeX5X5X8X9X8Xw.!.",
":XL.P.[.[.P.[.E.!.E.!.v.l.%.} Y S.#.A.K p B z p 5 : - O                     . w X.#.(.Y ^ fXm L.T.T.f.P.%X5X5XiX&Xw.f.~.",
"1XL.P.[.}.'.|.E.!.+Xe.~.%.jX).Y T o.D h 1.-.j a 1 : : X                         9 { G { sXfX@.b T.U.m.a.f.m.m.P.i.L.XXJ.",
"1XL.P.U.'.P.E.T.XXs.XX! fX$.%.%.H e d 1.r.2.k p r > ; .     .                     & X.jX(.)._.^ u.T.[.|.|.U.s.s.P.].P.s.",
"+Xp.P.[.{.P.T.T.Y.J.`.} _.@.S.dXW j w.3.z.2.x f y 5 ; O .                         . n /.).S._.(.N m.f.T.|.E.L.P.L.P.f.J.",
"-Xp.!.XX{.L.m.T.s.8X' Y ` #.(.o.l t.g.4.z.2.k j y 1 ; @ .                           # ) hXZ...T G L.m.P.[.T.m.P.d.M.T.L.",
"qXL.[.P.L.P.M.Y.4X8X` sX^ _ A.) c V.g.r.n.1.h g y > ; O .                           . 3 +._ ^ | } 0.XXXXXX[.P.f.E.L.U.E.",
"<Xv.P.f.M.E.L.L.bXW.A.Z.S.A.E Z t.B.g.r.n.:.k g t > - O .                             X n +.S.Z.+.Q T.m.m.m.P.L.s.M.E.E.",
":Xv.T.m.'.E.a.5.uXj._.+...%.U =.C.V.'.r.B.-.g f 5 : = O .                               0 ).@.+._.Q m.P.[.[.E.[.T.T.U.R.",
"<Xc.m.L.f.'.[.v r.( _.@.$.$.P =.C.C.M.r.V.-.f u t : = O                                 0 S.$.#._.Q Y.U.[.U.|.E.U.}.[.R.",
"2XY.[.P.f.P.[.p.&.J _ ^ R ^ 7 ;.C.z.f.3.B.3.h p t > < + .                               X P _ ^ } D W.E.|.P.L.m.U.'.].E.",
"<XL.XX[.g.m.h.j.j.sX%.$.%.E 4 >.z.y.a.4.V.3.x f y 6 0 , @ .                               e #.o.` X.zX`.j.h.L.L.F.g.L.K.",
":Xs.|.P.L.F.K } $.dX%.).lX} 1 >.z.z.f.r.V.2.x f t 2 9 9 $                                 e gXdXdXkXA.$.{ F T.[.U.P.L.J.",
"#Xu.P.G.G.f./ (.$.@.} _ @.E y >.n.n.M.r.B.2.k g 5 % 8 0 %                                 S (.#.(.(.+.$._ J m.T.I.f.L.R.",
"#Xu.F.F.g.F.` sX+.(.dX(.@.W y >.B.n.g.r.n.;.k f 5 , 8 & %                                 H sXX.$.(.$./.^ I 7XuXOXP.L.v.",
"$Xi.P.G.g.H.~ $.A./.(.sX/.T y >.C.V.P.e.y.-.g a 5 0 & & #                                 U jX+.$.N.$.(.{ I 5X5XiX5X#Xp.",
";Xs.P.G.G.P.I ..@.@.+.#.(.W y :.C.C.g.e.y.*.f p > 8 & & O .                               G lX#.#.S.$.@.W L oX%XOX5XuX1X",
"vX~.v.XXP.'.I } | ` { } $.E y :.C.C.g.r.t.*.f p ; 8 8 $ O                                 D dXo.X.X.| { Y L &X,X&X%X@X8X",
"bX1X!.L.[.{.J K U K H H H G d :.C.C.d.3.y.-.f t ; % & = =                                 w U K H H H D D J &X,X5X,X&X4X",
"iX6X4Xs.P.I.q.q.0.F A.dXZ.U t ;.C.C.r.1.B.1.p t < O , - @                                 e #.sXS.Y h.x.c.~.yX,XrXeX7X:X",
"wX1XuXP.f.F.F.L.L.R lXlXfX^ 1 ;.V.C.d.>.B.:.u t < ; < - @                                 G xXZ.A.^ l.E.f.P.7XrX5X5XrX6X",
"iX#X8X&Xf.g.L.I.D.L )._./.^ 5 ;.C.V.r.1.B.;.p t < 7 < = O                                 K kX+.$._ l.m.$XY.Y.7X8X5X8X6X",
"iXXX&X8XE.L.L.D.i.P @.Z._.^ 5 ;.C.V.d.1.n.:.a t 5 < ; @ O                                 G dXX.$._ l.m.uX5Xm.!.uXrX6X6X",
"pXOXOX8X5XL.Y.L.m.P +././.^ 6 ;.C.C.g.e.B.3.g u t : - O .                                 D sX_ } W l.Y.7XiX,Xv.4XuX5X1X",
"9X}.XX=XuXa.J.J.T.P Z.+.@.T y ;.C.C.r.e.C.:.f u t ; - O                                   S (.} { T l.v.2XbXbXL.s.7X&X*X",
"iX@XiXiXw.r.'.L.[.J } [ T G y :.C.C.t.4.t.-.a u t : - O .                                 e X.} { T x.m.s.m.a.w.s. X8X*X",
"qX|.].m.w.T.! Q ~ Y Y T H A i ;.B.V.d.>.t.=.u u t : - O                                   w T T T Y I / ~ C u.P.E.{.OX1X",
"R.9.5.d.P.oXH $.jXhXgXhXkX[ 5 ;.B.V.'.>.3.,.f t t > ; O                                   D kXaX).$.(.).| F T.|.E.L.i.q.",
"qXE.|.@X X[.Q A.$.+.$.$.A.T y ;.[.C.r.-.3.c u t t 5 - .                                   H (.T | @.(.).) J P.f.f.{.XXR.",
"#XY.[.[.P.|.~ $.@.(./.$.$.T 6 ;.B.B.y.*.,.B u t 5 > - .                                   H sXW | _.dX/.^ J f.P.L.|.XXR.",
":XY.E.|.[.'.~ sX$.)./.@.@.E 1 ;.z.n.g.*.,.B u t < > = .                                   K lX+.$./.N.(._ L P.XXXX[.U.I.",
"2Xv.m.|. XL.~ (.Z.Z.(.@.+.T t 5.t.e.r.B *.c u < > ; .                                     D kX$././.#.#.} I U.T.E.].|.E.",
"4Xa.m.m.P.[.~ Z.Z./.(.+.+.T y :.w.4.3.k c k y > > .                                       S jX).$.(._.$.W J E.XXE.P.XXR.",
"2Xm.d.d.F.:XJ _ @.| Y T T G y ;.>.>.,.j x j a > X                             X         o w ^ ^ T ^ | R S n }.E.m.M.[.E.",
"2Xm.'.'.[.v.! ' ' D T } [ H y -.1.,.*.g x x t .       X X X o X o o o X # o o # O $ $ $ # w ^ ^ ^ K L m M ! U.T.m.P.[.E.",
";XY.'.g.|.9.XXrXoXP (.dXdX_ 5 ;.3.*.c g c g .   o o o o o o o # % % % % , 2 2 2 2 2 2 2 2 n kXdXfX^ k.I.P.T.T.L.L.P.[.R.",
"2XY.'.d.!.9.!.5X&XP X.X.)._ 5 ;.1.c k j c o X o o o o o # $ , , 2 4 7 7 6 7 d s s s s d 6 P jX} @.^ h.U.U.[.T.m.P.P.T.L.",
";Xi.g.'.XX9.p.pXXXI ).+.$.^ t =.*.c c p # X o o o # $ % 4 4 6 d z b b N N b N b N b b b h Y dX+.S.^ h.P.|.[.P.m.L.m.M.J.",
"+Xi.d.'.!.Y.5.OXrXR ).+.$._ 1 =.*.*.c # X o # , 2 7 d b z b N N C Z V V Z V V V V V V V N J ).X.A.| 0.[.|.U.L.m.P.m.m.s.",
":Xm.g.g.T.Q.9.5.p.R S.+.@.T 6 =.*.c , X & 4 7 l h b N V V Z <.<.<.h.<.V Z 6.6.0.0.0.6.7.<.F $.$._...h.[.|.U.T.U.U.P.P.J.",
"-Xi.g.f.m.Y.T.H.9.P $.| | Y s ;.c # % , 7 s z z N N Z 8.8.0.0.7.x.6.=.7.6.6.k.K.c.c.p.p.9.F $.%.hXX.8.T.T.T.[.@X|.].T.I.",
"+Xa.L.g.'.'.P.T.[.D T T U D , ; & o + , 7 b N Z Z <.6.k.k.k.c.l.k.<.0XcX0XW.h.h.0.c.!.F.p.e T T W Y 8.|.T.T.7XiXrX|.a.|.",
":Xp.m.g.P.[.[.E.T.L m J m J 7 2 l l a z N Z h.0.0.k.k.k.x.W.W.W.6.Q.0XQ.;XvX3X2X-Xx.9.v.!.M n m J L k.[.[.P.XX&X7X5Xi.|.",
"~.9.s.s.m.T.T.Y.m.a.p.a.v.v.m.Y.f.a.a.a.i.i.f.f.a.a.a.a.L.Y.Y.v.9.wXXX}.$XOX5XuXbXwX;Xc.p.c.T.R.p.s.i.s.Y.m.s.f..XY.5.Y.",
"0XQ.:X$X@X:X-X:X.X+X@X.X|.-X:X:X-X@X-X.X.X~.+X.X+X+X.X+X+X-X-X!.`.vX2XwX7X6X5X7X0XcXmXnX0X-X~.+X:X.X.X-X:X<X:X-X!.J.-X:X"
};
