/* XPM */
static char *_715201506be4c4fa9b7fe4d69424347tUPZRusKuoVf0prP[] = {
/* columns rows colors chars-per-pixel */
"40 40 159 2 ",
"   c None",
".  c #050505",
"X  c #060B0C",
"o  c #0C0B0C",
"O  c #090E11",
"+  c #07191B",
"@  c #091C1E",
"#  c #07141A",
"$  c #141414",
"%  c #1F1A13",
"&  c #181718",
"*  c #1B1B1B",
"=  c #291F15",
"-  c #312518",
";  c #3F2F1E",
":  c #081F25",
">  c #201F20",
",  c #06353A",
"<  c #242323",
"1  c #282626",
"2  c #282728",
"3  c #2C2B2B",
"4  c #302F2F",
"5  c #312D26",
"6  c #3D3326",
"7  c #302F30",
"8  c #343434",
"9  c #383738",
"0  c #3B3B3B",
"q  c #493420",
"w  c #43392C",
"e  c #523F2B",
"r  c #5C4228",
"t  c #4C463F",
"y  c #504336",
"u  c #674A2D",
"i  c #6F4F31",
"p  c #615139",
"a  c #6B5539",
"s  c #6D5234",
"d  c #755838",
"f  c #795633",
"g  c #06425C",
"h  c #03577B",
"j  c #06636C",
"k  c #056270",
"l  c #444444",
"z  c #4C4C4C",
"x  c #534D46",
"c  c #5A544A",
"v  c #525252",
"b  c #595858",
"n  c #6B5A43",
"m  c #605F5F",
"M  c #6C6157",
"N  c #6D6C6C",
"B  c #716E6C",
"V  c gray47",
"C  c #767676",
"Z  c #855F3B",
"A  c #8E643B",
"S  c #81623D",
"D  c #826A48",
"F  c #976D41",
"G  c #9C784E",
"H  c #8D785A",
"J  c #9A7A53",
"K  c #A97949",
"L  c #A47A4A",
"P  c #AF804E",
"I  c #B2804D",
"U  c #A3835D",
"Y  c #B98958",
"T  c #BA8650",
"R  c #988864",
"E  c #888279",
"W  c #9A8B74",
"Q  c #958A78",
"!  c #B08E65",
"~  c #B39067",
"^  c #C2864F",
"/  c #CF9055",
"(  c #C0965B",
")  c #DE9859",
"_  c #E8A05E",
"`  c #C79B6D",
"'  c #CE9D66",
"]  c #CBA168",
"[  c #C1A87F",
"{  c #C1A67C",
"}  c #EFA460",
"|  c #E4AE6A",
" . c #F0A460",
".. c #EBB66D",
"X. c #F6B46A",
"o. c #F8B76C",
"O. c #F3B675",
"+. c #F7BB71",
"@. c #FBBF71",
"#. c #FEC576",
"$. c #F9C67C",
"%. c #035D88",
"&. c #026EA1",
"*. c #0276AD",
"=. c #006AC8",
"-. c #0072CD",
";. c #0077D0",
":. c #007DD2",
">. c #0699AC",
",. c #0081BD",
"<. c #0186C6",
"1. c #0086CE",
"2. c #008CCE",
"3. c #0084D5",
"4. c #008DD9",
"5. c #019ED7",
"6. c #0093DA",
"7. c #0199DD",
"8. c #11A0C4",
"9. c #08BDCE",
"0. c #07B6CB",
"q. c #03BBDF",
"w. c #01A3E3",
"e. c #00AAE6",
"r. c #01ACE8",
"t. c #02B5EB",
"y. c #01BAEC",
"u. c #02BDF0",
"i. c #01C0EE",
"p. c #02CFEE",
"a. c #02C4F1",
"s. c #03CCF3",
"d. c #04D4F6",
"f. c #05DBF7",
"g. c #07E2F9",
"h. c #08E7FA",
"j. c #0AEAFB",
"k. c #9B9A99",
"l. c #A89C8B",
"z. c #BCA580",
"x. c #A7A7A6",
"c. c #AEAEAE",
"v. c #BCB6AC",
"b. c #B5B4B2",
"n. c #CEB48B",
"m. c #E9BD83",
"M. c #E2C08C",
"N. c #FECC82",
"B. c #F3C386",
"V. c #F7CD91",
"C. c #F2CF98",
"Z. c #FFDA9F",
"A. c #F7D7A5",
"S. c #FEDBA3",
"D. c #FEDEAC",
"F. c #FADFB3",
"G. c gray80",
"H. c gray89",
"J. c white",
/* pixels */
"                                                                                ",
"                                                                                ",
"                                                                                ",
"                                .     . *                                       ",
"                        .     . z     $ b X                                     ",
"                        9 .   $ b o   8 v z     X                               ",
"                        l z   3 v 3 X 8 z b o   z                               ",
"                      . 0 b X 7 z 0 = 8 l z 2 . z &     .                       ",
"                    . o 7 v 2 7 9 0 3 7 9 l 7 O l l   > O                       ",
"                    z * 7 l 2 2 7 8 3 3 3 0 7 = 9 l X v <                       ",
"                  . 0 < 2 0 < < 3 2 2 2 3 3 3 3 3 8 8 l 9                       ",
"                  . 1 * = 3 < < < < < < 2 2 1 3 3 3 3 w 7                       ",
"                  . * & & $ $ o o O O O # + + @ : @ @ @ X                       ",
"                  , h &.,.2.6.4.:.4.7.e.y.s.d.f.g.h.h.h.j                       ",
"                  9.7.3.3.3.4.6.:.3.6.e.y.a.s.d.f.f.g.h.j                       ",
"                  0.7.:.:.:.4.6.;.:.4.7.r.t.u.a.s.d.f.g.,                       ",
"                  >.y.6.6.7.7.<.=.;.:.4.7.w.r.t.i.s.p.>.X                       ",
"                  j t.*.%.g i I K e % D J U ~ ~ U ; K K                         ",
"                    / _  .^ r f A A K K s n.D.n A A f -                         ",
"                    u )  . ...G.c.B y u Z [ A.i M < x.                          ",
"                  B.O.[ _ o.#.v.J.J.k.= b.D.S.l.J.H.E                           ",
"                  B.C.m.O.#.#.#.| ` ` ' $.S.D.m.W [ W                           ",
"                  n Z.V.Y #.#.#.#.X.X.+.D < 5 A.D.F.x                           ",
"                    H R   X.#.#.#.( 6 < 8 0 z 9 c Q 1                           ",
"                          = L 6 o & < 2 4 8 l v b v       X                     ",
"                              X 3 & & > 2 3 l z 9       3                       ",
"                                  . o $ * * * .       v C                       ",
"                                  0 2 9 3 0 2     $ N x.                        ",
"                                  l * * > 2 0     N x.N                         ",
"                                8 9 > 3 $ < 8 0 D k.C                           ",
"                                t n w 2 9 3 l d G a                             ",
"                              % N.N.] 2.5.Z 8.R p                               ",
"                                T I q . . . . o                                 ",
"                                    . . . .                                     ",
"                                    o . o . *                                   ",
"                                    . X 3 > 3 2                                 ",
"                                                                                ",
"                                                                                ",
"                                                                                ",
"                                                                                "
};
