/* XPM */
static char *fb453de6d9744cc2ef8982a80daf612djIfFczLS70KxzsMB[] = {
/* columns rows colors chars-per-pixel */
"40 40 97 2 ",
"   c None",
".  c #150D06",
"X  c #1B0E05",
"o  c #1D1208",
"O  c #201106",
"+  c #22140B",
"@  c #241908",
"#  c #2C1A0C",
"$  c #351B07",
"%  c #321D0C",
"&  c #381D08",
"*  c #35210E",
"=  c #3C220D",
"-  c #362215",
";  c #3C2614",
":  c #3A2618",
">  c #3A2B20",
",  c #43240C",
"<  c #49270B",
"1  c #4C290D",
"2  c #542D0D",
"3  c #592F0E",
"4  c #56300E",
"5  c #5B310F",
"6  c #432711",
"7  c #432914",
"8  c #4B2B12",
"9  c #442D1B",
"0  c #492D18",
"q  c #522D11",
"w  c #4E3014",
"e  c #4D311A",
"r  c #543015",
"t  c #5C3313",
"y  c #543419",
"u  c #5A3619",
"i  c #52391E",
"p  c #5E3A1B",
"a  c #61340F",
"s  c #633611",
"d  c #663914",
"f  c #6B3B12",
"g  c #643B1B",
"h  c #6B3E1B",
"j  c #723E13",
"k  c #4D3624",
"l  c #433429",
"z  c #6D421D",
"x  c #764114",
"c  c #7B4415",
"v  c #73431D",
"b  c #7C461B",
"n  c #7E491E",
"m  c #6C4421",
"M  c #744521",
"N  c #784720",
"B  c #744C24",
"V  c #7B4B23",
"C  c #7F5125",
"Z  c #814716",
"A  c #834816",
"S  c #864B19",
"D  c #8A4E1B",
"F  c #8E511E",
"G  c #90531F",
"H  c #824E24",
"J  c #845126",
"K  c #8C5222",
"L  c #845429",
"P  c #8B5529",
"I  c #8B5D2B",
"U  c #935522",
"Y  c #965824",
"T  c #995A26",
"R  c #91572A",
"E  c #935A2C",
"W  c #9C5D2A",
"Q  c #A05F2B",
"!  c #9D602D",
"~  c #9D6130",
"^  c #9D6832",
"/  c #A3632D",
"(  c #A6682D",
")  c #AA6C2F",
"_  c #A56531",
"`  c #A96732",
"'  c #A46A33",
"]  c #AD6B35",
"[  c #B16E37",
"{  c #AE7135",
"}  c #B27237",
"|  c #B57439",
" . c #B8773A",
".. c #B67939",
"X. c #BC7C3B",
"o. c #BF803D",
"O. c #C2833E",
/* pixels */
"    # V m z p i % V L J e   B ! L L z o + o i < X ; +   + . y B m m 6 m J y %   ",
"_ { y X.S F ] C | ] ] T ] * | ) F ' ] ~ V | O.` S / J 9 ^ } ' ] Y U ) ' g ` ) ! ",
"m S u | X. .I  .Y Y Y A V ] ( A b S o.] n U X.[ ` < ` | / A ` [ | } F F G g A 1 ",
"9 $ S ( ] ] ! f A A A A g W K S A Y o.o.` c G T s Z ] ] ] ] ] ] )  .} ` ] U 4 A ",
"P B A S D S Z < c g H H H ' ] ] ] ] O.X.] = s 1 1 Z W T Y ` G A A F ` ! D < r J ",
"_ ( d A A A A 5 ~ ] O.[ ] f ] ] ) Y S S Y $ [  .2 a T T T Z T ] U A A A < A ` X.",
"P ! ` t A A 5 6 ] [ O.| [ h x S A A s 1 # % W X.A A 3 2 Z Z W W A A t m u A A U ",
"e ] X.| z 0 G v ] [ ] _ / S j , 2 & ! } V K D  .] [ T K 3 f c j 1 7 X.( o.1 Z Z ",
"4 S / ] ] z  .' F ] S S A 1 K O. . .[ h ] H ] [ ` S 2 H  . .p G ] M ` ` Y < 0 $ ",
"4 A A S S h ] W < c S Z x c G ` ] _ L ] X.2 U ` S < c T ` G d ( ` 3 G D c K ] _ ",
"# s A A S & A A 5 a 2 2 1 8 Z Z A f c  .X.H Z A 1 _ [ s j z u S S c * c s Z U D ",
"z j c A s 3 4 f f } / ) { < P f c 2 Z Y T D j f j 3 M h X.O.X.f s W | ` P s T Y ",
"< < a f F T 2 F O.} ] ] z Y O.] ` ` q A A A Z , A A c ` | G D x ] _ | X.O.X.M   ",
"# Y | | ] E A ` [ / K 3 c 8 0 q q t j 5 3 2 P X.n V N W D A A j S A Z A Y Q / 0 ",
"m O.O.Y D ` a A x 2 x ] ( d u ` O.X.U W ` ~ ~ [ _ ] S ` W A A a 3 d S , < < 2 h ",
"_ O.X.S A Y h 1 y z O. .R D P T O.O.| O.O.[ 8 A _ D 1 o. .( Y t _ | X.u S S | } ",
"O T Y A S S ` j D 3 ] _ 8 S ` j ] [  .X.X.[ 0 Z j N A  . .] G d O.O.} H X.O. .L ",
"O j A A A Q Q f | / , c 1 A ] t A S A A D T 7 g } ] j S A j % Z ` G 1 U ] ] Y ; ",
"] M j A A Z < F O.[ h O.P c F S < A A A A A d ] X._ q A 3 - _ c c h H j Z A c q ",
"P Q K f 3 f Q X.X.z O.X.~ 0 Z A 3 & Z A A A d Q T D s < _ v ] 6 ] X.X.0 f t _ ] ",
"# A c 6 j A A S V ] | U U 8 s d ` L 7 f d f & A A A s ~ o.s K R [ X.[ g X.O.X.W ",
"  < j S A a j S a S S Z 5 A Y ] O. .g ` T U / M c j r O.X.v j K U K f | O.} A t ",
"= D | | ` D A s h 1 8 = _ A Y X.O.X._ X.O.] T [ u ] h U X. .< A A A s ] W s D  .",
"U X.O.X.] [ ~ ~ O.[ [ 1 ] S D ] | [ _ U [ U A S R ~ j Q  .O.X.N x 3 c c 1 S [  .",
". Y | ] A F 4 Y [ D ] M c A S T / ` / 1 S A Z < Y A 2 A A U / ] M O.] J - Z S Q ",
"X 5 F S c # , A A A ( Q b f c A Z f s Z 1 2 : 1 Z 8 r c A A S j ` D D A q V h A ",
"1 Q V J ..g G d c c s , f A ~ < x Z Z A A j E Q Z Q R b 3 a 2 < Z f N  .O. .] r ",
"  Z ] O.O./ S O.` E c A A [ } x S T Q ] T j W X.[ ] m [ F Q Q c c S D D S S A q ",
"> 4 A / T 2 Y o.| / E A [ [ X.g G X.O.O.| L A U / T  . .[ X.X.h K 2 t 3 2 t V M ",
"l 4 j A s r A S A S d S ] } W ` n P V ] ` d A A Z h O.[ ` X.] q U ] ] r u s c r ",
"= Y } f ' O.d Z f x , S ` S S S E U U q t m < < 5 S ` S G _ j : f S R / O.O.~ k ",
"  S ] [ L X.B h ] ] ] d Z S A A d X.] 3 /  .] ` ] a A A A r C ` U j d U [ [ ` q ",
"= s S ` H T f ] | O.X.] f A f f | X.H T h A ] ] X.! f j t ] o.O.X.] ] a S A a , ",
"b S A ] f ] ` K _ | X.[ q q ; A S S N S Z H Z ] O. .7 7 a A ! [ [ ] ] E t f D H ",
"< 3 S n s A b g j A F S K _ [ h Z S b D Z D s D / U g ` ! 3 A A D Z Y a Y ` | _ ",
"  j P } ` E 8 D g t A 3 ` T [ h R v t ` Q U q 2 < s Z ( [ V 3 A S S f j  .O.X.P ",
"c S | ( D W v c | | v : ` S ] W X./ V A A c T S Y ] x U W d | L < 4 P ] O.O.` t ",
"c S W ] O.O.` 3 _ | ] ` E D ` P S A Y t 3 s ] / O._ A A f x S G _ V 2 T ` | c Z ",
"% Z A S Q ( u s c Y G c 5 S A q A A A 3 Z s Z S T K c A , S A S A D t Z Z S Z = ",
"    c A S $ S S # c S k   j 3   = A a T Y a S S A A 1 t   4 c Z c 5 @ c A Z A 2 "
};
