/* XPM */
static char *_6f6d7f1f69e4deef2c68206cbf52c650DU08ACk9WAISCNk[] = {
/* columns rows colors chars-per-pixel */
"40 40 49 1 ",
"  c #2D2E24",
". c #2F3125",
"X c #313327",
"o c #32342A",
"O c #383735",
"+ c #3D3E3B",
"@ c #3F403B",
"# c #42423E",
"$ c #444544",
"% c #474842",
"& c #4A4B45",
"* c #454548",
"= c #4B4B4B",
"- c #524E4B",
"; c #4F504B",
": c #52524D",
"> c #4E4E50",
", c #545453",
"< c #595552",
"1 c #575853",
"2 c #595955",
"3 c #545358",
"4 c #58575C",
"5 c #5B5B5B",
"6 c #62615F",
"7 c #615F60",
"8 c #646464",
"9 c #696967",
"0 c #666668",
"q c #6C6C6C",
"w c #70706E",
"e c #6E6E71",
"r c #737373",
"t c #787876",
"y c #76767A",
"u c #7C7C7C",
"i c #81817F",
"p c #7E7D80",
"a c #807F84",
"s c #848484",
"d c #888687",
"f c #888886",
"g c #868689",
"h c #88878B",
"j c #8B8B8B",
"k c #939393",
"l c #979893",
"z c #9B9B9B",
"x c #A1A1A1",
/* pixels */
"zjkjjjjjjjjjjjkjjjjkjjkjkjkksfkjjjjjkkfz",
"z=*=8809000851=$=*%$*****;;**=@=590e>@$;",
"x$5rjjklzkjfssy9$$*$1yusijlku5#ppgjsjs=;",
"z=ujjsssfsgssfiew*$5pzfsifisjs70jfafjjt;",
"z8uhssddssfgsffpr@=yfsujsfjssse>jfsasuj:",
"x0rfssshfsssssiw0$5ajfssfipfjsy*kajpjji;",
"l>wsssihsssspr0,#5ijfgsaajfasfq;kisjius:",
"z$rysfsfsiu0>*=2ykjsfssfgfigsr=7jpfssf2;",
"z*=7ryyur8t18rsjsgafijfasjsa9>a5ue,35:@1",
"l=$==:6rgjgu4e6qtruuyyq8w0,=wfje#=7ajp=;",
"z709855545:>#>$$&#=%==$%$$>=*1=5>;>68q$2",
"zqhklkjjkjkjkir2$>90eq9q0,$1ujjfkjgjip=&",
"zwjjsiggfjgssist=ekjjjssjgw>jsjsigssff6,",
"lwjhsgjiuisfsfjg*wjgssjsusjwwjuggfsihs7;",
"xwsssffijsgigsir;ufgssssjsju,jijgsgigi;;",
"keggssgiuruuuy5*qjsfssgisss6=jspfisgss@,",
"z=1saw>$&,&*$$$wggsssssgfar$5eiyssi08<@:",
"k=>&$*=wparq>$$>1qyrwyw961>$>&**::$=,,@:",
"x*01*,rkkukj15jsr95,>&$$ykjfiywrrfir=u;;",
"k*jkjjkfgpjfprsigjjffi8*5jssskjfsus,wj1;",
"l>kpsssfssssyjsjiffgffar>sfffsgsfsr,fs&2",
"l>jgggssssjs&jgsfaafjsuy;ygsfsgffu=sfs;=",
"z$ufpjjssp8,#psjsfgssfuq$war550tq==aq&%:",
"l*8955&&>*&#*6rr96,>=*>1=&*=18,&1%=$%=#:",
"z&*5rpskp5&&*q9055,=wkjjy$=qfky&jw=$#*#:",
"z=fjaffisp0psufskgky55ig6=0jjgi>ksseqr+:",
"z4jfsagssi5sjjsspufkw*6,*rljsaj@sjuasi5<",
"z0gififsu&yjgsujsfsfq=0eakfpjar>jshhih5;",
"lrjasjr*5lsssffgjgsu8rjgjfsjif,>sssdss<-",
"xqggjs55gfgisijuujt5$wffpgsij5k0kdu48u#:",
"kuj551$1ussjsgssuy1$>85=>6r05ji>98=*$=%:",
"z,515$>>>,&*>$*10,6rewyq*#16qrw88$qy==O<",
"z*4jzp&qksiw5&>>qkiisfiq&tkkfgssr*yjr6O<",
"z*rgiiq>jssjkkfi5#>qsu1ugjjiissie%egfi::",
"l&jffsi&ufiiiiijji6,6%sjjiifsffst&esif2;",
"z>figis,wsjiffsisjsg&>fgssgfpssgq@0jif61",
"z>gjgjs=8ajfghggjpgg3egsjasgghhaq&0ssf8:",
"l>eppu9%*58550rpuju8*#pssggggar8#*8sfg6;",
"z*#*;&@@**@@*&*$@@@&*%@%%&>;;&&&*%&>>;*1",
"looo..@ XX @X.XX  @..X@X.XXXX. XXX.XoX.;"
};
