/* XPM */
static char *ground21678200483[] = {
/* columns rows colors chars-per-pixel */
"60 60 53 1 ",
"  c #936647",
". c #946748",
"X c #966A4C",
"o c #996C4D",
"O c #976D53",
"+ c #9B6E51",
"@ c #9C7153",
"# c #9F7659",
"$ c #A17556",
"% c #A3765A",
"& c #A5795C",
"* c #AA7C5D",
"= c #B07F5E",
"- c #A57D62",
"; c #AB7E61",
": c #A97F69",
"> c #AE805F",
", c #B1805F",
"< c #AD8163",
"1 c #AD846A",
"2 c #B18465",
"3 c #B38669",
"4 c #B6896B",
"5 c #BA8D6E",
"6 c #BE916F",
"7 c #AF8473",
"8 c #B58D72",
"9 c #BC8F71",
"0 c #B59075",
"q c #BE9173",
"w c #B79379",
"e c #BC947A",
"r c #BC997D",
"t c #C08F6E",
"y c #C1926E",
"u c #C19475",
"i c #C89776",
"p c #C59976",
"a c #C99D76",
"s c #C39679",
"d c #C6997B",
"f c #C99C7D",
"g c #CDA07F",
"h c #C79783",
"j c #C49B82",
"k c #CB9D81",
"l c #C69D89",
"z c #C4A086",
"x c #CDA183",
"c c #C5A388",
"v c #CEA589",
"b c #D0A385",
"n c #D1A88C",
/* pixels */
"qqupddfdfuqdu2%%*=5u99eqqqqquq6pgefgg00w6aarfqqqqq9qqqssq317",
"qqspffddp95dfpfxdffdekleusq9qqukrxg3#OO>66rgfspsessseu99@@OO",
"5upffdddxp959uupftud8<-%<6u6qudkus9&@@>X666ppfffdddsse99#$*1",
"qudffddffdu99q9qt59u;OX@o2qqsffpq953>>>>qqqppffsffkdsstepqpp",
"quffdppfdsuuuuu94ts;O$11@4uupfpq9tss935ppqqppfpsddfhhssdifa6",
"udffdadfpdsqq999sdt;@%-%9puqdpsquusdffifqq6esfffdddfffff9uy6",
"ddpffppffffpdusds49hhe9effuuffuqu9t99uu5qqqqsfffdddddffhkdyi",
"fpdddfddfpfkfppduttddvnvdu5ubku9utt9utu5qqqppffffhfhddddhhdf",
"ddfkidsdshfddssddduu55595updffuqqquqqquu99edpdhdfssfkpddkkpd",
"ppddddssssdfkkksdfpppuu9dfkddduuquqq6qquusfkhdfskfddffdhedpp",
"updy333;9sdsddfdipddddaphkddppp6qqqqquuussddfdffshkkhkfhsppu",
"4pu*oo+O*9dhesdhpdddddfdpddddpu5uq9quuuushdkkddfskxd92*$#2i5",
"5pu2$&;2+<skddddkkffdddfsddfdpq5qqqudffdphkfsfsfkxd3@+$%#@2i",
"puuu52&&349dhkddfffpddffkkdfduuqquuppfffk9<<3skhfdq3&%;31%*i",
"55udgfu9ks9sddddpdddduuuddffpq6u9qpffffdx<+X$9kfddhpq3;%#8py",
"6u65qfxbsqqhxddkfddu942;9edxpu66quphfpppk3;%+2fddqqekkdshkuy",
"5quu9se955uddffdfhfq%ooo+5ffdpuudkkddkkhfd4%%4shkpp6qqdgsuyy",
"uqquut99uudkppfpfssq;-;;2ufffdpfdddddhdssssq9qsefpuqqqqqqy5y",
"yq9q99995ufkdddfkdddssssuuuffdpkfffhfkkxssdsseqqffpeqqqqeq65",
"uqu9qssqdpfpu99qdsssqsdpd9ufkdufhdpsddddkdeq99qdpfdfffspdpuy",
"y6quddddfkffpt99sddu9uqq9uiffdddhkfssdsqkhddeqsdffffgdgggdp6",
"qqqudffsdpddpu9suffpuquuqufdpdfdss5338qdfddkdssdfffpddddrgpp",
"u6uuffhsdfp42&;5qdp65666uudfadfdu;$++$3spsdddpddffpfpddspfpy",
"uqupfkfdpp4$. $3pxp56uq6q5pfffd5s3%%*+&qsdhfhfhfspffffdddgp6",
"66qupfffu53;*25udfduquq5qquuuuq6qffq35qqsdhdhdskkdddddssfe6t",
"qqspkdu49updpdddbfdu55uuquuuuqqu6sffffpuqdfdfhsskxxfddkklsqy",
"uuqqddd55qupupsddauqquqquuqqqquqqqquuuq5shkfd4*$;4shddhfsquy",
"pps9qdpqddppuddpdduuuuuuqqqqqquqqquqq556pfkdq2$OX%8pkddss9ua",
"<4qupfpufdfffffpdpu99qqq5qqqu6u5qqquqqugdsdssq94<39udfdsd4<,",
"o$2qphfxddddffddu5quuuqququuquuqpq5qspffkdfhhsdddsqshxfs1@@o",
"&&<5sppfkfddpfpp9uudpuupuuuqu9uqqqpfxfsskfkks9s9sqesfkds-@*,",
"2*;9dfdpspdfpdu5du522235uuqu5uuuqusfspfkddfs99se99qqdhdd5&,,",
"&45upidfkddfuqq51&@O@OO#4pp65pu5pshfffddsdffpqquuu5ppkk5pq3-",
"pppudfdffdkdqqu6@@#11<&&46665uu6ddfkfhdffffq6qqq9qqdfspuuush",
"uu9pffddsdkdqquy;&*<<>#<6qqqpdd9sdffkdfjsffqqqqp5q9pfpff99us",
"9upffppihdfpu6qus93;>>10qpp42259sdkfddddfqqqqqqqud9ufkffsuu8",
"ddfffffbxfdppq5ufdfdddffqe5%X+3fddfffddkxu6usuqsppu9dkddhipp",
"dddfdddakddffq5655uuuy55qqq4<29sphhddddffu6uu532;4uqupspsfpp",
"ddfp2**&3qhffp66puu55typpddhxks9dffkddkkpu63>%@o$*5uuddkhffa",
"pdd2o @@+4ddpfpp5tyupagfkdeqqqsedhddddhfsp6*@%23<*4uudpdhfap",
"qqquq52<<9epufffffdddddddfhpusdhpdddpdpfps5**><<%4eu9skkfsuu",
"suuquspuduqqupdpffdffdddkkffsfsfffdddfkkpuq4<%%&&4sssdkkupu5",
"2qpqquppqqsssusgfdfffddffddhhkfsppdfffdpsuusu55yddsqshdqu4>>",
"o<su5q6qs93<%@#&tiffddffkdddfffhffffkffpfsqupfffkdqqskkdp<$%",
"@2uuqepqr1#O###@:ufddhh99qssfssdfduuqupfkpq55qq55qdhhkkkuu5*",
"5qq6qpe601##141&-ehhfhd4#%;38usu9qqquuuddkpu6qq9edkkfdssuuuq",
"puq56qq6rq4<#>#>5thhhks8$+@*3ss9quuuq5uudpxkfffxkfddddddp9qf",
"9quppqqqqrrw8100hsfsfdsh9;$%3sssuq2*%*2qddpffppdphkkdddkdpqq",
"qpu6qqqqqupfxbxkupdffddshfpsqes9uu%O;*+%sfkddkfdsfgpssffhkpy",
"dkfspdqquqqqqq55sppffpdpfhduu9q99s3;*%;3sddddkhdsffppffpffpa",
"pffdffdfqqqqupdddpdffdddssssssuu5sks:;3dufkdddfdggdffkffsfdf",
"dddfffdfffpppddfddfdpfffsfsffsshq9ssuss9edhdshfdfdseuppsxhif",
"dpddfppskkfffpppfdddffffhfhffhffs999ffs9dkfdddfhuuuqqqqsuufs",
"q5upppddddffffkfadfddfdfddddfdfhhss9999sfkkddffppuuuqqqqius9",
"**2uspkkpddpuuuuddddfdfddddsssddkkpsetshhfffdhd05225qqqqt*#@",
"+@;9usdpffkpuuuudddafffdfdsssddddffhffffddddffq5X..%5upu:+#-",
"2*299sfifputupqpyapidupp5d=&*;tuffffffddifiikf2.%<>>366y>>2<",
"%*3u9shfddd5<&@@o$;up955s9%%%@3fdsffssfdhffhhq<X<&>8gr66p<&&",
"8wshrjhjhs9&OO#-#@#8seqr9e8--:eeejhjjjjhkhhhreeewwrcg40pqee1",
"jje8ejjjjre1-1117:-4eer0wrlhweh8erjsrjjlhrjjr8wzcccr0we0eell"
};
