/* XPM */
static char *ground31678200483[] = {
/* columns rows colors chars-per-pixel */
"60 60 75 1 ",
"  c #516F0F",
". c #5B710C",
"X c #556E12",
"o c #596F13",
"O c #566E1B",
"+ c #5B691C",
"@ c #4F711B",
"# c #557315",
"$ c #5A7316",
"% c #5E7916",
"& c #56741B",
"* c #5B751B",
"= c #56781E",
"- c #5C791C",
"; c #617617",
": c #647915",
"> c #687A17",
", c #61761B",
"< c #637B1C",
"1 c #6B7E1C",
"2 c #717E1B",
"3 c #5D6E20",
"4 c #4F7424",
"5 c #567622",
"6 c #5C7621",
"7 c #567922",
"8 c #5D7A22",
"9 c #5A7129",
"0 c #5B7A2A",
"q c #637624",
"w c #647C22",
"e c #6B7E23",
"r c #647E28",
"t c #6E7E2A",
"y c #717D21",
"u c #66811D",
"i c #6C821E",
"p c #718317",
"a c #73831D",
"s c #748B1E",
"d c #798A1E",
"f c #5F8122",
"g c #668124",
"h c #6C8324",
"j c #6E8923",
"k c #6D852A",
"l c #6F892B",
"z c #738523",
"x c #798723",
"c c #758925",
"v c #7C8C25",
"b c #73852A",
"n c #798629",
"m c #748A2A",
"M c #7C8D2A",
"N c #739026",
"B c #7E9126",
"V c #75912B",
"C c #7E912B",
"Z c #788734",
"A c #738C30",
"S c #7D8B32",
"D c #7C8B38",
"F c #7D9230",
"G c #848E1E",
"H c #83921D",
"J c #818E25",
"K c #818E2A",
"L c #829126",
"P c #81912B",
"I c #88952B",
"U c #83982F",
"Y c #818E31",
"T c #839332",
"R c #8A9132",
/* pixels */
"+q36ehbbezz2aavvvvvGJvJLdvvna1avvvipvMvPvvdvvvJvCzbmkgw=*;6+",
"3q*6-*,1zmMMMvJvJvvvvvvvLLPMzazCPMd1zMCPvLJJvJLBcige6q<#-,q5",
"60*=* $<zvPPPKKvLLvJJPJvLLPPvscPPCvzpvMPPLJvJPJLahg,#*%#**=&",
"66&==-%i1zvzzvKKvJvvJMJKdJPMzacPCPPvazMvLvvvvvvJccz*o%<=*-=&",
"&7==fjhjasza2xMTvvPJvvvKvvKMvazPMCPvacCCvvvvvJKPMmhw-&$%%&&O",
"&7&#ulbzcBvcyzMKKPKvxzxJLvKTnicPPCCvdvPCMJKMPPKPVxhht8*-%%<*",
"86=$<bzKBPPvzzMYPvvzdxvMLvKTviaCPCvacMCCKKPPKKMvMzerkkggzbbk",
"r68-<zyRBCvx22nTvx2axvKMLvMCviaBMPzdPPBvMKKKMvxxzz$&8kljhzht",
"hwoo%iMYGJvntbzhgklgmPnnLvPMzzxdCsdLLLdBMPPzcbtkc<66qwddvMvh",
"be;<ihMKJJMy,;<cbhjhcz22LvCCz2dvCadPLPvBKCPzi1&eu%-6=ezBvPPn",
"nbhizbKKLvne*X*ge-<hmh1xLBMna1dvCsvPJvcvKMvdu:o*%*-5*qVPvJPn",
"SMhhzzKKCMbh,$&&*o%-jczMLBMz1avvCanPKviiKMMxi;*-%*&&=kMvJPKK",
"STchisJJPMczgg8&***%wczYLPKzznPBciMKMvauxKPcihhw-=6=-gmvvJMM",
"nPCmcvLJKCMsajg8$,*#%bcMvPMzxMPLmivMKCcjzMMvzbmq**f-#<bbdcbm",
"zPTCvBLJKKJdccjh$**X%jbMLvzzMPvPMhznnSmh2vvCcjmqO*67#-<eigbm",
"zMMMcBLJKJJJLchh**-#*ihcvd2cTCvPVhe2zmh1zvCPcgk,0&#=%#*;$%wk",
"tbCPvJJJJJJJJvvd6*66%,cphhhcvPJJPvdd22pJnyMTcjp1$*6q9666&&#*",
"wjnvvJJJJILLPvva8=6=*gcakhjcCPJJKvvvvxvPnzmmcihp**-66q--86-*",
"ehcBJLMKJvvPPMvi8-&&-<zdlmcmvKJvvJLKvPPPM211ihbzw*O*q6**-*OO",
"yzcPPvvxaacnCMb1-67&,izJmvMBPKvGvKPvvJJvnh;%<gmmk,*66&=%qqww",
"ezcMCvhhazhzmmhw-**=whvPPMvCCKvvvPPvvPJnSb%X%<hkgq=q8*<hhhzt",
"znMPCcmhzeejkh<,**=8gbJLLCJKvLMPvJJvvvJKCcu##*-q=-666-uVvzbb",
"nTTciackewwwe6--,&-khbLLJJJvJCPCJMKJJvvvmmg=#&=3*666*%hNLJKY",
"nTM> %<q$oo*-*=6q$wkhcvJvJJJvvCPMvJKvapdhcu--&*6-6q*--icGJYY",
"YTx,*=74=7==#=*#%%=glmmzvKPKvvKPKKMKPYz>bbh,*=60=-=*$%-gjcFM",
"bbh%$*&&7867--*#=$f%f,1zxvKPPMMMKKvzzvzabk,*-66&*=*-=,-,izMz",
"qqw<:<rq&&*-6&&6-*=##.>zxvvLPPJvMvva1pzzw-**686&6**5-8*#*eny",
"&-<1zczz,*O=-&=6*-==%<hzvLvLLvLPMPMczzzh-*#=-*&-=*O*665&$-tz",
"O-whcvd1heewq-*-**-**<hbPPCCvvCBCPPTTVci-----#*%,***-666**wt",
"q<hcvMxxzzbmkw*$*6=##*evvMMCCvvcvMPPTCChg-&-w<<*1gg<*O&5*&wt",
"eyzzPTPKdxvvch<**6*&&-ebhzbnnzezdcvVvcz1qO#wkbezvzjhg6==*-kb",
"nzzzvMMMLIPMcjg<6=66gmbyeebyeeezicvccu:.-*,ennzzaahjlkggghmh",
"DTPBMSMvJMPUFmj%7=&hlg*&&&&8-#&qlkkgjk<;;1hnb>>bj%$%gmmizdzD",
"ZSBvKYvJzdcMmmh,@6rg<*&#&&-8=o*;hkw%,bzhbncb<o<nh<#$;hcczvKS",
"bcdBTKvJvpzMmch1#8h<o$=-&6&-=**-<<,X;jhhhjkw$#<jw-=%-<sNBLBz",
"tzpdTMvJMzzvCvhi8hh>:1hr--=&%q<-,***eg%$=-*##*-w0**qeiaBLLvy",
"tepdPMvLFvcnPvcvnbzzbkkl6-**,hh-8#*-lk*X##$&*=##-=5rljNBBsvy",
"tzsdTKvdMcavCBvvMKvKvjkk-=&%gljw*=#*hAhg**--*%----&8kjcvvpvM",
"tnBBMSxdhz1zJJvJKJPJvihkq*#-klh,#-&#-hgkw-***--8%=&&8w<gapKD",
"ZSLBPMz2icadJJJJJLLJvzkk<*#,hmg%&-88-&owkwO*--*&#%*&&&o$zpMb",
"nMBCN16wf#-kbzaxCVCCmhhbbbzzcCi$=--=*q,*lr--&gb1,*$qg<ugzPxe",
"ymcju#&6###qrzzvzzhhehtkkh1avCi$=6,=&O*6lq6&&gmh$o$1jjjmPIn1",
"ybcu= &8%<**6fgg1<;%%%*;8*;gmVg#$*<he*,hg-=7&gmmgegbbhhjMKMb",
"kZg==%8kjhw-&587$%*<*$oo&X$1mmkr$<hmbiez<-&&&gkhzbzMMccCaaMZ",
"hh&X#-kmvzew65@4*o,kmhw<rq-ijmllacji1zzzg<**&wgiynKKPMKPvpvt",
"he$X%emCvxhrw6#=**qjlkuukmmMvcjhvmvcvKMxvzg<-izxKKKPKKvvTvze",
"zcwwhcPPBMnbgw<%-**-wg<%znMPPPc1cvvPPPKJvMnbaaGJKKKPJJJJTJde",
"1nzbmvJGBCMzzvcu*qO %gh%ezapvPvsBvvvJJnJJPKMJJJJJKIJJJJJMJzy",
"nKKPKJKRJJLKJxzam1<ihZb;r68hlCBBvzvKKKPvJvJLvvvJBscMPCMvvbzb",
"STvJKJKxvJIJKKxzhhhbbje;k6*ijcLBz2xPPvvJLvvLLvvLssczbbcnahST",
"mzpdJJx2zJKvKPMizmMmz,*<k,;ecvBBKzaJPPvvJvvJJvLLpjjg,<hbeemD",
"haidPJK2zcmvnnv2CPMme$owb;;cPCJBRnzzvPPvPPvJvJLPjjhg,&*gjkmb",
"hccCUCCzkheghzccPPMMb;&eh;<mMMMKTMCnzvCPKKJvvKMJVmhrqX&*u<hr",
"-hhVVcmhg-*<11zTBvMVmw-8w$-ehzbAnzMMvzcvvKPMvvKvTnjte-$$##=O",
"#=*<g1hq6&&%<<cTvdvCmr--6&=-**hbmizMCMvzxMPMMMJPPKnntk<%=*6O",
"56#*<*q==&&**1cPLJBCi,=&==66o*rkzzzmMTCc2vPKvJPPJIMnzmj%#&6&",
"905=-#56&=7-&1ciLBBc1#59$;,*#-&gzMTPpdnVivMPBvLvJJPKaebm0*56",
"56&&-#**=-=&o1csLBCc:$-qggh,,,#wkmPPsdzi>dvvvLvJJxKJdhjb<%*O",
"O6&<huqo=-=o;1aJKvBBp1ehbjj<<w$<bbMKvdciacvvvvBvGvJMzze<<%,&",
"*q;hmcbw&q,qezxKKvLLdscnMnzzzcghc1zKPCCcvMCBvvvvJvMPxh1%$o99"
};
