/* XPM */
static char *result[] = {
/* columns rows colors chars-per-pixel */
"60 60 42 1 ",
"  c #727E86",
". c #758187",
"X c #768288",
"o c #7A8589",
"O c #7E898B",
"+ c #818C8C",
"@ c #8B958F",
"# c #8B9590",
"$ c #8F9890",
"% c #949D93",
"& c #96A095",
"* c #9BA397",
"= c #9EA698",
"- c #A0A697",
"; c #A4AC99",
": c #A8AF9B",
"> c #ABB29C",
", c #B1B79F",
"< c #B6BB9F",
"1 c #B5BCA1",
"2 c #B9BFA2",
"3 c #BDC3A4",
"4 c #C1C6A5",
"5 c #C5CAA6",
"6 c #C9CDA7",
"7 c #C7CBA8",
"8 c #CACEA9",
"9 c #CDD1AA",
"0 c #D2D5AB",
"q c #D7DAAE",
"w c #DBDCAE",
"e c #DCDEB0",
"r c #DFE1B2",
"t c #E2E4B2",
"y c #E6E8B3",
"u c #EBEBB5",
"i c #F0EFB7",
"p c #F1F1B7",
"a c #F4F3B9",
"s c #F9F7BA",
"d c #FBF9BB",
"f c None",
/* pixels */
"ffffffffffffffffffffffffffffffffffffffffffffffffffffffffffff",
"ffffffffffffffffffffffffffffffffffffffffffffffffffffffffffff",
"ffffffffffffffffffffffffffffffffffffffffffffffffffffffffffff",
"ffffffffffffffffffffffffffffffffffffffffffffffffffffffffffff",
"ffffffffffffffffffffffffffffffffffffffffffffffffffffffffffff",
"ffffffffffffffffffffffffffffffffffffffffffffffffffffffffffff",
"ffffffffffffffffffffffffffffffffffffffffffffffffffffffffffff",
"ffffffffffffffffffffffffffffffffffffffffffffffffffffffffffff",
"ffffffffffffffffffffffffffffffffffffffffffffffffffffffffffff",
"ffffffffffffffffffffffffffffffffffffffffffffffffffffffffffff",
"ffffffffffffffffffffffffffffffffffffffffffffffffffffffffffff",
"ffffffffffffffffffffffffffffffffffffffffffffffffffffffffffff",
"fffffffffffffffffffffffffffffffffffffasspy6fffffffffffffffff",
"fffffffffffffffffffffffffffffffffffffaauw03+ffffffffffffffff",
"fffffffffffffffffffffffffffffffffffffsu0337,>fffffffffffffff",
"fffffffffffffffffffffffffffffffffffffaq2<7wyttt9ffffffffffff",
"fffffffffffffffffffffffffffffffffffffu6136qew85544ffffffffff",
"ffffffffffffffffffffffffffffffffffffsy423774444777ffffffffff",
"ffffffffffffffffffffffffffffffffffffae334767445431ffffffffff",
"fffffffffffffffffffffffffffffffffffdu7248742>%%%%#ffffffffff",
"ffffffffffffffffffffffffffffffffffdae6474:%$+o oooffffffffff",
"fffffffffffffffffffffffffffffffffdu0865>$O oXOoOffffffffffff",
"ffffffffffffffffffffffffffffffffdu9357>+  ffffffffffffffffff",
"fffffffffffffffffffffffffffffffpr8348;+.Xfffffffffffffffffff",
"ffffffffffffffffffffffffffffffu03378;OXoffffffffffffffffffff",
"fffffffffffffffffffffffffffffu91367-OXffffffffffffffffffffff",
"ffffffffffffffffffffffffffffu93387;OXfffffffffffffffffffffff",
"fffffffffffffffffffffffffffu63367=OXffffffffffffffffffffffff",
"ffffffffffffffffffffffffffu62494=OXfffffffffffffffffffffffff",
"fffffffffffffffffffffffffy72464*oXffffffffffffffffffffffffff",
"ffffffffffffffffffffffffy72494*oXfffffffffffffffffffffffffff",
"fffffffffffffffffffffffy52493*oXffffffffffffffffffffffffffff",
"fffffffffffffffffffffft51393%oofffffffffffffffffffffffffffff",
"fffffffffffffffffffffy41593&Xoffffffffffffffffffffffffffffff",
"ffffffffffffffffffffi61393%oXfffffffffffffffffffffffffffffff",
"ffffffffffffffffffdpe3394%XXffffffffffffffffffffffffffffffff",
"fffffffffffffffpput93399>OXfffffffffffffffffffffffffffffffff",
"fffffffffffffat999423891#Xffffffffffffffffffffffffffffffffff",
"ffffffffffffat41113358,#offfffffffffffffffffffffffffffffffff",
"ffffffffffpie721333583$.ffffffffffffffffffffffffffffffffffff",
"ffffffffffq07338944782#.ffffffffffffffffffffffffffffffffffff",
"ffffffffff33314ye4386>Ooffffffffffffffffffffffffffffffffffff",
"ffffffffff%=%$2ue3793$offfffffffffffffffffffffffffffffffffff",
"ffffffffffff X1t0487-Oofffffffffffffffffffffffffffffffffffff",
"ffffffffffffff=9094=OoOfffffffffffffffffffffffffffffffffffff",
"fffffffffffffff;42=OXo+fffffffffffffffffffffffffffffffffffff",
"ffffffffffffffff%%+oOOffffffffffffffffffffffffffffffffffffff",
"fffffffffffffffffooOOfffffffffffffffffffffffffffffffffffffff",
"ffffffffffffffffffffffffffffffffffffffffffffffffffffffffffff",
"ffffffffffffffffffffffffffffffffffffffffffffffffffffffffffff",
"ffffffffffffffffffffffffffffffffffffffffffffffffffffffffffff",
"ffffffffffffffffffffffffffffffffffffffffffffffffffffffffffff",
"ffffffffffffffffffffffffffffffffffffffffffffffffffffffffffff",
"ffffffffffffffffffffffffffffffffffffffffffffffffffffffffffff",
"ffffffffffffffffffffffffffffffffffffffffffffffffffffffffffff",
"ffffffffffffffffffffffffffffffffffffffffffffffffffffffffffff",
"ffffffffffffffffffffffffffffffffffffffffffffffffffffffffffff",
"ffffffffffffffffffffffffffffffffffffffffffffffffffffffffffff",
"ffffffffffffffffffffffffffffffffffffffffffffffffffffffffffff",
"ffffffffffffffffffffffffffffffffffffffffffffffffffffffffffff"
};
