/* XPM */
static char *bone11678271278[] = {
/* columns rows colors chars-per-pixel */
"60 60 217 2 ",
"   c #784304",
".  c #7C490F",
"X  c #7A4712",
"o  c #814D10",
"O  c #855319",
"+  c #87521A",
"@  c #8D591D",
"#  c #97621C",
"$  c #8A5527",
"%  c #8E5D22",
"&  c #915E23",
"*  c #945D2C",
"=  c #946126",
"-  c #986226",
";  c #94622B",
":  c #9B652B",
">  c #9D6A2D",
",  c #986334",
"<  c #9E6C33",
"1  c #9F7237",
"2  c #9F7039",
"3  c #A26B2C",
"4  c #A56B2D",
"5  c #AA752F",
"6  c #A36D32",
"7  c #A76F34",
"8  c #A47235",
"9  c #AA7535",
"0  c #A6743A",
"q  c #AA763B",
"w  c #AA7A38",
"e  c #AC7A3C",
"r  c #B57734",
"t  c #B37C35",
"y  c #B37D3D",
"u  c #B97E3D",
"i  c #996E43",
"p  c #A77542",
"a  c #AA7641",
"s  c #AD7B41",
"d  c #AE7C4B",
"f  c #B47E41",
"g  c #B37946",
"h  c #BA7E42",
"j  c #A27E53",
"k  c #837F77",
"l  c #7E817E",
"z  c #AB813E",
"x  c #B5813E",
"c  c #BA823E",
"v  c #BD8B3D",
"b  c #9F8159",
"n  c #AD8242",
"m  c #AC8647",
"M  c #B68143",
"N  c #BA8444",
"B  c #B48B45",
"V  c #BE8946",
"C  c #B58449",
"Z  c #BC8649",
"A  c #B58C4A",
"S  c #BE894B",
"D  c #A28156",
"F  c #AD8653",
"G  c #A4855B",
"H  c #A8875E",
"J  c #AC895E",
"K  c #BD8C52",
"L  c #B98B57",
"P  c #B28B5B",
"I  c #BE9251",
"U  c #BC955F",
"Y  c #9B8569",
"T  c #858176",
"R  c #898275",
"E  c #84827A",
"W  c #8A8579",
"Q  c #948874",
"!  c #9C957E",
"~  c #A78963",
"^  c #B38C61",
"/  c #B68F70",
"(  c #AC9871",
")  c #C28544",
"_  c #C18943",
"`  c #C1864A",
"'  c #C28B4D",
"]  c #C88C4C",
"[  c #C4924E",
"{  c #CE964B",
"}  c #C38D51",
"|  c #C88C56",
" . c #C38E5C",
".. c #C59253",
"X. c #CA9455",
"o. c #CC9B56",
"O. c #C5945B",
"+. c #CB965A",
"@. c #C59A5D",
"#. c #CC9A5C",
"$. c #D49C54",
"%. c #D1965A",
"&. c #D39C5C",
"*. c #D89E5E",
"=. c #C7A05D",
"-. c #D5A15E",
";. c #DBA35D",
":. c #D8A95D",
">. c #C38E64",
",. c #C39561",
"<. c #C59B64",
"1. c #CB9C63",
"2. c #C2906D",
"3. c #CC9D69",
"4. c #D29E62",
"5. c #DA9F63",
"6. c #D49F6D",
"7. c #CDA364",
"8. c #CEA26A",
"9. c #CEAA6F",
"0. c #D4A264",
"q. c #DBA465",
"w. c #D4AA66",
"e. c #DCA965",
"r. c #D4A56B",
"t. c #DBA66A",
"y. c #D4AA6B",
"u. c #DDA96B",
"i. c #DFB26E",
"p. c #C8AA75",
"a. c #D4A572",
"s. c #D8A473",
"d. c #DDAD71",
"f. c #D3B274",
"g. c #DBB57A",
"h. c #E0A667",
"j. c #E2AB66",
"k. c #E2A769",
"l. c #E2AB6C",
"z. c #E7B06A",
"x. c #EAB56D",
"c. c #E2AE73",
"v. c #E4B174",
"b. c #E9B474",
"n. c #E5B47A",
"m. c #EAB67A",
"M. c #E7B979",
"N. c #EBB97C",
"B. c #F3BC7C",
"V. c #747D84",
"C. c #7D8382",
"Z. c #768288",
"A. c #7B8589",
"S. c #7E898A",
"D. c #818683",
"F. c #858882",
"G. c #828C8C",
"H. c #8C948E",
"J. c #979787",
"K. c #8C9690",
"L. c #949D93",
"P. c #96A095",
"I. c #9BA396",
"U. c #9EA698",
"Y. c #ABA385",
"T. c #A4AC99",
"R. c #ABB29B",
"E. c #B5B99C",
"W. c #B5BCA1",
"Q. c #B9BFA2",
"!. c #C1B489",
"~. c #DDBD80",
"^. c #C5BE93",
"/. c #E7BA87",
"(. c #EDBD82",
"). c #F2BE82",
"_. c #BDC3A3",
"`. c #D9C38A",
"'. c #D9C78F",
"]. c #DCC98F",
"[. c #C6C299",
"{. c #DAC791",
"}. c #D6CC97",
"|. c #DDCA92",
" X c #EDC185",
".X c #E8C588",
"XX c #F4C284",
"oX c #F5C38B",
"OX c #E3CE91",
"+X c #F8C896",
"@X c #E2D195",
"#X c #E4D69C",
"$X c #EBD99A",
"%X c #FFD295",
"&X c #FFD59A",
"*X c #C2C6A4",
"=X c #C5CAA6",
"-X c #CBCCA5",
";X c #C7CBA8",
":X c #CACEA9",
">X c #D0CEA6",
",X c #CFD1A5",
"<X c #CDD1AA",
"1X c #D8D6A6",
"2X c #D3D6AB",
"3X c #DCDDAD",
"4X c #DCDEB0",
"5X c #F0DAA5",
"6X c #DFE1B2",
"7X c #E3E1AD",
"8X c #ECE6AB",
"9X c #F3EBAF",
"0X c #E5E6B3",
"qX c #E9E7B1",
"wX c #EBEBB5",
"eX c #F2ECB2",
"rX c #F5F4B9",
/* pixels */
"p.d >.4.+.O. .| S K S L | O.+...O. .K K K S K K K K K K K K K K g c.s.6.c.6.6.s.s.r.6.~./.+X&X>.s 1.O.I #.X.O.@.@.>.2./ ",
"U 2 h h g e g g s C h C C Z C S C f f s e q e g s s s e s s e e : #.4.| +.4.q.e.&.&.4.%.X.&.v.#., C A M M B Z C B N A F ",
"<.e Z Z y e f g y Z [ ' N N Z ` ' ' ' Z N N M Z N N N h N N N N 5 $.j.;.5.j.q.-.l.q.k.u.b.q.&.-.q M K M t h Z } v v ' A ",
"7.m ] ] V x N N x V [ ' Z N Z ' V ' ' ' ' N x y u h u N u h h N # v x.B.b.j.j.x.q.h.5.&.k.X.X.B.0 d Z N h N } | S ] } L ",
"@.y ] ] c z c u y N N N c y c N _ ' V _ ] ' c x u c N u u u N ) e * : 8 h X.X.4.z.x.;.$.{ ;.;.{ O Z N t N ` ] ` } h | C ",
"@.q ) ] V x c u N h c c c y N N ' ' h y ` ' c c u u u h y u u u ,.h g 7 , : , 3 r *.B.N.$.j.v.3 *  .S y N N ` ] S Z g m ",
"@.8 h ) c f N u h f f N N f h N [ | N f ' ' Z N N N N N N C N h g f N } X.1...K < , , a  .n. .X S X.B x M y h | M x x z ",
"@.0 h u y y N h h h ` } ` ` ` } ` ] ` N ` ` y g C f f f C M f f N N S ` ' ` ` ' +.K 0 % % % . 0 1.K x x x S V N n f V m ",
"@.e C x c x N M N t N ..V ' ..V N N u N ` ] ` N N N N x N c N h } ` ' } ' ' ' Z Z Z } X.] Z Z } N h M N Z } ] N n y N s ",
"@.q f x c V Z f u N N N ' ' M S h h f C N ' } } ` [ x x x N h N } S V S N C N f y f M Z Z Z Z V h C N ' ` Z S ..x N N n ",
"O.0 f N ` _ N C t N t N ' ' } C S K K K Z C K K X.x e Z t N y N ' V S Z f f f y M N y y M C M y y C y f Z Z Z y A S f C ",
"@.q N N ' ] ] C ` x y ` ' ' Z e q q q 0 8 < < 8 I [ S V M y N N ' ' } ' N Z Z N y N N y M c x M ' } S &.l.c.l.&.M V Z s ",
"@.e M N _ ] V C V t Z N S S e 4. X(./.N.M.y.O.C & K #.C } y ' t C N ' } =.OX9XeX8X7X^.G I V M M Z y ` t.c.q.t.v...e M n ",
"@.q f u N V Z M y e f ..S e #.(.M.n.n.M.XXoX%X%Xq O O...' N t M y f V S 9.8XrXwX3X<X_.Q P S t e ' N +.q.o.X.4.5.z.' s C ",
"@.q f y c N ` Z Z V Z O.n C N.y.#.&.0.@...+.w.d.+X; q O.N V e V f Z V S f.9XwX,X*X_.;XR.( f.7.L S C &.e.o.q.q.#.y.u.V C ",
"1.e N y N N ' ' S ' +.e C N.v.O.&.&.&.&.&.&.&.&.oXt.o A +.Z B t V S ..S f.8X3XQ.W.;X3X0X7X1X}.p.<.F +.b.k.t.q.u.z.e.6 K ",
"1.M V ' ] Z ' S ..K K q c.B.+.5.#.+.%.&.q.q.&.X.o.%Xd * 6.` S ` ' N x N f.7X;XW._.:X2X6X4X;X=X*X!.E.y Z o.q.t.b.4.4 y I ",
"7.M N ` ' V ' S K ..8 t.m.4.%.o.&.o.&.-.q.e.q.&.:.u.)., i | V ` N Z f ..@X7X=XW._.;X=X=X;X=X*X;X[.[.f q g f y Z 8 M X.n ",
"7.s N V _ N Z S K e | ).q.+.&.$.&.*.&.o.&.q.k.e.:.w.+X$ : #.V V ` ] [ f.8X2X_._.=X;X:X=X*X_.*X=XE.E.' ] .._ y q V Z Z w ",
"O.0 N ` ] N Z K C M ).u.X.&.&.&.e.e.q.&.4.q.e.q.:.N.0 $ } V V S N N @.$XwX:X_.=X:X=X*XQ.R.L.L.L.J.J.f N } Z f N N h y M ",
",.e } ] ] u f C e d.v.+.q.o.5.&.k.l.u.h.l.u.q.&.b.5.X p #.t t C y @.OXeX6X;X*X;X_.R.L.K.G.Z.Z.D.Q Q y N ' Z M N e h Z C ",
"a.C } Z N C f N 0.v.o.#.&.-.q.h.q.q.q.q.q.-.-.0.b.O * 4.c c y f =.@XqX2X;X<X=XR.K.A.E T W W W Y P L ..} } S N f V h Z A ",
"a.a C t h ` Z C  X0.#.-.] u.e.e.&.&.&.&.&.+.&.l.M . S 4.t v N 1.OXqX<X_.*X;XR.G.V.R ~ j J ~ P K } ' Z y y f M N e h ' A ",
"3.a N f _ ` 0 = v.u.e.-.e.q.l.&.#.&.e.l.-.&.&.z.  q 4.M V t #.|.3X<X_.*X;XR.S.V.W D f N ..S } ` ' N y Z ' ' ' ' Z Z V S ",
"6.f f M t ` ' . 5 B.;.k.k.*.l.5.u.XXO.C #./.y.X 4 X.V e C @.].,X_._.;X;XT.S.l Y j Z S V S S S ] S V } Z ' Z ' ' V ] ' A ",
"8.C ' V y N } 0 o u.XXx.q.b.B.c.X.= O @ = % % % | ' y y @.].-X_.Q.<X;XT.S.R b N f Z ' S } ' Z Z X.S ' ' } Z M f ' ) ` A ",
"3.C ..` u f N X.@ O f r.m.4.q *   > u.m.d.M > O.X.M M r.|.-XQ._.<X=XT.S.R G w M V ' } ' } Z f N S Z Z N N C M M x y f A ",
"1.e ' N N f f } K @ O O & & * 8 M.).m.n.oXM.O.C Z Z 7.|.-XQ.*X:X=XU.S.E G S Z x } S V ` ' Z y M N } ' Z N N V ` V N f n ",
"@.8 N c c y y x K @.+.s 8 d d.).B.h.l.0.1.b.t.8 ..7.{.=XQ.*X:X*XU.A.T H C e A N S Z M N Z N M N Z ..f y q e h N N y M m ",
"O.0 x c y u Z x e M f } Z Z n.c.&.-.e.#.w.u.Z e y.'.=X_.*X:X*XI.A.E ~ v.l.C B ..' Z f f N f f Z ' ' f } &.0.t.b.o.N M n ",
"+.q N x x c N M N t q ' h } b.q.&.&.X.&.u.V 6 r.'.=X_._.<X*XI.A.W G 4.i.v.S 0 X.' ' N f f M f f N ' f q.b.l.q.q.M.q...a ",
"7.w V c c N x x c u N _ 7 | B.q.&.&.e.b.M > y.'.=XE.*X<X_.I.A.W b O.N.@.0.y.e K M Z N f N Z Z N N } y X.4.%.+.o.@.e.n.7.",
"M.@.s } ) N t x x V N Z 4 = l.N.0.z.m.y 6 r.'.*XW.*X<X_.L.A.W ^ C ..e.o.*.c.K a V f y N M N ' ' ' ..t ..l.%.&.&.&.%.+.u.",
".X7.K C ' ' c c N ..Z ' X.> 8 5.@.V y M 7.{._.W.*X<X_.P.Z.W G Z e X.-.%.&.q.X.q V M x N N N ` V Z ' N N 5.q.%.4.q.5.&.7.",
"M.r.0.q N N x x y y N Z o.f & 3 > 8 A g.#X=XW._.-X*XL.Z.W ~ f s e w.q.;.5.q.t.s Z N c x Z V N x X.N } Z ' q.l.4.l.k.e.7.",
"n.7.v.N t y x B N t V V Z o.#.} w.`.$XwX6X_._.<X=XL.Z.E H ' Z y M l.e.h.q.q.c.a Z N M y N Z M t Z ` ..S y C t.l.t.q.l.w.",
"M.@.l.4.y y M M x Z y M S 1.~.{.@X8X6X<X_._.<X2XR.A.E j S S ` t A l.q.h.h.e.u.< N V N y x x y x f ..K f +.C C t.t.q.u.w.",
"M.[ &.l.' f B e w N S @.~.@X1X-X-X-X_._._.:X<XE.H.W G Z } S Z 9 K c.q.h.h.u.r.< V ' ` N M N N N Z C Z C v.t.f } v.l.q.w.",
"M.X.o.l.q.M C m c V g..X8X4X=XW.W._._._.*X;XR.H.W H N ' S f Z 7 I l.-.;.k.t.0.8 V M N N M M N N C s } C t.M.3.e 4.b.0.7.",
"i.{ ..&.c.q M n ` ' #X#X3X;XQ.W.W._._.;X<X_.L.C.Y C f ' N f Z 8 A t.#.$.;.5.4.0 Z t y N x y M t s ..K q r.).XXf e t.4.=.",
"m.O.m.m.3 6 S S } K ,X>X:X_.*X<X:X*X_.;X<X_.H.l H Z Z Z C y N ` % O.c.#.@.v.0.< N Z M N N c M M Z } ' f e y t > y ..e.=.",
"d.K ` h 3 V ' t } S E._._.E.*X0X6X*X_.:X<XR.G.Q P ' ' ' V V ' ] s ; 4.N.(.1.% 6 M x y f y y c N } S ' } y 7 8 C S ` &.7.",
"C < : q h X.V M ` N ! Y.L.L._.0X4X_.;X<X_.L.C.Y Z K ' S V ' ..[ #.q % < 6 @ > S y x Z N M t x Z Z V ' } ' Z Z ] S f e 8 ",
"t.K } +.] } Z ` [ M D G R D.E.4X2X*X:X;XI.A.C.b Z S ' N N Z N N C } S 0 7 N ' C M N V ' S N y M f Z V Z V } Z e y ' ..A ",
"@.C } S Z } ' Z V N M M F G ( ^.2X:X*XU.S.A.F.H S } Z N f N x y y f &.` Z +.f M M N Z } } Z Z N f y M } ' y e Z N } } A ",
"1.C S } ' Z y q x N N N y x C ( [._.U.S.Z.D.Y L }  .' Z N M x N f f y ..X.Z Z N N y g N ' S S V Z f Z ] ' N N ....' ' B ",
"r.q f ' ] h f S Z ' C g C Z S ^ J.L.G.A.G.Q L ' Z S ' Z N y Z V N Z N ` ] ' ' ` N f h L ' S } } S ' ` Z Z Z Z Z ' ` } A ",
"8.a f h Z ' ..K h N N } %.1.Z d ~ E A.F.Q P ' Z f f f N C t M ` ` ' ] ..' Z ` ' } S S } } } ' S S V ' } } V ' } S Z } A ",
"8.f r u h 3.6 ..1...0.c.v.d.d.1.Z Z ..S ' [ N V f N y f V ' Z Z [ ' Z N x V [ ' ` [ ] V M N V V V } ' N N } } ' f h ` A ",
"8.M ) ) S s C l.c.b.v.r.#.r.l.c.M.N e ..Z x ....S V f f N Z V ' ' } f f c x N V N N S M M x V ' ' } Z N N S V Z f N ] A ",
"<.C ) t } 2 ..l.] &.$.+.%.&.&.+.d...8 ' N x ] ` } } Z M f h Z } Z } ' V Z M c x y x N x y y N ` ' S Z C N Z Z C N h ' A ",
"3.C ) r } < K e.*.%.X.*.e.5.*.5.v.w.e } N N ' ` S } ] S N C M N ' S ' S e t V x N x y y x y N N Z N N N ` ' N y C h Z B ",
"1.9 u ) } < 0 B.X.*.h.l.h.q.l.l.u.M 8 ..M N ' V N Z } } Z N N C K ' ` } Z y N x N y x N M M Z S N f f S ' ' N f f u h n ",
",.9 r ) K m : o.b.b.z.0.%.4.e.&.e 8 0 S Z ' ' N f N ' ' Z N M f f #.| Z ] S M y Z C N N N N V ] f f N ' } S N f C h f e ",
"<.g c u C K < 3 q Z +.t.l.0.f : w I V M Z [ ` _ f N Z ' Z N N f S | f 0 f N Z Z V V N M t M N V N f f V ' Z Z V V N N n ",
",.q u t f C C h 2 < < e C 8 6 K O.Z M Z Z V ' V f f V } ' ' N f  .0 6 f f y ..o.] ' V y y y h h N f f Z S Z } X...` Z B ",
"@.0 N u h ) N Z ] X.] 4 3 N ..' ' ' } ' ] } ' ' N N ` ' ] V S S h < N.&X XU p i 0 N X.N c c u h N f g } N N t.n.k.' e } ",
"1.q f u N ' ' ' } Z h Z N K } S V V N N N V ] ' N h N Z S } I ..> X.M.X.w.XXy.t.1.e 8 M ..} y Z M Z N ' ' Z X.&.u.t.0 } ",
"O.< s e f Z C C g q q a s f C N t q 9 9 0 w e f q q q e s C C f 1 g...I #.o.t.c.).g.1.p 2 C K C q e w t C y q f } C ; C ",
"a.L 1.#.#.@.1.,. .O.+. .K O.3.1.1.,.O.O.O. .O. .O.O. .O.<.<.O.L P /.r.d.t.r.t.u.a.g.5X+Xa.,.L ,.1.,. .,.3.6.1.<.L d 1.1."
};
