/* XPM */
static char *clothes1678441534[] = {
/* columns rows colors chars-per-pixel */
"60 60 223 2 ",
"   c #1D0D15",
".  c #1D131D",
"X  c #2A120B",
"o  c #28120C",
"O  c #3A1605",
"+  c #33120F",
"@  c #3B1B0E",
"#  c #200E15",
"$  c #2D0E10",
"%  c #251012",
"&  c #2D1112",
"*  c #23131A",
"=  c #321311",
"-  c #361A13",
";  c #3A1A12",
":  c #351F1B",
">  c #3C1F1A",
",  c #3D200D",
"<  c #3E2013",
"1  c #3F261D",
"2  c #1C1523",
"3  c #231720",
"4  c #29242F",
"5  c #272533",
"6  c #282633",
"7  c #2A2937",
"8  c #401600",
"9  c #421C02",
"0  c #442005",
"q  c #4A2204",
"w  c #44230C",
"e  c #49270D",
"r  c #4B290F",
"t  c #432412",
"y  c #4B2B13",
"u  c #462818",
"i  c #542F13",
"p  c #532E1D",
"a  c #523216",
"s  c #54331B",
"d  c #5A3519",
"f  c #5A391D",
"g  c #613517",
"h  c #623618",
"j  c #633C1D",
"k  c #683B1B",
"l  c #442B21",
"z  c #453428",
"x  c #563320",
"c  c #5D3A23",
"v  c #583825",
"b  c #463932",
"n  c #463836",
"m  c #493F39",
"M  c #623D23",
"N  c #653E28",
"B  c #7C4913",
"V  c #4B413A",
"C  c #654224",
"Z  c #694425",
"A  c #6D4927",
"S  c #664229",
"D  c #6B462A",
"F  c #6D4929",
"G  c #734827",
"H  c #724D2C",
"J  c #794C2B",
"K  c #76512E",
"L  c #7B542E",
"P  c #7F582E",
"I  c #6C4C35",
"U  c #744E32",
"Y  c #755235",
"T  c #7C5532",
"R  c #7F5932",
"E  c #363847",
"W  c #3A3E4B",
"Q  c #4B3C43",
"!  c #3B404D",
"~  c #4D454A",
"^  c #484B59",
"/  c #47505A",
"(  c #49525B",
")  c #4D5364",
"_  c #814D10",
"`  c #88551A",
"'  c #97621C",
"]  c #81532D",
"[  c #82592E",
"{  c #915F25",
"}  c #835B32",
"|  c #8A5C34",
" . c #845838",
".. c #8B5F3C",
"X. c #956125",
"o. c #95622C",
"O. c #9B652B",
"+. c #9C692C",
"@. c #8B6334",
"#. c #8D613A",
"$. c #946634",
"%. c #956A35",
"&. c #9B6D35",
"*. c #9A6C39",
"=. c #9E7137",
"-. c #9E723A",
";. c #A26A2C",
":. c #A56B2D",
">. c #AA752F",
",. c #A46D31",
"<. c #A76F34",
"1. c #A47235",
"2. c #AB7635",
"3. c #A4753A",
"4. c #AA763B",
"5. c #A7793B",
"6. c #AD7A3C",
"7. c #B57936",
"8. c #B37D3D",
"9. c #B97E3D",
"0. c #875F43",
"q. c #8A6745",
"w. c #976944",
"e. c #987150",
"r. c #AA7641",
"t. c #A47C44",
"y. c #AC7B42",
"u. c #A87947",
"i. c #B47E42",
"p. c #B37946",
"a. c #BA7E42",
"s. c #AB813E",
"d. c #B5813E",
"f. c #BB813E",
"g. c #BD8B3D",
"h. c #AD8243",
"j. c #A98347",
"k. c #A9824B",
"l. c #B68143",
"z. c #BA8444",
"x. c #B48B45",
"c. c #BE8946",
"v. c #B58449",
"b. c #BC8649",
"n. c #B58C4A",
"m. c #BE894B",
"M. c #BE934D",
"N. c #AB8652",
"B. c #AD8954",
"V. c #BD8C52",
"C. c #B88A58",
"Z. c #BD9358",
"A. c #B68D68",
"S. c #C28544",
"D. c #C18845",
"F. c #C1864A",
"G. c #C28B4D",
"H. c #C88C4C",
"J. c #C4924E",
"K. c #CE964B",
"L. c #C38D51",
"P. c #C88C56",
"I. c #C38E5C",
"U. c #C59253",
"Y. c #CA9455",
"T. c #CB9B57",
"R. c #C4935B",
"E. c #CB965A",
"W. c #C59A5D",
"Q. c #CD9A5C",
"!. c #D59D54",
"~. c #D3985B",
"^. c #D39C5D",
"/. c #C7A05D",
"(. c #D5A15E",
"). c #DBA45C",
"_. c #C38E64",
"`. c #C39561",
"'. c #C59B64",
"]. c #CB9C63",
"[. c #C2906D",
"{. c #CC9D69",
"}. c #D39E61",
"|. c #DB9F63",
" X c #D49F6D",
".X c #CDA364",
"XX c #CEA16A",
"oX c #CDA96F",
"OX c #D4A264",
"+X c #DBA465",
"@X c #DCA965",
"#X c #D4A46C",
"$X c #DBA66B",
"%X c #D4AA69",
"&X c #DDAA6C",
"*X c #DFB26E",
"=X c #C7A371",
"-X c #D4A572",
";X c #D8A473",
":X c #DCAD71",
">X c #DEB379",
",X c #E1A767",
"<X c #E1A968",
"1X c #E2AB6C",
"2X c #E7B06A",
"3X c #EAB56D",
"4X c #E2AD72",
"5X c #E5B174",
"6X c #E9B475",
"7X c #E5B47B",
"8X c #EAB57A",
"9X c #E7B979",
"0X c #EBB97C",
"qX c #F3BC7A",
"wX c #E6BA86",
"eX c #EDBD82",
"rX c #F2BE82",
"tX c #EEC287",
"yX c #F4C284",
"uX c #F6C58D",
"iX c #F8CA97",
"pX c #FFD499",
"aX c #FFD5A4",
/* pixels */
"=Xp.I.}._.R.I.P.V.V.b.C.P.R.R.U.R.L.C.L.V.V.V.L.V.V.V.V.V.U.V.n.p.4X;X X4X X#X;X;X;X X7XwXiXaXR.t.].R.M./.U.W.R.W._.[.A.",
"A.-.a.z.a.6.p.p.y.l.v.a.v.b.b.b.v.v.6.p.6.4.4.p.y.y.y.4.y.y.6.r.O.Q.].P.E.}.+X+X^.Q.OXQ.Y.^.4X~.$.v.n.l.l.z.b.v.x.z.n.B.",
".X5.m.S.d.6.i.p.i.c.L.L.b.z.b.G.G.G.G.c.z.l.l.z.z.z.z.z.z.z.z.b.>.!.<X(.|.<X,X).1X+X&X@X6X+X^.|.r.p.V.z.8.i.b.L.g.g.H.n.",
".Xj.U.H.z.d.z.z.l.c.G.D.z.z.c.m.c.G.G.G.G.c.d.8.9.9.a.a.9.9.a.z.' g.3XqX3X<X<X2X+X,X|.~.,XY.Y.qX<.a.b.v.a.S.L.P.G.F.L.V.",
"W.8.F.H.g.d.d.9.8.z.z.g.f.8.f.z.G.D.D.c.H.H.f.f.9.z.f.a.9.a.S.z.4.X.O.2.b.E.E.}.2X3X).!.!.!.).K.` b.z.8.z.F.G.F.L.b.F.B.",
"W.2.H.H.z.d.z.9.z.a.f.f.z.8.d.z.H.G.9.8.c.G.z.i.9.9.9.9.9.8.9.9.E.v.p.<.O.O.{ +.7.(.6XqX!.<X1X;.{ I.D.8.c.9.F.P.m.z.a.k.",
"Z.3.S.S.d.8.f.a.a.i.a.z.z.a.a.b.J.U.z.i.D.G.b.a.z.z.z.z.z.z.z.a.p.p.b.L.I.].P.V.&.$.{ u.I.7XI.B G.I.x.d.z.8.z.G.v.8.d.s.",
"W.3.a.9.8.8.z.a.a.a.b.L.F.b.F.L.b.P.F.a.L.b.p.9.i.i.i.v.i.v.i.8.z.z.F.G.F.F.G.G.E.V.r.{ { { B 3.].G.d.d.d.c.F.z.l.i.x.h.",
"W.6.z.8.f.l.z.l.c.7.z.H.c.G.U.c.z.z.z.z.D.H.S.z.z.z.l.d.z.z.z.9.L.G.G.L.L.G.G.c.z.b.L.E.L.z.b.L.z.z.v.z.b.G.G.z.h.8.z.y.",
"W.4.i.z.f.z.z.l.9.z.z.z.G.G.l.m.a.9.p.a.b.G.L.P.c.Y.f.d.d.z.a.F.L.b.b.c.z.v.z.i.i.8.l.z.c.b.b.c.a.i.z.G.G.b.G.U.d.z.b.h.",
"R.4.i.z.c.D.c.v.8.z.8.z.J.G.U.l.m.V.V.V.b.v.n.L.U.l.6.x.8.z.8.z.G.c.m.b.i.i.i.8.z.l.8.8.i.z.i.8.i.z.8.i.b.b.b.8.n.G.i.l.",
"W.4.d.z.H.H.G.v.D.8.8.c.m.m.m.4.4.4.5.3.<.&.&.,.J.U.c.m.8.8.z.a.G.G.L.G.c.z.b.a.8.z.z.8.l.z.l.d.G.L.b.^.1X4X1X^.l.D.b.t.",
"].4.l.z.D.H.m.v.c.8.c.z.m.V.4.OXtXtX0X9X9X-XW.v.{ V.W.m.H.d.m.d.z.c.G.G.b.G.G.b.8.l.f.z.D.z.l.d.b.i.c.1X4X+X1X5XU.6.i.v.",
"W.4.i.9.z.c.b.l.8.6.d.U.b.6.].eX7X7X7XeXrXuXpXpX4.` U.U.m.z.8.d.8.i.b.b.b.m.G.b.z.d.d.l.J.c.d.8.b.z.E.+XE.Y.^.}.*XD.i.v.",
"W.4.i.8.f.z.D.b.z.c.b.R.i.v.9X$XQ.}.].Q.Y.T.OX4XiXo.5.U.c.z.6.g.i.v.b.b.l.b.G.z.d.d.8.8.H.G.z.l.G.z.^.@XE.+X+XQ.%X&Xm.v.",
"W.6.z.l.f.z.G.G.G.m.E.4.l.eX0.= t y = H E.Q.Q.~.uX#XB m.R.x.c.6.m.G.L.c.i.z.m.y.s ; t w + [ d.i.L.,.E.6X1X+X+X$X2X@X1.n.",
"{.l.b.H.H.c.G.c.U.m.V.4.1XrXU = s C M x D D U u.m.wXe.J A.u.y.y.r.r.3.r.#.S S M t t y ; +  .L.a.b.b.8.z.Q.|.@X6X}.,.i.M.",
".Xi.z.D.H.D.G.V.V.R.1.$X8X}. .; D @.} c ; - : I q.q.e.N N Y U Y U I I T v = + @ t a a t + ..P.a.b.c.i.4.8.i.i.b.1.a.Y.h.",
"XXy.z.c.D.z.c.b.V.y.P.rX|.P.T - L %.T D c D v 1 1 1 l = - u > > < 1 < 1 1 t y t w a A x = | P.b.8.z.G.L.U.b.6.4.c.F.z.5.",
"R.5.v.G.D.z.b.b.v.l.rX1XY.}.T ; P 3.@.R @.%.P f - @ + @ ; ; ; ; @ - - - < y r y a Z R c +  .G.b.b.i.8.b.L.D.l.z.l.a.8.h.",
"R.4.L.L.F.z.i.v.6.&X5XT.OX~.R ; L 5.*.%.%.=.%.R c e t y y y y y y y u y y y e y C R L x = #.G.b.G.z.i.z.G.b.l.z.6.a.b.v.",
"-Xv.L.c.z.z.i.b.OX5XT.Q.~.}. .= K s.k.j.j.5.%.%.P C C f a t t y y y e e y f C C H R R c = #.L.F.b.G.U.U.U.D.z.i.c.a.b.n.",
"#Xr.v.8.a.F.v.l.yXOXQ.OXL.@X .; G 5.j.B.N.t.%.-.%.L T H f y y a y a y y C H R K K K K s = | L.L.L.G.b.i.8.p.z.v.6.a.D.V.",
"{.r.a.9.b.G.4.X.5X&X@X^.+X|.0.; C %.-.k.N.N.t.-.%.%.} H C C C N C C C C S H @.%.} D f t - | L.b.H.i.i.c.L.G.c.G.z.b.z.M.",
"XXv.p.d.8.c.G.B 7.qX).,X<X^. .; c R %.5.k.N.N.t.-.=.@.L P @.} } @.R @.R @.P @.%.@.Z y @ = #.G.G.m.c.L.b.G.b.G.G.c.H.H.n.",
"{.v.G.c.9.z.G.<._ 1XyX3X+X6Xq.; C @.%.-.-.k.N.N.t.=.%.%.%.%.%.%.%.%.%.*.-.%.@.K T A a @ = | b.b.Y.m.L.G.L.z.l.i.c.S.c.V.",
"{.v.U.b.9.z.b.U.` ` y.OX8X}.N = u H @.@.@.*.j.k.j.t.t.t.-.=.-.=.-.3.=.%.@.%.R H C f y @ ; | i.i.m.b.b.z.b.v.l.l.d.8.a.n.",
"].6.H.c.z.8.i.L.V.` ` ` { { h = , a F K H @.=.&.-.N.N.N.-.%.=.=.%.=.%.T H H Y H s w 0 O = | 9.v.z.L.G.b.z.z.b.c.c.z.l.h.",
"W.3.z.z.f.8.8.d.U.R.W.y.1.p.0.+ O q a A K @.} L @.5.j.t.5.-.-.%.} } @.R A f f f a e 9 O + | a.b.c.U.z.6.4.4.z.c.z.8.z.j.",
"R.1.d.f.8.9.z.8.6.l.i.L.V.b.0.= < t , a A A D F L %.%.%.%.%.%.@.K A Z F C t w e e t t ; = [ a.z.G.G.p.H.^.|.@X4XT.z.8.h.",
"T.4.g.8.d.d.z.z.l.8.6.H.v.D.0.- Q ~ , 9 q r f K R R [ P P P R R K f a s a y 0 O 8 u ~ n & ] i.l.z.G.z.OX5X1X+X+X9X+XR.5.",
"].4.c.f.f.z.d.l.f.9.f.F.:.Y.q.= E ^ b u 1 , 0 i C j j f C C j C j a , 0 0 0 u z l n ^ Q M *.z.z.z.L.i.Y.^.~.E.E.W.&X5X.X",
"wXW.5.U.z.g.7.7.d.c.z.b.,.X...= 4 W ^ ( / l O 9 0 y y y y r y y y y e 0 8 9 b ( ( ^ E I 5.l.m.J.D.Y.4.Y.1X~.~.|.Q.E.Y.:X",
"tX.XV.z.G.H.z.f.z.U.z.L.Y.O.Z = * 7 ! ) ) ~ b b b V V V m V V m V V V m b b ~ ) ( E 4 K z.c.c.c.b.L.z.z.|.+XQ.}.+X|.^.OX",
"9XOXOX4.z.z.d.d.d.8.d.c.E.8.h = # 2 5 W ^ ^ / / / / / / / / / / / / / / ( ( ^ ^ E 4 . v y.z.z.i.Y.z.G.b.D.+X4X|.&X,X@X].",
">X.X5Xc.8.d.d.x.z.8.c.b.b.E.T =   2 2 7 W ~ ! ! ! W W W W W W ! W W W W ! W ! E 6 . 2 : x %.i.8.b.c.U.F.8.v.@X@X$X@X1X%X",
"9XW.1X}.8.8.d.l.f.z.i.i.z.D.T = * *   3 4 7 5 7 5 5 5 5 5 5 5 5 5 5 5 5 5 5 7 5 2   * & = [ 9.9.i.U.V.v.E.l.v.$X&X|.&X%X",
"9XU.^.&XG.i.l.h.8.z.6.G.Y.b.J = = = $ $ * 2 2 2 2 . 2 2 2 2 2 . 2 2 2 2 2 2 2 2 . % & = = | a.c.v.b.b.v.7X$Xi.L.5X4XOX%X",
"9XT.T.1X+Xl.b.h.d.c.b.U.b.J x & = = 9 @ X X o o o o o o o o o o o o o o o o o & - - + + = f J z.l.y.V.v.#X8X}.y.Q.6X+X.X",
"2XU.H.(.4X4.h.h.D.G.D.F.G.= & = $ - y r 0 9 0 0 0 0 0 0 0 0 0 , 0 0 0 0 0 0 9 0 r t + & = & + 8.h.U.V.r.OXyXtXi.6.&X^./.",
"7XE.8X8X;.,.m.c.L.V.L.m.V.= & = $ ; y y e d k h d g h h h g h h g g g g h k a r a r = $ + $ + l.b.L.L.8.6.i.7.;.6.Y.@X/.",
":XV.F.a.;.b.L.6.L.b.m.G.b.= & + + + t y y h G J J J J J J J J J J J J J J G d t t w = + = = + z.L.m.G.L.l.:.1.v.m.D.~..X",
"v.&.;.4.a.Y.b.z.G.z.z.G.H.+ + & $ + & t y a d H [ T L L T L L L L L T R G a p y < = = = & = = z.z.c.H.L.G.z.b.L.m.z.6.=.",
"$Xn.G.E.P.G.z.c.H.v.8.z.c.M M M M p $ ; t ; t s M c c c c c c c c c c c p t 9 t = = c S N M j v.i.b.b.c.c.L.z.8.i.G.L.n.",
"'.b.G.m.z.L.G.b.z.z.d.z.z.l.8.d.i.$.u & = & = = = = = = + = = = = = = = = & = & = p r.F.G.b.a.z.i.8.v.L.G.i.6.z.v.L.L.c.",
"].v.G.L.G.b.9.6.8.c.c.l.9.i.z.c.l.i.i.z.c.G.G.L.L.L.L.b.z.z.l.d.z.l.8.L.Y.z.b.z.z.i.i.b.G.G.m.m.z.i.z.L.G.l.b.Y.G.G.m.n.",
"#X4.i.F.L.a.i.m.b.G.b.p.z.b.b.L.z.i.i.i.b.G.G.G.b.c.b.b.z.8.z.b.b.z.z.G.L.G.L.b.b.v.v.b.L.b.L.G.m.G.c.b.b.b.b.z.m.F.U.n.",
"OX4.i.v.b.H.P.n.a.b.a.L.].Q.b.p.m.b.z.z.m.G.G.b.i.p.i.z.l.8.v.D.G.G.H.L.L.c.D.H.b.b.b.L.L.L.L.m.m.m.G.L.U.D.m.U.m.z.U.n.",
"XXl.7.7.a.{.1.L.].U.OX5X5X:X&X].z.m.U.m.G.J.c.c.i.v.9.i.m.G.b.b.G.G.z.z.l.z.U.G.b.H.G.z.l.z.c.m.m.L.D.z.b.L.L.G.i.a.H.n.",
"=Xy.S.S.D.y.v.1X4X6X4X#XE.#X4X1X9Xv.6.U.z.l.P.L.m.c.i.8.z.z.c.G.G.L.l.8.g.8.z.c.z.c.c.z.l.l.b.D.G.G.b.z.z.m.m.z.i.z.G.m.",
"{.v.S.7.L.-.U.1XY.~.~.~.~.~.~.E.5XU.1.M.z.d.H.G.L.U.b.i.i.i.b.G.b.P.G.c.c.d.d.d.d.d.z.l.d.8.z.D.L.m.b.v.b.c.b.z.l.z.G.m.",
"XXv.S.7.L.&.m.@X!.~.Y.^.@X+X(.+X5XOX4.U.z.z.D.c.D.L.L.m.b.l.z.b.G.m.m.G.8.8.c.d.z.8.8.d.8.8.z.c.z.b.z.z.b.m.z.i.v.a.b.x.",
"].2.9.S.L.&.4.qXY.^.<X2X,X+X,X1X&Xl.3.U.v.z.G.c.v.c.G.H.c.v.l.l.G.L.m.G.z.8.z.d.v.8.z.z.z.l.z.D.i.i.v.b.L.G.z.i.l.9.z.h.",
"R.>.9.S.L.k.O.E.5X8X3X^.E.OX@X}.4.1.2.m.z.H.D.c.i.z.G.L.b.z.z.l.a.Q.U.b.H.m.l.8.b.z.f.l.l.z.c.G.z.8.z.L.L.c.v.i.z.p.i.5.",
"'.p.9.7.v.V.&.;.4.b.E.$X1X+Xl.O.5.U.n.8.b.H.m.D.i.z.c.G.b.z.b.i.v.P.p.4.i.z.z.m.c.c.z.8.8.z.c.b.z.i.i.D.G.G.c.b.m.z.z.h.",
"`.4.9.9.i.v.v.f.<.&.&.5.l.1.1.V.U.n.l.m.b.b.G.b.i.i.m.L.G.F.z.6.E.3.,.i.i.8.U.E.H.G.c.8.8.8.a.i.z.8.8.b.b.b.G.Y.U.F.c.v.",
"W.4.z.9.f.S.c.b.P.Y.F.:.O.z.Y.D.L.F.L.P.H.L.L.L.z.z.b.G.H.c.b.m.p.,.eXpXtXV.t.w.4.b.Y.g.f.f.9.a.b.i.i.P.b.b.$X8X&XG.4.L.",
"].4.i.9.z.G.D.V.H.b.b.b.b.V.G.m.c.c.z.z.z.c.D.H.z.a.b.F.V.L.U.U.+.Y.9XU.%XyX-X%X'.6.,.i.L.L.9.b.i.z.z.G.G.z.U.~.&X$X4.G.",
"R.&.4.6.a.b.v.b.p.4.4.4.y.i.v.z.8.6.2.2.2.4.8.8.4.4.5.4.h.v.v.y.=.:XU.M.T.T.@X5XtX-X].r.-.v.n.C.4.6.2.6.z.i.4.y.V.v.o.v.",
"=XC.].].E.'.E.'.I.R.E.I.V.R.].].R.R.R.R.I.Z.R.R.R.R.I.R.R.{.R.V.A.wX#X>X$X#X$X$XoXwXaXiX;X`.Z.Z.].`.R.`.{. X].].V.v.W.]."
};
