/* XPM */
static char *meat1678441534[] = {
/* columns rows colors chars-per-pixel */
"60 60 248 2 ",
"   c #754613",
".  c #775227",
"X  c #E70B14",
"o  c #F80B13",
"O  c #F8141C",
"+  c #EE1D21",
"@  c #FB1B25",
"#  c #EA272B",
"$  c #F3262C",
"%  c #FB232C",
"&  c #FA2A2D",
"*  c #E22B31",
"=  c #F92732",
"-  c #FB2C33",
";  c #EA363B",
":  c #FA3335",
">  c #F43638",
",  c #FC343A",
"<  c #FA3B3D",
"1  c #814B0B",
"2  c #88551A",
"3  c #97621C",
"4  c #8C462A",
"5  c #915B28",
"6  c #925531",
"7  c #AC4C38",
"8  c #99652B",
"9  c #9B652C",
"0  c #8D653A",
"q  c #976737",
"w  c #9D6C34",
"e  c #9F7237",
"r  c #9E723B",
"t  c #A26B2C",
"y  c #AA752F",
"u  c #A56D33",
"i  c #A47236",
"p  c #AA7737",
"a  c #A6733A",
"s  c #A9763B",
"d  c #AC7A3D",
"f  c #B57936",
"g  c #B37D3D",
"h  c #B97E3D",
"j  c #FC403D",
"k  c #E33C40",
"l  c #F63C44",
"z  c #FC3D42",
"x  c #B84F42",
"c  c #996B45",
"v  c #956849",
"b  c #997248",
"n  c #9A7758",
"m  c #AC7B41",
"M  c #A77848",
"N  c #B47E42",
"B  c #B37946",
"V  c #BA7E42",
"C  c #AF6D51",
"Z  c #A47858",
"A  c #AB7E6C",
"S  c #CE534B",
"D  c #EA464B",
"F  c #FB4345",
"G  c #F54648",
"H  c #FB4549",
"J  c #FA4B4D",
"K  c #F74D53",
"L  c #FB4D52",
"P  c #F45353",
"I  c #FC5255",
"U  c #F65659",
"Y  c #FB565B",
"T  c #FC5A5B",
"R  c #C86858",
"E  c #FB635E",
"W  c #E65B61",
"Q  c #F45D63",
"!  c #FC5C62",
"~  c #D56B68",
"^  c #E96669",
"/  c #FD6365",
"(  c #FB656B",
")  c #F66868",
"_  c #FC6A6D",
"`  c #EA716F",
"'  c #FB746B",
"]  c #FC786D",
"[  c #F76C76",
"{  c #FC6C74",
"}  c #E9787A",
"|  c #FD7C74",
" . c #FC747B",
".. c #F8787A",
"X. c #AB823E",
"o. c #B5813E",
"O. c #BB813E",
"+. c #BD8B3D",
"@. c #AD8242",
"#. c #AD8842",
"$. c #B58143",
"%. c #BA8344",
"&. c #B48B45",
"*. c #BE8946",
"=. c #B58349",
"-. c #BC8549",
";. c #B58C4A",
":. c #BD894B",
">. c #AC8958",
",. c #BD8C52",
"<. c #B88B57",
"1. c #BD9358",
"2. c #99846A",
"3. c #A98867",
"4. c #B48866",
"5. c #B49174",
"6. c #C28543",
"7. c #C1864A",
"8. c #C78C4B",
"9. c #C28B4C",
"0. c #C6924D",
"q. c #C38D51",
"w. c #C58D59",
"e. c #C59253",
"r. c #CB9455",
"t. c #CB9B57",
"y. c #C4935C",
"u. c #CA955A",
"i. c #C59A5D",
"p. c #CD9A5B",
"a. c #D39A56",
"s. c #D29C5C",
"d. c #C7A05D",
"f. c #D8A35D",
"g. c #C69865",
"h. c #C59B64",
"j. c #CB9C64",
"k. c #D39E61",
"l. c #D59F6B",
"z. c #C78D72",
"x. c #FB8478",
"c. c #F88B7C",
"v. c #FC8B7C",
"b. c #CDA364",
"n. c #CDA26B",
"m. c #D4A264",
"M. c #DBA465",
"N. c #DBA66B",
"B. c #D7A868",
"V. c #D7AD6F",
"C. c #DDAA6B",
"Z. c #D8A772",
"A. c #DEB379",
"S. c #E1A867",
"D. c #E2AB6C",
"F. c #E9B36C",
"G. c #E2AD73",
"H. c #E5B173",
"J. c #EAB475",
"K. c #E5B47B",
"L. c #E9B77A",
"P. c #EBB97C",
"I. c #F3BC7A",
"U. c #CF7E81",
"Y. c #ED7B81",
"T. c #FB7C83",
"R. c #FA7A85",
"E. c #AF9985",
"W. c #AFA38B",
"Q. c #CA9E8E",
"!. c #F98688",
"~. c #FC848B",
"^. c #FC898E",
"/. c #FB9886",
"(. c #FE9D8A",
"). c #F48E93",
"_. c #FC8B93",
"`. c #FC8994",
"'. c #FC9195",
"]. c #F7969A",
"[. c #FC939B",
"{. c #FD999D",
"}. c #C4A89A",
"|. c #D3A290",
" X c #FCA48D",
".X c #EABC84",
"XX c #F0B78D",
"oX c #F8AB95",
"OX c #FDAC94",
"+X c #F5B59B",
"@X c #F8B79B",
"#X c #FAB59C",
"$X c #F799A2",
"%X c #FC9CA3",
"&X c #FD9FA9",
"*X c #CAB7A9",
"=X c #FDA2A5",
"-X c #FDA4AB",
";X c #FBABAB",
":X c #F9B7A7",
">X c #FEBDA2",
",X c #FEABB3",
"<X c #FBABB4",
"1X c #FCB2B5",
"2X c #F9B6B7",
"3X c #FDB4BB",
"4X c #FDBABD",
"5X c #EEC287",
"6X c #F4C385",
"7X c #F8CB98",
"8X c #FFD499",
"9X c #DBC5BA",
"0X c #F5C3A5",
"qX c #FDC2A6",
"wX c #FAC7AB",
"eX c #FDCCAE",
"rX c #F8D2AB",
"tX c #FEC8B7",
"yX c #FDD3B5",
"uX c #FCD7B8",
"iX c #FAE2BD",
"pX c #FBBBC2",
"aX c #FCBCC2",
"sX c #FDC3C5",
"dX c #F4C9C5",
"fX c #FECCC5",
"gX c #FEC4CA",
"hX c #FDCACC",
"jX c #E4D1C8",
"kX c #FFD3CC",
"lX c #FDD9C9",
"zX c #FECCD2",
"xX c #FED3D4",
"cX c #FEDBD3",
"vX c #FCD6D8",
"bX c #FFDCD9",
"nX c #FFE2C3",
"mX c #FFE9CC",
"MX c #FFE4DC",
"NX c #FFE9D8",
"BX c #FFF6DB",
"VX c #FFE6E0",
"CX c #FFECE3",
"ZX c #FFF4EA",
"AX c #FFF9EA",
"SX c #FFF6F2",
"DX c #FFFDF2",
"FX c #FFFFFD",
/* pixels */
"n.M w.k.h.y.w.w.:.,.:.:.w.y.y.w.u.w.,.,.,.,.:.,.,.,.,.,.w.,.,.,.B G.Z.l.G.l.l.Z.Z.l.l..XXX7XrXw.m j.y.1.t.e.e.i.h.y.5.4.",
"1.M V %.B d B B m =.=.=.=.-.-.-.=.$.N m d s s B m m d m d m d d 8 s.k.w.u.j.M.S.s.s.k.g.t.s.F.t.0 =.:.=.o.=.-.=.&.%.-.>.",
"h.M -.%.g d N V $.%.0.9.-.%.-.9.9.9.:.-.*.$.V *.%.%.%.%.V $.=.%.y a.D.f.k.S.S.a.G.M.N.S.F.M.s.M.s N :.=.d N :.,.+.+.:.;.",
"n.#.8.0.%.g %.V $.*.8.8.%.$.*.9.*.:.9.8.9.%.h o.V o.V h V h %.%.3 +.F.I.F.F.S.F.M.S.s.s.S.r.r.I.a V -.V V 6.q.r.9.8.q.<.",
"i.g 8.8.+.o.o.h h o.6.%.o.h o.$.9.6.*.*.8.8.O.o.h %.O.V O.h O.6.p 5 9 u -.w.u.k.F.F.f.a.a.a.f.0.2 -.%.g %.6.8.7.,.7.-.=.",
"i.p 6.8.%.$.%.h $.=.o.o.o.o.O.%.9.0.V g *.9.$.h h h h g h h h h g.V N a 8 t 5 w f s.J.P.f.S.F.t 5 w.-.h 6.%.7.w.:.-.V =.",
"i.a V 6.o.o.$.h V N V V %.V V -.0.e.%.V 9.q.%.$.%.%.%.%.%.$.%.=.B N -.q.u.u.w.:.u 5 9 B e.K.w.  ,.e.&.o.+.g V q.%.N $.X.",
"i.a V V h g %.V V V 7.q.9.7.7.q.-.q.7.V 7.-.V B =.N N =.V =.N g %.-.-.9.7.7.,.=.>.M 0 . . .   0 u.q.$.d o.*.7.%.@.$.%.@.",
"i.d =.o.O.o.$.=.6.f *.8.:.9.0.*.%.V V *.9.8.6.%.o.%.%.o.%.o.%.h A V M n A 3.W.}.*X*X*X9XjXvXjX}.2.b =.$.-.q.9.%.@.g %.m ",
"i.a $.o.o.%.*.N h %.*.$.9.9.$.:.V N g N %.9.q.e.6.r.$.o.o.%.%.c C U.%X,XpXgXSXFXFXFXFXFXDXDXDXFXFXSXW.N :.-.9.e.o.%.-.@.",
"y.a N %.6.9.*.%.g $.f %.q.9.0.$.,.,.e.,.-.=.:.,.r.&.d %.N b A ,XpX<X&X`.[.`.R.aXDXCXCXCXZXCXSXcXR.`.vX*XN :.-.d ;.*.N =.",
"i.d h %.8.q.9.=.6.h N *.:.:.-.d s s a a i w w i ,.0.:.r E.aXaX3X&XpX&X&X%X&X`.R.bXAXNXZXvXCXZX).R.`.R.,XQ.G.D.s.$.-.-.m ",
"j.d $.%.6.0.:.=.*.d %.%.:.,.d m.5X.XP..XP.V.i.=.5 <.n zXzX<XpXpXpXpXpX<X&X$X%X`.1XAXZXbX=XCX%XR.`.~.`.{ 3X3.D.J.e.o.%.@.",
"i.a N g %.*.-.$.g g h e.-.d p..XK.K.K.P.XX6X7X8Xm 2.vXpX,XgXzXpXzXaXpXpX,X&X&X%X&XVXFXpX1XgXR.[.`.`.R.[ %X|.s.s.V.*.g ;.",
"i.s N h o.%.*.-.%.:.-.y.@.-.P.N.p.s.f.i.e.t.N.Z.5.vX,XaXgXzXvXzXzXaXaXpXpX,X,X&X&XVXAX&XgX-X,XzX-X%X`. . .sX4.s.N.M.:.=.",
"i.d %.V O.6.9.:.:.:.t.d =.P.A.y.s.s.p.s.s.p.s.3.vX$XaXzXvXgXgXzXaXzXzXaXpX<X,X-X%XCXhX-XbX&X,XaX3X%X%X`. .pX5.C.F.B.i ;.",
"j.$.*.8.8.-.9.-.w.q.q.d G.I.s.s.s.t.t.s.M.M.Z bX3X2XsXzXzXvXzXdXpXxXzXzXpXpXpX%X&XCX&XzXhX&X<X-X,XgX,X`.~.-XQ.J.s.t o.,.",
"b.$.$.9.8.*.8.,.:.e.u S.L.k.s.a.p.s.s.s.M.w.dX3XpXpXsXhXzXzXzXzXvXzXpXaXpXpX<X[.aXvXpXvX&X,X,X<X,XpX,X`.T.%XcXM i V r.@.",
"n.m %.*.9.%.*.:.,.m e..Xl.r.s.s.s.f.s.s.s.}.gX,XaXsXsXzXhXgXgXzXxXzXaXpX&XpX&X%XVXgXbX<X].<X3X,X-X&X,X[.[ <XFX0 *.-.%.d ",
"y.a $.9.6.%.-.-.=.$..XD.r.s.s.s.M.M.M.s.3.xX-X4XsXaXaXzXhXhXhXgXaXzXpXpXpX<X%XpX3XhXhX&X<X&X,X,X-X-X=XT.).AXFXZ %.%.N @.",
"i.s q.q.8.$.V =.d C.J.t.M.a.f.s.D.D.D.b.dX;X,X3XaXdXaXzXgXhXdXgXaXpXgXzX,X-X3X4XsXkX<X3X<X-X].-X-X-X`.R.zXVXDX4.d %.-.=.",
"Z.$.q.*.%.$.N -.m.H.t.p.s.s.M.M.M.M.M.*XhX{.;X3XaXaXaXdXgXgXhXaX<XpXgXaX$X2XfXbXvX&X<X<X-X-X&X$X[.).R.bX3X{ cX5.*.V *.;.",
"l.m =.f V -.=.N 6Xm.p.m.0.D.M.N.s.s.E.xX'.=X-X1XpXaX2XpXgXaXpX<X3X2X$X%XxXMXZXbX&X<X-X-X<X,X,X-X).[ gXcX[ R.tX4.g V 7.;.",
"j.M -.N 6.9.a 8 J.C.B.p.M.M.D.a.p.2.4X^.[.%X=X;XpXpX<X2XaXpX2XpX3X$X;XbXZXZXZX,X-X<X&X<X,X,X&X%X..,XAX^.( `.mXZ %.-.7.;.",
"j.=.N N g 6.q.  y I.f.S.D.s.G.k.5.1X~.[.[.%X%X-X,X;X<X2X4XpX<X-X,XhXDXDXZXCXbX-X<X-X-X-X-X-X%XR.<XAX=X[ { {.mXb *.8.9.;.",
"l.=.9.*.h $.9.p 1 M.6XF.M.J.h.|.,XR.).$X=X=X%XoX].$X<X4X<X;XsXhXsXfX4X2XlXAXCX;X%X$X%X,X-X[.].fXNX{. .R.{ =XuX0 *.*.*.,.",
"j.=.e.-.h $.%.e.3 2 X.B.P.Z ;X%X`.%X].].%X=X{.).).=X2X,XaXxXkX;X[.{.[._._.gXDXlXR.`.%X[.[.4XMXkX`.T.R.( ~.yX+Xa o.h N ;.",
"j.m 9.*.$.h h w.1.2 2 . n ;X~.`.[.{.].).$X=X$X).).%X$X4XxX1X%X].%X-X-X%X%X`.fXDXdX&X).$XcXcX=XR.R.^.[ { :XuXz.-.*.$.N @.",
"y.p $.o.g g g $.w.i.M ~ _. .~.`.[.[.).%X=X-X-X%X[._.1XfX%X=X-X=X%X%X3X3X`.`.`.mXAXNXcXlX=XR...R.R.( [ ;XqXuXb -.$.g %.=.",
"y.p o.O.h O.$.$.g 0 }  ._ !.`.[._.).'.{.{.%X=X%X`.:XfX^.[.=X-X%X).%X-X-X%X[.R.1XCXMXBXkX..[ R.R.R.~.:X0X#X+Xw.H.t.%.N @.",
"i.d %.O.o.o.%.$.M  .! (  .~.).).!.[.-X{.[.{.{.'.].lX'.~._.{.%X{.).).`.[.-X[.R.[.mXMXMXcX4XtXsXtXfXtX0XoXyX5.M.M.P.M.1.X.",
"i.d *.o.+.%.o.a z.T !  .R.`.!.Y.).{.,X=X^.[.[.~.1X;XT.^.~.^.[.).[.'.~.^.`.`.R.~.lXNX:X .!.=XNXCXyX+XoX>XuXM u.u.t.M.K.b.",
".Xi.d q.*.%.f Q.] ; Q [ } } ` Y.[._.{.%X`.`.^._.=XT.`.~.T.~.T.!.`.^.^.!.R.!.[ !.NXdX( [ T.[ 4XwXoX+X#XuX4.p.s.k.s.a.r.C.",
"5Xb.,.=.9.9.b | $ P Q ) W ~ ~ Y.`.`.~.~.^.~.{ '.oX .^.^.x. .{ ..~.~.R...R.R.Q ..BX].T R. .~.>X+X+XqXnXZ l.M.a.k.M.l.s.b.",
"K.m.m.p %.r ' & F I ! { [ ~ ^ Y.^.~.R.T.T. . .:X!. .~.~.R.{ _ { [ ^ [ .... .U !.mX.._ R.! /.0X+XyXwXb -.8.M.G.k.C.D.S.j.",
"K.b.H.-.f C F & F K I ! [ W ^ ^ R.R. . . .Q {.:XQ T.T...T.) Q ( Q Q { { _ _ K ;XtXQ  .J J +XeXuX|.q e.9.g $.M.D.N.M.D.B.",
"L.d.D.s.s ` & : l H K ! U W R.Q ^ { { { ! ! tX!.!  . . .[ ) / ! T Q / ! ( Y U lX^.L F < (.nX+Xv m e.,.N u.$.=.N.C.M.D.B.",
"L.e.s.C.b (.% , l H H K ; / ! ! U / ( T L wXwXD _ { { ) ) _ / ! U ! ! ! ! l ..BX{ , T /  X5.q $.-.=.:.=.H.N.N q.G.D.B.b.",
"L.t.t.C.>.OXO : , F H l l I K ! P D l K ;XBX^ D _ ( Q Q ( ( ! U I T Y Y L l :XmX] E ] H 6 $.$.&.$.m q.=.B.L.k.N m.J.M.b.",
"C.0.r.f.C yX: O , < l l L l l l l ^ } >XmX| ; T / U Q / Q ! Y K P I I L - ..mXyXoXY < 0 $.o.o.g m w.,.m m.5X.X$.d N.s.i.",
"L.u.L.L.4 >X Xo O $ & : : & J v./.x.@XiX] - D U P U T U Y U I K J L F - _ uXyX+Xx.z 4 %.*.=.h $.-.q.9.N d h g 9 d r.C.d.",
"Z.,.7.V 6 v.7XOXP : j j P v.qXv.) c.+XT = G D D K Y I I I I J G H z = x.nXmX_ ) v.* h o.h g $.%.q.:.9.q.o.u p $.:.6.t.b.",
";.w 8 p s oX' I  X X XOX X Xx.x. Xv.j % F G ; G I H H L K J H < < % v.nXnXoXH ' _ 6 *.%.o.g h %.-.*.8.q.:.%.-.q.:.$.d i ",
"Z.:.q.r.w.3.eXJ J x.x.E x.v.v.v.j O & : l ; ; _ ! K L F H F j # + ' lXuX0XH / | x $.:.0.*.$.$.$.N -.*.*.*.q.-.d N 8.e.-.",
"i.-.q.*.%.M tXeXqX#XOX7Xv.J & O & : : : > ; j I H J F < < j # X | lXuXoXz , x.G s $.-.9.q.-.%.%.$.g N q.9.N g %.%.q.e.;.",
"j.=.:.q.9.V S (.0XOXwX Xo o & & & & : : # : : : : , , : & X # x.yXeXv.: @ ] x.4 %.N N *.9.9.:.:.%.N -.q.9.$.-.r.,.9.9.&.",
"n.m N q.8.V 6 / #X@X7X#XE o o O + @ O + $ & & & & O @ - F ) qXnXwXc.- , z (.6 7.-.%.=.-.-.,.q.q.9.:.*.-.-.-.-.%.:.7.q.;.",
"m.s N N 9.9.0.4 (.wXj J v.XXx.J j j j > : & & & : T v.OX:XeX/.' rX_ @ -  .n q.q.:.-.:.8.w.q.9.:.:.:.9.q.q.*.:.e.:.6.q.;.",
"j.N f f V j.i q.b eX/ @ - !.iX0XwX0X+X#XOXoXoX/.+XuXrXrX0XF @ z +X+XJ _ C *.0.9.*.q.8.-.$.%.-.9.*.9.-.$.*.9.e.9.h V 9.;.",
"n.=.6.6.9.m =.G.G.>.' z z = /.' U wX+X0XrXrX0XrX#X' l E +X| - z /.rXlX3.*.o.%.6.%.6.*.%.o.$.*.:.9.q.9.=.%.7.:.%.$.V 9.;.",
"g.=.6.f q.r e.D.e.s.M l L , J | $ E rXoX| c.+Xv./.- = @ T iXv., qXnXn *.*.$.&.o.o.o.o.$.o.g %.*.9.:.-.$.-.*.-.%.$.%.9.;.",
"n.=.6.f q.w :.M.s.a.a.B S J H | ' E  XG $ = E K _ OX( L * R 5.7 c b 9.9.d f *.o.$.h $.o.h g $.*.-.%.%.-.-.:.%.N =.V -.&.",
"j.p h 6.q.w a P.r.s.S.D.f.C 7 ) I /. XF H H L x.l C C c m %.$.$.9.q.9.q.$.g $.g %.$.$.%.%.$.$.9.$.N %.*.q.9.%.N $.h V @.",
"y.p h 6.,.=.8 s.J.J.F.M.a.M.S.<.6 4 v 7 7 7 6 c w %.7.9.7.%.$.$.V u.q.-.e.9.o.h %.%.$.$.$.%.6.9.$.N =.:.q.*.=.N =.V N d ",
"g.g h f %.<.w 8 s -.u.N.D.m.N 9 p q.-.$.-.8.-.7.N $.*.9.*.-.%.N -.w.g a =.%.%.*.*.*.%.o.g %.*.7.%.V $.-.9.9.*.-.:.%.%.@.",
"g.s h h @.=.*.O.i w w s =.i i ,.e.-.$.-.-.*.9.6.N N :.q.9.-.=.g e.a u N N g e.u.9.9.*.o.f g $.h %.g h -.-.-.9.r.e.7.-.&.",
"i.a $.h h 6.*.-.q.r.8.u 9 %.r.9.q.7.q.q.8.q.q.9.*.%.-.9.8.*.*.-.B u P.8X5X1.b b i -.e.6.O.O.h V -.N N w.-.-.N.L.D.9.p w.",
"j.a N h *.9.9.:.7.-.V 7.-.q.9.:.*.*.%.%.%.*.9.8.V %.-.-.:.,.e.y.w r.P.e.B.6XC.B.p.m i o.q.9.g -.h %.$.9.0.%.q.s.N.N.s 9.",
"1.w d f N -.=.=.V s s m m m N =.f p p y p p d N s a s s N =.=.m e V.e.1.p.t.B.H.5XA.j.M c =.<.;.p d p d =.N d g ,.=.9 =.",
"Z.<.j.j.u.j.i.g.w.y.y.w.,.g.j.j.g.h.y.y.w.y.y.w.y.y.y.y.h.j.y.,.4..XB.A.C.m.N.N.n..X7X7XA.1.<.1.g.g.y.y.j.l.j.g.<.=.y.j."
};
